<?xml version="1.0" encoding="UTF-8"?>
<svg id="Layer_1" data-name="Layer 1" xmlns="http://www.w3.org/2000/svg" viewBox="0 0 1980 1980">
  <g>
    <g>
      <path d="M518.8,765.87s-.15,.2-.15,.2c-37.5-47.5-75-95-112.5-142.5,3.73-3.9,7.45-7.8,11.18-11.71,44.83,38.22,89.62,76.5,134.54,114.61,10.63,9.02,21.74,17.47,32.59,26.17-.03-.01-.57,0-.57,0,7.77,23.43,15.54,46.86,27.16,81.91-20.24-13.06-33.03-20.17-44.51-28.98-16.41-12.58-31.86-26.41-47.73-39.7Z"/>
      <path d="M1394.91,712.58c1.34-10.97,2.67-21.93,4.01-32.9,33.39-46.77,66.79-93.54,100.18-140.31,23.09-17.4,46.19-34.8,69.28-52.2,2,1.75,4,3.49,6,5.24-23.23,36.39-46.47,72.77-69.7,109.16-30.55,35.84-61.1,71.67-91.64,107.51-5.31,1.59-10.61,3.18-15.9,4.79,.02,.01-2.23-1.29-2.23-1.29Z"/>
      <path d="M507.88,586.18c15.62,19.14,31.24,38.25,46.87,57.37,0,0-1.44-1.46-1.44-1.46,26.77,54.54,54.05,110.11,82.51,168.08-10.15-3.24-23.77-3.45-29.78-10.31-14.64-16.71-25.76-36.51-38.3-55.07,0,0,.54,.06,.57,.08"/>
      <path d="M657.79,809.45s1.55-.15,1.56-.14"/>
      <path d="M540.91,570.62c-1.65-1.69-3.3-3.38-4.94-5.07,1.46,1.88,3.11,3.57,4.94,5.07Z"/>
    </g>
    <g>
      <path d="M791.52,724.86c.03-.12,.06-.25,.09-.38,.02-.61,.03-1.21,.02-1.82-.03,.13-.06,.26-.09,.39-.02,.6-.02,1.2-.01,1.8Z"/>
      <path d="M814.16,764.62c-.66,.4-1.33,.79-2.02,1.15-16.95,8.8-39.16,5.68-51.84-9.18-5.39-6.31-9.78-13.75-11.27-22.02-1.62-9.04-1.55-18.47,1.63-27.21,2.96-8.16,7.23-16.65,14.09-22.25,3.99-3.25,8.15-6.19,13.04-7.77-23.7-61.86-93.35-71.26-120.99-126.73,0,52.21,3.89,101.1,15.97,147.87,8.88,34.37,29.09,62.19,64.98,81.39,42.2,22.57,78.16,56.79,119.94,88.31l-43.53-103.56Z"/>
    </g>
    <g>
      <path d="M1213.69,711.9c.03-.12,.06-.25,.09-.38,.02-.61,.03-1.21,.02-1.82-.03,.13-.06,.26-.09,.39-.02,.6-.02,1.2-.01,1.8Z"/>
      <path d="M1340.91,555.31c-35.69,27.39-71.05,54.39-106.16,81.72-2.74,2.14-3.88,6.5-5.43,9.98l-6.57,17.86c.49,.22,.97,.46,1.44,.7,8.02,1.74,16.2,6.91,21.38,13.1,4.31,5.16,6.93,9.65,9.29,15.95,1.72,4.6,2.37,9.72,2.55,14.58,.63,16.6-7.88,35.71-23.09,43.62-13.58,7.05-30.53,6.44-43.26-1.72l-43.7,118.88c38.86-32.51,73.31-61.49,107.94-90.24,16.12-13.38,36.45-23.56,48.22-39.96,40.43-56.37,42.13-121.74,37.38-184.46Z"/>
    </g>
    <path d="M638.45,204.36c6.08,44.55,8.12,90.13,19.16,133.42,17.82,69.92,36.05,140.77,65.05,206.39,15.26,34.53,53.73,58.79,81.72,87.69-76.67-125.74-133.74-266.86-165.93-427.51Z"/>
    <polygon points="933.78 1079.71 951.21 976.63 968.65 1079.71 933.78 1079.71 933.78 1079.71"/>
    <polygon points="1030.71 1079.71 1043.02 976.63 1055.32 1079.71 1030.71 1079.71 1030.71 1079.71"/>
    <polyline points="1552.8 600.53 1403.06 784.3 1478.87 631.87"/>
    <polyline points="1464.59 682.63 1419.46 850.41 1442.02 877.25 1484.65 805.52 1574.39 750.97 1563.81 668.91 1512.25 650.3"/>
    <path d="M1328.03,230.92c-6.08,44.55-8.12,90.13-19.16,133.42-17.82,69.92-36.05,140.77-65.05,206.39-15.26,34.53-53.73,58.79-81.72,87.69,76.67-125.74,133.74-266.86,165.93-427.51Z"/>
  </g>
  <g>
    <path d="M678.84,860.71s.07-.02,.13-.05h0c-.07,.02-.11,.04-.13,.05Z"/>
    <path d="M1398.92,679.68c16.19-31.7,32.77-63.22,48.35-95.21,5.41-11.1,8.36-23.4,12.43-35.16-4.7-2.98-13.83-7.75-13.46-8.67,7-17.27,13.66-34.97,23.28-50.83,30.32-49.97,55.35-101.57,59.79-161.05-14.18,18.19-24.86,37.96-36.18,57.35-32.84,56.28-66.12,112.31-98.61,168.79-3.13,5.44-5.25,15.89-2.29,19.73,26.19,33.88,3.54,57.76-13.42,85.21-19.69,31.88-34.42,66.79-52.36,99.81-6.73,12.39-14.48,25.57-25.13,34.26-38.99,31.82-79.06,62.35-119.37,92.5-32.92,24.62-35.94,56.65-24.94,92.37,18.75,60.89,16.27,121.38,3.23,175.68-27.79-23.66-55.4-47.17-83.55-71.15-4.77,62.7-9.55,125.53-14.19,186.63-18.39,2.8-38.67,5.9-59.89,9.13l-27.57-2.38c-16.79-31.09-21.56-63.09-30.33-93.95-7.51-26.44-19.59-51.58-29.64-77.29-20.13,19.61-40.21,39.27-60.49,58.71-1.59,1.52-4.62,1.54-16.94,5.3-3.62-27.09-11.2-52.98-9.59-78.29,3.12-49.31,12.95-98.18,16.55-147.48,1.04-14.21-6.09-32.6-15.83-43.29-22.79-25.03-45.76-54.63-75.18-68.01-93.92-42.71-104.3-144.03-158.82-213.78-2.25-2.87-2.96-9.77-1.08-12.61,22.76-34.46,.14-58.28-16.08-86.51l-119.54-188.68c20.83,49.04,37.85,100.23,63.86,146.35,16.56,29.36,22.11,54.92,11.54,85.4l.17-1.22-.65,3.09,2.97,1.09c1.46,1.87,3.1,3.57,4.94,5.07,2.29,2.64,3.38,4.85,5.67,7.49l.5,.89c3.81,24.35,3.12,50.35,6.93,74.7l11.86,193.33c-18.84-32.5-30.27-57.43-44.38-81.76-.06,.01-2.74,.6-2.8,.62-2.21,13.26-4.41,26.53-6.63,39.79-36.65-17.53-40.11-20.99-85.51-43.18,8.59,40.71,46.28,79.39,9.83,122.74l50.54,11.71c.86,7.28,.86,7.33,1.72,14.6-14.11,7.01-28.21,14.03-42.34,21.04q37.52,6.54,52.8,65.99c9.86,4.27,19.68,8.58,42.03,18.39-52.54,14.42-93.02,25.54-134.84,37.02l124.79,23.68c-18.16,44.09-34.68,84.18-47.25,114.69,20.37,9.42,37.19,17.2,51.79,23.95l-18.49,45.96c33.36-40.09,60.85-41.64,95.93-3.51,22.93,24.92,49.17,46.77,73.32,70.61,19.17,18.93,40.64,36.64,55.42,58.69l28.65,67.07c9.41,16.52,21.47,32.08,27.78,49.71,30.22,84.42,58.27,170.15,118.52,239.09,33.47,38.29,123.22,43.69,155.03,6.29,29.19-34.32,52.3-75.52,70.56-117,23.43-53.23,39.34-109.78,58.72-165.56l60.4-99.48c15.96-23.44,24.8-51.73,32.51-68.41,22.58-12.66,37.32-23.09,53.65-29.33l76.05-15.1,41.23-132.24c-2.35-16.15,7.91-34.13,12.49-51.4-3.31-.55-13.43-2.25-23.56-3.95,.28-3.76,.55-7.52,.83-11.28h90.56c-40.67-19.91-71.28-34.9-106-51.9,2.8-22.77,1.65-51.77,10.79-77.05,9.09-25.14,28.75-46.39,43.33-69.62,14.18-22.61,27.8-45.57,45.47-74.63m-387.51,469.65l-41.73,113.71-27.41-122.11c20.38-8.8,43.89-3.96,69.14,8.4Zm-230.21,.48l5.9,120.98-72.84-101.76c15.33-16.05,38.88-20.76,66.94-19.22Zm-129.5,129.47l32.07-28.86-19.82,40.74c-4.29-.08-8.87-4.72-12.24-11.88Zm23.44,33.77l43.6-12.94-21.37,43.09c-8.83-5.93-15.01-16.71-22.23-30.15Zm20.66,46.18l43.65-18.47-19.07,46.87c-9.59-4.99-16.89-15.24-24.58-28.4Zm20.66,46.18l43.7-24.01-16.77,50.65c-10.34-4.05-18.76-13.78-26.93-26.64Zm20.66,46.18l43.75-29.54-14.47,54.42c-11.1-3.1-20.63-12.31-29.27-24.88Zm76.76,66.48c-14.32,2.35-26.82-2.29-37.31-14.62,3.39-31.53,23.66-61.37,51.93-90.39l-14.62,105.01Zm9.57-316.8c11.01-3.42,24-.87,38.09,4.99l-20.69,48.56-17.41-53.56Zm26.7,319.49l12.5-51.29,25.9,50c-10.3,5.17-23.54,4.77-38.4,1.28Zm35.92-319.49c11.01-3.42,24-.87,38.09,4.99l-20.69,48.56-17.41-53.56Zm22.35,207.54c42.54,53.22,41.43,98.86,0,114.09m47.17-84.68l-14.47-54.42,43.75,29.54c-8.65,12.57-18.17,21.78-29.27,24.88Zm23.83-44.42l-17.6-50.65,43.7,24.01c-7.34,12.86-15.75,22.59-26.1,26.64Zm23.83-44.42l-20.73-46.87,43.65,18.47c-6.04,13.16-13.34,23.41-22.92,28.4Zm23.83-44.42l-23.85-43.09,43.6,12.94c-4.73,13.45-10.92,24.22-19.75,30.15Zm24.78-46.98l-22.31-40.74,34.55,28.86c-.89,7.16-5.47,11.8-12.24,11.88Z"/>
    <path d="M558.75,653.71c-.09-.55-.17-1.09-.26-1.64-.47,.16-.93,.3-1.35,.36,0,0,1.6,1.28,1.6,1.28Z"/>
    <path d="M678.84,860.71s-.02,0,0,0h0Z"/>
  </g>
  <polyline points="1480.49 629.97 1415.29 704.96 1439.41 716.61"/>
  <polyline points="522.74 767.46 574.94 805.2 570.24 860.66 521.29 768.73"/>
</svg>