<?xml version="1.0" encoding="UTF-8"?>
<svg id="Layer_1" data-name="Layer 1" xmlns="http://www.w3.org/2000/svg" viewBox="0 0 1980 1980">
  <path d="M661.33,1508.25c12.1,52.96,55.68,89.3,99.01,115.61,88.09,53.51,189.38,84.26,289.49,74.1,100.11-10.16,198.34-64.11,256.83-154.44"/>
  <path d="M1046.85,374.55c32.19,90.67,37.01,190.86,13.68,284.2-10.76,43.05-27.5,85.97-24.1,130.21,3.4,44.24,35.89,90.77,80.26,90.28-28.41-90-2.94-194.83,63.61-261.76,23.34-23.47,51-42.33,74.13-66.01s42.13-54.2,41.6-87.3c-6.83,83.28-91.02,136.52-129.08,210.91-26.8,52.38-29.25,116.61-6.52,170.88,22.73,54.27,70.21,97.59,126.34,115.25,15.51-29.1,31.02-58.21,46.52-87.31,15.95,36.8-3.24,78.22-17.79,115.59-14.55,37.37-21.79,86.47,9.25,111.86,20.95,17.13,54.4,18.05,68.74,41,12.88,20.61,2.85,47.92-11.14,67.8-13.98,19.88-32.25,38.25-36.96,62.1-7.04,35.62,18.16,68.6,29.6,103.05,22.25,67.03-15.77,148.17-81.51,173.97l-629.83-36.4c-81.59-118.88-104.33-271.97-62.75-412.06-10.69,81.23,12.95,166.81,63.32,229.24-22.15-31.27-27.95-74.66-14.88-111.19,12.88-35.97,41.44-62.79,60.97-95.25,29.76-49.45,37.48-110.86,32.19-169.18-5.29-58.32-22.64-114.57-39.88-170.26,21.78,22.59,27.64,56.75,32.35,88.59,4.71,31.85,10.41,65.99,32.01,88.78,21.59,22.78,64.81,24.59,78.21-4.37,13.02-28.14-9.24-59-19.17-88.51-20-59.41,21.35-132.66,80.35-142.37,80.82-131.65,92.29-286.87,119.25-446.2,23.22,81.72,30.55,84.14,33.93,128.1"/>
</svg>