<?xml version="1.0" encoding="UTF-8"?>
<svg id="Layer_1" data-name="Layer 1" xmlns="http://www.w3.org/2000/svg" viewBox="0 0 1980 1980">
  <g>
    <g>
      <polyline points="1450.89 1036.2 1478.12 876.65 1429.57 935.73"/>
      <path d="M1419.03,1125.65c1.35-4.23,59.09-92.04,59.09-92.04l-42.51,135.89"/>
      <polyline points="1464.32 782.92 1478.12 687.49 1413.62 776.99"/>
    </g>
    <g>
      <path d="M558.84,1474.37c5.8-.26,11.49,1.26,16.96,3.84,1.4,.66,2.01,1.62,1.44,3.17-.21,.56-.71,1.12-1.23,1.43-1.11,.68-2.37,1.14-3.48,1.82-3.31,2.01-3.11,5.42,.06,7.74,3.9,2.86,8.17,4.47,12.99,3.81,5.21-.71,10.36-1.79,15.55-2.63,1.42-.23,3.63,2.76,3.21,4.21-.36,1.24-.49,2.7-1.25,3.65-1.64,2.04-3.39,4.15-5.51,5.62-2.69,1.87-5.75,3.25-8.75,4.61-3.13,1.42-6.33,1.37-9.62,.15-12.39-4.56-20.95-13.52-28.03-24.19-3.19-4.81-3.87-9.14-1.9-10.87,2.44-2.14,4.31-2.63,9.57-2.38Z"/>
      <path d="M826.81,1471.23c.22-3.24,.16-6.62,.75-9.87,.61-3.38,2.33-6.77,5.91-7.41,7.3-1.3,14.02-3.87,20.47-7.37,1.31-.71,4.13,.88,4.82,2.66,.97,2.47,2.01,4.95,2.65,7.51,1.68,6.73-1.41,13.54-7.59,16.75-2.36,1.23-5.2,1.71-7.3,3.24-2.63,1.93-4.65,4.67-7.07,6.91-2.14,1.98-4.89,2.05-7.55,1.58-2.24-.39-4.54-3.49-4.7-5.93-.17-2.66-.26-5.32-.39-8.08Z"/>
      <path d="M1206.04,1313.48c6.85-.4,18.09-1.08,29.33-1.68,.54-.03,1.38,.52,1.64,1.02,.77,1.5,.24,2.52-1.31,2.89-.64,.15-1.27,.37-1.92,.47-11.83,1.88-23.31,5.06-34.59,9.09-6.23,2.23-12.54,4.36-19.4,3.56-2.89-.33-5.82-4.01-5.27-7.14,.86-4.95,4.81-8.94,9.19-9.05,3.31-.08,6.63,.1,9.95,.22,2.66,.09,5.31,.26,12.38,.61Z"/>
      <path d="M970.18,1490.2c11.33,6.33,15.65,17.24,18.77,28.88,.32,1.2-.14,2.61-.26,3.91-.31,3.3-4.14,6.32-6.99,5.27-4.31-1.6-8.52-3.46-12.72-5.28,.06-.07-.36,.42-.36,.42,2.06-1.54,4.18-3.02,6.18-4.64,2.16-1.76,3.17-4.27,2.45-6.86-2.05-7.43-4.41-14.77-6.66-22.15,0,0-.41,.46-.41,.46Z"/>
      <path d="M801.47,1445.91c-2.77,8.12-5.18,16.25-5.06,25.02,.04,3.15-1.42,6.35-2.38,9.46-.71,2.31-4.03,3.1-6.64,1.77-3.34-1.71-5.45-5.11-4.75-7.79,2.51-9.7,6.12-18.85,13.99-25.59,1.4-1.2,3.46-1.63,5.22-2.42l-.36-.46Z"/>
      <path d="M1012.27,575.28c5.47-10.62,8.57-22.04,11.14-33.61,2.73-12.27,4.72-24.64,4.13-37.3-.09-1.87,.68-3.78,1.13-6.02,.6,.97,1.25,1.53,1.25,2.09,.24,24-3.55,47.33-11.78,69.92-1.02,2.8-3.57,3.66-5.88,4.86v.07Z"/>
      <path d="M1033.8,1560.8c.25-.62,.56-1.22,.75-1.85,6.76-21.86,5.01-21.19,27.95-39.4,.76-.6,2.42-.08,3.64-.08-.17,.49-.19,1.27-.56,1.5-12.21,7.69-21.17,17.99-26.16,31.67-1.14,3.13-3.05,5.91-6.07,7.67,.03,.04,.44,.48,.44,.48Z"/>
      <path d="M1262.48,1256.28c-1.36,7.68-3.87,15.2-1.13,23.23,.7,2.06-.99,4.98-1.73,7.46-.13,.45-1,.83-1.59,.93-.48,.08-1.29-.14-1.51-.5-2.01-3.31-2.13-7.3-4.74-10.6-3.65-4.62-3.21-8.72,.06-12.31,3.11-3.41,6.28-6.8,11.11-7.78l-.47-.44Z"/>
      <path d="M1374.23,1295.93c-.15,1.9,.29,4.13-.56,5.65-2.84,5.1-6.94,9.62-9.08,14.96-3.54,8.87-10.2,11.02-18.6,10.86l-.37,.77c1.69-2.95,3.37-5.9,5.06-8.85,0,0-.07-.14-.07-.14,2.01,.67,3.89,.18,5.2-1.32,4.21-4.81,8.24-9.78,12.39-14.63,2.07-2.42,4.28-4.72,6.48-7.04,.05,.04-.45-.26-.45-.26Z"/>
      <path d="M1036.33,436.82c-.86,7.95-1.62,15.91-2.62,23.84-.66,5.28-1.63,10.52-2.55,15.77-.1,.55-.79,1-1.2,1.5-.55-.88-1.7-1.88-1.56-2.63,1.95-10.52,3.14-21.11,3.84-31.79,.15-2.29,2.64-4.42,4.06-6.63l.02-.06Z"/>
      <path d="M1258.47,1302.94c1.01,2.07,2.32,4.32,3.19,6.74,.39,1.09,.34,2.78-.26,3.72-1.88,2.94-4.85,4.38-8.31,4.06-1.06-.1-2.39-1.28-2.91-2.32-.5-1.01-.64-2.9-.03-3.63,2.48-2.92,5.31-5.55,8.31-8.58Z"/>
      <path d="M1534.51,394.88c-.09,12.01-2.6,23.58-6.11,35.79-1.77-4.24-.86-9.12,6.11-35.85,0-.02,0,.06,0,.06Z"/>
      <path d="M1262.95,1256.71c4.69-7.84,11.84-12.3,20.43-14.72,.17-.05,.91,1.13,.85,1.18-6.28,5.95-12.64,11.81-21.74,13.1-.02,0,.46,.43,.46,.43Z"/>
      <path d="M1296.55,1314.97c-6.76-3.9-13.79-1.59-20.77-.97-1.53,.14-2.37-.77-2.12-2.06,.09-.45,.79-1.1,1.23-1.12,4.5-.17,9-.24,13.5-.32,.64-.01,1.43-.13,1.9,.18,2.1,1.35,4.11,2.84,6.15,4.28h.11Z"/>
      <path d="M1449.88,874.34c.37-1.2,.5-2.57,1.19-3.54,.6-.84,1.84-1.22,2.8-1.8,.32,.52,.94,1.07,.9,1.56-.22,2.49-.39,5.01-1.05,7.4-.21,.78-1.82,1.19-2.78,1.77-.29-.53-.77-1.03-.84-1.59-.18-1.25-.16-2.53-.22-3.79Z"/>
      <path d="M884.88,1636.22c4.06-3.08,8.08-6.22,12.19-9.22,3.09-2.26,6.14-4.8,10.45-4.11,.04,.03-.48-.35-.43-.31-4.41,3.72-8.85,7.41-13.31,11.08-2.66,2.19-5.71,2.73-9.04,2.07l.13,.5Z"/>
      <path d="M1315.18,1355.93c3.53-2.78,7.19-5.41,10.55-8.39,2.97-2.63,6.14-4.63,10.08-5.28l.31-.51c-4.62,3.76-9.09,7.75-13.95,11.18-2.02,1.42-4.87,1.67-7.34,2.45,0,0,.35,.55,.35,.55Z"/>
      <path d="M1079.93,378.51c-6.66,5.2-13.33,10.4-20.04,15.56-.05-.03,.51,.18,.51,.18,.01-1.24-.4-2.72,.11-3.7,4.18-7.9,10.36-12.64,19.86-11.74,.05,.04-.44-.3-.44-.3Z"/>
      <path d="M1514.05,486.81c1.98-3.15,4.36-6.13,5.84-9.51,1.59-3.64,4.32-6.03,7.11-8.51l.02-.08c-4.67,2.74-3.76,8.11-5.62,12.17-1.55,3.39-4.1,4.87-7.37,5.75,0,.04,.02,.18,.02,.18Z"/>
      <path d="M1256.93,1406.03c.64-3.33,2.84-5.5,5.56-7.19,3.72-2.3,7.51-4.49,11.35-6.67,.08,.05-.45-.16-.45-.16-1.42,3.58-3.65,6.48-7.08,8.36-3.27,1.79-6.53,3.6-9.84,5.36-.04-.04,.46,.3,.46,.3Z"/>
      <path d="M1088.91,1504.89c-1.09,4.4-4.83,4.1-7.1,5.76-.28,.21-1-.19-1.52-.31,.45-.98,.64-2.47,1.39-2.84,2.11-1.05,4.46-1.65,7.23-2.6Z"/>
      <path d="M1296.45,1314.96c7.21-2.24,14.52-1.16,21.95-.79-.32,2.83-2.44,1.72-3.73,1.68-5.99-.2-11.98-.59-18.04-.89-.08,.02-.18,0-.18,0Z"/>
      <path d="M936.21,1528.89c5.45,2.21,8.21,6.3,8.31,12.14,.04,2.63-.12,5.26-.18,7.89,0,0-.03-.03-.03-.03,.55-7.98-3.23-14.22-8.11-20.06-.01-.04,0,.05,0,.05Z"/>
      <path d="M1158.06,1471.25c-3.23,.26-6.46,.6-9.69,.76-2.35,.12-4.3,2.86-7.47,.71,5.87-2.49,11.5-2.28,17.21-1.48,.02,0-.05,.02-.05,.02Z"/>
      <path d="M1147.85,568.88c-6.46-2.82-10.58-7.69-12.65-14.38,0,0-.44,.47-.44,.47,7.12,2.22,9.53,8.63,12.74,14.35-.03,.04,.35-.44,.35-.44Z"/>
      <path d="M1112.31,1488.91c.52,4.33-1.38,7.19-5.21,9.1-1.41,.7-2.47,.9-3.22-.35-.2-.33,.2-1.31,.6-1.65,2.83-2.34,7.06-3.1,8.21-7.34l-.38,.24Z"/>
      <path d="M1041.99,412.83c2.09-3.35,4.1-6.75,6.31-10.02,1.51-2.22,3.56-3.85,6.4-4.15l-.36-.46c-1.97,6.78-6.22,11.49-12.77,14.11,.03,.04,.42,.51,.42,.51Z"/>
      <path d="M931.87,1502.96c.78,3.05,1.08,6.34,2.44,9.1,2.68,5.45,2.71,11,1.91,16.78,0,.04-.02-.05,0,0-.46-2.46-.3-5.33-1.5-7.41-3.42-5.93-4.17-12.06-2.78-18.69,.04-.09-.06,.22-.06,.22Z"/>
      <path d="M1239.12,1417.73c-2.65,2.8-5.26,5.63-7.97,8.37-.38,.38-1.2,.34-1.81,.49,.12-1.16-.11-2.55,.44-3.45,2.2-3.61,5.59-5.14,9.79-4.88,0-.02-.45-.54-.45-.54Z"/>
      <path d="M1281.76,1382.55c4.38-.21,7.01-3.37,9.82-6.06,1.47-1.41,1.78-3.4,.77-5.37,0,0-.04,.1-.04,.1-.44,.45-.99,.83-1.31,1.35-1.59,2.55,1.34,6.51-2.1,8.24-2.12,1.07-4.84,.96-7.29,1.38l.14,.36Z"/>
      <path d="M1470.5,490.88c-.32,2.3-.16,1.16,0,0-.13,1.15-.26,2.31,0,0Z"/>
      <path d="M835.93,1417.78c-4.56,2.89-8.78,6.58-14.72,6.08,.02,.04,.42,.57,.42,.57,4.17-3.5,8.81-5.96,14.31-6.59v-.06Z"/>
      <path d="M1307.8,1366.18c-4.79,2.81-9.43,6.09-15.48,5.04,0,0,.04-.09,.03-.1,2.59,.63,4.72-.52,7.01-1.52,2.78-1.21,5.77-1.93,8.67-2.86l-.24-.56Z"/>
      <path d="M1012.26,575.22c.81,4,3.05,7.9,0,13.83,0-5.71,0-9.71,0-13.74,0-.03,0-.09,0-.09Z"/>
      <path d="M1243.19,1412.33c3.67-4.02,7.93-6.76,13.7-6.33,.04,.02-.47-.31-.42-.28-4.38,2.38-7.64,7.35-13.66,6.07l.38,.54Z"/>
      <path d="M1527,468.79c-.85-1.79-1.82-3.54-2.5-5.4-.37-1.01-.25-2.21-.35-3.32,.48,.3,1.13,.49,1.39,.91,.32,.53,.3,1.26,.42,1.9,.36,1.93,.71,3.87,1.07,5.81,0,.01-.03,.09-.03,.09Z"/>
      <path d="M1514.51,508.6c-1.46-3.1-1.66-6.32-1.29-9.69,.44-3.94,.63-7.91,.88-11.98-.05-.11-.06-.24-.07-.29,2.39,7.11,.97,14.29,.18,21.55,.07,.09,.29,.41,.29,.41Z"/>
      <polygon points="1449.31 897.82 1449.73 896.44 1450.3 897.59 1449.31 897.82"/>
      <path d="M1281.62,1382.19q-.33,7.58-8.17,9.84c-.06-.03,.46,.18,.38,.14,4.19-1.8,7.16-4.67,7.99-9.49-.07-.13-.21-.49-.21-.49Z"/>
      <path d="M1350.68,1319.32c-1.29,.03-2.57,.05-3.86,.1-.65,.02-1.65,.38-1.87,.1-.72-.92-.04-.87,1.87-.24,1.12,.37,2.51-.03,3.78-.09,.01,0,.08,.14,.08,.14Z"/>
      <path d="M1036.3,436.88c-1.06-5.07-.07-9.34,4.71-12.15l-.23-.28c-4.51,3.03-4.49,7.68-4.45,12.36,0,.02-.03,.07-.03,.07Z"/>
      <path d="M1148.26,581.65c.22,1.55,1.97,2.49,2.48,1.46,1.63-3.31-.85-2.04-2.35-1.66l-.12,.19Z"/>
      <polygon points="1486.79 673.7 1486.15 675.01 1485.69 673.63 1486.79 673.7"/>
      <path d="M1127.74,1482.38c-3.1,1.9-6.26,2.24-9.52,.46-.01,.06-.22,.46-.22,.46,3.38-.18,6.75-.35,10.13-.53,0,0-.39-.39-.39-.39Z"/>
      <path d="M1032.03,1571.71c-1.14-3.91-.9-7.59,1.82-10.87-.04-.03-.45-.47-.48-.51,1.5,3.91-.45,7.31-1.67,10.89,.06,.07,.34,.5,.34,.5Z"/>
      <path d="M540.1,1606.82c.1,.49,.44,1.29,.27,1.42-1.42,1.09-2.12,.69-1.75-.98,.06-.25,.96-.3,1.48-.44Z"/>
      <path d="M1041.02,424.73c-2.14-4.16-1.94-8.12,1.01-11.87-.03-.04-.43-.51-.46-.55-.34,3.94-.65,7.92-.87,12.02,.08,.12,.32,.4,.32,.4Z"/>
      <path d="M1168.1,1126.26c.03-1.02,.05-2.04,.08-3.05-.41,.08-.82,.16-1.23,.23,.5,.83,1.01,1.67,1.55,2.5,.04,0-.4,.32-.4,.32Z"/>
      <path d="M1148.39,581.45c-.19-4.17-.39-8.34-.56-12.54,.02-.03-.36,.44-.33,.4,3.23,3.83,2.75,7.94,.82,12.24-.06,.09,.07-.11,.07-.11Z"/>
      <path d="M801.83,1446.37c1.05-1.65,2.1-3.29,3.16-4.93,.02,0-.49-.41-.49-.41-1.02,1.61-2.04,3.22-3.05,4.86,.01,.02,.37,.48,.37,.48Z"/>
      <path d="M1128.13,1482.77l-.85-1.37s.29,.89,.37,.94,.47,.44,.47,.44Z"/>
      <path d="M964.19,1486.52c.12-.37,.24-.74,.36-1.11-1.37-.43-1.66-.04-.84,1.16,0,0,.48-.06,.48-.06Z"/>
      <path d="M963.7,1486.58c2.59,.43,5.08,1.04,6.47,3.62,0,0,.41-.46,.42-.45-2.06-1.11-4.12-2.22-6.3-3.28-.11,.06-.59,.11-.59,.11Z"/>
      <path d="M1112.7,1488.67c3.21-.25,4.98-1.97,5.33-5.26-.03-.1,.18-.51,.19-.57-1.92,1.98-3.85,4.01-5.85,6.06-.06,.01,.32-.23,.32-.23Z"/>
      <path d="M1346,1327.4c.14,.45,.28,.91,.41,1.36,.99-.9,.74-1.11-.76-.62-.03,.03,.35-.74,.35-.74Z"/>
      <path d="M881.05,1559.34c.4-.21,.8-.42,1.2-.63-1.16-.68-1.29-.41-.36,.83,.03,.02-.84-.2-.84-.2Z"/>
      <path d="M1054.7,398.66c1.87-1.48,3.73-2.96,5.65-4.43,.05,.01-.51-.2-.46-.17-1.82,1.39-3.68,2.75-5.55,4.12,0,.01,.36,.48,.36,.48Z"/>
      <path d="M1499.69,409.05l.34,1.05s.29-.62,.27-.64-.62-.41-.62-.41Z"/>
      <path d="M759.76,1576.48c.18,.44,.35,.89,.53,1.33,.9-1.06,.64-1.25-.82-.53-.02,.03,.29-.8,.29-.8Z"/>
      <path d="M1130.28,550.07l-.53,.43,.53-.43Z"/>
      <path d="M1129.75,550.5c2.32,.74,4.14,2.06,5.01,4.45,0,0,.44-.47,.44-.46-1.63-1.47-3.25-2.96-4.9-4.43-.02,0-.55,.44-.55,.44Z"/>
      <path d="M1126.3,625.76l.25,1.05s.38-.58,.36-.6c-.02-.02-.61-.45-.61-.45Z"/>
      <path d="M820.4,1631.26c.4-.06,.8-.13,1.2-.19-.66-.95-.84-.77-.5,.56,.03,.03-.7-.37-.7-.37Z"/>
      <path d="M884.75,1635.71c-.07,2.26-.4,4.4-2.48,5.82-.01,0,.47,.45,.47,.45,.75-1.86,1.5-3.73,2.2-5.68-.06-.09-.19-.59-.19-.59Z"/>
      <path d="M878.41,1645.7c1.44-1.24,2.87-2.48,4.32-3.72,.01,0-.47-.45-.45-.45-1.43,1.23-2.87,2.47-4.31,3.7l.44,.46Z"/>
      <path d="M873.45,1650.4c-2.22,.76-4.44,1.53-6.67,2.3,0,0,.03-.14,.02-.14,2.36-.55,4.72-1.09,7.09-1.65,0-.02-.43-.5-.43-.5Z"/>
      <path d="M1335.81,1342.26l.32-1.51s-.04,.97-.02,.99c.01,.01-.3,.52-.3,.52Z"/>
      <path d="M1167.42,1157.56l.23-1.39s.14,.93,.16,.93c.03,0-.4,.47-.4,.47Z"/>
      <path d="M1359.87,906.47l.75-.77s-1.06,.17-1.06,.2c0,.04,.31,.57,.31,.57Z"/>
      <path d="M1337.86,909.98l-1.36,.66s.98-.91,.99-.95,.37,.29,.37,.29Z"/>
      <path d="M1355.61,912.27c1.43-1.91,2.86-3.82,4.27-5.77-.01-.03-.32-.56-.32-.6-1.45,1.95-2.89,3.93-4.33,5.93,0,.01,.38,.44,.38,.44Z"/>
      <path d="M1298.17,908.38c-.38,2.65-.76,5.3-1.21,7.89-.07-.06,.45,.19,.45,.19,.21-2.67,.42-5.35,.62-8.03,0,0,.13-.05,.13-.05Z"/>
      <path d="M1291.02,918.29c2.09-.63,4.18-1.26,6.33-1.86,.06,.03-.47-.21-.39-.16-2.02,.49-4.11,.93-6.18,1.43,.02,.06,.24,.59,.24,.59Z"/>
      <path d="M1289.02,924.47c.69-2.03,1.38-4.05,2.04-6.13-.04-.05-.25-.58-.28-.64-.8,2.37-1.58,4.8-2.36,7.23l.6-.46Z"/>
      <path d="M1288.43,924.93c-.11-.36-.22-.73-.33-1.09,.31,.19,.62,.37,.93,.59,0,.03-.6,.5-.6,.5Z"/>
      <path d="M1275.93,933.2l-.1-1.52s.27,.92,.29,.95-.19,.57-.19,.57Z"/>
      <path d="M877.97,1645.24c-1.51,1.71-3.01,3.42-4.52,5.15,0,.02,.44,.5,.44,.52,1.51-1.72,3.01-3.45,4.52-5.19,0,0-.44-.47-.44-.47Z"/>
      <path d="M1303.88,1063.71c.16-.39,.32-.78,.48-1.17-.3,.24-.6,.48-.9,.72l.42,.45Z"/>
      <path d="M1207.17,1111.54c1.29,.4-.05-.49,.27-.56l-.27,.56Z"/>
      <path d="M1314.84,1355.37c-.35,2.08-.88,4.04-3.15,4.88,0,.01,.4,.43,.4,.43,1.05-1.56,2.11-3.12,3.13-4.72-.03-.04-.38-.59-.38-.59Z"/>
      <path d="M1207.45,1110.98c-.12,.23-.24,.46-.32,.62,.04-.06,.32-.62,.32-.62Z"/>
      <path d="M1308.04,1366.74c1.35-2.01,2.69-4.02,4.04-6.04,0-.01-.4-.43-.4-.44-1.31,1.94-2.62,3.89-3.91,5.88,.02,.04,.27,.61,.27,.61Z"/>
      <path d="M1242.81,1411.79c-1.24,1.97-2.47,3.93-3.7,5.92,.01,.02,.45,.53,.46,.56,1.23-1.94,2.45-3.91,3.65-5.91-.02-.03-.4-.57-.4-.57Z"/>
      <path d="M818.65,1429.08c1-1.53,2.01-3.06,2.99-4.62-.02-.03-.42-.56-.44-.6-.97,1.59-1.92,3.22-2.87,4.88,0,.02,.32,.34,.32,.34Z"/>
      <path d="M815.08,1433.82c2.24-.77,3.92-1.97,3.58-4.72,0-.02-.32-.33-.32-.35-1.27,1.55-2.54,3.12-3.8,4.69l.55,.38Z"/>
      <path d="M814.53,1433.44c-1.58,1.12-3.15,2.23-4.73,3.35,0,0,.44,.44,.44,.44,.82-2.2,2.71-2.93,4.8-3.42,.04,.02-.51-.37-.51-.37Z"/>
      <path d="M1214.99,1437.41l.92-.76s-1.37,.23-1.38,.22c-.01-.01,.46,.54,.46,.54Z"/>
      <path d="M809.8,1436.79c-1.75,1.42-3.51,2.83-5.28,4.25-.02,0,.49,.42,.47,.41,1.73-1.41,3.48-2.81,5.24-4.21,0,0-.44-.44-.44-.44Z"/>
      <path d="M735.57,1584.32l1.43,1.18s-.86-.77-.97-.82c-.11-.05-.46-.36-.46-.36Z"/>
      <path d="M1272.3,1020.36c-.96,.27-1.92,.54-2.88,.81,.47-.26,.92-.67,1.41-.73,.59-.07,1.22,.16,1.87,.29,.04,.03-.4-.38-.4-.38Z"/>
      <path d="M1311.63,964.73l.25-1.51s0,.97,.02,.98-.27,.53-.27,.53Z"/>
    </g>
    <path d="M1364.48,834.54c-35.37,25.84-70.41,51.31-105.21,77.11-2.72,2.02-3.93,6.24-5.51,9.59l-3.38,8.58c5.2,3.03,10.54,7.04,15.68,11.94,18.04,17.21,26.61,38.78,19.14,48.17-7.47,9.39-28.14,3.05-46.18-14.16-1.69-1.61-3.3-3.27-4.82-4.94l-65.33,165.57c38.57-30.76,72.77-58.17,107.15-85.37,16-12.65,36.02-22.1,47.85-37.79,40.65-53.95,43.8-117.54,40.62-178.7Z"/>
    <path d="M648.83,1673.83c-6.44-.09-11.62-3.64-17.93-4.59-2.53-.38-4.82-.72-7.25-1.5-3.05-.98-6.06-1.21-9.19-1.75-7.04-1.2-13.98-3.02-20.99-4.38-2.92-.56-5.9-.67-8.81-1.28-2.34-.49-4.53-1.44-6.86-1.91-4.1-.83-8.44-1.32-12.49-2.3-2.93-.71-5.83-1.92-8.49-3.29-1.03-.53-2.19-.89-3.25-1.35-.78-.33-2.08-.64-2.66-1.18,4.97-.65,10.3-.15,15.31-.15,6.79,0,13.12-.08,19.81,1.21,5.16,.99,10.34,1.6,15.46,2.87,5.68,1.41,11.83,1.94,17.68,2.04,2.34,.04,4.74-.27,7.07,0,1.71,.2,3.14,.84,4.76,1.35,2.61,.82,5.49,.82,8.18,1.38,1.36,.29,2.6,1.06,3.96,1.26,.89,.13,1.77-.06,2.65,.08,2.37,.37,4.69,1.61,7.11,1.98"/>
    <path d="M547.34,1632.56c-2.42-1.86-2.86-2.22-4.06-5.31-.69-1.73-1.25-3.51-1.69-5.32-.58-1.02-1.28-1.95-2.11-2.78-1.01-2.32-.69-5.28-1.62-7.76-.92-2.44-.95-4.71-1.62-7.18-1.11-4.08-2.58-7.74-3.45-11.95-.93-4.49-2.01-8.97-3.08-13.42-2.17-9.04-1.35-18.52-1.33-27.78,.02-6.28,.4-12.26-1.28-18.39-.95-3.46-2.34-6.78-3.17-10.28-1.35-5.69-.52-11.49-2.23-17.13-1.65-5.44-2.63-9.1-2.74-14.78-.15-7.45-2.57-15.32-3.77-22.67-1.13-6.93-2.87-13.63-4.46-20.5,.13,3.42-.35,6.94,.3,10.32,.47,2.44,1.72,4.7,2.24,7.11,.66,3.04,.17,6.19,.18,9.27,.01,11.07,4.49,21.88,5.65,32.89,.61,5.78,.6,11.8,1.44,17.51,.64,4.35,2.01,8.41,2.44,12.82,.56,5.67,3.72,10.64,4.1,16.28,.27,3.97,.81,6.81,1.86,10.71,1.16,4.25,1.32,8.49,2.67,12.76,1.03,3.27,1.73,6.58,3.04,9.75,1.16,2.82,1.21,5.22,2.09,7.87,.84,2.5,2.18,4.35,2.78,7.05,.89,4.06,1.94,7.91,2.41,12.07,.64,5.77,2.65,10.32,5.42,18.85Z"/>
    <path d="M710.63,1128.41c2.74-4.95,7.66-8.79,11.17-13.16,3.87-4.8,7.97-9.07,13.05-12.63,4.23-2.96,7.73-6.73,12.46-9.03,1.39-.67,2.83-1.62,3.99-2.66,.89-.79,1.72-2.27,3.03-2.2,.3,1.76-1.16,2.7-2.08,3.92s-1.32,2.61-2.31,3.76c-1.62,1.87-3.34,3.41-4.54,5.37-1.37,2.24-3.36,4.18-4.96,6.34-2.02,2.73-4.78,4.4-7.26,6.66-1.66,1.52-3.07,3.01-4.92,4.34-3.3,2.37-5.44,5.93-8.6,8.34-4.41,3.35-8.73,6.93-11.73,11.77-3.19,5.13-2.22,11.98-2.22,17.81,0,2.62-.02,5.25,0,7.87,.04,3.72-1.15,7.04-2.5,10.45"/>
    <path d="M771.98,1075.03c1.57-.43,2.22-3.29,2.92-4.55,2.01-3.66,4.31-7.2,6.43-10.8,7.93-13.48,15.94-26.9,24.11-40.23,3.92-6.4,8.06-12.7,11.79-19.21,3.34-5.82,6.14-11.93,9.41-17.79,2.01-3.54,3.92-7.13,5.76-10.77,2.2-3.55,4.16-7.21,5.9-11,1.81-5.81,2.53-11.27,5.58-16.76,3.14-5.65,6.94-10.75,9.91-16.52,2.51-4.85,5.03-9.69,7.89-14.34,2.28-3.71,4.3-7.02,5.95-11.07,.87-2.14,1.84-3.12,3.05-4.97,1.63-2.48,4.46-11.08,8.11-10.07,1.04,4-1.34,7.48-3.37,10.69-2.15,3.41-4.1,6.64-5.97,10.23-2.06,3.95-4.5,7.41-6.82,11.19-7.97,13.03-15.98,26.01-23.52,39.26-2.3,4.03-4.08,8.31-6.41,12.35-1.77,3.06-3.22,6.22-4.57,9.48-2.92,7.02-5.61,13.91-9.21,20.61-3.16,5.9-6.09,11.85-9.55,17.6-1.76,2.92-3.96,5.63-5.6,8.6-.84,1.53-1.47,3.15-2.46,4.61-1.24,1.83-3.04,2.84-4.5,4.49-1.55,1.75-2.42,3.91-3.87,5.72-1.02,1.27-2.29,2.22-3.22,3.58-2.09,3.09-3.33,6.62-5.08,9.89-1.37,2.56-2.07,5.16-3.97,7.34-.94,1.07-2.89,4.12-8.69,12.44Z"/>
    <path d="M688.98,1184.64c-1.26,2.1-1.65,4.15-2.64,6.34-1.01,2.26-2.97,3.63-4.6,5.39-3.11,3.36-5.7,7.06-8.91,10.35-4.91,5.03-11.31,8.63-17.03,12.66-4.88,3.44-8.76,7.75-13.51,11.32-1.79,1.35-3.29,1.86-4.53,3.74-1.09,1.64-1.82,3.55-2.89,5.21-2.87,4.46-4.56,9.37-6.14,14.46-1.73,5.57-3.46,10.6-6.15,15.8-.75,1.45-1.81,2.67-2.58,4.09-.62,1.14-.85,2.37-1.38,3.52-.87,1.9-2.52,3.62-3.64,5.51-1.54,2.58-2.75,5.18-4.55,7.61-1.31,1.77-3.15,3.22-4.56,4.95-1.69,2.07-2.95,4.08-4.36,6.34-1.37,2.2-3.36,3.65-5.23,5.37s-2.97,3.59-4.29,5.6c-1.57,2.38-2.8,3.88-3.72,6.6s-2.26,5.58-3.45,8.35c-2.24,5.19-6.44,9.24-9.09,14.16-1.95,3.62-5.67,7.17-9.23,9.36-3.02,1.86-6.32,3.16-9.34,5.12-5.23,3.4-10.5,6.63-15.94,9.7-4.7,2.65-10.79,7.77-12.63,12.89-1.67,4.66-4.04,9.13-5.18,13.96-1.72,7.29-1.25,14.55-2.25,21.98-.89,6.65-1.12,13.28-.88,19.99-.08-1.69-.84-3.23-.94-4.93-.13-2.19-.2-4.68,.09-6.84,.16-1.22,.48-3.24,1.03-4.33,.5-.98,1.29-1.24,1.55-2.35,.23-.97,.04-1.93,.23-2.93,.31-1.63,1.17-3.17,1.53-4.8,.95-4.38,2.45-8.14,4.39-12.37,2.11-4.6,3.4-9.39,6-13.67,2.14-3.52,4.61-7.73,7.76-10.51,3.9-3.44,9.94-3.46,14.07-6.52,1.93-1.43,3.42-3.51,5.26-5.14,.47-.42,1.61-1.48,2.35-1.7s1.83,.18,2.48-.26c.37-.25,.72-1.27,1.04-1.65,1.3-1.59,3.28-2.57,4.85-3.87,3.14-2.61,5.16-4.79,6.73-8.56,1.49-3.58,3.43-6.82,5.41-10.1,1.26-2.09,2.65-4.3,3.9-6.4,1-1.68,1.18-3.52,1.94-5.37,1.71-4.17,3.99-7.93,6.99-11.27,1.96-2.18,4.32-4.06,6.14-6.29,1.23-1.5,2.28-3.43,3.81-4.84,1.88-1.73,3.85-1.39,5.46-3.97,2.29-3.68,3.8-8.11,6.49-11.56,2.73-3.52,4.51-7.33,6.32-11.46,1.91-4.37,3.9-8.53,5.37-13.04,.69-2.11,2.04-5.16,3.43-6.83,1.46-1.76,2-3.45,3.14-5.62,2.83-5.41,5.11-11.11,8.39-16.28,1.08-1.7,2.34-3.26,3.74-4.65,.63-.62,1.46-1.2,2.1-1.8,1.42-1.36,2.1-2.97,3.38-4.33"/>
    <path d="M888.35,868.66c-.02-3.92,2-6.62,3.37-10.08,.76-1.94,1.26-4.04,2.03-5.99,.57-1.44,1.14-2.32,1.37-3.83,.26-1.68,.62-3.04,1.19-4.66,1.88-5.33,3.51-10.72,5.39-16.07,1.58-4.5,4.33-8.59,6.09-12.99,1.49-3.73,3.34-7.59,5.09-11.2,1.02-2.11,2.08-4.1,2.71-6.39,.73-2.66,2.48-4.81,3.91-7.14,1.95-3.2,3.94-6.35,6.07-9.42,1.11-1.6,2.02-3.1,3.4-4.43,.65-.62,.91-1.23,1.45-1.87,.79-.92,2-1.28,2.95-2,2.35-1.78,4.53-4.07,7.05-5.59,1.37-.82,2.62-1.61,3.93-2.55,1-.72,1.64-1.02,2.74-1.52,1.07-.49,.83-.67,1.62-1.17,3.82-2.45,7.95-4.53,11.93-6.78,1.08-.61,1.5-1.1,2.29-2,1.2-1.37,2.99-2.2,4.74-2.74,1.96-.61,4.2-.7,6.14-1.47,1.34-.53,2.23-1.38,3.69-1.75,1.29-.33,2.32-.65,3.54-1.16,2.84-1.16,5.95-2.55,8.93-3.22,3.57-.8,6.62-2.74,10.06-3.74,3.22-.94,6.02-3.18,9.31-4.08,1.78-.49,3.21-1.2,4.93-1.91,.86-.35,1.96-.59,2.73-1.1,.33-.3,.58-.66,.74-1.07,.36-.19,.73-.21,1.12-.08,3.33-1.32,6.73-1.56,10.06-2.56,1.5-.45,2.92-.59,4.38-.98,.98-.26,1.57-1.08,2.58-1.29,.6-.13,1.53,.01,2.16,.03,3.92,.15,8.26,1.49,12.19,2.19,3.28,.59,6.22,1.2,9.14-.81,2.93-2.01,4.99-3.91,6.94-6.94,1.19-1.85,1.79-3.98,2.85-5.81,.85-1.47,2.22-2.72,3.24-3.98,.82-1,1.07-2.01,2.14-2.94,.76-.66,1.8-1.05,2.61-1.65,1.87-1.39,3.81-2.77,5.72-4.13,1.75-1.25,3.22-2.33,5.22-3.15,2.63-1.07,5.46-2.36,8.19-3.07,3.65-.95,7.12-3.34,10.98-3.57,2.76-.17,5.39-.62,8.09-1.3,1.36-.34,2.68-.97,4.06-1.24,1.8-.35,3.51-.33,5.3-.8,2.8-.74,5.59-1.15,8.35-2.04,1.19-.38,2.35-.5,3.53-.84,1.06-.31,1.77-.98,2.8-1.22s1.06,.06,2-.59c.55-.38,.9-1.03,1.47-1.42,1.14-.79,2.84-1.17,4.12-1.66,1.67-.64,3.26-1.48,4.94-2.08,2.26-.81,4.09-.72,6.35-1.12,2.26-.4,4.19-1.26,6.53-1.23,3.93,.04,7.8-.1,11.63,.54,2.65,.45,5.59,.15,8.28,.15,1.53,0,3.09-.09,4.62-.01,2.17,.11,3.39,1.37,4.87,2.9,3.1,3.21,7.24,2.69,11.51,2.54,2.33-.08,4.47-.76,6.71-1.37,2.89-.78,5.88-.99,8.69-2.05,2.16-.82,4.21-.52,6.36-1.34,1.47-.56,2.27-.46,3.71-.64,1.91-.24,3.66-1.04,5.56-1.33,3.91-.58,7.85-1.46,11.76-2.23,1.39-.27,2.64-.85,3.99-1.24,3.27-.94,6.68-1.06,9.97-2.05,6.5-1.94,13.69-1.32,20.42-1.32,3.49,0,7.01-.11,10.5-.05,5.05,.09,9.37,2.89,14.03,4.47,2.86,.97,5.7,1.97,8.27,3.54,1.37,.84,2.55,1.93,3.84,2.85,2.72,1.94,5.48,3.62,8.47,5.18-1.29-.61-2.39-1.48-3.62-2.16-1.69-.92-3.57-1.03-5.34-1.78-3.24-1.38-6.1-3.37-9.49-4.29-1.98-.54-3.99-.34-6.03-.93-2.46-.71-4.74-1.46-7.34-1.43-5.18,.05-10.37,0-15.55,0s-11.11-.54-16.35,.59c-5.56,1.19-11.33,2.84-16.99,3.41-1.79,.18-2.24,.54-3.78,1.4-2.21,1.23-4.8,2-7.09,3.11-2.68,1.29-6.72,1.69-9.63,1.66-3.44-.03-6.89-.02-10.33-.02h-19.41c-2.29,0-4.99,.42-7.22-.06-2.29-.49-4.48-1.43-6.82-2s-4.62-.65-7.08-.65-4.95,.03-7.42,0c-4.08-.04-8.5,.91-12.18,2.74-2.13,1.06-4.49,1.66-6.68,2.69-3.3,1.56-7.2,3.55-10.71,4.37-4.89,1.15-9.42,3.28-13.94,5.4-4.93,2.32-10.29,3.76-15.6,4.56-3.75,.57-7.46,1.84-11.2,2.43-3.17,.5-6.38,1.03-9.53,1.8-1.47,.36-2.73,1.13-4.1,1.74-1.55,.69-3.21,.92-4.75,1.65-4,1.89-7.49,4.4-10.85,7.28-4.77,4.07-6.17,10.62-11.36,14.33-1.41,1.01-3.31,1.5-4.89,2.28-1.79,.89-2.89,1.34-4.81,1.59-4.43,.58-8.69,.6-13.16,.59-8.6-.01-17.26,2.48-25.21,5.47-6.14,2.31-12.94,3.76-19.33,5.3-4.39,1.06-8.38,2.52-12.6,4.08-2.89,1.07-5.94,1.69-8.63,3.25-2.3,1.33-4.68,2.24-7.07,3.38-2.38,1.14-4.85,1.89-6.96,3.54-4.18,3.26-8,7.12-12.04,10.57-3.47,2.96-7.3,5.63-10.43,8.95-5.81,6.17-10.21,13.94-15.36,20.61-6.37,8.25-13.41,16.37-16.94,26.33-2.25,6.34-3.99,12.98-5.75,19.48"/>
    <path d="M1435.06,460.21c-1.85,4.16-4.41,7.94-6.24,12.13-.99,2.28-1.59,4.63-2.42,6.96-1.01,2.85-2.5,5.33-3.8,8.02-2.03,4.2-3.32,8.77-5.22,13.03-2.01,4.5-4.34,9.01-6.68,13.35-1.94,3.59-3.96,7.1-5.68,10.8-1.63,3.49-2.35,6.96-3.76,10.47-1.15,2.87-3.2,5.91-3.96,8.91-.39,1.54,0,3.15-.19,4.72-.21,1.8-.78,3.47-1.41,5.17,.43-1.33,.55-2.74,1.04-4.06,.77-2.11,2.07-3.84,3.1-5.86,3.01-5.88,4.3-12.4,7.31-18.25,4.76-9.25,8.55-18.66,12.57-28.23,1.1-2.61,2.2-5.12,3.24-7.74,.95-2.4,2.73-4.15,4-6.32,.93-1.59,1.18-3.3,1.78-5,.49-1.38,1.28-2.48,1.85-3.85,1.34-3.2,1.14-6.5,4.46-14.26Z"/>
    <path d="M1498.21,398.87c-1.13,1.66-3.36,2.03-4.99,3.05s-3.3,1.75-4.84,2.78c-1.24,.83-2.03,1.98-3.16,2.94-1.26,1.06-2.8,1.82-4.09,2.88-3.36,2.77-7.32,5.72-9.94,9.21-1.89,2.52-3.44,5.18-5.46,7.61-1.78,2.14-3.89,3.73-5.46,6.07-.92,1.38-1.86,2.84-2.68,4.26-.68,1.17-.62,3.42-1.63,4.23,.63-5.47,7.54-11.03,10.63-14.93,3.55-4.47,6.3-9.51,10.13-13.77,3.67-4.09,8.01-7.84,12.06-11.56,.78-.72,5.21-5.9,6.73-5.38,1.28,.43,.41,1.79,1.04,2.44,.7,.72,2.02,1.1,2.98,1.1-.74-.03-1.49-.03-1.33-.92Z"/>
    <path d="M1454.02,885.65c2.98-9.95,6.2-19.89,8.13-30.11,1.27-6.7,2.52-13.41,4.29-19.99,4.32-16.05,6.82-32.73,10.13-48.99,2.3-11.28,4.2-23.03,4.08-34.63-.04-3.85,.53-8.06-.3-11.85-.53-2.44-1.35-7.45-2.64-9.53-5.98-9.7-15.55,5.33-18.98,9.23-4.73,5.39-10.53,9.92-15.14,15.37-2.4,2.84-4.37,6.07-6.61,9.04-3.3,4.39-6.54,9.4-10.49,13.24-2.12,2.06-2.61,2.79-3.9,5.53-2.78,5.89-7.41,11.08-11.37,16.2-8.1,10.49-15.94,19.58-19.07,32.91-1.95,8.3-.85,17.11,.72,25.38,1.44,7.59,8.09,14.29,8.1,22.03,0,2.37-1,4.75-1.51,7.02-3.64,16.12-11.51,30.71-20.65,44.45-3.44,5.17-6.31,10.69-9.13,16.22-1.24,2.44-3.2,4.69-3.95,7.38-.3,1.09-.09,2.34-.38,3.45-.43,1.62-1.78,2.99-2.2,4.61-.38,1.47-.22,3.22-.37,4.71-.32,2.99-1.21,5.72-1.9,8.64-1.64,6.92-2.06,13.9-4.08,20.72-.97,3.25-2.05,6.15-2.08,9.58-.02,1.67,.24,2.79-.2,4.3-.68,2.35-1.93,4.98-2.74,7.35-1.07,3.15-2.43,5.11-2.44,8.48,0,1.84,0,2.8-.58,4.49-1.07,3.07-3.34,5.26-5.14,7.9-2.2,3.24-3.48,7-5.64,10.25-4.77,7.17-11.27,12.06-18.34,16.72-9.79,6.45-20.07,12.94-30.79,17.83-5.75,2.62-12.29,4.05-17.37,8.09-4.79,3.81-10.24,7.86-15.89,10.86-9.28,4.93-17.24,12.25-25.98,18.2-3.74,2.54-7.89,4.28-11.61,6.79-2.16,1.46-2.97,3.02-4.62,4.79-1.02,1.1-2.38,1.65-3.35,2.82-2.05,2.47-3.54,6.15-5.1,8.96-3.76,6.73-6.88,9.68-13.76,13.27-6.46,3.37-13.08,5.9-19.85,8.59-2.9,1.15-5.76,2.38-8.64,3.56-2.1,.85-5.1,1.42-6.75,2.97-1.56,1.47-1.53,2.86-2.68,4.78-.89,1.49-2.58,2.67-3.55,4.09-1.93,2.82-3.56,5.86-5.57,8.69-4.41,6.2-10.74,10.57-16.01,15.98-3.75,3.85-8.36,5.28-12.13,8.75-3.93,3.62-8.21,6.16-11.68,10.31-2.97,3.55-8.24,6.85-10.14,11.04-1,2.19-2.9,5.78-3.35,8.12-.23,1.2-.32,2.49-.34,3.82-.23,.46-.44,.91-.69,1.36-2.41,4.43-4.3,9.12-6.87,13.47-3.15,5.33-6.1,10.79-8.48,16.51-2.64,6.35-6.66,12.17-8.93,18.66-.48,1.37-.96,2.72-1.45,4.06-2.41,1-4.61,2.35-6.3,4.85-1.9,2.83-1.96,6.28-3.34,9.35-1.76,3.91-2.33,6.24-3.05,10.45-.54,3.2-1.9,6.13-2.34,9.32-3.25,6.1-6.99,11.91-10.36,17.96-3.45,6.18-7.9,11.77-11.13,18.07-2.38,4.63-4.28,9.57-6.37,14.33-1.83,4.16-3.73,8.25-5.83,12.28-2.93,5.61-6.91,10.96-9.02,16.94-1.63,4.62-3.59,8.87-5.73,13.26-1.4,2.86-3.32,5.9-3.79,9.06-.42,2.84,.11,6.11-.03,8.92-.12,2.36,.29,4.66,1.29,6.8-1.07,1.6-2.18,3.16-3.54,4.6-2.82,2.99-5.73,5.5-9.17,7.86-1.72,1.18-3.69,2.14-5.38,3.34-2.79,1.98-4.92,2.58-7.91,4.09-1.31,.66-2.25,1.89-3.62,2.3-.93,.28-1.77-.13-2.7,.16-1.78,.55-4.35,2.5-6.07,3.44-1.27,.69-2.56,1.39-3.84,2.1l1,35.07-21.74-22.25c-2.65,1.34-5.35,1.42-7.92,2.61-1.86,.86-3.73,2.34-5.44,3.3-2.44,1.37-3.87,2.21-6.7,2.67-2.1,.34-4.24,.99-6.29,1.56-4.01,1.13-7.98,1.59-12.01,2.38l7.02,49.45-18.02-7.88-26.93-27.56c-1.35,.59-2.71,1.17-4.11,1.7-7.44,2.79-13.94,6.93-19.92,11.81l15.91,61.67-36.04-15.76-16.21-16.59c-2.22,2.13-4.51,4.4-5.66,6.86-1.59,3.42-4.69,5.93-8.08,7.59-2.52,1.23-5,2.29-7.46,3.56l20.37,54.07-51.08-22.34c-.91,.8-1.81,1.63-2.69,2.51-4.29,4.31-9.13,7.58-13.56,11.62-2.34,2.13-3.38,5.33-6.07,7.1,0,0,0,0-.01,0l20.34,40.83-52.1-22.79c-2.25,.53-4.49,1.12-6.56,2.11-2.78,1.34-4.46,2.83-7.35,3.75-6.68,2.12-12.91,5.9-19.65,8.19-2.91,.99-17.46,3.23-15.86,8.05-5.47,4.86-2.19,7.93-1.15,9.61,1.67,2.69,3.37,5.27,5.23,7.82,3.05,4.19,5.28,5.28,10.01,7.07,9.78,3.69,24.37,2.2,29.19,11.48,4.93,9.5,19.45,13.03,31.33,9.59,13.49-3.91,28.09,6.6,41.75,7.9,15.95,1.52,31.9,.42,47.88,.71,5.38,.1,8.74,.31,13.65-1.64,6.85-2.72,15.16-4.7,21.52-8.38,.64-.37,1.5-.54,2.11-.95,3.58-2.47,6.27-7.49,8.96-10.87,3.49-4.38,6.73-8.88,9.85-13.53,5.72-8.5,10.81-14.63,12.7-24.94,1.82-9.94,10.88-17.52,15.35-26.38,1.76-3.5,2.37-8.05,4.94-10.95,.66-.74,3.02-2.04,3.75-2.55,7.61-5.3,18.15-8.77,26.38-12.25,6.58-2.78,13.31-5.21,20.3-6.67,1.71-.36,3.14-.7,4.93-1.4,3.46-1.36,5.91-.75,9.34-1.81,10.46-3.24,21.26-8.35,31.24-12.78,8.8-3.91,18.19-6.58,27.15-10.08,12.84-5.01,30.87-10.33,33.8-25.43,1.22-6.26,1.89-12.68,3.35-18.88,.63-2.67,.98-6.23,3.21-8.06,1.79-1.47,5.02-2.29,7.07-3.48,7.36-4.28,14.25-9.5,21.63-13.77,3.17-1.84,6.21-3.9,9.17-6.06,6.3-4.6,13.73-6.24,20.18-10.23,1.63-1.01,2.64-2.36,4.1-3.56,2.06-1.7,4.01-2.29,6.49-3.39,9.92-4.38,18.56-11.59,27.57-17.54,9.34-6.16,18.97-12,28.77-17.37,8.24-4.51,16.1-9.62,24.05-14.6,3.54-2.22,7.48-4.15,10.9-6.58,6.12-4.35,11.09-10.05,17.11-14.58,6.48-4.87,13.17-9.37,19.63-14.16l44.39-28.21c10.95-4.85,20.67-11.81,30.61-18.38,10.17-6.72,20.1-14.1,28.71-22.8,10.8-10.9,14.22-27.64,17.58-42.05,3.29-14.12,10.81-27.83,18.76-39.97,5.05-7.72,9.44-15.91,14.68-23.5,3.8-5.51,8.26-10.12,12.29-15.37,4.06-5.28,6.12-11.32,9.45-17.02,2.14-3.66,4-6.95,5.77-10.76,4.06-8.76,9.98-17.12,13.01-26.32,1.86-5.62,1.89-10.67,1.87-16.48-.01-4.02,.17-8.08,.06-12.11-.06-2.37-1.58-4.56-3.8-5.37-2.37-.87-4.37-1.04-7.28-1.02-3,.02-9.2,1.36-11.59-.21,4.38-5.44,7.24-11.9,10.91-17.83,2.84-4.58,5.01-9.5,6.64-14.64,2.02-6.38,5.26-12.32,7.5-18.62,2.51-7.06,3.03-14.54,4.28-21.87,1.23-7.24,3.24-14.21,4.23-21.52,1.37-10.08,4.08-20.09,5.61-30.17,1.2-7.88,2.75-15.68,4.78-23.39,1.45-5.49,2.28-11.16,1.65-16.87-.25-2.22-1.44-4.24-3.04-5.8-3.37-3.26-5.01-8.41-8.35-11.75-2.2-2.2-4.92-2.93-7.74-4.09-3.67-1.52-12.99-.71-14.96-3.95-1.18-1.95,1.48-9.8,1.87-10.99,4.27-12.94,5.77-26.44,9.7-39.55Z"/>
    <path d="M1379.12,574.79c-.1,.85-.61,1.47-.89,2.26-.55,1.53-.6,3.11-1.05,4.68-1.26,4.43-4.16,9.1-6.67,12.92-4.31,6.58-7.62,13.24-12.64,19.36-4.24,5.17-8.52,10.37-12.85,15.46-1.63,1.91-3.59,3.33-5.12,5.32-1.22,1.59-2.19,3.35-3.41,4.95-2.37,3.08-4.38,6.36-6.75,9.44-2.11,2.75-4.51,5.5-6.19,8.53-1.12,2.02-1.76,4.03-3.08,5.94-1.83,2.66-2.58,5.96-1.62,9.28,.55,1.91,1.33,1.39,2.55,2.4,.95,.79,1.67,2.24,2.33,3.18,1.01,1.42,1.92,3.11,3.06,4.59,1.21,1.57,2.82,2.34,4.53,3.34,2.54,1.47,6.02,3.46,8.94,2.77,.42-1.34-4.18-3.86-5.35-4.62-1.48-.96-2.62-2.12-4.02-3.14-1.55-1.13-4.68-2.3-5.78-4.03-.37-.58-.05-1.35-.22-1.97-.19-.69-.69-1.05-.86-1.86-.31-1.49,.75-4.12,1.36-5.46,.38-.83,.93-1.29,1.39-1.98,.77-1.16,1.06-2.46,1.78-3.7,.55-.95,1.46-1.72,2.08-2.64,.76-1.13,.97-2.06,1.56-3.44,.98-2.27,2.19-4.58,3.35-6.76,2.3-4.29,4.97-8.37,7.48-12.53,2.1-3.48,3.61-7.17,6.08-10.41,.71-.92,1.14-2.36,1.76-3.41,.92-1.54,2.05-2.62,3.05-4.11,1.97-2.93,3.8-5.9,5.99-8.78,3-3.95,6.57-7.5,9.51-11.47,2.18-2.95,4.11-7.44,6.97-9.73"/>
    <path d="M1507.23,521.56c.07,3.24-.4,6.99-1.75,9.92-1.01,2.19-1.48,3.42-2.03,5.77-.65,2.81-1.45,5.99-2.49,8.67-2.15,5.53-4.58,11.13-7.06,16.48-1.16,2.51-1.54,5.26-2.42,7.88-1.07,3.2-2.61,5.93-3.39,9.21-.91,3.8-3.08,7.21-4.31,10.8-.54,1.59-1.22,3.27-1.72,4.87-.31,1-.24,2.03-.59,3.04-.52,1.52-1.7,2.86-2.07,4.41-.48,2.01-.13,4.38-.13,6.45,0,1.05-.04,2.11,0,3.16,.05,1.39,.57,2.28,.83,3.57,1.06,5.17-1.16,11.16,.15,16.27,.3,1.19,1.2,2.13,1.56,3.31,.45,1.52,.19,3.22,.18,4.78-.02,3.76,0,7.52,0,11.27,0,2.66,.35,5.54-.42,8.1-1.16,3.84-1.51,8.1-3.17,11.77-1.72,3.82-2.73,7.8-4.19,11.72-1.23,3.29-1.24,5.73-1.24,9.24,0,1.52-.17,3.19-.03,4.7s.83,3,.97,4.58c.25,2.71-.03,5.61-.03,8.34,0,3.58-.79,6.86-.9,10.37s-1.83,5.89-1.8,9.22c0-3.72,.05-7.44,0-11.16-.09-5.21,2.85-9.98,4.11-15,.65-2.59,1.24-5.12,2.21-7.67,.99-2.61,.9-4.88,.9-7.67,0-6.45-.15-12.31,1.8-18.56,.4-1.29,.86-2.19,.93-3.54,.06-1.25-.14-2.38,.18-3.61,.78-3.03,2.44-5.86,2.5-9.02,.05-2.74,.39-5.49,1.1-8.12,.82-2.99,.68-5.83,.7-9.02,.02-2.98-.85-5.61-.89-8.57-.03-1.66-.69-2.49-.96-4.06-.24-1.44-.02-2.62-.4-4.06-1.48-5.51-.41-12.56-.45-18.31-.05-7.71,4.39-15.64,7.19-22.71,.77-1.95,1.74-3.9,2.68-5.82,1.25-2.56,2.12-5.26,3.32-7.8,2.08-4.41,3.42-9.34,6.31-13.29,2.63-3.58,4.39-7.13,5.97-11.25,.87-2.28,2.18-4.48,2.53-6.93,.54-3.72-.04-8-3.65-11.78Z"/>
    <path d="M1505.76,386.4c-.13-.5,1.25-1.26,1.52-1.48,1.28-1.06,2.6-2.06,3.78-3.24s2.41-2.26,3.4-3.58c.72-.96,1.49-1.81,2.32-2.67,.83-.86,1.46-1.75,2.18-2.7,.34-.44,.9-1.79,1.65-1.59,.44,.12,.64,.77,.88,1.13,.56,.84,1.23,1.6,1.81,2.43,1.8,2.58,3.73,5.07,5.5,7.66,.76,1.11,1.4,2.3,2.17,3.41,.44,.63,.86,1.24,1.24,1.92,.16,.28,.77,1.69,1.11,1.74-.07-.23-.38-.5-.52-.68-.32-.42-.68-.82-.97-1.26-.42-.65-.64-1.39-1.05-2.05-.53-.84-1.16-1.63-1.76-2.42s-1.27-1.62-1.91-2.42c-.7-.89-1.27-1.67-2.18-2.35-.45-.34-.85-.65-1.22-1.08-.28-.32-.48-.55-.82-.79-.56-.38-1.01-.91-1.54-1.32-.23-.18-.43-.28-.7-.41-.23-.11-.49-.39-.76-.42-.41-.04-.8,.52-1.06,.79-.74,.81-1.42,1.66-2.19,2.45-.65,.67-1.4,1.29-2.16,1.82-1.06,.74-1.95,1.62-2.98,2.39-.45,.34-.9,.81-1.31,1.2-.23,.23-.38,.58-.61,.8-.26,.26-.64,.37-.92,.63-.18,.17-.34,.35-.53,.51-.35,.29-.79,.47-1.13,.76-.27,.23-.42,.46-1.25,.8Z"/>
    <path d="M1078.71,391.65c0,10-.78,20.06,1.77,29.79,1.5,5.75,4.25,10.98,4.57,16.96,.23,4.31,1.64,8.84,2.69,13.04,1.52,6.07,3.29,12.14,5.98,17.76,.65,1.36,5.03,14.13,6.51,13.83,.27-2.28-.95-4.87-1.83-6.89-1.64-3.79-3.36-7.56-4.8-11.43-1.99-5.36-3.98-10.43-6.82-15.39-3.56-6.22-6.37-12.64-8.55-19.34-1.5-4.6-.42-11.14-.42-16.03,0-2.63,0-5.26,0-7.89,0-1.11,.24-2.5,.05-3.59-.23-1.31-1.25-2.19,.86-10.83Z"/>
    <path d="M1115.7,516.15c2.15,4.64,3.66,9.01,7.7,12.47,1.49,1.27,2.12,2.04,3.3,3.54,.73,.93,2.21,2.69,3.29,2.83,1.03-1.77-5.04-8.84-6.08-10.42-1.78-2.69-3.14-5.27-5.51-7.53"/>
    <path d="M1148.17,602.75c.52,1.22,1.25,2.35,1.81,3.55,1.19,2.55,1.78,5.36,2.68,8.08,3.03,9.12,4.12,18.68,6.35,27.96,.87,3.6,.7,6.76,1.06,10.44s1.52,7.48,1.67,11.25c.06,1.54-.35,3.12,.14,4.63,.36,1.14,1.21,2.21,1.67,3.33-.31-9.6,.35-19.23,.02-28.82-.22-6.35-3.56-12.17-6.41-17.59-1.36-2.59-2.14-5.57-3.24-8.29-.81-2-1.51-4.85-5.75-14.54Z"/>
    <path d="M1009.69,599.59c.28,2.06-.74,4.54-1.17,6.54-.71,3.27-1.61,6.44-2.01,9.77-.58,4.81-3.18,9.36-4.53,14.01-1.55,5.34-2.12,10.91-3.56,16.29-2.85,10.67-5.93,21.58-7.45,32.53-.98,7.07-3.32,13.96-4.39,20.99-.37,2.42-1.2,5-1.9,7.35-.6,2.02-1.84,3.85-2.53,5.85-.98,2.87-1.86,5.53-3.33,8.21-.93,1.69-2.36,3.08-3.38,4.73-1.4,2.27-3.55,4.06-5.11,6.23-1.33,1.85-2.79,3.73-4.31,5.43-.44,.49-2.09,2.64-1.78,3.21,.88,.15,1.46-.41,2.17-.83,1.02-.61,2.03-1.18,3.08-1.74,1.21-.65,2.25-1.49,3.43-2.15,2.09-1.18,4.03-3.09,6.02-4.51,1.89-1.34,3.25-2.61,5.46-3.36,3.55-1.2,6.92-3.03,10.61-3.62,1.17-.19,2.12-.97,3.29-1.28,.84-.22,1.79-.19,2.65-.34,1.34-.24,2.59-.63,3.97-.67,1.95-.05,3.91,.03,5.86,.03,1.58,0,3.19,.09,4.76,.01,.94-.05,1.79-.42,2.73-.47,.8-.04,1.76,.24,2.49-.09-.95-.64-2.32-.35-3.4-.35-1.51,0-3.03,0-4.54,0h-7.72c-3.78,0-7.71-.29-11.38,.41-1.51,.29-2.87,.31-4.33,.83-2.11,.74-4.4,1.46-6.46,2.36-1.47,.65-2.79,1.49-4.17,2.26-.93,.52-1.95,.89-2.9,1.35-.83,.4-1.75,1.09-2.6,1.33,2.03-2.26,5.06-3.76,6.76-6.19,.36-.52,.75-.75,1.08-1.45,.29-.61,.62-1.22,.95-1.81,.82-1.46,1.54-2.85,2.13-4.46,.42-1.15,.44-2.26,1.06-3.38s.31-1.25,.63-2.41c.23-.83,.84-1.53,1.07-2.39s.48-1.42,.85-2.24c.29-.66,.18-1.21,.34-1.89,.19-.81,.77-1.8,1.11-2.58,.85-1.93,1.43-3.98,2.33-5.93,.75-1.62,.73-3.44,1.21-5.12,.54-1.88,1.47-3.51,1.57-5.43,.11-2.07,1.57-4.14,2.18-6.11,.78-2.53,.64-5.25,1.58-7.69,.61-1.59,.14-3.32,.43-5.01,.49-2.91,1.21-5.83,1.24-8.77,.02-2.2,.59-4.48,.9-6.66,.15-1.07,.81-2,.97-3.07,.13-.87,.04-1.47,.39-2.39,.38-1.01,.84-1.85,.92-2.93,.09-1.24,.69-2.27,.88-3.46,.23-1.48,.32-2.95,.59-4.45,.32-1.77,.83-3.49,1.14-5.27,.4-2.33,.49-4.7,.99-7.01,.55-2.56,.87-4.83,.89-7.43,.03-3,.82-6.05,1.61-8.92,.46-1.69,1.4-3.64,.67-5.87Z"/>
  </g>
  <path d="M920.34,1304.71c-.19-6.64,2.93-12.92,5.71-18.92,1.92-4.13,3.99-7.79,5.18-12.23,1.06-3.92,1.66-7.26,3.69-10.86,1.65-2.93,1.78-5.93,2.93-9.08,.98-2.68,2.44-5.2,3.51-7.84,2.15-5.28,3.83-10.4,6.7-15.38s6.78-8.64,9.83-13.28c3.99-6.07,7.93-12.26,12.28-18.09,3.51-4.7,7.51-9.91,8.96-15.59-9,14.41-19.25,28.03-27.76,42.8-3.69,6.4-6.31,13.44-9.75,20-2.34,4.47-5.09,8.71-7.27,13.25-3.12,6.49-6.6,14.3-7.29,21.54-.4,4.19,2.12,13.83-6.72,23.68Z"/>
</svg>