<?xml version="1.0" encoding="UTF-8"?>
<svg id="Layer_1" data-name="Layer 1" xmlns="http://www.w3.org/2000/svg" viewBox="0 0 1980 1980">
  <path d="M1279.34,519.83c10.34-17.03,17-35.88,16.68-55.66-1.65,20.06-7.79,38.37-16.68,55.66Z"/>
  <path d="M1382.35,1210.16c13.98-19.88,24.02-47.18,11.14-67.8-14.34-22.95-47.8-23.87-68.74-41-31.05-25.39-23.81-74.49-9.25-111.86,14.55-37.37,33.74-78.8,17.79-115.59-15.51,29.1-31.02,58.21-46.52,87.31-56.13-17.66-103.61-60.98-126.34-115.25-22.73-54.27-20.28-118.5,6.52-170.88,28.89-56.48,84.36-100.76,112.4-155.25-6.97,11.47-15.6,22.11-24.91,31.64-23.13,23.68-50.79,42.54-74.13,66.01-66.55,66.93-92.03,171.75-63.61,261.76-44.37,.5-76.86-46.03-80.26-90.28-3.4-44.24,13.34-87.16,24.1-130.21,23.33-93.34,18.51-193.53-13.68-284.2l12.71,33.65c-3.38-43.96-10.71-46.38-33.93-128.1-26.96,159.33-38.44,314.55-119.25,446.2-59.01,9.7-100.35,82.95-80.35,142.37,9.93,29.51,32.19,60.37,19.17,88.51-13.4,28.96-56.61,27.15-78.21,4.37-21.59-22.78-27.3-56.93-32.01-88.78-4.71-31.85-10.57-66.01-32.35-88.59,17.24,55.69,34.59,111.94,39.88,170.26,5.29,58.32-2.43,119.73-32.19,169.18-19.53,32.46-48.1,59.28-60.97,95.25-13.07,36.53-7.27,79.92,14.88,111.19-50.37-62.42-74.01-148.01-63.32-229.24-41.26,139.02-19.17,290.83,60.9,409.32,12.7,51.93,55.73,87.71,98.54,113.72,88.09,53.51,189.38,84.26,289.49,74.1,100.11-10.16,198.34-64.11,256.83-154.44l-.59-.03c57.88-30.62,89.71-105.56,68.92-168.18-11.44-34.46-36.64-67.44-29.6-103.05,4.71-23.85,22.98-42.22,36.96-62.1Z"/>
</svg>