<?xml version="1.0" encoding="UTF-8"?>
<svg id="Layer_1" data-name="Layer 1" xmlns="http://www.w3.org/2000/svg" viewBox="0 0 1980 1980">
  <defs>
    <style>
      .cls-1 {
        fill: #fff;
      }
    </style>
  </defs>
  <g>
    <path d="M540.91,570.62c-1.65-1.69-3.3-3.38-4.94-5.07,1.46,1.88,3.11,3.57,4.94,5.07Z"/>
    <path class="cls-1" d="M1220.64,664.06c-5.89-1.98-11.96-1.63-17.94-.41-6.12,1.24-11.07,4.67-15.79,8.51-6.86,5.6-11.13,14.1-14.09,22.25-3.17,8.74-3.25,18.17-1.63,27.21,1.48,8.27,5.88,15.71,11.27,22.02,12.69,14.86,34.9,17.99,51.84,9.18,15.21-7.9,23.72-27.02,23.09-43.62-.18-4.86-.83-9.99-2.55-14.58-2.36-6.29-4.97-10.79-9.29-15.95-5.47-6.55-14.31-11.96-22.77-13.37-5.94-.99-11.41-.95-16.8,2.2-4.52,2.65-8.83,7.83-10.02,13.03-1.27,5.58-1,11.84,2.2,16.8,2.89,4.49,7.53,9.1,13.03,10.02,1.65,.28,3.2,.72,4.75,1.35-1.74-.73-3.47-1.46-5.21-2.2,1.74,.78,3.34,1.75,4.85,2.91-1.47-1.14-2.94-2.27-4.41-3.41,1.49,1.22,2.8,2.56,3.99,4.06-1.14-1.47-2.27-2.94-3.41-4.41,1.17,1.57,2.13,3.22,2.93,5.01-.73-1.74-1.46-3.47-2.2-5.21,.94,2.3,1.55,4.64,1.89,7.1-.26-1.93-.52-3.86-.78-5.79,.27,2.47,.25,4.91-.02,7.38,.26-1.93,.52-3.86,.78-5.79-.4,2.9-1.12,5.69-2.22,8.4,.73-1.74,1.46-3.47,2.2-5.21-.89,2.04-1.95,3.95-3.26,5.75,1.14-1.47,2.27-2.94,3.41-4.41-1.21,1.55-2.54,2.92-4.09,4.13,1.47-1.14,2.94-2.27,4.41-3.41-1.22,.88-2.48,1.6-3.85,2.21,1.74-.73,3.47-1.46,5.21-2.2-1.64,.65-3.28,1.07-5.03,1.32,1.93-.26,3.86-.52,5.79-.78-1.76,.19-3.47,.18-5.23-.02,1.93,.26,3.86,.52,5.79,.78-2.01-.29-3.9-.81-5.78-1.59,1.74,.73,3.47,1.46,5.21,2.2-1.58-.72-3.02-1.58-4.41-2.62,1.47,1.14,2.94,2.27,4.41,3.41-1.52-1.21-2.86-2.55-4.09-4.06,1.14,1.47,2.27,2.94,3.41,4.41-1.48-1.94-2.68-4.01-3.63-6.26,.73,1.74,1.46,3.47,2.2,5.21-.81-2.08-1.37-4.2-1.7-6.41,.26,1.93,.52,3.86,.78,5.79-.3-2.51-.3-4.98-.02-7.49-.26,1.93-.52,3.86-.78,5.79,.42-3.07,1.22-6,2.38-8.87-.73,1.74-1.46,3.47-2.2,5.21,1.17-2.7,2.6-5.24,4.39-7.57-1.14,1.47-2.27,2.94-3.41,4.41,1.14-1.39,2.36-2.62,3.78-3.73-1.47,1.14-2.94,2.27-4.41,3.41,1.05-.75,2.12-1.37,3.31-1.89-1.74,.73-3.47,1.46-5.21,2.2,1.21-.46,2.41-.78,3.69-.96-1.93,.26-3.86,.52-5.79,.78,1.03-.09,2-.08,3.02,.03-1.93-.26-3.86-.52-5.79-.78,.77,.14,1.46,.32,2.2,.56,5.18,1.74,12.18,.51,16.8-2.2,4.52-2.65,8.83-7.83,10.02-13.03,2.75-12.05-3.64-22.92-15.22-26.81h0Z"/>
  </g>
  <path class="cls-1" d="M1496.09,712.64c-290.3-6.25-284.93-11.32-278.31,262.86,6.62-274.17,11.98-269.11-278.31-262.86,290.3,6.25,284.93,11.32,278.31-262.86-6.62,274.17-11.98,269.11,278.31,262.86Z"/>
</svg>