<?xml version="1.0" encoding="UTF-8"?>
<svg id="Layer_1" data-name="Layer 1" xmlns="http://www.w3.org/2000/svg" viewBox="0 0 1980 1980">
  <g>
    <path d="M1152.36,1430.64c.36,.11,1.13,.33,1.51,.14-.4-.51-1.29-.65-1.88-.83-.51-.16-1.01-.34-1.51-.53,.03,.02,.06,.04,.08,.06,.61,.45,1.06,.94,1.79,1.17Z"/>
    <path d="M723.79,958.6c.33-.34,.65-.68,.96-1.02-.27-.01-.54-.03-.8-.09-.05,.37-.1,.74-.15,1.11Z"/>
    <path d="M1413.84,1162.97m70.93,83.58,130.84,265.87-197.55-95.04c14.39,9.36,27.99,18.22,42.48,27.65,1.28,0,5.32-1.21,7.82,.24,6.07,3.53,11.43,8.3,18,13.27,1.01-5.82,1.58-9.14,2.15-12.46,1.28-.27,2.55-.54,3.83-.82l57.67,62.22,40.16,4.98c4.39-.59,9.12-1.23,14.89-2.01l24.24-8.47c-1.06-7.92-.82-6.32-1.93-14.23-1.13-8.09-1.47-16.29-2.27-24.42-.32-3.18-.2-6.73-1.61-9.41-4.79-9.11-11.56-17.41-15-26.94-4.85-13.45-7.68-27.66-10.68-41.7-.49-2.31,4.32-5.89,3.7-8.02-4.33-14.96-9.43-29.7-14.31-44.56l-25.33-35.31c-6.15,1.17-9.51,.09-11.91-5.6-.91-2.15-3.1-3.79-4.76-5.6-11.74-12.83-15-29.6-14.09-45.12,.94-16.1-3.05-29.12-11.28-42.21v26.84c-.97,.21-1.95,.43-2.92,.64l-11.23,44.74c-.83,.66-1.67,1.32-2.5,1.98-6.62-5.93-12.61-12.82-19.98-17.59-14.68-9.5-22.74-22.59-26.39-39.39l-44.6-55.51s18.99,81.6,18.97,82.98c-.06,5.4-10.08,8.17-13.71,4.54-13.94-13.97-28.87-27.1-38.5-44.82-1.64-3.01-2.12-9.75-8.59-4.57-.21,.17-2.17-1.4-2.93-2.43-7.56-10.31-15.01-20.69-22.56-31.01l-7.28-57.25c7.13-6.21,13.82-10.57,18.46-16.54,4.1-5.28,7.06-12.1,8.45-18.68,1.67-7.94,3.21-13.07,13.29-12.17,4.14,.37,10.56,2.38,14.06-3.59,.49-.84,3.16-1.44,3.98-.89,13.08,8.66,30.61-1.49,43.52,12.22,11.22,11.92,26.36,20.13,39.62,30.17,2.69,2.04,4.72,4.94,6.52,8.08l3.62,2.28c.32-5.11-3.21-10.47-5.06-15.61,2.94-1.52,6.61-3.41,10.31-5.32,.12-.06,.23-.12,.35-.18,0-.06,0-.12,0-.18,.78-.8,2.39-2.41,2.81-2.86,.32-.34,.54-.65,.87-.96,.58-.55,1.23-.91,2.04-.96,2.53-.17,5.14,0,7.68,0,1.14,0,2.27,0,3.41,0,.9-.04,1.8-.03,2.7,.04,.99,.19,1.97,.39,2.95,.61,1.67,.24,3.29,.37,4.94,.81,1.33,.36,2.58,.79,3.84,1.37,2.44,1.11,4.76,2.22,7.37,2.83,1.33,.31,3.41,1.25,4.81,.73-.65-.83-1.38-1.31-2.23-1.93-2-1.46-3.98-2.96-6.01-4.39-.86-.61-1.56-1.25-2.35-1.93-.98-.85-2.14-1.43-3.23-2.13-1.5-.97-3.02-1.86-4.44-2.95-1.6-1.23-3.17-2.48-4.79-3.69-2.28-1.71-4.57-3.63-7.11-4.96-1.38-.72-2.7-1.4-3.95-2.35-1.2-.91-2.3-1.94-3.44-2.92-2.02-1.72-4.21-3.07-6.6-4.16l-.06-1.89c.68,.12,1.35,.22,2.06,.23,2.15,.03,4.28,.18,6.44,.23,1.24,.03,2.46,.32,3.68,.53,2.26,.38,4.54,.7,6.82,.89,2.78,.23,5.57,.1,8.35,.35,2.63,.24,4.92,.78,7.43,1.52,2.01,.59,4.08,.97,6.08,1.6,1.69,.53,3.28,1.31,4.87,2.07,1.03,.5,2.16,.74,3.15,1.32,.98,.57,1.72,1.12,2.76,1.58,.69,.3,1.44,.53,2.12,.85,.35,.17,.57,.47,.98,.33,.06-.43-.41-1.1-.6-1.49-.36-.71-.78-1.39-1.18-2.07-1.16-1.98-2.08-4.14-3.48-5.97-.85-1.11-1.78-1.84-2.84-2.75-1.4-1.2-2.72-2.42-4.26-3.45-2.75-1.82-5.79-3.23-8.69-4.78-1.66-.89-3.34-1.52-5.14-2.05-2.58-.75-4.93-1.81-7.41-2.84-1.58-.66-3.21-1.17-4.81-1.77-1.49-.56-2.92-1.28-4.42-1.82-1.81-.66-3.7-1.07-5.5-1.76-1.32-.51-2.63-1.05-3.94-1.57-1.03-.41-2.09-.64-3.12-1l-.04-1.37c.54,.03,1.03,.08,1.3,.08h23.57c1.48,0,2.97,0,4.45,0,.61,0,1.41,.16,2-.03-.4-.43-1.03-.68-1.54-.97-.73-.42-1.43-.89-2.18-1.28-1.48-.79-3.01-1.48-4.46-2.33-1.14-.67-2.52-1.12-3.57-1.93-.52-.4-.61-1.07-1.1-1.42-.59-.42-2.06-.22-2.68-.28-1.46-.13-2.91-.45-4.35-.72-2.89-.55-5.82-1.03-8.68-1.69-1.35-.31-2.73-.39-4.12-.41-.24-.42-.47-.85-.71-1.27l-59.98,4.21c-.93-2.81-1.91-5.75-3.11-9.36-2.05,2.05-3.88,3.88-7,7-.91-10.12-5.27-14.24-14.34-17.26-8.6-2.86-15.53-11.46-22.53-18.22-6.13-5.93-11.95-4.38-17.4-.26-5.35,4.05-9.77,8.32-17.41,4.63-1.37-.66-5.29,3.94-10.17,7.8l-28.2,.82c-.64,1.68-.74,3.72-1.76,5.1-12.38,16.82-19.46,35.59-22.41,55.93l-5.18-14.86c-11.4-12-25.99-21.82-29.31-39.82-.25-1.37-.84-3.21-1.87-3.83-12.6-7.53-6.18-17.75-3.46-26.89,8.36-28.02,27.48-50.03,45.06-71.93,16.21-20.19,33.92-40.33,56.97-54.01,17.05-10.12,33.57-21.41,51.43-29.82,19.84-9.34,40.87-16.16,61.5-23.78,18.95-7,38.03-13.69,57.1-20.36,12.01-4.2,24.19-7.91,36.16-12.2,19.06-6.82,38.01-13.96,57.03-20.92,35.92-13.15,71.93-26.05,107.75-39.49l83.39-62.01c5.67-14.84,1.58-37.93,26.57-40.57,1.55-.16,2.88-2.11,4.39-3.11,6.38-4.22,12.79-8.4,16.37-10.75,3.19-4.87,4.19-8.32,6.36-9.38,12.23-6.02,22.44-12.29,30-25.64,9.91-17.48,25.81-31.48,38.33-47.59,9.98-12.84,21.27-25.54,27.53-40.2,10.71-25.07,17.93-51.63,27-78.7-16.33-3.02-31.51-5.85-46.7-8.65-21.31-3.92-42.91-6.71-63.88-11.98-26.82-6.72-46.62-23.61-60.02-47.79-8.1-14.63-15.93-29.4-23.89-44.11-.28,1.44-.53,2.89-.78,4.34-.18,.02-.38,.06-.61,.12-2.12,.53-4.62,3.14-5.93,4.8-.72,.91-1.57,1.93-2.18,2.92-.4,.66-.54,1.67-.93,2.39-.3,.55-1.24,1.44-1.45,2.13-.29,.95-.13,2.06-.12,3.04,.02,1.31-.31,1.9-.6,3.08-.17,.67-.35,1.37-.52,2.05,0-2.97,.02-5.95,.03-8.92,0-1.91-.53-3.83-.36-2.66-5.1,3.85-11.9,7.55-16.74,12.98-7.61,8.54-12.48,19.94-21.03,27.14-21.22,17.86-40.65,37.59-64.63,52.64-28.68,18.01-57.38,18.55-87.16,8.61-30.23-10.09-57.01-26.96-82.73-46.03-25.43-18.86-52.67-35.29-79.27-52.55-12.76-8.28-25.7-16.33-38.9-23.89-9.19-5.27-19.04-9.4-28.41-14.37-2.44-1.29-4.22-3.83-6.3-5.8l-.97,1.03c8.84,11.97,17.67,23.95,25.18,34.12-2.7,5.8-5.6,9.39-5.93,13.2-1.51,17.52-2.38,35.11-3.35,52.68-1.91,34.6-2.16,69.65-17.36,101.76-9.23,19.5-17.53,40.97-32,56.02-14.68,15.27-29.58,31.45-50.62,41.37-24.95,11.76-49.83,22.03-76.79,27.22-23.09,4.45-46.19,9.04-69.44,12.45-9.3,1.36-19.08,.14-28.58-.68-5.85-.5-11.58-2.47-17.98-3.91,1.47,11.21,11.32,25.87,16.53,26.44,10.98,1.2,22.02,2.11,32.9,3.96,8.72,1.49,18.21,2.63,21.64,13.8-2.27-.19-4.22-.35-8.51-.7,9.33,7.8,17.05,14.25,24.08,20.13-.05,0-2.18,.39-6.73,1.21,6.36,6.76,11.08,12.52,16.57,17.4,6.46,5.74,15.71,9.38,20.06,16.27,13.17,20.84,32.53,38.59,35.09,65.2,.11,1.14,1.44,2.16,2.52,3.7,.92-.36,1.84-.72,2.76-1.09-.52,2.61-1.26,5.22-1.84,7.82-.58,2.57-.64,5.14-1.16,7.68-.55,2.65-1.96,5.3-3.22,7.8-17.85,7.29-35.64,14.76-50.01,28.38-3.21,3.04-6.34,6.19-9.38,9.44-5.21,3.02-10.25,6.34-15.1,9.92,.72-2.04,1.44-4.07,2.2-6.09-.8-.7-1.6-1.41-2.41-2.11-9.64,7.33-19.15,14.86-29.02,21.87-2.86,2.04-6.76,2.61-10.19,3.86-9.43,2.85-18.47,6.46-27.79,9.07-9.8,2.75-20.07,6.87-28.54-3.67-.91-1.13-4.67-.47-6.92,.1-4.55,1.14-9.01,2.66-13.43,4.26-6.73,2.44-13.7,7.74-19.99,6.99-8.35-.99-17.37-5.2-23.86-10.68-6.88-5.82-10.51-15.3-16.67-22.2l-45.39-40.71c-16.15-4.37-17.73-7.54-15.21-29.12,2.94-.79,5.95-1.61,9.71-2.62l7.78,.2c.71,.08,1.64-.11,2.1,.26,14.93,12.09,33.58,12.08,51.11,15.61,2.58,.52,5.81-.11,8.24-1.26,14.35-6.8,28.25-14.59,44.36-16.84,4.52-.63,8.85-2.59,13.07-3.88l-1.78-42.64c-9.62-28.46-33.74-40.17-57.57-52.31-5.93-3.02-11.47-6.83-17.19-10.27l-27.5-25.65c-10.13-.34-20.3-.15-30.35-1.17-4.09-.42-9.34-2.41-11.57-5.49-6.05-8.36-10.89-17.61-15.91-26.67-.96-1.72-.58-4.18-.81-6.31,.83-.19,1.65-.38,2.48-.57l7.19-17.08c-.81-10.48-.88-21.05-.58-31.57,.04-1.4,.13-2.77,.26-4.13l.21-.06c0-.43-.04-.9-.07-1.37,.12-.92,.28-1.83,.47-2.74,.15-.31,.29-.62,.35-1.02,.03-.21,.05-.4,.07-.6,.14-.53,.26-1.05,.44-1.59,.14-.58,.2-1.2,.27-1.79,.11-.87,.45-1.69,.53-2.56,.16-1.77,.25-3.47,.25-5.25,0-3.21-.13-6.37-.23-9.57-.1-2.95,.34-6.03-.4-8.92-.64-2.48-.65-4.93-1.94-7.2-.73-1.29-1.43-.46-1.77,.61-1.6,4.99-4.01,9.67-5.7,14.64-.77,2.26-1.46,4.54-2.34,6.76-1.01,2.55-1.98,4.97-2.38,7.71-.43,2.91-.63,5.84-.75,8.77,0,0,0,0,0,.01-.17,.18-.3,.18-.51,.27-.31,.13-.52,.35-.8,.52-.77,.48-1.6,.78-2.42,1.16-.65,.29-1.34,.57-2.04,.71-1.05,.2-2.08,.54-3.16,.55-1.02,.01-2.05,.02-3.07,0-.02-.03-.03-.07-.05-.1-.29-.39-.71-.6-1.03-.95-.59-.63-1.07-1.35-1.35-2.16-.47-1.34-.81-2.75-1.28-4.1-.57-1.65-1.06-3.36-1.59-5.02-.55-1.74-.74-3.6-1.04-5.4-.44-2.65-.95-5.29-1.39-7.94-.3-1.83-.43-3.69-.91-5.5-.34-1.28-.96-2.49-1.25-3.78-.13-.61-.27-1.16-.51-1.74-.17,.2-.19,.45-.05,.74,0,.68,0,1.36,0,2.05-.01,1.57,.14,3.08,.39,4.63,.5,3.15,.73,6.3,.98,9.48,.3,3.86,0,7.71,.23,11.57,.12,2.06,.42,4.09,.48,6.16,.05,1.99,.23,3.99,.26,5.98,0,.42,0,.83,0,1.25-1.03,.85-2.21,1.51-3.46,1.99-.75,.29-1.52,.5-2.26,.79-.43,.17-.84,.29-1.28,.39-.99,.22-1.95,.39-2.97,.38-1,0-1.99-.01-2.99,0-.26,0-.48,0-.73-.06-.12-.25-.24-.51-.32-.77-.45-1.38-.97-2.75-1.4-4.14-.28-.91-.27-1.87-.49-2.79-.25-1.04-.67-2.04-.99-3.07-.78-2.54-1.3-5.19-1.92-7.77-.69-2.89-1.35-5.77-2.32-8.58-.3-.86-.5-1.92-.89-2.72-.17-.34-.31-.78-.8-.49-.32,1.17-.03,2.87-.03,4.06v7.91c0,1.82-.06,3.65-.02,5.48,.03,1.41,.17,2.79,.81,4.06,.53,1.05,1.01,1.9,1.28,3.06,.22,.92,.32,1.85,.61,2.75,.48,1.5,1,3.02,1.52,4.51-.18,.2-.38,.34-.56,.55-.63,.72-1.48,1.22-2.46,1.33-1.17,.13-2.44,.04-3.62,.02-.35,0-.66-.09-.97-.18-1.36-1.19-2.29-2.85-3.34-4.31-.55-.76-.95-1.63-1.61-2.29-.64-.63-1.35-1.16-1.92-1.86-1.42-1.74-2.46-3.77-3.84-5.55-.83-1.07-1.64-1.93-2.69-2.79-.72-.58-1.06-1.44-1.73-2.03-.22-.2-1.46-.99-1.78-.87-.32,.11-.21,.46-.22,.75-.03,1.64,.21,3.15,.67,4.73,.84,2.9,1.38,5.83,2.41,8.67,1.08,2.98,1.89,5.95,2.42,9.08,.23,1.36,.66,2.59,.66,3.96,16.23,5.76,16.36,12.4,17.61,27.45,.75,8.97,.59,18.3,3.12,26.79,4.57,15.32,5.57,30.15,.13,45.31-.49,1.37,.19,3.17,.1,2.1,7.03,2.23,12.41,3.94,17.61,5.6-6.77,5.42-15.63,9.08-16.04,13.53-1.03,11.02-9.38,10.25-16.57,15.1l-21.93-.88c-2.85,.33-6.87,.81-8.55,1l-17-21.12c-9.61-7.46-19.6-12.98-28.69-19.73-5.64-4.18-11.05-9.56-14.47-15.59-3.63-6.4-4.79-14.21-7.16-21.81-4.95,2.73-7.77,4.28-10.58,5.83-.93-.17-1.85-.34-2.78-.51,9.1-14.26-6.91-18.64-8.88-28.56-4.09-.61-8.22-1.23-11.79-1.76-4.8-8.09-2.07-14.6,5.11-17.02,6.75-2.27,7.91-5.49,6.09-11.09-1.85-5.69-4.21-11.22-6.35-16.82-1.24-.1-2.49-.19-3.73-.29-4.59,6-9.18,12-12.7,16.6-6.49-1.76-12.23-3.32-17.94-4.87-.84-27.18,18.92-46.57,26.37-70.72-4.76,6.1-9.52,12.21-14.28,18.31-.85-.69-1.7-1.38-2.55-2.08,3.05-8.49,6.09-16.97,9.14-25.46-.72-.39-1.43-.79-2.15-1.18-10.13,11.82-20.26,23.64-29.75,34.73-.49-5.36-1.01-11.06-1.53-16.76-1.06-.04-2.13-.07-3.19-.11-3.96,8.56-7.92,17.12-12.93,27.95-3.11-5.52-6.92-9.37-6.12-11.37,2.56-6.37,6.84-12.04,10.45-17.98-.29-.25-.58-.51-.86-.76-3.96,3.26-7.91,6.51-12.84,10.57,2.2-11.26,2.3-20.51,11.95-27.97,10.94-8.46,19.11-20.55,28.21-31.3,1.13-1.33,.52-4.12,.92-8.39-5.4,4.03-8.82,6.58-12.23,9.13-.64-.6-1.29-1.19-1.93-1.79,8.13-12.14,16.27-24.28,24.4-36.41-.73-.61-1.47-1.22-2.2-1.83-12.79,13.87-25.58,27.75-40.05,43.44-3.82-8.07-6.37-13.46-8.92-18.85-2.68,1.16-5.83,2.52-10.03,4.34,1.1-3.45,1.65-5.17,2.99-9.34-10.87,8.72-19.68,15.79-28.51,22.88-7.54-12.85-4.28-24.05,7.68-29.7,8.05-3.81,17.79-6.87,22.96-13.32,10.34-12.93,18.3-27.81,26.75-42.18,4.01-6.81,6.9-14.27,10.3-21.44-.83-.39-1.67-.79-2.5-1.18-10.08,10.84-20.16,21.68-31.03,33.37-3.8-14.19,9.34-17.82,14.95-29.41-8.3,3.06-14.19,5.27-20.1,7.41-7.1,2.57-16.82,3.04-20.74,8.07-6.69,8.57-15.01,12.2-24.32,14.73-3.06,.83-9.33-.78-10.03-2.74-1.17-3.27-.17-8.52,1.93-11.52,6.34-9.06,13.65-17.45,20.58-26.1-.72-.43-1.45-.87-2.17-1.3-5.03,2.75-10.06,5.51-15.09,8.26-.96-1.33-1.92-2.65-2.88-3.98,4.26-3.76,8.42-7.64,12.82-11.23,4.06-3.31,11.63-5.97,11.99-9.49,1.01-9.96,7.62-14.52,13.86-20.11,2-1.79,3.16-4.52,4.71-6.82-.64-.64-1.27-1.28-1.91-1.91-6.84,10.72-20.69-.4-28.64,11.15-6.16,8.95-16.47,15.04-24.94,22.4-.8-.76-1.59-1.52-2.39-2.29,2.73-3.58,5.47-7.17,9.67-12.67-4.94,2.02-7.42,3.03-9.9,4.05-.79-.81-1.57-1.63-2.36-2.44,9.16-9.29,18.32-18.59,27.62-28.01-2.13-.98-3.7-1.69-3.41-1.56,3.12-6.1,5.87-11.49,8.62-16.88-.81-.59-1.62-1.19-2.44-1.78-2.44,1.84-5.38,3.29-7.24,5.6-6.45,8.03-11.94,16.91-18.92,24.41-6.58,7.07-14.58,12.81-22.76,19.83-1.32-6.26-1.95-9.26-2.68-12.69-3.23,1.03-5.71,1.82-8.2,2.61-.57-.71-1.14-1.42-1.71-2.13,12.21-12.26,24.43-24.52,36.64-36.79-.27-.18-.55-.36-.82-.54-4.79,2.69-9.58,5.38-14.36,8.07l-2.45-3.35c3.36-2.09,6.71-4.19,10.62-6.62-11.76-10.28-2.65-13.57,3.8-17.7,4.02-2.58,8.06-5.13,13.48-8.57-4.62-2.47-7.32-3.92-8.26-4.42-9.54,6.76-17.83,12.64-26.67,18.91,.69-4.53,1.26-8.23,2.34-15.3-6.39,4.35-10.01,8.14-14.4,9.52-7.99,2.51-16.41,3.69-24.7,5.14-.95,.17-2.67-1.26-3.26-2.36-3.99-7.44,2.19-28.37,9.39-32.34,12.21-6.72,16.96-18.37,13.04-34.42-6.04,2.64-11.82,5.23-17.65,7.71-6.48,2.75-12.89,7.27-19.53,7.68-13.25,.82-22.87,7.19-31.89,15.69-1.32,1.24-3.08,2.01-4.64,3-.34-.43-.69-.87-1.03-1.3,5.24-6.32,10.48-12.64,15.72-18.96l-1.81-1.63c-7.33,7.39-14.67,14.78-22,22.17l-2.06-2c5.29-7.44,10.57-14.88,17.41-24.49-7.44,3.63-12.55,6.13-17.67,8.62-.54-.8-1.08-1.59-1.61-2.39,6.15-4.84,12.31-9.68,18.46-14.53-.44-.66-.87-1.31-1.31-1.97-6.24,1.65-12.47,3.31-19.84,5.26,6.97-13.45-6.07-.44-6.11-6.58,9.65-8.26,19.81-16.94,29.97-25.63-.44-.9-.88-1.8-1.31-2.7-24.42,6.17-48.84,12.34-74.33,18.78,2.24-5.31,4.35-10.29,6.29-14.89-5.55,3.85-11,7.63-16.45,11.41-.92-1.02-1.85-2.05-2.77-3.07,2.32-4.38,4.65-8.77,6.97-13.15h-17.43c-3.06,1.47-6.07,3.05-9.19,4.36-2.47,1.04-6.01,.97-7.48,2.72-7.89,9.37-21.33,10.45-31.02,2.2-.54-.46-1.14-.93-1.77-1.37-1.82,.67-3.61,1.2-5.58,1.57-5.57,1.05-11.17,1.73-16.72,2.93-4.09,.88-8.2,1.5-12.31,2.28-.99,.19-1.98,.41-2.96,.64,.01,.02,.02,.03,.04,.05h-.25c-3.6,.83-7.15,1.82-10.78,2.52-6.35,1.22-12.66,1.78-18.84,3.86-12.04,4.05-23.75,8.99-35.38,14.1L36.01,328.07c-6.22,11.28-9.61,24.1-15.61,35.53-5.22,9.96-12.29,18.94-20.41,31.16L247.07,209.04c.46-.39,.88-.76,1.29-1.11,3.24-1.28,6.45-2.25,9.44-3.2,.76,.03,1.54,.05,2.36,.03,3.44-.11,6.83-.78,10.26-1.06,3.06-.25,5.52-1.76,8.47-2.15,.94-.12,2,.14,2.96,.1,1.47-.07,2.47-.55,3.9-.82,2.09-.4,4.23-.23,6.37-.23,3.55,0,6.58,.19,9.98-1,4.34-1.53,8.19-1.74,12.65-2.05,2.57-.18,4.66-1.69,7.18-2.13,1.89-.32,4.21,.05,6.14,.05,6.5,0,13,.04,19.5,0,2.95-.02,5.34,.12,8.18,1,3.45,1.06,6.95,1.95,10.3,3.08,3.62,1.22,7.57,2.61,11.05,4.38,3.11,1.58,6.83,2.93,9.73,4.8,2.95,1.9,5.5,4.78,8.22,7.01,2.92,2.4,5.87,4.75,8.76,7.18,2.57,2.16,5.31,3.99,7.68,6.21,.74,.69,1.52,.9,2.32,1.49,1.06,.78,1.5,1.72,2.49,2.57,3.7,3.17,8.45,4.23,12.06,7.67,1.73,1.65,3.87,2.48,5.86,4.03,4.23,3.27,8.42,7.07,12.17,10.88,5.26,5.35,11.29,9.55,14.34,16.6,3.53,8.16,5.52,16.37,10.29,23.94,1.81,2.88,2.7,6.16,4.05,9.24,1.69,3.86,3.73,7.37,4.7,11.56,.55,2.35,.06,4.46,1.17,6.74,.84,1.73,1.58,3.35,2.35,5.08,.68,1.52,1.28,2.77,1.8,4.28,.75,2.15,1.73,4.67,2.08,6.93,1.34,8.57,3.5,16.96,4.9,25.54,1.76,10.82,1.26,21.81,1.23,32.76-.02,6.39,1.13,13.02,2.8,19.23,1.26,4.68,2.49,9.13,4.16,13.69,1.38,3.77,3.5,7.13,5.33,10.68,1.6,3.11,3.13,6.04,4.94,9.04,1.96,3.26,2.65,6.71,4.3,10.03,.91,1.84,1.68,2.69,2.33,4.8,.58,1.88,1.39,3.84,2.03,5.69,.5,1.45,1.24,1.96,1.83,3.2,.11,.22,.19,.46,.29,.68l3.18,8.11c.22,.54,.44,1.09,.68,1.63,2.39,5.19,4.39,10.93,6.21,16.33,.59,1.75,.64,3.13,1.09,4.89,.53,2.05,1.88,3.67,2.65,5.62,1.64,4.13,3.33,8.43,4.39,12.75,1.49,6.1,1.51,12.25,1.95,18.4,.16,2.27,1.37,4,1.94,6.13,.53,2,.28,3.62,1.14,5.59,1.84,4.2,4.16,8.3,5.75,12.61,1.91,5.16,3.63,10.38,5.64,15.52,1.61,4.11,3.97,7.87,6.14,11.7,2.12,3.76,4.9,7.04,7.75,10.24,2.73,3.06,4.22,7.61,6.36,11.11,1.93,3.16,4.21,5.98,6.13,9.16,2.25,3.73,5.47,6.73,7.23,10.77,3.12,7.16,7.32,14.17,8.68,21.99,1.03,5.94,3.36,11.12,5.19,16.79,.52,1.61,1.18,3.16,1.88,4.68l2.22,4.75c.8,1.78,1.53,3.58,2.01,5.47,.79,3.06,2.45,6.49,3.6,9.53,1.43,3.8,2.94,7.84,4.6,11.52,1.72,3.8,4.99,6.52,6.77,10.3,1.79,3.79,2.93,7.64,5.28,11.2,2.2,3.32,4.89,6.34,7.24,9.56,2.17,2.98,3.6,5.67,6.54,8.08,4.19,3.43,8.28,7.86,13.07,10.47,2.61,1.43,4.38,3.08,6.55,4.82-1.24,2.59-3.36,4.72-7.66,6.07-4.27,1.34-6,10.76-9.89,18.52-2.7-4.74-5.5-9.65-9.15-16.06,1.06-.13-.83-.42-2.07,.34-13.68,8.48-28.4,10.6-44.34,9.33-8.83-.7-17.92,1.39-26.85,2.54-14.98,1.92-21.5,3.18-30.53-11.49-1.34,.29-2.63,.12-4.01,.18-3.17,.13-6.24-.03-9.38-.47-3-.42-5.97-.34-8.98-.55-1.65-.12-3.17-.04-4.77,.34-.28,.07-.64,.04-.68,.37-.05,.34,.99,1.38,1.23,1.56,.72,.53,1.62,.69,2.35,1.27,1.06,.85,2.07,1.46,3.29,2.05,2.03,.98,4.23,1.57,6.23,2.6,.8,.41,1.47,1,2.22,1.49,.79,.52,1.72,.73,2.58,1.1,1.65,.72,3.47,1.28,4.91,2.36,.16,.28,.3,.56,.38,.91,.27,1.15,.62,2.37,.74,3.55,.1,.98-.22,1.92-.78,2.69-.16,.22-.26,.45-.42,.66-1.57-.2-3.16-.39-4.73-.55-.95-.09-1.87,0-2.82-.02-1.2-.02-2.13-.32-3.26-.61-1.38-.36-2.75-.2-4.14,.06-1.79,.34-3.57,.78-5.35,1.16-2.58,.55-5.16,1.1-7.73,1.65-1.17,.25-2.88,.32-3.96,.88-.18,.55,.28,.59,.65,.68,.87,.21,1.94,.19,2.84,.3,2.95,.37,5.91,.41,8.88,.48,2.66,.06,5.36,.01,8,.25,1.07,.1,2.13,.3,3.21,.33,.95,.02,1.88-.19,2.83-.1,1.46,.13,2.9,.35,4.35,.51,.27,.03,.55,.09,.82,.15,.11,.22,.16,.45,.21,.7,.2,.98,.41,1.95,.63,2.92,.22,.99,.26,1.96,.25,2.98,0,.46-.04,.88-.11,1.34-.13,.79-.17,1.59-.3,2.38-.21,1.32-.61,2.62-1.23,3.8-.41,.09-.81,.19-1.22,.27-1.96,.38-3.94,.62-5.9,.99-2.04,.38-4.08,.51-6.12,.82-3.82,.59-7.53,1.67-11.36,2.19-3.16,.42-6.29,.86-9.48,1.02-1.57,.08-3.07,.25-4.61,.59-.67,.15-1.33,.3-2,.43-.32-.07-.56,0-.72,.2,.62,.12,1.19,.14,1.81,.14,1.33,0,2.63,.36,3.96,.43,1.86,.09,3.71-.17,5.56-.26,2.68-.13,5.37-.18,8.05-.3,1.82-.08,3.67-.28,5.49-.11,1.74,.17,3.51,.29,5.25,.5,1.42,.18,2.87,.21,4.28,.4,.85,.11,1.66,.43,2.39,.87,.41,.25,.7,.61,1.14,.81,.03,.01,.07,.01,.1,.03,.24,.99,.44,2.01,.64,3.01,.21,1.06,.1,2.13,.12,3.2,.01,.72-.11,1.45-.27,2.14-.19,.88-.32,1.75-.63,2.61-.11,.31-.29,.57-.34,.89-.04,.22-.02,.35-.16,.56,0,0,0,0-.01,.01-2.84,.73-5.66,1.54-8.42,2.57-2.6,.97-4.76,2.42-7.05,3.94-1.99,1.32-4.07,2.47-6.12,3.7-4.5,2.69-8.58,6.03-13.13,8.63-.97,.56-1.64,1.41-.23,1.86,2.49,.78,4.89,.29,7.45,.39,2.98,.12,5.89-.96,8.8-1.48,3.15-.56,6.27-1.1,9.41-1.77,1.74-.37,3.39-.82,5.08-1.34,.84-.26,1.57-.76,2.4-1.05,.56-.19,1.16-.38,1.69-.64,.48-.29,.97-.51,1.46-.76,.19-.06,.37-.12,.57-.19,.37-.13,.65-.34,.92-.55,.85-.38,1.71-.73,2.58-1.04,.47-.07,.94-.13,1.36-.22v-.22c1.31-.41,2.63-.79,4-1.12,10.22-2.49,20.58-4.62,30.99-6.02l15.21-10.6c.01-.85,.03-1.7,.04-2.55,2.12-.21,4.45-1.1,6.34-.52,9.91,3.02,19.97,5.82,29.41,9.99,3.48,1.54,6.52,6.26,7.78,10.17,3.11,9.62,5.04,19.61,7.49,29.44l30.82,21.54c4.56,4.87,9.44,9.49,13.63,14.66,16.85,20.77,33.34,41.92,63.18,45.38l42.08-7.16c.38-4.39,1.39-9.04,1.07-13.59-1.16-16.23,3.55-31.45,7.21-46.9,.62-2.62,.56-5.91-.49-8.32-3-6.93-5.44-14.19-8.37-21.17l49.98,55.98c5.2,2.48,8.73,4,12.11,5.81,7.8,4.17,15.68,8.25,23.26,12.79,11.27,6.76,22.05,14.37,33.55,20.67,6.37,3.49,8.88,8.11,5.61,13.8-3.5,6.09-8.99,11.02-13.56,16.5-24.72,29.67-49.68,59.15-74.01,89.14-3.56,4.39-7,8.88-10.39,13.42-1.87,0-3.74,0-5.61,0-1.9,0-3.91,.11-5.86,.05,.79-.67,1.54-1.32,2.17-1.9-3.61,0-7.38,0-11.22,0-.15-.07-.32-.13-.47-.2-.25,.08-.54,.14-.81,.2-5.9,0-11.97,0-18.07-.01-57.57-.19-100.68-25.16-127.75-76.06-10.82-20.34-19.57-41.79-29.2-62.76-6.26-13.64-29.94-26.66-42.82-25.16-11.23,49.84-21.01,99.17-33.89,147.67-5.82,21.91-15.29,43.05-30.87,61.29-16.86,19.74-37.01,32.54-62.14,35.02-15.86,1.56-32.41-.88-48.32-3.54-18.4-3.08-35.39-9.77-45.77-27.4-2.72-4.62-7.94-7.77-12.01-11.6-.05,3.29,1.24,5.68,2.33,8.16,6.39,14.51,13.02,28.94,18.85,43.68,1.05,2.66-1.22,6.64-1.96,10.01-2.3-1.93-4.61-3.85-4.84-4.05,.97,12.24,2,26.37,3.3,40.47,.29,3.19,1.31,6.39,2.44,9.41,4.44,11.94,9.96,23.67,1.12,36.19-1.43,2.03-.66,5.63-.86,8.51-1.74,24.63-1.97,49.49-5.56,73.84-5.66,38.29-17.52,74.74-47.42,101.64-11.3,10.16-24.6,19.61-38.68,24.87-31.8,11.88-64.83,15.16-97.96,3.64-.41-.14-1.13,.61-1.73,.96,8.4,17.01,15.58,34.82,31.97,46.31,.87,.61,1.54,1.53,2.25,2.36,19.04,22.48,40.28,42.63,64.3,59.71,11.63,8.27,24.12,15.4,35.35,24.15,11.42,8.9,25.47,31.72,21.5,43.91-3.1,9.51-4.95,19.43-7.41,29.16-5.86,23.15-13.22,46.04-17.32,69.49-6.8,38.91-11.52,78.19-17.13,117.4l-36.79,61.35c-12.76,9.44-24.74,18.31-36.72,27.17,.35,1.06,.69,2.13,1.04,3.19,3.14,.58,6.33,1.83,9.43,1.64,26.32-1.59,52.64-3.23,78.92-5.41,5.23-.44,10.27-3.27,13.73-4.44,2.51,.93,4.74,2.65,6.53,2.27,13.05-2.82,26.25-5.32,38.95-9.34,28.85-9.11,50.58-27.22,69.68-50.99,21.54-26.81,35.1-57.69,51.84-86.97,6.6-11.54,15.42-22.72,18.4-35.22,5.69-23.86,24.92-32.24,42.42-43.09l27.54-22.15c12.05-17.74,11.9-17.76,15.51-39.62,.81-4.9,1.94-10.44,4.85-14.2,18.48-23.83,37.36-47.35,56.39-70.74,10.83-13.32,23.12-25.53,33.16-39.39,29.12-40.2,52.23-83.9,72.95-128.93,7.54-16.39,14.9-32.98,23.98-48.52,8.89-15.21,19.85-29.21,29.93-43.71,13.74-19.77,27.12-39.82,41.38-59.21,15.74-21.41,32.31-42.22,48.52-63.29-.43-.36-.87-.72-1.3-1.08-2.83,1.52-5.66,3.04-10.37,5.57,1.23-3.33,1.32-5.16,2.19-5.68,10.39-6.15,20.75-12.39,31.41-18.05,21.83-11.59,45.18-14.4,69.62-12.29,12.53,1.08,25.34,.74,34.04-11.41,1.29-1.81,5.19-2.89,7.64-2.55,23.24,3.25,42.13,15.6,61.14,28.41-1.27,2.04-1.64,3.48-2.4,3.73-21.66,7.17-40.45,18.7-55.59,35.96-1.13,1.29-3.09,1.82-4.6,2.81l5.25,27.72c-2.73,5.6-6.38,10.41-5.44,11.61,5.24,6.67,2.01,11.9-.79,18-2.85,6.2-3.11,12.22,3.99,16.93,8.11,5.38,17.99,10.31,22.64,18.09,4.9,8.21,9.85,11.59,19.93,10.3-2.37,3.71-3.77,5.9-5.33,8.34,3.79,.4,6.86,.72,9.81,1.03l8.36,56.71c-.13,.46-.25,.92-.36,1.38-.55,2.32-.38,4.7-.38,7.07,0,2.93-.05,5.87-.01,8.8,.01,1.26,.06,2.52,.18,3.78,.18,1.81,.65,3.58,.94,5.37,.51,3.08,.9,6.29,2,9.22,.51,1.35,1.13,2.66,1.62,4.03,.39,1.11,.86,2.16,1.41,3.19,.19,.36,.75,1.83,1.3,1.89,.58,.07,.16-.96,.08-1.22-.27-.89-.35-1.72-.5-2.63-.29-1.68-.7-3.41-.82-5.11-.08-1.2-.05-2.41-.15-3.62-.13-1.61-.28-3.19-.28-4.81-.02-3.87-.16-7.72,.51-11.54,.72-4.1,1.91-8.01,3.39-11.9,.14-.37,.31-.73,.46-1.09l11.35-2.14c.15,.45,.29,.9,.46,1.34,1.09,2.77,2.32,5.41,4.08,7.83,2.16,2.97,4.41,5.92,7.31,8.21,1.19,.93,2.44,1.79,3.65,2.7,1.44,1.07,3.12,1.77,4.71,2.6,2,1.05,4.08,1.94,6.08,3,1.8,.95,3.56,1.98,5.48,2.69,2.98,1.1,5.85,2.47,8.83,3.57,.63,.23,1.26,.48,1.89,.72-1.17-.86-2.42-1.52-3.54-2.47-1.65-1.4-3.23-2.84-4.82-4.31-1.56-1.45-3.26-2.76-4.85-4.17-2.1-1.86-3.9-4.07-5.6-6.3-2.01-2.62-3.61-5.62-5.19-8.51-1.13-2.05-1.96-4.21-2.43-6.5-.21-1.02-.12-1.99-.22-3.01-.01-.12-.02-.24-.03-.36l6.69-1.26c.92,1.04,1.65,2.28,2.7,3.2,1.21,1.07,2.58,1.99,3.88,2.93,3.08,2.23,6.35,4.21,9.48,6.37,2.92,2.02,5.91,3.79,8.97,5.58,1.53,.89,3.13,1.62,4.72,2.38,1.62,.78,3.17,1.7,4.72,2.62,1.53,.9,3.08,1.73,4.71,2.43,2.01,.86,4.07,1.18,6.14,1.8,.41,.12,1.42,.57,1.35-.17-.03-.38-.39-.76-.58-1.06-.57-.88-1.06-1.81-1.7-2.65-1.35-1.75-2.85-3.38-4.2-5.13-.7-.9-1.35-1.85-2.08-2.73-.84-1.02-1.8-1.94-2.72-2.89-1.94-2.01-3.77-3.96-5.45-6.2-1.51-2.01-2.82-4.19-4.2-6.29-.99-1.52-2.05-3.02-2.86-4.64,.28-.07,.57-.13,.85-.2,1.1-4.15,2.21-8.3,3.09-11.6,5.42,.7,11.41,3,16.33,1.59l-3.01-3.05c-3.46-1.09-6.73-2.45-9.29-4.64-12.66-10.8-23.92-23.82-37.97-32.22-16.17-9.67-10.02-28.96-21.28-39.88-.71-.69-.7-3.42,.01-4.08,5.08-4.7,1.74-10.54,.49-14.5-3.05-9.65,1.64-12.25,9.03-15.59,6.13-2.77,12.15-7.12,16.43-12.26,4.83-5.81,7.65-13.29,12.19-21.58l93.55-8.44c4.71,1.24,8.16,2.91,11.62,2.9,8.02,0,12.18,2.44,13.76,11.32,1.27,7.18,4.81,15.09,9.88,20.12,4.66,4.62,12.83,5.56,19.23,8.59,23.12,10.94,46.19,22,69.19,33.18,5.16,2.51,10.12,7.28,13.31,11.99-1,4.6-1.28,9.34-.5,14.11,.11,.67,.28,1.32,.44,1.98-4.92,5.3-13.85,8.27-23.34,7.26l78.18,36.66c5.23-1.99,12.72,1.93,19.2,3.22-2.63,8.85-3.71,18.66-8.44,26.19-2.99,4.76-13.92,2.75-15.09,12.06-2.36-.34-4.86-.31-7.04-1.12"/>
  </g>
  <path d="M1507.16,1437.64c0,1.95,0,3.91,0,5.86s-.35,4.21,.38,6.06c.97,2.5,1.96,4.96,3,7.42,.79,1.87,1.72,3.58,2.68,5.35,.44,.81,.54,1.39,1.16,2.15,.44,.54,.57,.94,.85,1.54,.81,1.71,2.15,3.21,3.11,4.85,.46,.78,.84,1.69,1.52,2.31,.74,.68,1.81,.96,2.7,1.4,3.03,1.51,5.24,3.91,8.05,5.68,.85,.54,1.42,.66,2.34,.87,.87,.19,1.57,.88,2.4,1.1,.95,.25,1.95-.29,2.52,.81,.12,.24,.11,.86,.15,1.07,.21,1,.66,1.91,1.08,2.83s.74,1.82,1.15,2.68c.22,.47,.49,.74,.77,1.21,.25,.42,.3,1,.56,1.41,.56,.85,1.46,1.57,2.12,2.37,.64,.76,1.25,1.58,2.02,2.22,1.41,1.17,2.79,2.43,4.23,3.56,1.78,1.39,2.96,3.46,4.82,4.72,1.07,.73,2.27,1.45,3.56,1.43,1.74-.02,3.47,0,5.21,0,19.3,0,38.61,0,57.91,0"/>
</svg>