<?xml version="1.0" encoding="UTF-8"?>
<svg id="Layer_1" data-name="Layer 1" xmlns="http://www.w3.org/2000/svg" viewBox="0 0 1980 1980">
  <g>
    <g>
      <polyline points="593.32 1097.37 544.59 943.32 599.97 994.88"/>
      <path d="M636.74,1181.36c-1.9-3.99-70.22-82.69-70.22-82.69l60.25,128.44"/>
      <polyline points="544.89 848.58 518.16 756.09 593.28 835.48"/>
    </g>
    <g>
      <path d="M1520.45,1403.97c-5.66,.57-10.97,2.89-15.93,6.22-1.27,.85-1.73,1.89-.96,3.35,.28,.53,.85,1,1.39,1.24,1.18,.52,2.46,.79,3.64,1.3,3.49,1.52,3.78,4.92,1.03,7.67-3.38,3.38-7.31,5.59-12.08,5.63-5.15,.04-10.31-.3-15.46-.39-1.41-.03-3.14,3.25-2.53,4.62,.53,1.18,.85,2.61,1.72,3.43,1.88,1.79,3.87,3.62,6.14,4.78,2.88,1.46,6.03,2.4,9.14,3.32,3.23,.96,6.33,.45,9.36-1.22,11.39-6.28,18.45-16.37,23.83-27.93,2.43-5.22,2.48-9.6,.33-11.03-2.67-1.77-4.55-1.98-9.62-.99Z"/>
      <path d="M1259.9,1439.04c-.67-3.18-1.08-6.53-2.11-9.66-1.07-3.26-3.21-6.37-6.77-6.49-7.27-.25-14.15-1.84-20.9-4.38-1.37-.52-3.88,1.46-4.31,3.32-.59,2.59-1.26,5.18-1.52,7.81-.7,6.9,3.26,13.2,9.71,15.5,2.47,.88,5.29,.95,7.54,2.17,2.82,1.53,5.16,3.96,7.83,5.83,2.35,1.65,5.03,1.33,7.55,.49,2.12-.71,3.92-4.1,3.73-6.54-.2-2.65-.49-5.3-.75-8.05Z"/>
      <path d="M869.74,1336.93c-6.71,.58-17.71,1.51-28.7,2.52-.53,.05-1.27,.71-1.45,1.25-.54,1.6,.12,2.53,1.67,2.68,.64,.06,1.29,.18,1.93,.19,11.75,.17,23.33,1.69,34.84,4.07,6.36,1.32,12.78,2.53,19.33,.76,2.76-.74,5.09-4.8,4.12-7.82-1.53-4.77-5.92-8.17-10.18-7.64-3.23,.39-6.43,1.05-9.63,1.63-2.56,.47-5.12,1.01-11.93,2.37Z"/>
      <path d="M1123.37,1478.25c-10.11,7.88-12.78,19.29-14.19,31.26-.14,1.23,.5,2.56,.8,3.84,.76,3.23,4.91,5.67,7.52,4.22,3.96-2.2,7.79-4.64,11.61-7.04-.07-.06,.41,.36,.41,.36-2.22-1.23-4.48-2.39-6.65-3.71-2.34-1.44-3.67-3.78-3.34-6.44,.95-7.65,2.22-15.25,3.37-22.88,0,0,.46,.4,.46,.4Z"/>
      <path d="M1280.96,1410.37c3.82,7.64,7.3,15.35,8.41,24.05,.4,3.12,2.27,6.08,3.64,9.03,1.01,2.18,4.34,2.5,6.7,.8,3-2.17,4.57-5.84,3.52-8.39-3.8-9.25-8.58-17.79-17.15-23.33-1.53-.99-3.59-1.12-5.4-1.65l.29-.51Z"/>
      <path d="M954.68,578.66c-6.8-9.73-11.4-20.59-15.51-31.68-4.37-11.76-8.03-23.72-9.22-36.34-.18-1.86-1.19-3.65-1.93-5.8-.45,1.05-1,1.69-.92,2.25,3.12,23.79,10.06,46.35,21.21,67.53,1.38,2.63,3.98,3.11,6.39,3.97v.07Z"/>
      <path d="M1071.48,1557.19c-.33-.57-.71-1.12-.99-1.72-9.61-20.68-7.83-20.26-32.63-35.01-.82-.49-2.36,.27-3.55,.44,.23,.46,.36,1.23,.75,1.41,12.92,5.87,23.07,14.79,29.81,27.62,1.54,2.93,3.79,5.41,6.97,6.73-.03,.04-.36,.53-.36,.53Z"/>
      <path d="M806.96,1288.35c2.39,7.41,5.88,14.49,4.34,22.83-.4,2.14,1.66,4.79,2.73,7.14,.19,.42,1.09,.68,1.67,.7,.47,.01,1.24-.32,1.4-.71,1.49-3.56,1.05-7.53,3.12-11.16,2.9-5.09,1.9-9.09-1.78-12.18-3.49-2.93-7.04-5.84-11.88-6.11l.4-.5Z"/>
      <path d="M704.02,1343.52c.41,1.86,.3,4.13,1.33,5.51,3.47,4.64,8.09,8.54,10.9,13.52,4.68,8.28,11.44,9.45,19.57,8.1l.47,.71c-2.05-2.68-4.1-5.36-6.14-8.04,0,0,.05-.15,.05-.15-1.86,.95-3.75,.73-5.23-.56-4.76-4.16-9.36-8.5-14.08-12.72-2.35-2.1-4.82-4.07-7.27-6.05-.04,.04,.4-.32,.4-.32Z"/>
      <path d="M911.98,445.04c1.95,7.74,3.8,15.52,5.87,23.23,1.38,5.13,3.06,10.18,4.68,15.24,.17,.53,.9,.88,1.37,1.32,.41-.95,1.39-2.1,1.15-2.83-3.36-10.14-5.99-20.45-8.17-30.92-.47-2.24-3.19-4-4.87-5.99l-.03-.05Z"/>
      <path d="M817.37,1333.97c-.69,2.19-1.65,4.61-2.16,7.13-.23,1.14,.06,2.8,.77,3.65,2.24,2.64,5.32,3.64,8.63,2.84,1.02-.25,2.14-1.61,2.5-2.71,.35-1.07,.22-2.96-.48-3.6-2.81-2.54-5.93-4.73-9.26-7.3Z"/>
      <path d="M422.54,474.5c1.77,11.88,5.81,22.97,10.93,34.55,1.12-4.45-.44-9.15-10.94-34.61,0-.02,0,.06,0,.06Z"/>
      <path d="M806.56,1288.85c-5.65-7.09-13.21-10.49-21.89-11.66-.17-.02-.72,1.25-.66,1.29,6.93,4.99,13.92,9.89,22.94,9.87,.01,0-.38,.49-.38,.49Z"/>
      <path d="M782.08,1351.3c6.02-4.82,13.17-3.54,20.02-3.91,1.5-.08,2.19-1.1,1.77-2.34-.15-.43-.92-.98-1.35-.93-4.39,.47-8.77,1.04-13.15,1.61-.62,.08-1.4,.08-1.82,.45-1.85,1.64-3.59,3.4-5.37,5.11l-.1,.02Z"/>
      <path d="M571.68,937.01c-.53-1.13-.84-2.47-1.65-3.33-.7-.75-1.96-.95-2.97-1.39-.23,.56-.76,1.19-.65,1.67,.56,2.43,1.08,4.91,2.05,7.18,.32,.75,1.93,.92,2.95,1.36,.21-.57,.6-1.13,.6-1.7,0-1.26-.2-2.52-.32-3.78Z"/>
      <path d="M1226.58,1610.62c-4.37-2.47-8.71-5-13.12-7.39-3.32-1.8-6.63-3.87-10.72-2.58-.04,.03,.41-.41,.38-.37,4.8,3.05,9.63,6.08,14.47,9.07,2.89,1.79,5.93,1.89,9.06,.76l-.06,.51Z"/>
      <path d="M769.72,1394.49c-3.81-2.25-7.74-4.33-11.41-6.8-3.25-2.18-6.61-3.71-10.53-3.79l-.37-.46c5.01,3.06,9.91,6.37,15.1,9.08,2.16,1.12,4.96,.96,7.47,1.38,0,0-.26,.6-.26,.6Z"/>
      <path d="M861.51,393.53c7.2,4.2,14.39,8.39,21.63,12.55,.04-.04-.47,.25-.47,.25-.19-1.23,.01-2.75-.63-3.64-5.16-7.23-11.82-11.03-20.92-8.79-.05,.04,.38-.36,.38-.36Z"/>
      <path d="M455.24,562.58c-2.37-2.84-5.09-5.45-7-8.58-2.05-3.37-5.03-5.35-8.09-7.41l-.03-.07c4.92,2.05,4.79,7.49,7.16,11.24,1.98,3.13,4.66,4.23,7.96,4.64,0,.04,0,.18,0,.18Z"/>
      <path d="M833.27,1435.79c-1.09-3.2-3.52-5.04-6.4-6.32-3.93-1.75-7.92-3.37-11.95-4.99-.07,.06,.41-.23,.41-.23,1.88,3.34,4.44,5.89,8.04,7.27,3.42,1.31,6.84,2.63,10.3,3.9,.04-.04-.41,.36-.41,.36Z"/>
      <path d="M1010.18,1509.7c1.67,4.2,5.26,3.37,7.7,4.69,.3,.16,.95-.33,1.43-.53-.57-.91-.97-2.35-1.75-2.62-2.2-.74-4.56-1-7.38-1.55Z"/>
      <path d="M782.19,1351.27c-7.31-1.19-14.26,.93-21.42,2.34,.7,2.75,2.61,1.36,3.85,1.13,5.79-1.05,11.54-2.29,17.39-3.46,.08,0,.18-.02,.18-.02Z"/>
      <path d="M1161.76,1511.7c-4.98,2.97-7.09,7.4-6.37,13.2,.32,2.61,.85,5.19,1.28,7.79,0,0,.02-.04,.02-.03-1.65-7.82,1.15-14.53,5.07-21.01,0-.04,0,.05,0,.05Z"/>
      <path d="M938.35,1486.25c3.17-.2,6.35-.33,9.52-.63,2.3-.22,4.57,2.22,7.35-.36-6.04-1.62-11.48-.62-16.92,.98-.02,0,.05,.01,.05,.01Z"/>
      <path d="M822.18,591.64c5.88-3.71,9.2-9.12,10.27-16.04,0,0,.49,.4,.49,.4-6.6,3.21-8.05,9.9-10.36,16.02,.04,.03-.4-.38-.4-.38Z"/>
      <path d="M985.23,1497.22c.1,4.36,2.34,6.92,6.33,8.26,1.46,.49,2.52,.54,3.08-.81,.15-.35-.37-1.27-.82-1.55-3.08-1.92-7.29-2.07-8.99-6.09l.41,.19Z"/>
      <path d="M903.13,422.09c-2.5-3.01-4.92-6.1-7.53-9.01-1.77-1.99-3.99-3.3-6.79-3.19l.29-.51c2.86,6.43,7.64,10.49,14.37,12.15-.02,.04-.34,.57-.34,.57Z"/>
      <path d="M1162.35,1485.41c-.33,3.13-.16,6.43-1.09,9.36-1.84,5.78-1.1,11.27,.49,16.89,0,.04,.01-.06,0-.01,.1-2.5-.45-5.32,.42-7.55,2.49-6.36,2.36-12.53,.08-18.9-.05-.08,.09,.21,.09,.21Z"/>
      <path d="M852.2,1444.83c2.96,2.4,5.9,4.82,8.91,7.15,.42,.33,1.21,.17,1.83,.23-.28-1.13-.25-2.54-.91-3.35-2.64-3.26-6.14-4.29-10.18-3.43,0-.03,.36-.6,.36-.6Z"/>
      <path d="M805.89,1416.09c-4.28,.41-7.27-2.34-10.38-4.6-1.63-1.19-2.2-3.11-1.5-5.2,0,0,.05,.09,.05,.09,.49,.38,1.07,.68,1.46,1.15,1.9,2.3-.39,6.63,3.19,7.86,2.21,.76,4.83,.26,7.27,.32l-.08,.38Z"/>
      <path d="M498.09,560.4c.63,2.23,.32,1.12,0,0,.29,1.12,.58,2.24,0,0Z"/>
      <path d="M1243.58,1387.44c4.83,2.21,9.44,5.26,15.14,3.92-.01,.04-.32,.62-.32,.62-4.53-2.87-9.39-4.65-14.81-4.49v-.06Z"/>
      <path d="M778.33,1403.59c5.04,2.1,10,4.68,15.73,2.79,0,0-.05-.09-.05-.09-2.43,.99-4.66,.16-7.02-.51-2.87-.81-5.87-1.09-8.82-1.6l.16-.59Z"/>
      <path d="M954.68,578.59c-.23,4.07-1.86,8.26,1.93,13.69-.8-5.65-1.36-9.62-1.92-13.6,0-.02,0-.09,0-.09Z"/>
      <path d="M847.49,1440.07c-4.12-3.45-8.64-5.56-14.18-4.31-.04,.03,.41-.38,.37-.34,4.58,1.73,8.45,6.18,14.11,4.06l-.3,.59Z"/>
      <path d="M440.15,546.59c.58-1.9,1.27-3.76,1.68-5.7,.22-1.06-.07-2.22-.12-3.34-.42,.36-1.03,.64-1.22,1.1-.23,.57-.12,1.29-.15,1.94-.08,1.96-.15,3.93-.22,5.9,0,.01,.04,.08,.04,.08Z"/>
      <path d="M457.85,584.21c.98-3.27,.73-6.49-.11-9.78-.98-3.84-1.72-7.74-2.53-11.73,.03-.11,.02-.25,.02-.29-1.32,7.38,1.06,14.28,2.83,21.36-.05,.1-.22,.45-.22,.45Z"/>
      <polygon points="575.52 960.17 574.91 958.86 574.52 960.08 575.52 960.17"/>
      <path d="M805.97,1415.71q1.38,7.45,9.31,8.58c.06-.04-.42,.25-.35,.19-4.31-1.18-7.61-3.6-9.08-8.25,.05-.14,.13-.52,.13-.52Z"/>
      <path d="M730.15,1363.32c1.25-.15,2.5-.32,3.76-.45,.63-.07,1.66,.14,1.83-.17,.57-1.02-.08-.87-1.85,.03-1.04,.53-2.44,.32-3.68,.45-.01,0-.06,.15-.06,.15Z"/>
      <path d="M912.02,445.09c.32-5.17-1.24-9.26-6.27-11.35l.19-.31c4.8,2.35,5.44,6.96,6.05,11.6,0,.01,.04,.07,.04,.07Z"/>
      <path d="M823.56,604.33c0,1.57-1.56,2.75-2.2,1.8-2.05-3.05,.54-2.14,2.05-1.98l.15,.17Z"/>
      <polygon points="507.82 743.68 508.62 744.88 508.87 743.45 507.82 743.68"/>
      <path d="M969.34,1492.95c3.27,1.44,6.39,1.32,9.31-.9,.02,.06,.28,.43,.28,.43-3.3,.31-6.6,.61-9.91,.92,0,0,.32-.44,.32-.44Z"/>
      <path d="M1074.74,1567.73c.56-4.04-.19-7.64-3.28-10.5,.03-.04,.37-.53,.39-.57-.91,4.08,1.45,7.17,3.15,10.54-.04,.08-.26,.54-.26,.54Z"/>
      <path d="M1557.15,1532.39c-.03,.5-.25,1.34-.06,1.44,1.53,.87,2.16,.38,1.56-1.22-.09-.24-.98-.16-1.5-.23Z"/>
      <path d="M905.74,433.74c1.5-4.43,.75-8.32-2.64-11.61,.03-.04,.35-.57,.37-.61,.88,3.85,1.73,7.75,2.52,11.77-.07,.13-.25,.44-.25,.44Z"/>
      <path d="M880.41,1146.22c-.17-1-.33-2.01-.5-3.01,.41,.02,.82,.04,1.23,.06-.37,.9-.75,1.79-1.16,2.7-.04,0,.43,.26,.43,.26Z"/>
      <path d="M823.42,604.16c-.39-4.15-.79-8.31-1.21-12.49-.03-.03,.41,.38,.37,.35-2.6,4.25-1.56,8.26,.92,12.24,.07,.08-.08-.1-.08-.1Z"/>
      <path d="M1280.67,1410.88c-1.25-1.48-2.49-2.96-3.76-4.43-.02,0,.42-.48,.42-.48,1.21,1.45,2.43,2.9,3.63,4.38,0,.02-.3,.53-.3,.53Z"/>
      <path d="M969.02,1493.39l.63-1.48s-.16,.92-.23,.98-.4,.5-.4,.5Z"/>
      <path d="M1128.68,1473.74c-.17-.35-.34-.69-.51-1.04,1.27-.62,1.6-.28,.98,1.03,0,0-.47,0-.47,0Z"/>
      <path d="M1129.16,1473.73c-2.45,.8-4.79,1.75-5.78,4.5,0,0-.47-.4-.47-.39,1.85-1.39,3.69-2.79,5.66-4.14,.12,.04,.59,.03,.59,.03Z"/>
      <path d="M984.83,1497.03c-3.15,.21-5.11-1.24-5.91-4.45,.01-.11-.24-.47-.26-.53,2.14,1.68,4.3,3.42,6.52,5.17,.06,0-.35-.18-.35-.18Z"/>
      <path d="M735.82,1370.65c-.07,.47-.14,.94-.21,1.4-1.08-.75-.88-1,.65-.72,.03,.03-.44-.68-.44-.68Z"/>
      <path d="M1219.56,1533.98c-.42-.15-.84-.3-1.26-.46,1.03-.84,1.19-.59,.46,.77-.03,.02,.79-.31,.79-.31Z"/>
      <path d="M888.82,409.88c-2.02-1.2-4.04-2.4-6.1-3.58-.04,.02,.47-.27,.42-.23,1.96,1.12,3.96,2.19,5.96,3.28,0,.01-.29,.52-.29,.52Z"/>
      <path d="M458.32,483.57l-.19,1.09s-.37-.58-.36-.59,.54-.49,.54-.49Z"/>
      <path d="M1339.68,1533.66l-.33,1.39c-1.02-.92-.79-1.15,.72-.64,.03,.03-.4-.75-.4-.75Z"/>
      <path d="M836.61,570.51l.57,.35-.57-.35Z"/>
      <path d="M837.18,570.87c-2.15,1.07-3.74,2.63-4.24,5.12,0,0-.49-.4-.49-.39,1.37-1.69,2.75-3.39,4.14-5.09,.02,0,.59,.36,.59,.36Z"/>
      <path d="M851.05,644.86l-.1,1.07s-.45-.52-.43-.54c.02-.02,.53-.53,.53-.53Z"/>
      <path d="M1288.48,1596.52c-.4,0-.8,0-1.19-.01,.51-1.03,.71-.88,.56,.48-.03,.03,.63-.47,.63-.47Z"/>
      <path d="M1226.64,1610.1c.39,2.22,1.01,4.3,3.22,5.41,.01,0-.39,.51-.39,.51-.99-1.74-1.98-3.48-2.93-5.31,.04-.09,.1-.61,.1-.61Z"/>
      <path d="M1234.19,1619.08c-1.57-1.02-3.13-2.04-4.71-3.06-.01,0,.39-.51,.38-.51,1.56,1.02,3.13,2.03,4.7,3.05l-.36,.52Z"/>
      <path d="M1239.66,1623.03c2.26,.44,4.53,.88,6.8,1.32,0,0-.05-.14-.04-.14-2.36-.2-4.73-.41-7.11-.62,0-.02,.35-.56,.35-.56Z"/>
      <path d="M747.79,1383.9l-.52-1.45s.17,.96,.16,.97c0,.02,.36,.48,.36,.48Z"/>
      <path d="M885.44,1177.1l-.42-1.35s0,.94-.03,.94c-.03,0,.45,.41,.45,.41Z"/>
      <path d="M663.54,955.99l-.83-.66s1.06,.01,1.05,.05c0,.04-.22,.61-.22,.61Z"/>
      <path d="M685.4,956.32l1.41,.46s-1.08-.76-1.09-.8-.32,.34-.32,.34Z"/>
      <path d="M668.49,961.13c-1.65-1.69-3.31-3.38-4.95-5.1,0-.03,.23-.6,.23-.64,1.68,1.72,3.35,3.48,5.03,5.25,0,.01-.31,.48-.31,.48Z"/>
      <path d="M723.7,949.09c.74,2.57,1.48,5.13,2.28,7.64,.06-.07-.41,.25-.41,.25-.58-2.62-1.15-5.23-1.73-7.86,0,0-.14-.03-.14-.03Z"/>
      <path d="M732.03,957.88c-2.12-.33-4.23-.66-6.41-.94-.06,.04,.42-.28,.36-.21,2.03,.2,4.12,.34,6.2,.53-.02,.06-.15,.62-.15,.62Z"/>
      <path d="M734.83,963.71c-.96-1.91-1.91-3.81-2.83-5.78,.03-.06,.16-.61,.18-.67,1.11,2.23,2.2,4.53,3.3,6.82l-.64-.37Z"/>
      <path d="M735.48,964.09c.05-.38,.11-.75,.16-1.13-.28,.23-.55,.46-.82,.72,.01,.03,.66,.41,.66,.41Z"/>
      <path d="M748.76,970.49l-.12-1.52s-.13,.95-.15,.98,.26,.54,.26,.54Z"/>
      <path d="M1234.55,1618.56c1.7,1.48,3.4,2.96,5.1,4.45,0,.02-.35,.56-.35,.57-1.7-1.48-3.4-2.99-5.11-4.5,0,0,.36-.53,.36-.53Z"/>
      <path d="M739.86,1103.64c-.21-.36-.42-.72-.63-1.09,.32,.19,.65,.39,.97,.58l-.34,.51Z"/>
      <path d="M840.42,1137.21c-1.2,.58-.02-.49-.34-.52l.34,.52Z"/>
      <path d="M769.98,1393.9c.63,2.01,1.42,3.87,3.74,4.38,0,.01-.32,.48-.32,.48-1.24-1.39-2.48-2.79-3.7-4.22,.02-.05,.28-.64,.28-.64Z"/>
      <path d="M840.08,1136.69c.15,.21,.3,.42,.39,.57-.05-.05-.39-.57-.39-.57Z"/>
      <path d="M778.17,1404.18c-1.59-1.8-3.18-3.6-4.77-5.41,0-.01,.32-.48,.32-.5,1.54,1.73,3.09,3.48,4.62,5.27-.02,.05-.18,.64-.18,.64Z"/>
      <path d="M847.78,1439.48c1.48,1.77,2.95,3.54,4.42,5.33,0,.02-.36,.59-.36,.62-1.46-1.75-2.92-3.52-4.37-5.33,.01-.03,.31-.62,.31-.62Z"/>
      <path d="M1261.93,1396.16c-1.19-1.37-2.38-2.74-3.55-4.14,.01-.03,.33-.62,.34-.65,1.16,1.44,2.32,2.92,3.47,4.42,0,.02-.26,.38-.26,.38Z"/>
      <path d="M1266.06,1400.34c-2.28-.45-4.08-1.39-4.13-4.16,0-.02,.27-.37,.27-.4,1.45,1.35,2.9,2.73,4.35,4.1l-.48,.46Z"/>
      <path d="M1266.54,1399.88c1.69,.88,3.37,1.76,5.06,2.64,0,0-.37,.5-.37,.5-1.11-2.06-3.04-2.51-5.14-2.7-.03,.02,.45-.44,.45-.44Z"/>
      <path d="M878.36,1460.87l-1-.62s1.36,.04,1.37,.02c0-.01-.37,.6-.37,.6Z"/>
      <path d="M1271.6,1402.52c1.9,1.15,3.8,2.3,5.72,3.45,.02,0-.42,.48-.4,.47-1.88-1.15-3.77-2.29-5.68-3.42,0,0,.36-.5,.36-.5Z"/>
      <path d="M1364.27,1537.98l-1.22,1.37s.73-.89,.83-.95c.1-.07,.39-.42,.39-.42Z"/>
      <path d="M764.46,1056.24c.97,.13,1.94,.26,2.91,.4-.49-.19-.98-.54-1.47-.52-.59,.01-1.17,.33-1.78,.56-.03,.04,.34-.43,.34-.43Z"/>
      <path d="M718.51,1006.79l-.46-1.46s.13,.96,.12,.97,.34,.49,.34,.49Z"/>
    </g>
    <path d="M649.02,885.45c37.94,20.54,75.52,40.76,112.91,61.34,2.92,1.61,4.68,5.61,6.69,8.7l4.48,8.01c-4.62,3.73-9.25,8.47-13.55,14.05-15.1,19.61-20.41,42.18-11.85,50.41,8.56,8.23,27.74-.99,42.85-20.6,1.42-1.84,2.75-3.7,3.99-5.58l86.55,154.58c-41.74-24.95-78.77-47.21-115.94-69.23-17.3-10.25-38.05-16.74-51.73-30.59-47-47.61-58.94-110.1-64.4-171.09Z"/>
    <path d="M1460.97,1614.22c6.24-1.01,10.77-5.26,16.77-7.09,2.4-.74,4.58-1.4,6.83-2.52,2.82-1.4,5.71-2.06,8.67-3.04,6.66-2.19,13.15-4.98,19.76-7.32,2.76-.97,5.63-1.5,8.37-2.52,2.2-.82,4.19-2.07,6.4-2.87,3.86-1.41,8.01-2.51,11.8-4.05,2.75-1.12,5.39-2.73,7.78-4.46,.92-.67,2-1.19,2.97-1.8,.71-.44,1.93-.93,2.41-1.55-4.91,.06-10.02,1.32-14.88,2.03-6.59,.97-12.75,1.79-19.06,4.01-4.87,1.72-9.81,3.06-14.6,5.04-5.32,2.2-11.22,3.6-16.88,4.54-2.27,.38-4.64,.41-6.86,1.01-1.63,.45-2.93,1.28-4.43,2.01-2.42,1.18-5.22,1.59-7.74,2.54-1.28,.48-2.37,1.42-3.67,1.82-.84,.26-1.72,.2-2.56,.46-2.25,.71-4.33,2.26-6.63,2.97"/>
    <path d="M1553.72,1558.9c2.09-2.19,2.46-2.6,3.2-5.84,.43-1.82,.72-3.65,.89-5.51,.42-1.09,.97-2.11,1.66-3.06,.65-2.44-.07-5.32,.49-7.91,.55-2.55,.27-4.79,.57-7.33,.5-4.2,1.43-8.03,1.68-12.32,.27-4.57,.7-9.16,1.11-13.72,.85-9.25-1.28-18.53-2.59-27.68-.89-6.22-2.1-12.07-1.32-18.39,.44-3.56,1.33-7.05,1.64-10.63,.52-5.82-1.1-11.45-.23-17.27,.84-5.62,1.28-9.38,.6-15.02-.89-7.39,.35-15.53,.49-22.98,.13-7.02,.88-13.9,1.47-20.92,.35,3.4,1.31,6.82,1.15,10.26-.12,2.48-1.02,4.89-1.19,7.36-.21,3.1,.7,6.16,1.12,9.2,1.54,10.96-1.3,22.29-.88,33.36,.22,5.81,1.07,11.76,1.05,17.54-.01,4.39-.77,8.61-.58,13.03,.25,5.69-2.13,11.06-1.7,16.7,.3,3.97,.17,6.86-.31,10.86-.53,4.37-.1,8.59-.81,13.01-.54,3.38-.76,6.76-1.58,10.09-.73,2.96-.44,5.34-.93,8.09-.46,2.59-1.51,4.61-1.71,7.37-.3,4.15-.78,8.11-.65,12.29,.19,5.8-1.13,10.6-2.63,19.43Z"/>
    <path d="M1324.78,1083.17c-3.35-4.51-8.66-7.61-12.68-11.43-4.43-4.2-9-7.85-14.43-10.64-4.52-2.33-8.45-5.56-13.36-7.16-1.44-.47-2.97-1.2-4.25-2.07-.97-.66-1.99-2-3.25-1.75-.04,1.79,1.51,2.51,2.57,3.58s1.65,2.39,2.77,3.39c1.83,1.62,3.72,2.9,5.16,4.67,1.64,2.02,3.85,3.66,5.7,5.57,2.34,2.42,5.26,3.67,7.98,5.56,1.83,1.27,3.4,2.54,5.38,3.59,3.53,1.87,6.1,5.09,9.51,7.03,4.75,2.69,9.44,5.62,13.03,9.97,3.81,4.63,3.83,11.55,4.65,17.32,.37,2.6,.76,5.19,1.09,7.79,.48,3.69,2.1,6.8,3.88,9.99"/>
    <path d="M1257.77,1039.07c-1.58-.2-2.62-2.94-3.47-4.09-2.47-3.34-5.19-6.51-7.75-9.77-9.58-12.21-19.23-24.35-29.03-36.38-4.7-5.77-9.59-11.42-14.13-17.33-4.06-5.29-7.62-10.93-11.62-16.27-2.44-3.22-4.81-6.5-7.09-9.84-2.63-3.2-5.05-6.55-7.26-10.05-2.57-5.49-4.04-10.8-7.76-15.79-3.83-5.15-8.23-9.65-11.93-14.94-3.11-4.44-6.23-8.87-9.66-13.07-2.73-3.35-5.15-6.34-7.32-10.11-1.14-1.99-2.22-2.82-3.66-4.48-1.93-2.23-5.88-10.33-9.28-8.81-.45,4.1,2.35,7.21,4.77,10.11,2.56,3.07,4.9,5.99,7.22,9.27,2.55,3.62,5.41,6.69,8.18,10.11,9.56,11.76,19.15,23.46,28.32,35.51,2.79,3.67,5.12,7.65,7.95,11.31,2.14,2.78,3.99,5.7,5.76,8.74,3.81,6.53,7.39,12.97,11.82,19.09,3.89,5.39,7.56,10.86,11.73,16.06,2.11,2.64,4.63,5.01,6.64,7.71,1.03,1.39,1.87,2.91,3.03,4.21,1.46,1.64,3.35,2.38,4.99,3.8,1.75,1.52,2.89,3.52,4.55,5.12,1.16,1.11,2.53,1.87,3.62,3.08,2.46,2.76,4.16,6.08,6.31,9.06,1.69,2.34,2.73,4.81,4.88,6.69,1.06,.93,3.38,3.67,10.18,11.07Z"/>
    <path d="M1353.65,1135.74c1.52,1.9,2.19,3.87,3.45,5.9,1.3,2.09,3.39,3.17,5.22,4.68,3.48,2.89,6.52,6.18,10.1,8.98,5.46,4.28,12.19,6.93,18.3,10.1,5.22,2.71,9.58,6.43,14.69,9.28,1.93,1.08,3.45,1.37,4.92,3.06,1.28,1.47,2.26,3.25,3.53,4.75,3.41,4,5.73,8.63,7.98,13.43,2.46,5.26,4.84,9.99,8.18,14.76,.93,1.33,2.13,2.38,3.08,3.68,.76,1.04,1.16,2.22,1.83,3.29,1.11,1.75,2.95,3.23,4.31,4.93,1.85,2.33,3.39,4.74,5.48,6.88,1.52,1.57,3.51,2.74,5.12,4.25,1.93,1.81,3.44,3.62,5.12,5.65,1.64,1.98,3.77,3.13,5.83,4.57,1.96,1.37,3.39,3.13,4.95,4.93,1.86,2.13,3.26,3.44,4.54,6.01,1.34,2.68,2.97,5.2,4.51,7.77,2.9,4.82,7.54,8.23,10.8,12.72,2.4,3.31,6.51,6.29,10.27,7.95,3.19,1.41,6.57,2.22,9.78,3.74,5.55,2.62,11.12,5.07,16.83,7.33,4.93,1.95,11.56,6.15,14.06,10.95,2.28,4.37,5.2,8.46,6.97,13.08,2.69,6.97,3.25,14.22,5.25,21.43,1.8,6.46,2.95,12.99,3.65,19.66-.16-1.69,.37-3.32,.23-5.02-.18-2.18-.46-4.66-1.04-6.76-.33-1.18-.92-3.14-1.61-4.14-.62-.9-1.43-1.04-1.83-2.11-.36-.93-.31-1.91-.63-2.87-.52-1.57-1.58-2.97-2.15-4.54-1.53-4.2-3.52-7.71-5.99-11.61-2.69-4.25-4.61-8.81-7.74-12.67-2.57-3.18-5.55-6.99-9-9.3-4.27-2.85-10.13-2.01-14.56-4.45-2.07-1.14-3.81-2.99-5.82-4.34-.52-.35-1.77-1.24-2.52-1.35s-1.75,.44-2.45,.09c-.39-.2-.88-1.16-1.24-1.49-1.48-1.39-3.55-2.07-5.25-3.14-3.41-2.14-5.68-4.01-7.72-7.51-1.95-3.33-4.29-6.26-6.67-9.23-1.52-1.89-3.17-3.88-4.68-5.78-1.2-1.52-1.64-3.32-2.63-5.04-2.25-3.88-4.98-7.29-8.36-10.16-2.21-1.88-4.76-3.41-6.84-5.35-1.4-1.31-2.69-3.07-4.37-4.24-2.07-1.45-3.93-.82-5.85-3.15-2.74-3.31-4.83-7.49-7.92-10.52-3.15-3.09-5.4-6.61-7.73-10.44-2.47-4.05-4.98-7.89-7.03-12.14-.96-1.99-2.7-4.81-4.28-6.28-1.66-1.53-2.43-3.13-3.83-5.12-3.5-4.95-6.51-10.27-10.42-14.91-1.29-1.53-2.73-2.89-4.28-4.07-.69-.53-1.58-.98-2.29-1.49-1.57-1.14-2.46-2.64-3.89-3.8"/>
    <path d="M1115.96,851.39c-.52-3.88-2.87-6.26-4.67-9.5-1.01-1.81-1.79-3.82-2.8-5.64-.75-1.35-1.43-2.13-1.87-3.6-.49-1.63-1.03-2.92-1.81-4.45-2.57-5.01-4.91-10.11-7.48-15.14-2.16-4.23-5.4-7.89-7.72-11.99-1.97-3.48-4.31-7.03-6.51-10.36-1.28-1.94-2.59-3.76-3.52-5.94-1.08-2.53-3.08-4.41-4.79-6.51-2.34-2.89-4.71-5.72-7.21-8.46-1.3-1.42-2.4-2.78-3.92-3.9-.71-.53-1.05-1.09-1.67-1.64-.9-.8-2.12-.98-3.14-1.56-2.53-1.42-4.97-3.39-7.62-4.53-1.44-.62-2.77-1.22-4.17-1.97-1.07-.57-1.73-.77-2.87-1.12-1.1-.33-.9-.54-1.74-.93-4.05-1.88-8.35-3.35-12.52-5.01-1.13-.45-1.61-.88-2.5-1.65-1.36-1.19-3.21-1.75-4.98-2.04-1.99-.33-4.18-.1-6.17-.58-1.38-.33-2.36-1.05-3.82-1.21-1.3-.14-2.34-.32-3.6-.64-2.92-.75-6.13-1.68-9.12-1.91-3.58-.28-6.81-1.77-10.29-2.27-3.26-.47-6.29-2.29-9.61-2.71-1.8-.23-3.28-.73-5.05-1.19-.88-.23-1.98-.3-2.8-.7-.36-.25-.65-.57-.87-.95-.37-.13-.74-.11-1.1,.08-3.42-.83-6.75-.59-10.12-1.1-1.51-.23-2.92-.17-4.39-.34-.98-.12-1.68-.84-2.68-.91-.6-.04-1.48,.23-2.09,.34-3.79,.7-7.81,2.65-11.53,3.91-3.1,1.05-5.87,2.07-8.98,.5s-5.39-3.16-7.7-5.88c-1.41-1.66-2.29-3.68-3.58-5.35-1.03-1.33-2.53-2.38-3.7-3.48-.93-.88-1.32-1.84-2.49-2.61-.83-.55-1.89-.78-2.76-1.26-2.01-1.11-4.09-2.2-6.13-3.27-1.87-.99-3.46-1.85-5.51-2.37-2.7-.68-5.63-1.56-8.37-1.87-3.67-.42-7.37-2.29-11.16-1.97-2.7,.23-5.32,.16-8.04-.13-1.37-.15-2.74-.58-4.12-.65-1.79-.09-3.45,.18-5.25-.04-2.82-.34-5.58-.34-8.39-.83-1.2-.21-2.35-.16-3.54-.33-1.07-.15-1.86-.71-2.89-.81-.99-.09-1.02,.21-2.03-.3-.58-.29-1.02-.89-1.63-1.2-1.22-.62-2.92-.75-4.23-1.05-1.71-.39-3.37-1-5.09-1.35-2.3-.48-4.07-.13-6.32-.2-2.25-.07-4.24-.65-6.51-.29-3.81,.6-7.58,1.01-11.21,2.19-2.51,.82-5.4,.95-8.02,1.33-1.49,.22-3.01,.35-4.49,.65-2.09,.42-3.09,1.84-4.32,3.57-2.56,3.62-6.65,3.69-10.82,4.15-2.27,.25-4.45-.11-6.71-.4-2.91-.37-5.84-.14-8.72-.79-2.22-.5-4.15,.08-6.36-.42-1.5-.34-2.27-.13-3.69-.1-1.89,.03-3.7-.51-5.58-.52-3.88-.02-7.83-.33-11.72-.53-1.39-.07-2.68-.47-4.05-.66-3.31-.47-6.63-.1-9.97-.6-6.59-.99-13.48,.65-20.01,1.61-3.39,.5-6.82,.89-10.2,1.45-4.89,.81-8.69,4.2-12.99,6.43-2.64,1.37-5.26,2.76-7.54,4.69-1.21,1.02-2.21,2.28-3.33,3.37-2.37,2.31-4.81,4.37-7.5,6.33,1.17-.78,2.11-1.81,3.22-2.65,1.51-1.15,3.33-1.53,4.93-2.52,2.95-1.83,5.45-4.2,8.61-5.6,1.85-.81,3.83-.9,5.72-1.78,2.29-1.06,4.4-2.12,6.92-2.46,5.04-.69,10.06-1.48,15.09-2.22s10.71-2.11,15.95-1.75c5.56,.39,11.4,1.2,16.97,.96,1.76-.08,2.25,.21,3.87,.85,2.32,.9,4.94,1.3,7.32,2.06,2.79,.89,6.76,.71,9.58,.27,3.34-.53,6.68-1,10.03-1.49l12.54-1.84,6.3-.92c2.22-.33,4.91-.3,7-1.09s4.15-2.05,6.34-2.95c2.28-.93,4.39-1.3,6.78-1.65,2.4-.35,4.81-.68,7.21-1.06,3.95-.62,8.38-.31,12.2,.98,2.21,.74,4.59,1,6.86,1.71,3.42,1.07,7.48,2.48,11.01,2.8,4.91,.44,9.61,1.9,14.28,3.36,5.11,1.6,10.51,2.25,15.78,2.29,3.72,.03,7.49,.76,11.21,.81,3.15,.04,6.33,.11,9.5,.42,1.48,.15,2.8,.73,4.22,1.13,1.6,.46,3.24,.45,4.84,.95,4.15,1.3,7.89,3.29,11.55,5.66,5.2,3.35,7.47,9.63,13.03,12.57,1.51,.8,3.42,1.01,5.07,1.56,1.87,.62,2.99,.92,4.89,.89,4.38-.06,8.52-.65,12.86-1.29,8.34-1.24,17.1,0,25.23,1.82,6.29,1.41,13.08,1.88,19.51,2.49,4.41,.42,8.49,1.3,12.8,2.25,2.96,.65,6,.83,8.83,1.99,2.42,.99,4.85,1.55,7.34,2.34,2.47,.79,4.97,1.18,7.25,2.51,4.51,2.63,8.76,5.91,13.17,8.75,3.78,2.43,7.87,4.53,11.37,7.37,6.51,5.28,11.86,12.34,17.79,18.21,7.33,7.26,15.3,14.29,20.12,23.65,3.07,5.96,5.69,12.28,8.3,18.46"/>
    <path d="M528.21,525c2.38,3.86,5.39,7.23,7.75,11.11,1.28,2.11,2.19,4.35,3.32,6.55,1.37,2.68,3.17,4.92,4.81,7.4,2.56,3.87,4.44,8.21,6.88,12.16,2.58,4.17,5.47,8.3,8.35,12.26,2.38,3.28,4.83,6.47,7.02,9.88,2.07,3.22,3.25,6.55,5.11,9.83,1.52,2.68,3.93,5.39,5.09,8.26,.6,1.47,.45,3.12,.85,4.64,.46,1.75,1.24,3.33,2.09,4.92-.61-1.26-.92-2.63-1.57-3.87-1.04-1.97-2.54-3.51-3.82-5.36-3.74-5.39-5.91-11.66-9.65-17.03-5.91-8.48-10.9-17.25-16.15-26.15-1.43-2.43-2.85-4.76-4.23-7.2-1.26-2.24-3.23-3.72-4.77-5.68-1.13-1.44-1.61-3.1-2.43-4.7-.66-1.3-1.59-2.27-2.34-3.54-1.75-2.97-2.02-6.27-6.33-13.47Z"/>
    <path d="M458.33,473.27c1.33,1.48,3.54,1.53,5.27,2.3s3.45,1.26,5.09,2.06c1.32,.64,2.25,1.67,3.48,2.46,1.37,.87,2.97,1.4,4.37,2.27,3.65,2.26,7.91,4.62,10.93,7.7,2.18,2.22,4.06,4.63,6.37,6.76,2.03,1.87,4.3,3.14,6.14,5.23,1.09,1.24,2.2,2.54,3.2,3.83,.82,1.07,1.08,3.3,2.17,3.96-1.37-5.33-8.86-9.85-12.41-13.26-4.07-3.92-7.45-8.52-11.75-12.18-4.14-3.52-8.88-6.62-13.32-9.73-.86-.6-5.88-5.09-7.29-4.37-1.18,.61-.15,1.83-.66,2.56-.58,.81-1.8,1.38-2.74,1.52,.72-.13,1.44-.25,1.16-1.1Z"/>
    <path d="M569.25,948.8c-4.28-9.42-8.79-18.8-12.1-28.65-2.17-6.45-4.32-12.91-6.96-19.18-6.43-15.27-11.19-31.42-16.68-47.05-3.81-10.84-7.3-22.2-8.8-33.7-.5-3.82-1.64-7.9-1.36-11.77,.18-2.49,.27-7.57,1.23-9.81,4.45-10.45,15.84,3.06,19.71,6.44,5.34,4.66,11.61,8.32,16.85,13.06,2.73,2.47,5.09,5.38,7.68,8.01,3.82,3.87,7.66,8.37,12.03,11.61,2.34,1.74,2.92,2.39,4.56,4.92,3.52,5.43,8.74,9.91,13.3,14.42,9.33,9.23,18.21,17.1,23.11,29.86,3.05,7.94,3.21,16.82,2.85,25.22-.33,7.72-5.85,15.29-4.78,22.96,.33,2.35,1.63,4.56,2.45,6.73,5.78,15.43,15.46,28.76,26.26,41.06,4.06,4.63,7.62,9.68,11.13,14.76,1.55,2.24,3.76,4.19,4.87,6.74,.45,1.04,.41,2.3,.85,3.36,.64,1.54,2.14,2.7,2.78,4.25,.57,1.4,.66,3.16,1.02,4.61,.73,2.92,1.97,5.49,3.05,8.29,2.56,6.62,3.94,13.47,6.86,19.93,1.39,3.08,2.85,5.79,3.36,9.18,.25,1.65,.16,2.79,.8,4.23,.99,2.23,2.57,4.66,3.68,6.89,1.48,2.97,3.08,4.72,3.55,8.05,.26,1.82,.38,2.77,1.19,4.36,1.47,2.89,3.98,4.73,6.09,7.09,2.59,2.89,4.35,6.43,6.91,9.34,5.63,6.42,12.62,10.33,20.14,13.94,10.41,4.99,21.29,9.95,32.38,13.26,5.94,1.78,12.5,2.25,17.99,5.53,5.18,3.09,11.04,6.32,16.94,8.48,9.7,3.56,18.44,9.67,27.77,14.31,3.98,1.98,8.25,3.12,12.22,5.07,2.3,1.13,3.31,2.56,5.16,4.09,1.14,.94,2.54,1.29,3.65,2.32,2.34,2.15,4.29,5.58,6.21,8.14,4.59,6.13,8.03,8.6,15.21,11.17,6.74,2.42,13.52,3.97,20.46,5.67,2.97,.73,5.92,1.54,8.89,2.29,2.16,.55,5.15,.68,6.97,1.98,1.71,1.23,1.89,2.61,3.27,4.35,1.07,1.35,2.88,2.28,4.02,3.54,2.27,2.52,4.27,5.29,6.63,7.81,5.15,5.51,11.9,8.94,17.77,13.54,4.18,3.28,8.85,4.03,12.99,6.93,4.32,3.03,8.83,4.92,12.78,8.54,3.38,3.09,8.95,5.61,11.39,9.48,1.27,2.03,3.62,5.31,4.39,7.56,.39,1.16,.66,2.42,.87,3.74,.28,.42,.56,.84,.86,1.25,2.96,4.04,5.45,8.41,8.55,12.35,3.81,4.83,7.43,9.81,10.54,15.13,3.45,5.91,8.17,11.09,11.27,17.2,.66,1.29,1.31,2.56,1.97,3.81,2.48,.64,4.81,1.66,6.8,3.91,2.24,2.53,2.78,5.94,4.55,8.78,2.26,3.62,3.14,5.85,4.42,9.91,.97,3.09,2.7,5.79,3.57,8.89,4.01,5.58,8.45,10.8,12.57,16.3,4.21,5.62,9.32,10.52,13.33,16.3,2.95,4.25,5.49,8.86,8.19,13.27,2.36,3.86,4.77,7.63,7.38,11.33,3.62,5.13,8.24,9.86,11.12,15.48,2.23,4.35,4.72,8.27,7.41,12.31,1.76,2.63,4.05,5.36,4.94,8.43,.81,2.75,.75,6.06,1.27,8.82,.44,2.32,.37,4.66-.31,6.91,1.27,1.43,2.56,2.81,4.08,4.05,3.16,2.56,6.33,4.63,10,6.47,1.84,.92,3.88,1.59,5.69,2.54,2.98,1.57,5.13,1.85,8.25,2.92,1.36,.46,2.45,1.55,3.84,1.76,.94,.14,1.7-.38,2.64-.23,1.81,.29,4.57,1.86,6.38,2.54,1.33,.5,2.68,1.01,4.02,1.53l3.93,34.86,18-25.12c2.76,.95,5.39,.65,8.05,1.46,1.92,.59,3.95,1.79,5.74,2.49,2.56,1.01,4.06,1.64,6.87,1.69,2.08,.04,4.26,.37,6.33,.65,4.05,.54,7.97,.44,11.99,.64l.09,49.95,16.39-10.37,22.29-31.12c1.39,.39,2.79,.77,4.23,1.1,7.61,1.71,14.5,4.87,20.99,8.85l-6.83,63.31,32.78-20.74,13.42-18.73c2.46,1.79,4.99,3.71,6.45,5.99,2.03,3.16,5.38,5.2,8.9,6.36,2.61,.86,5.18,1.55,7.74,2.46l-12.22,56.42,46.46-29.39c.99,.66,1.98,1.35,2.96,2.11,4.76,3.66,9.92,6.2,14.79,9.57,2.57,1.77,4.03,4.8,6.89,6.16,0,0,0,0,.01,0l-14.04,43.31,47.39-29.98c2.26,.21,4.52,.47,6.66,1.16,2.89,.93,4.72,2.17,7.66,2.67,6.78,1.15,13.36,4,20.22,5.31,2.96,.57,17.4,.71,16.52,5.71,5.99,4.03,3.23,7.54,2.46,9.35-1.24,2.9-2.54,5.7-3.98,8.49-2.37,4.59-4.39,5.98-8.73,8.42-8.98,5.05-23.35,5.65-26.73,15.52-3.46,10.11-17.06,15.67-29.08,13.95-13.64-1.95-26.34,10.53-39.42,13.76-15.27,3.78-30.91,4.96-46.38,7.53-5.21,.86-8.44,1.55-13.48,.33-7.03-1.71-15.37-2.49-22.06-5.23-.67-.27-1.53-.32-2.18-.64-3.82-1.94-7.14-6.52-10.22-9.48-4-3.84-7.77-7.83-11.46-11.98-6.74-7.6-12.54-12.94-15.81-22.87-3.15-9.58-13.01-15.79-18.58-23.93-2.2-3.21-3.42-7.63-6.32-10.13-.74-.64-3.21-1.59-3.99-1.99-8.12-4.16-18.84-6.1-27.32-8.37-6.77-1.81-13.65-3.26-20.64-3.71-1.71-.11-3.14-.24-4.98-.69-3.55-.86-5.84,.1-9.32-.46-10.61-1.71-21.81-5.23-32.11-8.2-9.08-2.62-18.58-3.93-27.76-6.11-13.16-3.13-31.41-5.83-36.36-20.35-2.06-6.03-3.6-12.28-5.89-18.21-.98-2.55-1.82-6.03-4.25-7.52-1.95-1.2-5.19-1.55-7.35-2.44-7.74-3.19-15.16-7.37-22.92-10.55-3.33-1.37-6.58-2.98-9.75-4.69-6.76-3.65-14.2-4.22-21.02-7.25-1.72-.77-2.89-1.96-4.48-2.94-2.24-1.39-4.21-1.7-6.77-2.43-10.24-2.92-19.63-8.83-29.21-13.43-9.92-4.76-20.09-9.18-30.35-13.09-8.62-3.29-16.97-7.22-25.39-11.03-3.75-1.69-7.84-3.04-11.5-4.96-6.55-3.43-12.17-8.37-18.65-11.99-6.97-3.9-14.09-7.4-21.04-11.22l-47.03-21.59c-11.31-3.24-21.71-8.75-32.28-13.83-10.81-5.2-21.48-11.1-31.05-18.48-12-9.25-17.66-25.33-22.94-39.12-5.17-13.51-14.38-26-23.79-36.89-5.98-6.92-11.39-14.41-17.53-21.16-4.46-4.91-9.43-8.84-14.08-13.46-4.68-4.65-7.52-10.33-11.55-15.5-2.59-3.32-4.85-6.31-7.1-9.83-5.17-8.09-12.08-15.52-16.31-24.2-2.59-5.3-3.32-10.29-4.11-16.05-.55-3.98-1.29-7.98-1.75-11.98-.27-2.35,.89-4.73,2.94-5.86,2.18-1.2,4.1-1.65,6.93-2.05,2.91-.41,9.12,.03,11.22-1.86-5.02-4.76-8.69-10.75-13.08-16.09-3.4-4.13-6.19-8.68-8.49-13.54-2.86-6.03-6.83-11.44-9.89-17.36-3.43-6.63-4.97-13.96-7.21-21.04-2.21-6.99-5.13-13.61-7.11-20.69-2.74-9.78-6.77-19.31-9.67-29.06-2.27-7.63-4.86-15.13-7.91-22.47-2.17-5.23-3.77-10.72-3.96-16.46-.07-2.24,.8-4.4,2.15-6.17,2.82-3.71,3.69-9.03,6.46-12.82,1.82-2.49,4.37-3.6,6.94-5.15,3.35-2.03,12.51-2.55,13.97-6.04,.88-2.09-2.81-9.49-3.35-10.61-5.95-12.2-9.3-25.35-14.94-37.76Z"/>
    <path d="M598.51,630.43c.22,.83,.8,1.37,1.18,2.11,.75,1.44,1.02,2.99,1.67,4.48,1.84,4.21,5.31,8.42,8.28,11.84,5.1,5.9,9.24,12.02,14.97,17.37,4.84,4.51,9.72,9.05,14.63,13.47,1.85,1.66,3.95,2.78,5.71,4.54,1.4,1.4,2.59,3,4,4.41,2.73,2.72,5.14,5.67,7.87,8.39,2.43,2.42,5.14,4.8,7.2,7.56,1.37,1.84,2.28,3.74,3.82,5.44,2.14,2.37,3.34,5.53,2.87,8.95-.27,1.97-1.09,1.56-2.14,2.74-.81,.92-1.31,2.46-1.82,3.48-.78,1.55-1.43,3.35-2.33,4.97-.95,1.73-2.41,2.72-3.93,3.95-2.26,1.82-5.36,4.28-8.29,4.02-.6-1.27,3.51-4.41,4.55-5.33,1.3-1.16,2.24-2.47,3.46-3.68,1.35-1.34,4.22-2.94,5.05-4.81,.28-.63-.14-1.34-.06-1.98,.09-.71,.52-1.14,.58-1.96,.1-1.51-1.31-3.97-2.08-5.21-.48-.77-1.09-1.14-1.63-1.76-.91-1.04-1.37-2.28-2.24-3.41-.66-.86-1.66-1.5-2.39-2.32-.9-1.01-1.23-1.9-1.99-3.18-1.27-2.11-2.77-4.22-4.2-6.21-2.83-3.92-6-7.58-9.01-11.33-2.52-3.15-4.5-6.58-7.36-9.43-.81-.81-1.43-2.18-2.19-3.12-1.11-1.4-2.36-2.31-3.53-3.63-2.32-2.62-4.51-5.29-7.04-7.84-3.47-3.48-7.42-6.49-10.84-9.99-2.53-2.6-5.03-6.78-8.13-8.63"/>
    <path d="M466.72,596c.39,3.22,1.37,6.86,3.09,9.57,1.29,2.02,1.92,3.18,2.78,5.42,1.03,2.69,2.24,5.72,3.63,8.22,2.86,5.17,6,10.36,9.15,15.31,1.48,2.32,2.23,4.99,3.45,7.46,1.49,3.02,3.36,5.5,4.58,8.63,1.41,3.63,4,6.7,5.7,10.08,.75,1.5,1.64,3.07,2.35,4.57,.44,.94,.52,1.97,.99,2.93,.71,1.43,2.05,2.59,2.63,4.07,.75,1.92,.74,4.32,1.03,6.37,.15,1.04,.34,2.08,.45,3.12,.15,1.38-.23,2.34-.31,3.66-.31,5.27,2.69,10.88,2.13,16.13-.13,1.22-.87,2.28-1.05,3.5-.23,1.57,.27,3.22,.5,4.76,.55,3.72,1.05,7.44,1.57,11.16,.37,2.64,.43,5.54,1.54,7.96,1.66,3.64,2.6,7.81,4.72,11.2,2.21,3.53,3.74,7.33,5.71,11.01,1.65,3.08,2.01,5.5,2.5,8.97,.21,1.5,.61,3.13,.69,4.65s-.38,3.09-.3,4.67c.14,2.72,.82,5.55,1.2,8.25,.5,3.54,1.72,6.68,2.32,10.13,.57,3.29,2.6,5.57,3.04,8.87-.52-3.68-1.09-7.36-1.55-11.04-.64-5.17-4.16-9.47-6.09-14.27-.99-2.47-1.92-4.89-3.22-7.28s-1.56-4.7-1.95-7.46c-.9-6.39-1.58-12.21-4.34-18.11-.57-1.22-1.14-2.04-1.39-3.38-.23-1.23-.2-2.37-.68-3.55-1.18-2.89-3.19-5.46-3.69-8.57-.44-2.7-1.14-5.38-2.2-7.88-1.21-2.84-1.47-5.67-1.94-8.83-.44-2.95,.04-5.67-.33-8.61-.21-1.64,.32-2.56,.36-4.16,.04-1.46-.35-2.59-.17-4.08,.67-5.67-1.35-12.5-2.12-18.19-1.03-7.64-6.44-14.86-10.16-21.45-1.02-1.82-2.24-3.61-3.42-5.38-1.58-2.36-2.79-4.9-4.31-7.24-2.64-4.07-4.62-8.76-7.99-12.26-3.05-3.17-5.26-6.43-7.37-10.28-1.17-2.13-2.74-4.13-3.43-6.5-1.05-3.6-1.08-7.92,1.9-12.18Z"/>
    <path d="M449.26,462.02c.06-.51-1.39-1.07-1.68-1.25-1.39-.87-2.82-1.67-4.12-2.67-1.29-.99-2.65-1.9-3.8-3.06-.83-.84-1.69-1.58-2.62-2.31-.92-.73-1.67-1.53-2.5-2.36-.39-.39-1.12-1.64-1.82-1.34-.41,.18-.52,.85-.7,1.24-.43,.91-.97,1.76-1.42,2.67-1.38,2.81-2.91,5.55-4.27,8.37-.58,1.21-1.04,2.48-1.63,3.69-.34,.69-.66,1.35-.94,2.07-.11,.3-.51,1.78-.83,1.88,.03-.24,.3-.55,.41-.75,.25-.47,.55-.9,.76-1.38,.32-.7,.42-1.47,.73-2.18,.4-.91,.9-1.78,1.37-2.65s1.01-1.78,1.52-2.67c.56-.98,1-1.83,1.78-2.63,.39-.4,.73-.77,1.03-1.24,.22-.35,.39-.62,.69-.9,.49-.46,.86-1.04,1.31-1.53,.2-.21,.38-.34,.62-.5,.21-.14,.42-.46,.68-.53,.39-.1,.85,.4,1.14,.64,.83,.69,1.62,1.44,2.46,2.12,.72,.57,1.54,1.08,2.35,1.49,1.13,.58,2.12,1.32,3.22,1.94,.49,.28,.99,.67,1.44,1,.26,.19,.44,.52,.7,.71,.29,.22,.68,.28,.98,.5,.2,.14,.38,.3,.59,.43,.38,.23,.83,.35,1.2,.6,.29,.19,.47,.39,1.33,.61Z"/>
    <path d="M864.53,406.36c1.4,9.9,3.56,19.74,2.45,29.74-.65,5.91-2.59,11.48-2.06,17.44,.38,4.3-.35,8.98-.79,13.29-.63,6.23-1.5,12.49-3.32,18.43-.44,1.43-2.9,14.71-4.39,14.62-.58-2.22,.24-4.96,.81-7.08,1.06-3.98,2.21-7.96,3.06-12,1.18-5.59,2.41-10.89,4.47-16.21,2.58-6.66,4.42-13.41,5.6-20.36,.81-4.76-1.15-11.08-1.83-15.92-.37-2.6-.73-5.21-1.1-7.81-.16-1.1-.58-2.44-.55-3.54,.04-1.33,.9-2.35-2.34-10.59Z"/>
    <path d="M846.03,534.86c-1.44,4.9-2.3,9.44-5.73,13.44-1.26,1.47-1.77,2.32-2.71,3.97-.58,1.02-1.77,2.98-2.8,3.27-1.25-1.61,3.65-9.46,4.45-11.18,1.35-2.92,2.31-5.66,4.29-8.23"/>
    <path d="M826.6,625.21c-.34,1.28-.88,2.5-1.26,3.77-.8,2.69-.98,5.56-1.48,8.38-1.66,9.46-1.39,19.07-2.26,28.58-.34,3.69,.27,6.8,.43,10.48,.17,3.77-.43,7.62-.05,11.37,.15,1.54,.77,3.04,.51,4.6-.19,1.18-.87,2.36-1.15,3.54-1.04-9.54-3.03-18.98-4.05-28.52-.68-6.31,1.75-12.56,3.76-18.33,.96-2.76,1.3-5.82,1.99-8.66,.51-2.1,.79-5.02,3.55-15.21Z"/>
    <path d="M960.58,602.35c.01,2.08,1.35,4.39,2.05,6.31,1.14,3.14,2.46,6.14,3.31,9.38,1.23,4.68,4.39,8.81,6.35,13.22,2.25,5.06,3.59,10.49,5.74,15.62,4.26,10.15,8.78,20.51,11.78,31.14,1.94,6.86,5.17,13.34,7.19,20.16,.69,2.34,1.87,4.78,2.88,7,.87,1.92,2.32,3.54,3.27,5.43,1.36,2.7,2.58,5.21,4.38,7.65,1.13,1.54,2.73,2.71,3.95,4.2,1.67,2.04,4.01,3.51,5.84,5.44,1.55,1.64,3.23,3.3,4.94,4.77,.49,.42,2.4,2.32,2.18,2.92-.83,.27-1.47-.19-2.22-.52-1.07-.46-2.13-.88-3.23-1.29-1.26-.47-2.39-1.15-3.63-1.64-2.2-.87-4.34-2.49-6.48-3.6-2.02-1.06-3.51-2.12-5.77-2.55-3.61-.69-7.14-2.01-10.81-2.07-1.16-.02-2.2-.66-3.38-.79-.85-.1-1.76,.07-2.62,.04-1.33-.05-2.6-.26-3.94-.1-1.9,.23-3.79,.59-5.69,.87-1.53,.23-3.08,.55-4.62,.69-.92,.09-1.79-.16-2.71-.08-.78,.07-1.67,.49-2.43,.27,.83-.77,2.2-.68,3.25-.83,1.47-.21,2.94-.43,4.41-.65l7.49-1.1c3.67-.54,7.44-1.39,11.11-1.21,1.5,.07,2.83-.1,4.32,.2,2.15,.43,4.48,.81,6.6,1.42,1.52,.43,2.92,1.07,4.37,1.64,.97,.38,2.02,.61,3,.93,.86,.28,1.85,.82,2.71,.94-2.28-1.95-5.43-3-7.43-5.17-.42-.46-.83-.64-1.25-1.28-.37-.56-.77-1.12-1.17-1.65-.99-1.33-1.89-2.6-2.69-4.11-.57-1.08-.74-2.18-1.5-3.2s-.48-1.2-.95-2.3c-.34-.79-1.03-1.4-1.37-2.22s-.67-1.34-1.13-2.1c-.38-.61-.34-1.18-.6-1.83-.3-.77-1-1.67-1.44-2.4-1.1-1.79-1.94-3.74-3.09-5.53-.96-1.5-1.19-3.3-1.89-4.9-.78-1.79-1.92-3.27-2.28-5.15-.39-2.03-2.1-3.87-2.97-5.74-1.12-2.39-1.35-5.11-2.61-7.39-.82-1.49-.6-3.27-1.12-4.89-.89-2.81-1.98-5.6-2.43-8.5-.33-2.18-1.2-4.35-1.8-6.46-.3-1.04-1.06-1.87-1.37-2.9-.25-.85-.25-1.45-.71-2.31-.51-.95-1.07-1.71-1.3-2.77-.26-1.21-.98-2.14-1.33-3.3-.43-1.43-.73-2.87-1.2-4.32-.56-1.71-1.3-3.34-1.84-5.05-.71-2.25-1.13-4.58-1.94-6.8-.89-2.45-1.51-4.66-1.9-7.23-.45-2.96-1.64-5.87-2.81-8.6-.69-1.61-1.87-3.4-1.47-5.72Z"/>
  </g>
  <path d="M1145.84,1287.54c-.74-6.6-4.65-12.37-8.19-17.91-2.44-3.82-4.96-7.14-6.74-11.37-1.57-3.73-2.62-6.95-5.1-10.23-2.01-2.67-2.56-5.62-4.11-8.56-1.33-2.51-3.09-4.8-4.5-7.26-2.82-4.92-5.17-9.75-8.66-14.27-3.38-4.39-7.78-7.59-11.39-11.75-4.73-5.44-9.41-11.01-14.44-16.15-4.06-4.15-8.68-8.74-10.87-14.16,10.75,12.98,22.6,25,32.92,38.41,4.47,5.81,8.01,12.41,12.26,18.41,2.9,4.09,6.16,7.9,8.91,12.08,3.94,5.98,8.41,13.21,10.09,20.28,.97,4.09-.13,13.99,9.83,22.48Z"/>
</svg>