<?xml version="1.0" encoding="UTF-8"?>
<svg id="Layer_1" data-name="Layer 1" xmlns="http://www.w3.org/2000/svg" viewBox="0 0 1980 1980">
  <path d="M1501.96,1548.48c-62.55-31.14-122.34-61.35-182.59-90.3-39.58-19.02-64.64-49.34-74.1-91.31-11.9-52.82-21.4-106.18-31.95-159.3-1.12-5.63-.44-14.34-3.79-16.38-32.03-19.52-13.06-44.17-9.94-68.89,4.24-33.59,3.48-67.89,3.51-101.88,.01-17.26-4.73-34.6-4.01-51.77,.6-14.16,6.82-27.99,9.22-42.19,5.15-30.51,1.46-58.53-12.4-87.94-10.19-21.61-3.6-50.55-11-74.19-8.3-26.5-23.95-50.7-37.32-77.77,5.6,4.75,9.78,8.6,14.28,12.03,4.02,3.07,8.4,5.68,21.03,14.1-7.16-16.25-10.19-23.4-13.43-30.46-52.75-114.58-137.62-204.94-222.75-295.08-9.85-10.43-18.37-24.34-30.58-29.98-67.22-31.06-135.39-60.06-208.55-92.09,7.62,202.33-94.03,355.14-205.96,503.99,8.89,1.49,16.28,2.73,23.68,3.97-.27,1.79-.54,3.58-.81,5.36-23.25,2.17-46.5,4.35-69.75,6.52,61.6,.56,75.84,8.45,97.52,54.21,19.75,10.25,43.03,15.39,44.86,24.72,3.93,20.04,32,40.43,3.41,64.51-7.43,6.26-7.83,25.82-5.28,37.97,5.56,26.52,18.68,51.7,22.34,78.31,11.18,81.24,19.1,162.92,29.11,244.32,.8,6.49,7.86,12.22,9.9,15.21-14.21,22.03-28.14,43.62-42.07,65.22,2.44,1.59,4.89,3.18,7.33,4.77,10.24-15.54,20.48-31.07,31.51-47.79,28.77,10.41,54.47,20.8,80.89,28.8,12.81,3.88,30.56,9.18,39.86,3.56,25.24-15.25,35.18-16.82,28.44,17.35-.82,4.15,6.76,11.87,12.15,15.02,29.77,17.44,59.93,34.25,90.26,50.71,13.6,7.38,30.04,10.92,41.54,20.55,44.01,36.87,88.2,73.83,128.94,114.17,21.21,21,45.9,37.56,64.17,64.02,16.79,24.32,25.91,46.92,29.64,74.34,1.59-12.88,3.19-25.77,5.23-42.24,88.25-3.04,174.53-39.8,262.21-13.55,3.24,.97,6.45,2.05,9.69,3.05,23.28-34.16,48.22-67.27,74.75-99.26-6.37-4.67-12.8-9.48-19.17-14.43ZM636.08,829.87l518.83,7.63,3.67,35.26-522.5-42.9Zm695.49,664.97c-12.03-.83-25.06,1.02-35.88-3.04-22.71-8.53-44.89-19.04-65.94-31.1-3.53-2.02-7.11-5.21-10.12-8.9l-33.78,180.35,25.87-199.99c-4.52-34.94-7.12-70.16-9.38-105.34-.38-5.9,4.58-12.14,7.34-18.24l-9.63,4.24-63.37-117.74-297.5,146.3,291.64-157.19,10.02-151.64,31.42-170.04-38.42-87.21-50.41-142.97-150.83-195.69-198.5-108.26,234.54,108.55,162.45,213.91-24.97-15.93,80.21,210.64-14.3,187.64-11.46,164.84,50.58,109.91-.29,.13c2.73,.39,5.46,.78,8.19,1.17,1.67,45.37,3.35,90.74,4.31,116.92,42.61,19.69,77.6,35.86,112.6,52.04-1.46,5.55-2.93,11.1-4.39,16.66Z"/>
</svg>