<?xml version="1.0" encoding="UTF-8"?>
<svg id="Layer_1" data-name="Layer 1" xmlns="http://www.w3.org/2000/svg" viewBox="0 0 1980 1980">
  <path d="M1808.38,2824.12c-9.49,14.03-10.08,32.04-7.87,50.54,2.2,18.41,7.62,35.19,27.81,44.63-4.1,1.73-5.39,2.8-6.11,2.5-15.63-6.5-22.92,4.13-29.94,14.73-5.78,8.74-6,17.12-.22,26.88,9.99,16.88,18.66,34.59,27.09,52.33,1.71,3.61-.11,8.9-.3,13.41-3.53-1.75-8.17-2.62-10.4-5.41-9.98-12.5-19.29-25.54-28.81-38.41-1.75-2.37-3.39-4.83-7.02-6.59-6.88,32.53-6.96,63.45,20.05,89.2-1.28,1.09-2.56,2.18-3.84,3.27-14.81-8.92-31.37-15.89-44.03-27.22-19.95-17.87-37.68-38.32-55.6-58.34-14.13-15.79-26.71-32.97-40.76-48.84-20.48-23.12-47.88-33.27-77.43-37.87-5.1-.79-12.01,2.43-16.38,5.93-19.7,15.77-39.05,32-58.05,48.62-36.2,31.67-71.27,64.7-108.4,95.22-21.87,17.98-46.27,33.09-70.48,47.95-29.21,17.93-56.79,39.28-91.43,46.95-4.97,1.1-9.17,5.72-13.76,8.73-5.29-10.2-2.2-24.02-1.71-37.81,.43-12.22-.73-24.53-1.66-36.76-.56-7.31-5.37-10.12-11.78-6.99-20.26,9.88-41.49,7.27-62.64,5.57-8.35-.67-11.62,2.46-14.12,10.65-5.72,18.72-13.57,36.79-19.69,55.4-1.68,5.11-2,11.93,.01,16.71,3.38,8,7.66,16.92,14.24,21.97,9.91,7.61,14.37-6.2,21.88-9.25,10.66-4.32,20.02-11.83,30.69-16.13,11.71-4.72,22.9-3.96,33.19,6.23,3.96,3.92,12.86,4.83,19.1,4.01,10.04-1.31,21.58,7.29,18.52,17.08-3.04,9.74-8.04,19.25-13.88,27.66-9.82,14.14-20.84,27.45-31.62,40.89-11.36,14.17-26.37,23.77-44.32,23.8-23.51,.04-47.42-1.04-70.43-5.45-27.09-5.19-34.58-24-23.35-48.9,4.95-10.96,9.11-22.3,13.22-33.62,3.49-9.6-2.13-13.63-10.51-14.56-13.16-1.47-26.59-1.24-39.53-3.73-20.36-3.92-40.39-9.57-60.59-14.33-5.3-1.25-10.74-1.95-17.52-3.16,1,15.88,3.12,29.09,13.93,39.95,4.5,4.52,7.11,10.92,10.57,16.46-1.17,.73-2.35,1.47-3.52,2.2-3.44-4.63-6.61-9.49-10.39-13.82-3.97-4.55-7.65-12.87-15.14-7.43-7.05,5.12-16.02,10.64-12.92,22.25,.71,2.66,1.81,5.22,3,8.58-13.35-11.47-26.36-22-38.64-33.32-24.11-22.23-51.23-5.98-64.32,11.11-4.89,6.38-5.19,13.02,.53,18.49,7.19,6.87,14.31,15.15,23.12,18.72,25.24,10.23,51.42,10.95,77.44,1.51,2.61-.95,5.27-1.81,7.98-2.43,10.71-2.45,21.44-4.79,33.92-7.57,14.13,11.78,12.91,31.74-5.48,41.17-6.96,3.57-15.18,5.86-22.98,6.41-20.8,1.45-42.22,4.79-62.38,1.36-16.54-2.81-32.19-13.3-47.14-22.2-11.23-6.69-21.4-15.6-30.84-24.76-9.03-8.77-16.89-18.86-24.57-28.91-7.25-9.5-5.94-19.88,.2-29.36,14.22-21.96,18.56-45.75,15.37-71.49-2.04-16.45-1.98-32.76,4.75-48.67,1.56-3.7,.14-10.68-2.58-13.87-56.65-66.49-87.85-144.68-107.76-228.65-15.38-64.86-16.97-130.73-16.29-196.6,.57-55.39,4.12-110.87,18.25-164.96,.87-3.33,.69-6.94-1.65-11.49-1.51,2.71-3.41,5.28-4.48,8.16-13.78,37.09-31.36,72.13-55.94,103.33-12.15,15.42-24.41,30.78-37.41,45.47-3.91,4.41-13.2,10.35-15.35,8.85-6.71-4.67-14.17-11.85-15.96-19.34-4.93-20.65-7.89-41.86-10.24-63.01-4.89-44.06-.44-88.03,9.88-130.57,10.73-44.21,4.96-85.92-7.06-128.22-15.97-56.23-25.29-113.76-31.66-171.79-2.27-20.69-12.59-37.71-23.6-54.69-21.85-33.66-43.18-67.66-64.56-101.62-2.75-4.37-3.76-9.94-6.88-13.93-3.4-4.36-7.76-9.09-12.71-10.86-7.6-2.73-14.18-4.61-15.33-14.3-.74-6.22-6.24-7.37-9.35-2.67-10.38,15.66-30.09,11.2-43.32,20.8-1.92,1.39-9.05-3.33-13.07-6.2-4.56-3.24-8.43-7.48-12.42-11.48-3.14-3.15-8.11-6.43-8.38-9.95-.28-3.65,3.21-9.16,6.64-11.24,9.93-6,20.62-10.74,31.06-15.88,13.52-6.66,23.52-15.46,26.96-31.58,1.59-7.46,7.93-14.64,13.73-20.29,6.7-6.52,9.31-11.61,4.41-20.84-2.74-5.16-2.88-13.17-1.07-18.91,2.47-7.85,7.29-15.22,12.19-22.01,31.67-43.91,61.85-89.07,96.11-130.87,24.3-29.65,42.33-62.13,59.37-95.8,6.51-12.86,15.4-24.51,21.94-37.36,4.39-8.63,7.97-18.2,9.34-27.71,1.71-11.85,.26-24.12,1.14-36.13,1.01-13.87,4.34-27.67,4.35-41.5,0-15.98-2.3-31.98-3.98-47.94-1.86-17.72,.94-22.77,18.5-25.85,20.91-3.67,41.99-6.66,63.11-8.66,10.44-.99,17.62-3.97,20.67-14.58,11.43-39.74,23.55-79.3,34.33-119.21,7.28-26.97,16.52-53.03,31.72-76.42,5.04-7.76,13.85-13.01,20.6-19.74,5.73-5.72,11.95-11.3,16.19-18.05,5.93-9.44,8.72-21.13,15.62-29.6,6.97-8.56,17.32-14.35,26.84-21.87-9.53-6.63-22.53-13.1-31.97-22.99-9.32-9.76-15.03-22.98-22.32-34.68-1.36,.45-2.72,.9-4.07,1.35,3.02,10.26,5.03,20.97,9.35,30.64,4.43,9.9,11.12,18.79,15.59,28.97-15.37-11.32-26.17-26.04-33.8-43.34-19.97-45.29-21.71-93.46-22.49-141.78-.21-13.39-1.15-26.46-12.86-40.1-13.43,49.75-13.58,96.45,3.86,143.15-.94,.29-1.89,.57-2.83,.86-1.56-1.83-3.77-3.41-4.57-5.52-20.42-53.48-29.66-108.18-20.07-165.52,1.56-9.35-1.53-21.08-6.25-29.62-27.58-49.87-57.15-98.64-84.36-148.7-28.37-52.18-54.92-105.36-82.02-158.23-4.92-9.6-10.57-19.84-4.81-30.86,2.35-4.5,7.1-10.03,11.37-10.61,4.27-.58,11.31,3.21,13.69,7.17,17.99,29.93,35.19,60.35,52.52,90.68,9.75,17.05,19.23,34.25,28.92,51.34,24.34,42.95,48.64,85.94,73.19,128.77,3.88,6.77,9.04,12.82,15.63,22.03,4.98-10.75,8.58-18.5,12.15-26.26,16.83-36.56,34.86-72.51,62.5-102.31,30.5-32.9,68.76-53.37,111.31-66.32,3.07-.94,6.24-1.59,9.28-2.62,18.3-6.17,20.59-15.28,8.08-30.22-4.58-5.47-9.36-11.13-12.35-17.5-9.41-20.05-.22-35.81,13.55-49.59,10.17-10.18,18.02-20.46,13.17-36.13-.69-2.24,2.92-8.32,4.11-8.2,5.26,.51,12.32,1.03,15.16,4.49,7.54,9.17,12.26,20.38,7.32,32.52-7.04,17.32-2.3,31.81,10.24,43.9,12.4,11.96,19.04,25.62,17.25,42.96-.98,9.53,4.77,11.48,12.58,11.84,35.89,1.66,69.21,12.09,100.23,30.03,26.03,15.05,44.2,38.24,60.26,62.54,41.48,62.77,52.7,135.74,65.63,207.62,6.46,35.91,2.51,72.38-10.21,106.98-3.6,9.79-10.98,18.31-17.22,26.99-5.3,7.37-12.07,13.73-17.11,21.26-9.57,14.3-19.91,28.41-26.99,43.95-5.68,12.46-7.43,26.83-9.89,40.54-.43,2.4,3.72,6.79,6.75,8.44,14.78,8.04,25.27,19.18,30.64,35.54,1.88,5.73,5.89,12.26,10.84,15.23,24.77,14.86,34.92,40,39.97,64.99,9.2,45.52,13.47,92.04,19.69,138.16,3.44,25.5,6.51,51.05,10.03,76.53,2.47,17.91,3.17,18.09,21.63,21.09,12.67,2.06,25.4,4.17,37.8,7.44,18.09,4.76,21.64,8.48,19.43,27.24-2,17.01-7.95,33.52-11.38,50.4-1.44,7.08,.04,14.75-1.43,21.82-3.09,14.81-7.11,29.44-11.06,44.06-1.04,3.83-4.58,7.38-4.5,11,.08,3.9,2,9.69,4.95,11.31,21.09,11.6,22.2,13.21,18.19,36.67-.2,1.19-.11,2.6-.73,3.52-13.77,20.68,1.06,33.73,13.01,46.96,33.82,37.42,55.2,82.52,78.8,126.26,10.68,19.79,20.81,39.86,31.19,59.81,11.68,22.44,23.72,44.71,34.93,67.39,11.79,23.88,7.9,39.79-13.02,55.45-21.13,15.81-42.56,31.21-63.84,46.82-1.83,1.35-3.48,2.95-7.24,6.16,5.7,1.93,9.74,2.83,13.34,4.62,5.62,2.8,10.9,6.28,16.4,9.32,3.71,2.05,7.57,3.85,11.36,5.76,2.26-5.21,6.2-10.36,6.42-15.66,.35-8.69-1.84-17.47-2.67-26.23-.17-1.74,.95-3.6,3.91-5.76,.73,2.58,1.79,5.13,2.14,7.76,.73,5.56-.3,11.8,1.87,16.64,4.92,10.98,1.55,18.33-5.75,26.99-3.43,4.07-3.75,14-1.28,19.31,17.48,37.46,38.18,73.55,53.74,111.75,18.66,45.82,47.46,85.58,70.64,128.63,19.19,35.64,39.65,70.62,60.58,105.27,9.09,15.04,19.36,29.95,31.81,42.14,7.65,7.49,20.12,12.45,31,13.78,28.18,3.44,54.37-4.45,79.94-17.06,11.72-5.78,26.47-7.97,39.69-7.48,17.46,.65,25.24,16.37,31.27,30.06,8.72,19.8,15.84,40.45,21.85,61.25,4.93,17.05,14.23,29.74,29.63,37.58,22.92,11.66,30.98,31.22,31.09,55.39,.04,8.44-.75,16.88-.74,25.32,.02,12.62,3.79,23.51,14.3,31.67,6.64,5.15,12.62,11.19,18.71,17.02,9.57,9.16,13.55,20.58,13.3,33.71-.15,8.04-.08,16.09,.1,24.13,.23,10.54,2.89,18.72,13.77,24.41,14.05,7.36,18.05,22.06,15.54,36.5-3.82,21.99,1.4,41.04,11.91,60,7.36,13.29,13.14,27.57,18.34,41.87,1.77,4.86-.38,11.15-.74,16.79-1.76,.35-3.53,.69-5.29,1.04-10.86-15.59-21.79-31.12-32.54-46.78-3.86-5.62-6.65-12.08-11.06-17.18-9.86-11.38-15.53-24.27-16.81-39.19-1-11.69-6.92-19.78-16.6-26.45-16.87-11.61-28.51-26.25-27.69-48.82,.62-17.01-7.55-29.59-24-36.87-24.69-10.93-37.33-40.08-28.76-65.35,5.86-17.27-3.24-30.37-11.87-43.14-1.81-2.68-11.94-3.64-14.52-1.29-20.21,18.35-40.69,36.99-44.48,66.39-.6,4.67-.36,9.73,.79,14.28,3.87,15.33,5.9,16.08,27.18,13.24-5.73,4.84-11.4,9.74-17.2,14.49-10.98,8.99-11.07,13.89,.7,21.79,15.97,10.72,23.75,27.77,22.25,44.5-2.68,29.85,11.79,48.62,32.23,65.49,19.38,15.99,24.97,36.75,21.71,60.55-1.77,12.92,.58,24.49,6.81,35.94,7.66,14.09,14.28,28.75,21.23,43.23,1.38,2.87,2.83,5.95,3.06,9.03,.19,2.47-.93,6.84-2.33,7.23-2.51,.7-6.7,0-8.39-1.82-6.56-7.04-12.57-14.62-18.48-22.23-7.13-9.18-13.68-18.82-20.96-27.87-10-12.46-17.1-25.26-17.51-42.34-.33-13.69-9.13-23.8-22.7-29.84-12.29-5.47-23.55-13.22-37.66-21.35ZM639.52,2005.38c10.88-22.39,21.76-44.79,32.64-67.18-1.58-.76-3.16-1.52-4.74-2.27-9.31,17.94-18.99,35.69-27.73,53.91-2.8,5.85-3.11,12.9-4.56,19.4-10.5,15.56-21.01,31.1-31.49,46.67-5.33,7.92-10.61,15.87-15.91,23.81,1.52-8.91,5.05-16.49,8.78-23.97,16.68-33.39,31.14-68.17,50.67-99.81,31.25-50.66,49.94-105.82,66.13-162.27,12.82-44.72,21.53-90.73,42.96-132.69,5.1-9.99,9.22-20.53,13.18-31.04,1.47-3.89,1.21-8.44,2.05-15.16-18.77,22.3-35.37,42.01-51.97,61.72-.8-.57-1.61-1.14-2.41-1.71,5.6-8.42,11.56-16.63,16.73-25.32,10.62-17.83,21.04-35.79,31.1-53.94,7.94-14.32,15.19-29.03,22.82-43.53,11.78-22.39,24.67-44.32,24.23-70.96-.26-15.75-2.28-17.5-17.75-12.09-14.35,5.02-28.22,11.87-42.9,15.4-36.97,8.9-74.57,10.55-112.3,5.28-29.58-4.13-30.95-6.66-26.7-37.79,1.2-8.81,4.39-12.02,13.32-10.09,25.51,5.49,51.14,10.42,76.65,15.87,10.98,2.35,21.72,5.83,32.71,8.1,8.68,1.79,18.35,5.34,26.23,3.18,28.98-7.93,57.51-17.59,85.98-27.3,9.85-3.36,18.99-8.78,29.55-13.77-3.28-2.18-5.17-3.61-7.22-4.77-20.44-11.65-40.6-23.83-61.51-34.58-8.55-4.39-18.71-7.88-28.15-7.9-32.38-.07-64.77,2.57-97.13,2.26-23.63-.23-47.21-3.79-70.84-5.25-9.4-.58-20.19,.06-20.52,12.93-.7,27.6-.21,55.22-.21,80.81-7.39,8.81-16,16.56-21.5,26.1-16.64,28.84-29.64,60.06-48.5,87.27-37.43,54.01-77.89,105.92-116.91,158.83-4.51,6.11-8.29,12.87-11.58,19.73-3.94,8.21,2.29,15.4,11.6,14.68-.44-4.22-.87-8.45-1.31-12.68,4.62-.06,9.53-1.17,13.83-.01,37.76,10.21,60.3,39.14,82.68,68.17,.23,.3,.2,.79,.4,1.13,17.74,29.92,25.42,63.17,31.8,96.81,7.49,39.48,15.46,78.9,21.81,118.56,3.4,21.23-4.17,40.93-19.12,55.77-6.21,6.17-9.74,10.57-8.25,18.96,5.42,30.46,9.88,61.12,16.24,91.38,6.86,32.63,15.66,64.84,23.18,97.34,4.64,20.04,8.47,40.23-3.94,59.31-1.25,1.91-1.46,4.58-1.89,6.94-10,54.76-17.52,109.67-6.9,165.25,2.61,13.69,5.93,27.32,10.13,40.59,2.47,7.82,9.47,7.94,14.17,2.32,8.19-9.8,15.7-20.3,22.39-31.19,2.45-3.98,3.65-10.53,2.21-14.83-15.08-45.06-10.78-91.47-10.35-137.62,.02-2.43,1.11-4.84,1.7-7.27l3.21-.24c3.48,43.57,12.12,85.89,28.48,126.63,30.68-71.93,21.9-146.18,14.09-220.55,6.23,18.06,12.46,36.11,18.68,54.17l4.04-.9c-3.81-132.46-4.85-264.83,10.25-397.13-5.47,7.6-9.67,15.91-14.83,23.58-5.36,7.97-11.64,15.33-17.52,22.96Zm308.49,650.45c1.46,.29,2.91,.58,4.37,.87,1.49-3.05,3.41-5.96,4.4-9.16,4.77-15.35,9.85-30.63,13.78-46.2,10.23-40.48,19.77-81.13,29.95-121.63,1.73-6.89,6.47-13.08,7.8-19.99,15.66-81.29,34.24-162.13,38.73-245.2,.26-4.75,1.99-9.43,3.04-14.14,1.18,.14,2.36,.29,3.55,.43,0,4.48,.5,9.03-.07,13.43-8.98,68.94-18.11,137.87-27.18,206.8-10,76.04-29.09,150.93-29.1,228.23,0,21.67-.15,43.4,1.29,65,.77,11.49,12.48,17.31,26.49,16.56,13.68-.74,11.71-10.43,11.92-19.17,1.56-64.31,3.12-128.62,4.76-192.93,.07-2.82,.93-5.62,1.42-8.43,3.01,4.73,3.54,9.34,3.66,13.96,.92,36.57,1.67,73.14,2.64,109.71,.72,26.93,1.43,53.86,2.66,80.77,.62,13.61,6.85,17.63,18.88,11.21,4.47-2.39,8.32-9.72,8.82-15.13,2.32-24.8,4.1-49.7,4.7-74.6,1.96-81.58,2.91-163.19,5.04-244.77,2.17-82.78,4.25-165.59,8.34-248.29,2.86-57.79,9.02-115.42,13.81-173.11,.22-2.69,1.44-5.29,2.19-7.93,1.12,.18,2.25,.37,3.37,.55-.51,9.88-.86,19.78-1.57,29.65-5.07,70.13-12.72,140.19-14.78,210.41-3.88,132.24-4.74,264.58-6.35,396.88-.29,24.07,1.42,48.18,3.12,72.21,.28,3.91,4.56,9.35,8.31,10.91,36.96,15.41,73.84,11.53,110.49-1.74,24.21-8.76,28.87-15.92,26.81-41.38-.16-2-.24-4.02-.21-6.02,.74-53.25-3.96-105.96-14.6-158.2-7.43-36.49-16.55-72.62-9.33-110.79,11.42-60.39,21.83-121,31.07-181.76,22.4-147.19,27.08-293.86-17.39-438.46-4.85-15.76-10.42-31.3-16.05-48.14-5.34,3.97-7.68,6.18-10.41,7.67-30.24,16.41-50.19,40.58-56.97,74.88-9.35,47.3-18.76,94.59-28.21,141.88-.9,4.5-2.28,8.91-4.2,16.28-1.69-4.4-2.28-5.16-2.21-5.85,9.64-92.17,30.28-181.41,69.58-265.86,4.56-9.8,8.76-21.66,7.44-31.83-1.82-14.01-8.42-27.57-14.1-40.85-8.53-19.93-8.94-19.75-28.87-11.88-.37,.15-.74,.34-1.13,.41-38.25,6.93-76.27,16.49-114.83,19.96-32.9,2.96-66.64,.9-99.63-2.54-39.47-4.11-78.64-11.49-117.72-18.65-13.86-2.54-17.49-2.25-22.06,11.26-5.14,15.19-10.54,30.31-14.97,45.71-1.29,4.49-1.54,11.26,.95,14.54,20.95,27.63,32.38,59.6,38.12,92.76,8.78,50.64,13.87,101.92,20.78,152.9,15.02,110.88,25.3,222.16,24.41,334.12-.65,81.56-4.08,163.1-6.02,244.66-1.58,66.38-1.57,132.72,7.82,198.67,.9,6.31,2.03,13.07,5.15,18.38,1.91,3.25,7.73,4.73,12.08,5.56,.92,.17,4.36-5.95,4.4-9.2,.73-57.87,.99-115.76,1.7-173.63,.12-9.88,1.83-19.75,2.8-29.62,1.64,30.28,1,60.44,1.81,90.56,1.03,38.17,2.98,76.33,5.26,114.45,.31,5.11,3.64,12.71,7.64,14.46,18.96,8.32,26.64,3.48,28.8-16.45,.74-6.79,1.21-13.63,1.33-20.45,.91-53.08,1.69-106.15,2.59-159.23,.08-4.73,.7-9.46,1.07-14.18,.87,.09,1.74,.19,2.62,.28,2.08,53.48,4.16,106.95,6.24,160.43Zm443.2-629.73c-1.04,1.64-5.33,5.54-6.08,10.03-7.66,45.58-25.23,87.87-41.68,130.63-6.42,16.69-14.09,34.54-13.86,51.76,.34,24.95,4.8,50.56,11.98,74.55,19.58,65.42,28.66,131.83,25.45,199.94-.39,8.36-1.92,16.81-4.1,24.89-3.28,12.16-14.36,15.85-22.7,6.55-6.7-7.47-11.38-17.34-15.01-26.89-10.73-28.17-21.57-55.97-38.72-81.29-15.69-23.17-28.92-48.04-42.68-72.48-3.92-6.96-5.91-15-9.9-25.46-2.22,10.21-4.34,17.16-5.17,24.26-4.21,36.25-8.83,72.13-.7,108.95,8.47,38.34,15.31,77.41,18.38,116.51,6.88,87.63,3.01,175.07-10.71,262.07-6.32,40.07-10.67,80.46-15.49,120.75-.57,4.8-.23,11.4,2.59,14.62,13.32,15.23,27.61,29.74,49.44,12.54,.3-.23,.76-.25,1.13-.4,13.17-5.34,27.32-8.27,36.97-20.75,5.08-6.57,11.32-5.61,15.83,3.2,1.84,3.58,9.27,8.09,11.73,6.95,16.51-7.66,33.42-15.29,48.02-25.92,8.18-5.95,13.89-13.53,25.49-12.51,4.23,.37,9.47-2.19,13.08-4.95,12.09-9.26,23.61-19.26,35.42-28.88,7.95-6.48,16.02-12.81,24.41-19.5,4.58,5.55,8,9.71,12.52,15.19-10.63,.67-17.74,3.66-14.33,18.29,5.72-4.67,10.11-8.05,14.26-11.72,2.96-2.61,5.06-6.79,8.43-8.25,30.11-13.1,45.38-39.08,59.95-66.38,15.08-28.25,32.16-55.43,47.48-83.57,2.45-4.51,1.37-11.85-.06-17.37-2.78-10.69-7.92-20.8-10.33-31.54-2.8-12.51-6.55-23.66-17.13-32.06-18.86-14.97-28.3-36.66-38.7-57.46-1.76-3.52-1.36-8.64-.65-12.8,3.85-22.42,20.67-35.93,36.37-49.31,31.7-27.03,43.11-72.68,25.37-110.34-19.33-41.04-38.89-81.98-58.9-122.7-10.78-21.93-23.02-43.15-34.09-64.95-18.53-36.48-36.54-73.22-55-109.74-13.58-26.85-27.47-53.54-41.35-80.23-3.51-6.75-6.27-14.64-11.64-19.48-8.01-7.21-8.8-14.18-5.71-23.6,1.41-4.31,.24-9.48,.24-14.25-1.26-.89-2.53-1.77-3.79-2.66-7.1,5.55-14.19,11.1-21.29,16.64,4.76,5.99,9.52,11.97,15.21,19.12Zm-639.9,609.1c.82,.14,1.64,.27,2.46,.41,0,3.22,.05,6.43,0,9.65-.47,24.79,3,29.65,25.87,40.06,22.54,10.26,46.2,12.95,70.58,12.55,8.45-.14,9.33-3.79,8.8-11.45-4.32-62.91-10.18-125.83-11.32-188.82-.86-47.28,6.28-94.65,6.83-142.02,.89-76.72,6.38-153.5-.22-230.19-4.76-55.27-9.69-110.54-15.55-165.7-6.41-60.36-13.42-120.67-21.31-180.86-3.55-27.13-8.79-53.84-36.28-69.73-15.57-9-22.73-8.53-26.77,9.26-10.14,44.63-22.67,89.09-27.98,134.36-13.42,114.52-7.87,228.71,13.48,342.21,14.73,78.31,41.25,154.73,37.7,236.11-1.23,28.2,1.43,55.77-6.38,84.37-10.61,38.84-13.63,79.76-19.91,119.79Zm482.58-1003.56c-1.15,1.12-2.3,2.24-3.44,3.36,1.03,4.43,1.56,9.06,3.17,13.27,20.48,53.66,42.6,106.75,61.29,161.02,19.87,57.69,36.84,116.39,54.39,174.86,5.04,16.79,5.15,17.66,21.44,11.42,26.46-10.14,50.26-24.73,72.24-42.51,17.1-13.83,34.71-27.04,51.46-41.27,8.87-7.54,12.58-16.87,6.16-28.92-11.31-21.22-21.28-43.15-32.34-64.51-19.74-38.14-39.8-76.12-59.88-114.08-16.35-30.92-33.3-61.4-58.69-86.26-12.48-12.22-24.61-25.21-11.68-44.5,.83-1.23,.69-3.11,.99-4.69,4.48-23.87,1.86-27.74-21.9-32.63-1.44-.3-2.74-1.28-3.86-1.82,6.24-19.59,12.7-38.5,18.22-57.67,3.46-12.01-.64-15.36-12.32-17.45-24.77-4.44-49.29-10.27-73.85-15.83-2.95-.67-5.88-2.76-8.16-4.89-29.16-27.22-62.07-38.91-101.41-25.29-4.52,1.57-9.4,2.1-14.09,3.21-17.75,4.21-35.5,8.46-56.92,13.57,5.93,3.8,8.47,6.56,11.42,7.14,33.27,6.46,66.51,9.47,100.46,3.51,15.1-2.65,31.01-1.2,46.51-.6,4.09,.16,8.04,4.09,12.06,6.29-3.59,3.26-6.66,7.67-10.87,9.55-8.94,3.98-18.47,6.65-31.13,11.02,35.85,39.26,73.08,73.71,94.21,120.73-1.23-.47-2.73-.76-3.89-1.54-17.22-11.68-34.67-23.06-51.47-35.33-8.29-6.05-15.65-13.49-22.91-20.82-6.43-6.48-11.94-13.85-18.21-20.5-8.94-9.47-20.6-17.02-19.29-32.81,.28-3.33-2.97-6.95-4.59-10.43-1.78,.53-3.56,1.06-5.34,1.59,1.82,8.46,1.04,19.02,5.9,25.02,19.39,23.95,38.31,48.58,64.64,65.98,8.3,5.48,15.11,13.21,22.6,19.92-1.13,1.27-2.26,2.53-3.38,3.8-35.13-20.04-62.77-49.19-91.25-78.81-.07,13.57,1.38,26.06,5.06,37.85,1.26,4.05,8.26,6.17,12.36,9.52,3.72,3.04,7.05,6.56,10.59,9.84,10.26,9.52,20.62,18.94,30.77,28.57,20.29,19.25,40.85,38.22,60.51,58.09,9.65,9.76,17.55,21.25,26.24,31.96,.68-.51,1.35-1.01,2.03-1.52-24.61-15.46-49.23-30.92-73.84-46.38Zm-377.02-746.97c.85,2.18,2.92,6.7,4.42,11.41,6.54,20.5,30.93,39.24,50.38,38.71,48.52-1.3,97.04-2.44,145.55-3.87,4.62-.14,9.94-.74,13.68-3.1,31.9-20.17,56.69-79.53,49.59-116.41-2.03-10.52-2.14-21.4-3.69-32.03-.98-6.73,3.15-17.8-8.96-17.32-12.29,.49-6.15,10.64-5.98,16.86,.53,19.18-10.78,36.94-26.2,40.2-19.61,4.15-28.65-1.53-38.33-23.57-2.07-4.72-5.25-8.93-7.71-13.49-3.22-5.96-4.51-10.87,4.18-14.05,11.57-4.24,22.74-9.62,33.96-14.79,2.69-1.24,6.89-3.57,6.92-5.45,.13-8.79-.96-17.6-1.61-26.4-1.32-.43-2.65-.86-3.97-1.3-12.19,10.96-31.04,11.98-40.4,27.17,.52,1.39,1.03,2.79,1.55,4.18,10.19-2.38,20.38-4.76,30.57-7.14,.22,1,.45,1.99,.67,2.99-10.05,4.29-20.1,8.6-30.16,12.87-7.96,3.38-11.47,.89-9.99-7.8,1.67-9.81,4.84-19.39,6.2-29.23,4.57-33.22-.82-65.69-8.67-97.84-1.75-7.17-4.79-14.02-7.24-21.01-7.94,21.63-19.25,41.31-43.67,37.82-25.74-3.67-38.01-22.67-33.7-50.98-7.56,26.28-13.65,51.83-17.2,77.72-2.21,16.11-.7,32.75-.66,49.15,.02,9.03,4.95,13.53,13.74,15.4,8.53,1.81,16.77,4.96,25.13,7.52-.38,1.3-.76,2.6-1.13,3.91-8.01-1.86-15.96-4.13-24.06-5.41-3.77-.6-7.83,.72-11.76,1.17,1.22,4.81,1.48,10.21,3.96,14.23,1.85,3,6.95,3.81,9.91,6.38,2.36,2.04,4.51,5.07,5.26,8.04,1.15,4.57,1.37,9.48,1.31,14.23-.04,3.28-.43,7-2.02,9.72-4.96,8.49-10.48,16.67-15.99,24.83-1.27,1.88-3.12,3.79-5.14,4.66-17.52,7.5-36.92-.46-44.75-18.21-3.74-8.47-5.68-16.14,6.23-20.29,2.09-.73,2.63-5.9,3.88-9.02-7.83-1.89-15.93-5.95-23.4-5-6.46,.82-10.25,7.88-8.18,16.21,1.13,4.58,.2,9.67,.2,14.53l-4.21-.02c-1.29-3.2-2.59-6.41-3.88-9.61-2.15,3.71-2.61,6.9-2.07,9.92,2.25,12.57,5.29,25.03,6.94,37.67,.53,4.04-2.34,8.52-3.66,12.8-2.88-3.18-6.26-6.04-8.51-9.61-2.83-4.49-4.73-9.57-7.03-14.4-1.55,.56-3.1,1.12-4.66,1.68,1.8,14.53,2.81,29.22,5.8,43.49,1.1,5.26,5.97,11.22,10.75,13.75,3.73,1.97,10.01-.86,17.78-1.91Zm31.87,134.04c-1.22,1.18-2.43,2.37-3.65,3.55-4.56-3.69-8.74-8.06-13.76-10.92-10.65-6.07-17.63-15.85-35.19-9.3-19.04,7.1-25.38,19.86-32.56,34.78-5.31,11.04-2,19.66,8.22,25.49,11.84,6.75,24.33,12.4,35.93,19.52,15.66,9.62,32.82,14.63,50.51,12.43,34.88-4.32,69.78-9.39,104.12-16.78,28.97-6.23,57.59-14.92,85.54-24.85,21.94-7.8,42.61-19.16,60.38-27.34-.62-12.47-1.66-21.28-1.29-30.03,.25-5.92,2.19-11.85,3.9-17.62,3.72-12.56-.77-21.79-6.42-24.3-20.14,16.28-40.29,32.56-61.61,49.78,18.57,13.67,33.55,1.21,49.31,2.35-3.25,4.81-6.93,9.44-11.48,10.57-45.41,11.31-89.13,30.33-136.63,32.07-16.64,.61-33.63-.91-50.05-3.8-11-1.93-13.13-9.25-7.61-19.01,18.66,14.53,38.59,19.49,60.41,3.61-20.96-3.61-41.92-7.22-62.88-10.83,.05-1.09,.11-2.18,.16-3.27,2.91-.71,5.8-1.93,8.74-2.07,40.49-1.85,81-3.43,121.48-5.46,5.28-.27,13.14-1.03,15.24-4.4,10.55-16.97,19.92-34.72,28.94-52.58,2.76-5.47,.48-10.07-7-10.33-12.83-.44-25.69-2.25-38.47-1.77-53.75,2.03-107.49,4.44-161.2,7.39-8.9,.49-17.75,3.94-26.37,6.79-6.9,2.28-12,3.9-14.24-5.91-1.24-5.43-5.34-10.2-8.15-15.27-1.22,.62-2.45,1.24-3.67,1.87-.12,8.37-1.63,16.99,7.23,23.23,1.58,1.11,3.14,4.16,2.75,5.87-4.01,17.67,9.23,25.77,19.24,35.76,6.83,6.81,13.43,13.84,20.13,20.78Zm201.64,1678.11c-1.33,.18-2.67,.36-4,.54-1.07,7.38-2.8,14.74-3.06,22.15-.39,11.12-6.52,14.6-16.41,14.47-14.06-.19-28.16-1.06-42.16-.19-14.9,.93-27.13-2.16-37.77-13.66-3.26-3.52-12.2-4.4-17.29-2.71-3.7,1.23-6.51,8.41-7.62,13.4-1.54,6.97-1.57,14.37-1.47,21.58,.36,26.45-.42,53.02,2.06,79.28,1.9,20.15,8.67,39.57,29.07,49.86,7.68,3.87,15.75,6.98,10.65,18.55-.8,1.81,2.54,5.47,4,8.26,14.72,28.11,44.73,26.35,69.36,34.51,4.01,1.33,10.77-5.93,16.4-8.96,1.14-.62,2.9-.09,1.52-.09,4.35,10.4,7.48,19.47,12.03,27.76,1.36,2.48,6.73,2.75,10.26,4.03,.7-3.31,2.18-6.66,1.97-9.91-.95-14.42-2.25-28.82-3.68-43.2-6.74-67.5-13.52-134.99-20.44-202.47-.46-4.47-2.25-8.8-3.42-13.19Zm179.77-1343.25c-2.31-14.28-4.97-27.17-6.39-40.2-5.14-47.15-9.29-94.42-14.93-141.51-3.74-31.21-10.09-61.9-27.94-88.91-8.03-12.15-23.12-21.44-31.12-18.16-24.79,10.18-49.67,20.16-74.22,30.89-3.14,1.37-7.18,7.69-6.31,10.11,7.98,22.18,15.46,44.77,26.18,65.65,6.33,12.33,18.24,21.78,27.63,32.53-1.45-13.73,11.65-52.47,24.18-62.26-1.8,5.74-3.04,9.29-4.04,12.92-4.67,16.92-12.47,33.54-6.99,51.71,4.05,13.43,9.7,26.42,13.12,39.99,7.8,30.93,19.8,61.48,10.59,94.53-.61,2.19,4.76,8.55,7.73,8.83,19.9,1.87,39.91,2.61,62.5,3.86Zm-579.48-67.65c1.81,.99,3.07,1.96,4.5,2.41,17.44,5.45,34.95,10.67,52.33,16.29,8.13,2.63,8.91-2.03,10.69-8.2,5.31-18.37,8.61-38.2,18.05-54.31,18.12-30.93,25.66-62.76,20.4-97.96-.35-2.35,.33-4.85,.52-7.29,2.97,17.33,25.4,29.45,12.61,51.14,18.35-15.88,35.52-31.04,43.46-53.64,3.18-9.05,5.49-18.43,9.01-27.34,2.44-6.17,1.35-9.12-4.74-12.21-19.58-9.94-38.95-20.31-58.04-31.16-6.62-3.76-11.69-4.81-18.64-.42-23.27,14.72-34.61,38.05-42.32,62.38-13.81,43.57-24.8,88.02-37.31,132.01-2.71,9.52-6.89,18.62-10.54,28.29Zm1143.01,1303.16c-103.37,47.21-186.59,114.54-234.32,219.27,12.91-7.99,24.41-17.72,36.77-26.17,36.99-25.29,73.65-51.17,111.81-74.59,18.95-11.63,40.83-18.55,61.54-27.22,6.54-2.73,11.21-6.4,7.23-13.42-11.5-20.24-5.21-38.56,4.88-56.71,3.95-7.1,8.05-14.12,12.08-21.17Zm-586.84,84.38c-48.82,27.18-96.57,31.83-146.41,15.14-1.14,2.75-2.37,4.23-2.22,5.57,2.79,25.5,5.36,51.04,9.09,76.41,.55,3.75,6.2,8.39,10.41,9.71,39.54,12.46,76.92,3.89,112.9-13.53,3.94-1.91,7.91-7.71,8.43-12.11,3.11-26.5,5.22-53.13,7.8-81.19Zm-492.81,6.34c3.61,32.81,6.68,62.21,10.33,91.55,.36,2.87,3.79,6.61,6.65,7.72,36.37,14.13,73.31,21.63,111.32,6.41,3.07-1.23,6.75-5.2,7.09-8.25,2.06-18.34,3.3-36.77,4.67-55.18,.64-8.67-3.8-13.88-12.16-15.11-9.49-1.4-19.07-2.58-28.64-3-25.66-1.12-51.54-.52-75.46-12.2-6.75-3.29-13.42-6.73-23.8-11.94Zm354.73,105.31c-.58,3.34-1.59,5.68-1.28,7.85,3.31,23.41,6.78,46.8,10.3,70.19,1.29,8.58,6.62,13.02,14.93,15.11,26.83,6.75,52.26,.62,77.97-6.67,12.39-3.51,16.12-10.65,17.25-22.26,1.98-20.34,5.13-40.57,7.7-60.86,.57-4.49,.8-9.03,1.49-17.18-42.8,19.68-84.41,27.81-128.36,13.83Zm521.98,102.29c-.73,.97-1.46,1.94-2.18,2.91,5.07,5.35,10.12,10.71,15.22,16.03,12.43,12.96,26.15,24.93,37.08,39.05,22.3,28.83,41.06,60.45,68.23,85.36,3.27,3,7.55,4.9,13.83,8.87-7.38-47.33,.97-87.39,37.84-121.5-58.84-11.93-112.7-30.37-170.01-30.72Zm-480.57-1504.31c5-3.44,8.06-5.08,10.52-7.37,3.06-2.84,5.63-6.22,8.41-9.36-4.55-2.5-9.53-7.71-13.58-7.06-24.01,3.84-46.63,11.52-65.33,28.22-10.75,9.6-22.04,18.58-33.02,27.92-1.88,1.59-3.43,3.57-5.13,5.37,.58,1.1,1.16,2.2,1.75,3.3,7.1-2.8,15.46-4.06,21.07-8.67,17.79-14.65,17.41-15.13,35.98-6.03,.92-14.62,13.41-22.22,26.83-14.53,9.6,5.5,18.44,6.08,28.68,4.42,4.94-.8,10.73-.23,15.36,1.65,19.22,7.79,38.14,16.28,57.16,24.56,14.91,6.49,29.68,13.34,44.75,19.46,7.81,3.17,13.2,.96,14.06-8.69,.29-3.3,1.92-6.95,4.04-9.52,7.05-8.58,15.19-16.3,21.84-25.16,9.88-13.16,3.95-27.37-12.11-30.56-8.26-1.64-16.48-3.82-24.83-4.62-10.99-1.05-22.38-2.72-33.08-.96-13.88,2.28-27.4,7.23-40.74,11.98-4.55,1.62-9.73,5.35-11.71,9.5-3.4,7.14-7.58,10.23-15,7.95-10.96-3.38-21.8-7.14-35.91-11.79Zm-264.69,1690.81c-7.04,1.35-14.5,3.52-22.09,4.11-19.82,1.55-38.88-1.72-57.56-9.01-9.77-3.81-14.25,.21-14.84,10.57-.14,2.39,.41,4.81,.33,7.2-.8,22.26-1.63,44.52-2.56,66.78-.26,6.37-1.97,12.89-1.05,19.05,1.49,10.07,7.35,11.71,14.8,5.15,6.91-6.08,13.68-12.33,20.85-18.08,12.96-10.41,37-11.59,48.61-2.12,9.9,8.08,19.17,16.92,28.86,25.28,2.65,2.29,5.77,4.03,9.67,6.69,.8-12.26,1.56-22.17,2.04-32.1,.23-4.73,1.2-9.95-.34-14.14-8.66-23.59-17.98-46.93-26.71-69.39Zm929.1-283.62c-72.96,7.05-134.4,42.13-198.75,70.61,61.59,5.87,122.62,12.02,180.15,36.43-1.05-18.88-5.05-37.07-2.18-54.1,2.88-17.09,12.62-33.01,20.78-52.93Zm-1047.44-3.11c5.48,27.21,10.72,51.82,15.28,76.56,2.29,12.41,9.77,18.09,21.48,18.41,22.38,.61,44.77,.41,67.15,.97,10.62,.26,15.1-4.23,15.4-14.87,.61-21.65,1.68-43.31,3.13-64.92,.74-10.98-4.07-12.41-13-9.49-25.17,8.21-50.68,6.79-76.14,1.89-10.15-1.95-20.07-5.1-33.31-8.54Zm352.63,98.03c-.08,1.08-.63,4.53-.56,7.96,.45,21.63,1.55,43.26,1.35,64.88-.1,10.18,4.2,16.12,13.45,16.01,23.06-.28,46.16-1.4,69.13-3.44,3.74-.33,9.27-6.75,9.94-10.99,3.83-24.53,6.44-49.24,9.47-73.89,.92-7.45-1.63-10.6-9.53-8.49-10.83,2.89-21.68,6.92-32.7,7.62-19.64,1.24-39.42,.35-60.54,.35Zm498.22-54.27c1.8-.41,3.72-.56,5.39-1.27,19.46-8.31,38.55-17.66,58.41-24.86,35.84-13.01,72.14-24.6,110.9-25.22,13.76-.22,13.14-1.88,11.2-15.01-2.78-18.78-2.83-37.97-3.87-57-.18-3.26,.5-6.58,.78-9.86-1.06-.76-2.12-1.53-3.19-2.29-64.82,38.01-128.63,77.42-179.62,135.52ZM920.72,1421.71c-22.12-14.29-44.12-28.75-66.37-42.82-31.48-19.9-62.86-40-94.98-58.81-6.25-3.66-15.7-2.01-23.7-2.51-9.07-.56-18.4,.41-27.2-1.38-23.45-4.77-46.88-3.13-70.36-1.56-3.09,.21-6.29,1.56-9.06,3.07-7.77,4.26-9.65,15.8-1.99,18.43,16.3,5.59,28.53,16.01,40.96,26.78,.28,.24,.74,.29,1.13,.41,20.72,6.19,41.51,11.16,63.52,9.09,14.56-1.37,21.99-6.65,24.63-21.17,1.44-7.92,5.34-10.36,12.61-7.99,4.18,1.37,8.48,2.71,12.26,4.87,34.67,19.79,69.25,39.74,103.81,59.71,2.41,1.39,5.18,2.84,6.67,5.02,6.78,9.99,16.86,10.86,28.08,8.85Zm-134.03,1467.61c4.64,24.99,8.93,50.61,14.6,75.93,.89,3.99,7.99,9.33,12.24,9.36,19.51,.13,39.06-1.08,58.54-2.49,8.13-.59,10.97-6.36,11.16-14.39,.44-18.88,1.61-37.74,2.28-56.62,.13-3.8-.63-7.62-1.01-11.78h-97.81Zm-354.76-979.16c1.91,.71,3.82,1.43,5.73,2.14,3.45-5.12,7.46-9.95,10.24-15.41,7.77-15.29,14.96-30.86,22.5-46.26,3.35-6.83,7.51-13.32,10.24-20.38,1.27-3.29,1.6-9.05-.36-11.13-15.01-15.93-28.29-34.31-50.2-41.66-3.52-1.18-9.51,.41-12.47,2.94-11.13,9.53-21.84,19.62-31.87,30.3-2.71,2.88-4.5,11.6-3.21,12.48,8.77,5.96,3.25,10.75-1.04,14.21-8.1,6.53-16.73,12.58-25.78,17.69-12.56,7.1-25.83,12.94-38.52,19.83-2.7,1.47-4.21,5.15-6.27,7.8,2.97,1.39,5.88,3.74,8.92,3.91,3.86,.22,8.22-.53,11.68-2.26,15.64-7.8,30.88-16.43,46.59-24.11,13.16-6.43,26.39-13.19,40.29-17.55,16.08-5.05,27.46,6.81,23.63,23.61-1.95,8.55-6.03,16.61-8.16,25.14-1.5,6.02-1.36,12.45-1.95,18.7Zm776.66,1070.16c-28.27,0-53.83,.19-79.38-.11-8.09-.1-8,5-7.98,10.37,.08,20.1,.56,40.21,.35,60.3-.12,11.78,5.83,17.48,16.75,17.21,18.82-.47,37.61-1.88,56.41-3,8.76-.52,10.89-5.48,10.63-13.86-.43-13.99,.38-28.02,1.02-42.02,.45-9.85,1.48-19.68,2.19-28.88Zm-404.81-1.35c-1.32,3.16-2.28,4.31-2.14,5.31,2.72,19.68,2.48,38.97-3.16,58.42-2.86,9.85,1.94,19.4,13.24,20.45,21.01,1.95,42.16,2.42,63.27,3.14,9.28,.32,12.57-4.94,11.79-13.95-1.46-16.8-2.61-33.64-3.55-50.48-.43-7.72-.07-15.48-.07-24.91-28.73,6.63-54.01,17.91-79.37,2.03Zm974.32-382.99c24.24-10.83,48.2-21.54,70.41-31.46-9.45-16.86-18.59-33.14-27.69-49.45-2.93-5.26-6.07-10.44-8.51-15.92-3.38-7.58-8.86-8.69-15.79-5.97-11.92,4.67-23.81,9.41-35.62,14.33-8.18,3.41-8.24,9.68-5.81,17.06,7.59,23.11,14.95,46.3,23.02,71.42Zm-112.94,74.18c17.13-12.44,33.07-23.63,48.52-35.45,5.4-4.13,3.07-8.23-1.31-12.96-5.45-5.89-10.01-12.98-13.46-20.26-3.92-8.28-5.31-17.81-9.53-25.88-2.46-4.7-8.05-10.44-12.68-10.86-19.29-1.76-35.63,16.25-31.94,35.35,2.24,11.63,7.94,22.55,11.34,34.01,3.39,11.42,5.85,23.11,9.06,36.05Zm-571.75,578.32c22.08-2.64,44.19-5.07,66.23-7.99,16.1-2.14,27.54-11.37,32.8-26.43,1.67-4.77,.26-13.11-3.08-16.67-10.62-11.29-24.08-11.74-38.82-7.69-29.64,8.15-42.41,33.09-57.13,58.78Zm209.61-274.12c-1.06-.57-2.12-1.13-3.18-1.7-7.6,4.15-15,8.75-22.86,12.35-13.23,6.07-26.81,10.95-41.24,3.37-14.92-7.84-15.57-7.57-19.86,9.61-.97,3.87-1.57,7.84-2.25,11.78-1.54,8.92,1.24,14.22,11.28,13.04,19.02-2.24,38.06-4.39,57.03-7.02,3.29-.46,8.15-2.36,9.09-4.81,4.59-11.98,8.1-24.37,11.98-36.62ZM896.11,636.43c-1.08,.51-2.24,.69-2.37,1.16-8.96,32.34-17.63,64.79-17.93,98.66-.22,25.66,.22,25.88,24.19,18.21,4.21-1.35,10.78-5.58,10.64-8.17-.3-5.5-3.13-11.99-7.08-15.89-5.23-5.16-12.52-8.24-18.92-12.21,.34-.74,.68-1.48,1.01-2.22,6.69,.98,13.39,1.96,18.07,2.64-2.61-28.16-5.1-55.08-7.62-82.18Zm175.89,2316.36c-.13-1.15-.27-2.31-.4-3.46-6.52-1.12-13.14-1.87-19.54-3.47-5.65-1.41-11.24-3.38-16.55-5.78-16.69-7.55-31.21-17.74-40.95-33.93-1.13-1.88-6.08-3.15-8.2-2.24-1.91,.82-3.36,5.08-3.23,7.73,.17,3.45,1.74,6.99,3.34,10.18,11.06,22.17,28.53,38.3,49.06,51.41,2.16,1.38,6.18,2.92,7.58,1.92,9.89-7.1,19.32-14.84,28.89-22.37Zm130.1-2060.95c3.37-2.88,7.85-5.15,9.88-8.78,4.06-7.28,8.01-15.04,9.83-23.09,8.63-38.1,4.09-75.95-3.58-113.62-1.35-6.63-2.95-13.21-4.44-19.81-.6,55.16-1.35,109.86-11.69,165.31Zm-85.76,2098.11q.02-14.03-11.8-20.4c-2.1-1.14-4.19-2.41-6.01-3.94-12.69-10.7-14.52-10.54-24.29,3.11-3.03,4.23-7.03,8.49-7.97,13.25-.75,3.78,1.29,10.55,4.2,12.14,8.34,4.57,17.59,7.72,26.78,10.44,16.01,4.75,19.06,2.16,19.09-14.6Zm191.91,15.17c1.39,.85,2.78,1.69,4.17,2.54,22.63-6.75,43.96-16.18,60.38-34.11,2.54-2.78,1.71-8.65,2.44-13.1-3.91,.77-8.81,.31-11.55,2.53-11.6,9.4-23.86,12.09-38.21,7.56-2.49-.79-8.33,1.81-9.1,4.06-3.41,9.93-5.54,20.31-8.13,30.52Zm-243.06,210.92l-2.5,2.09c4.7,6.29,8.26,14.78,14.53,18.01,3.61,1.86,11.69-4.64,17.57-7.74,1.61-.85,2.49-3.06,3.74-4.61,5.19-6.45,8.3-14.44,2.35-20.68-5.92-6.22-14.18-10.92-22.29-13.73-1.62-.56-7.59,10.28-10.85,16.24-1.66,3.03-1.75,6.91-2.54,10.41Zm25.83-2539.85c-1.07,.49-2.13,.98-3.2,1.47,1.28,5.24,2.55,10.49,3.85,15.72,.66,2.63,2.32,5.4,1.91,7.84-1.97,11.78-3.94,23.62-6.97,35.15-2.59,9.87,.34,14.64,10.41,15.12,4,.19,8,.31,12,.5,6.84,.32,8.79-3.83,7.05-9.26-6.74-21.02-13.89-41.9-21.08-62.77-.53-1.53-2.62-2.52-3.98-3.77Zm-49.17,47.51c7.44-2.45,14.17-4.26,20.56-6.88,8.61-3.53,10.28-10.41,7.82-18.84-3.78-12.98-7.36-26.03-11.32-38.95-1.48-4.82-3.79-9.38-6.79-16.62-3.65,28.89-6.82,53.97-10.28,81.29Zm356.84,2237.04c24.28-7.95,41.18-25.68,59.57-41.17,2.29-1.93,1.85-7.11,2.68-10.78l-3.08-1.66c-3.04,2.23-6.02,4.56-9.14,6.68-10.45,7.11-20.19,16.01-31.65,20.7-12.79,5.24-15.93,14.82-18.39,26.23Zm-303.77,85.26c-20.32-11.37-40.97-23.01-61.76-34.38-1.68-.92-4.37,.03-6.6,.12,.55,3.27,.11,7.21,1.8,9.71,10.77,16.02,47.6,28.98,66.56,24.55ZM849.34,704.76c-.96-.19-1.92-.38-2.88-.57-2.21,15.2-4.49,30.39-6.61,45.6-1.24,8.92,4.04,10.84,11.56,10.77,8.71-.08,9.9-5.09,8.31-11.96-3.37-14.63-6.92-29.23-10.39-43.84Zm-38.82,825.61c-14.98,10.28-24.54,37.54-20.64,51.82,20.28-10.98,15.27-31.62,20.64-51.82Zm366.32-618.28c-1.13-.78-2.26-1.56-3.39-2.35-7.88,10.38-16.04,20.59-23.39,31.33-1.26,1.84,.11,6.56,1.75,8.9,.99,1.42,6.5,1.95,7.16,.98,8.09-11.99,16.47-23.99,17.88-38.87ZM419.57,1855.42c-2.23-.67-4.46-1.33-6.7-2-4.62,11.12-9.54,22.14-13.56,33.48-.62,1.74,2.44,5.44,4.63,7.2,.95,.76,5.52-.68,5.87-1.87,3.56-12.18,6.58-24.52,9.75-36.81Zm917.95,167.9c8.45,5.25,23.72,3.58,27.26-2.27,1.18-1.95,1.4-6.22,.13-7.51-1.71-1.73-5.97-3-7.96-2.03-6.37,3.08-12.19,7.29-19.42,11.81Zm-821.82-108.61c1.46-.46,2.91-.93,4.37-1.39-4.4-15.87-8.8-31.74-13.21-47.61l-5.08,1.45c4.64,15.85,9.28,31.7,13.92,47.55Zm195.6,387.63c1.35,.42,2.71,.85,4.06,1.27,9.82-9.12,13.29-21.26,6.03-32.96-3.94,12.37-7.01,22.03-10.09,31.69Zm561.32,736.39c-6.37,4.6-11.67,8.44-16.98,12.28,1.37,1.62,3.82,4.75,3.95,4.66,5.07-3.67,9.93-7.62,14.79-11.58,.11-.09-.22-.72-1.76-5.35Zm40.84-748.86c-2.23,.84-4.46,1.68-6.69,2.52,1.58,4.62,3.16,9.25,4.75,13.87,2.24-1.15,6.54-2.76,6.4-3.39-.98-4.45-2.87-8.69-4.46-13.01ZM902.11,761.86c10.45,4.25,18.42,7.49,27.29,11.1-2.88-10.15-9.64-12.95-27.29-11.1Z"/>
  <path d="M727.27,1322.77c7.9,8.71,13.99,15.24,19.6,22.15,.29,.36-3.29,5.64-5.32,5.82-10.79,.95-23.12-7.95-22.11-15.85,.4-3.1,3.63-5.84,7.82-12.12Z"/>
</svg>