<?xml version="1.0" encoding="UTF-8"?>
<svg id="Layer_1" data-name="Layer 1" xmlns="http://www.w3.org/2000/svg" viewBox="0 0 1980 1980">
  <path d="M740.08,1373.05c-.76,8.61-.54,17.07-2.4,25.05-5.19,22.22-9.65,44.81-17.29,66.23-14.88,41.7-23.47,84.61-27.32,128.39-5.38,61.11-15.1,121.4-29.43,180.99-.91,3.78-2.18,7.48-3.29,11.22-1.03-.12-2.06-.24-3.09-.36,1.15-8.65,2.08-17.34,3.5-25.95,7.76-47.23,15.89-94.39,23.32-141.67,2.24-14.28,3.02-28.82,3.7-43.28,.18-3.88-1.35-10.23-3.98-11.46-13.87-6.55-16.38-18.81-18.24-31.82-.55-3.82-1.47-7.59-2.88-14.72-11.76,15.29-18.3,29.52-22.12,44.88-.66,2.68,3.46,6.8,5.84,9.9,2.84,3.71,6.19,7.03,9.31,10.52l-2.33,3.41c-5.97-3.59-12.57-6.45-17.75-10.95-7.7-6.7-12.39-4.88-17.03,3.17-2.6,4.51-6.24,8.42-11.61,11.29,.08-1.48-.42-3.39,.32-4.36,11.09-14.61,3.6-24.28-7.34-35.02-38.69-37.98-32.63-87.68,12.71-117.69,16.28-10.77,32.35-22.57,46.02-36.38,12.88-13.01,12.15-18.11,.97-32.48-8.85-11.37-19.46-21.38-29.4-31.89-13.44-14.2-26.52-28.5-24.53-50.26,.12-1.33-1.09-2.79-3.27-7.93-5.53,9.83-9.68,17.21-13.97,24.83-3.75-14.48,9.82-35.11,26.4-39.95,.17,1.58,.95,3.36,.39,4.45-10.81,21.1-4.89,39.63,10.43,55.1,13.98,14.12,29.77,26.43,44.56,39.36-1.04-6.47-2.37-14.68-3.92-24.32,3.43,1.28,5.02,1.36,5.45,2.11,8.55,14.76,5.94,52.1-6.49,63.83-14.53,13.71-31.06,25.28-46.62,37.9-8.37,6.79-17.95,12.72-24.54,20.99-19.17,24.06-19.41,48.18-2.07,73.47,5.63,8.21,12.03,15.9,19.23,25.34,4.72-5.56,8.42-9.91,12.75-15,1.14,7.03,2.13,13.18,3.13,19.33,1.16,.22,2.33,.44,3.5,.65,9.92-23.24,17.7-47.9,41.12-65.04,3.76,21.62-3.34,44.46,15.55,63.69,.76-1.92,1.74-3.7,2.17-5.61,4.06-18.06,8.24-36.11,11.82-54.27,.6-3.05-.74-7.2-2.58-9.89-7.32-10.7-8.82-41.61-2-52.9,.37-.61,1.29-.9,5.14-3.45,.2,8.29,.41,14.68,.48,21.07,.08,6.91,.02,13.82,.02,20.73l4.89,1.9c.79-1.83,1.64-3.64,2.37-5.5,13.02-32.65,25.92-65.45,21.57-101.62-.92-7.63-4.54-15.45-8.66-22.1-31.64-51.18-34.73-104.87-8.12-157.68,14.18-28.14,18.72-54.05,11.04-84.21-9.58-37.62-9.55-75.73,2.2-113.29,.4-1.29-.25-2.91-.57-5.73-2.54,1.6-4.26,2.39-5.62,3.59-15.34,13.61-30.58,27.33-45.92,40.94-22.37,19.85-25.09,35.08-8.27,59.91,10.78,15.92,23.64,30.44,35.56,45.6,6.1,7.76,8.54,16,4.56,25.73-6.62,16.21-19.3,26.87-33.71,35.05-13.93,7.91-28.89,14.1-43.7,20.35-24.21,10.23-41.7,26.89-51.58,51.39-.69,1.72-1.78,3.28-3.25,5.93-1.2-15.62,8.76-34.46,27.01-47.62,10.62-7.66,23.2-12.64,34.98-18.65,12.52-6.39,25.61-11.8,37.62-19.02,23.13-13.9,28.4-36.03,14.01-58.66-8.19-12.88-18.16-24.61-26.83-37.2-18.25-26.49-16.38-42.6,7.04-64.33,16.8-15.59,33.62-31.15,50.53-46.62,8.73-7.99,8.32-15.12-.17-23.41-7.17-6.99-12.86-15.46-19.49-23.04-20.8-23.77-14.75-44.6,4.07-66.7,11.94-14.02,26.53-25.77,39.77-38.71,3.2-3.13,5.74-6.93,8.59-10.42-.5-1.13-1-2.27-1.49-3.4-10,.61-20.14,2.51-29.95,1.44-8.95-.98-20.09,.12-25.71-10.58,1.41-1.13,1.81-1.66,2.03-1.59,17.67,5.27,33.37,3.2,48.24-9.19,19.07-15.89,28.75-36.59,28.53-60.04-.12-12.29-8.72-24.63-14-36.72-7.47-17.12-3.7-32.08,14.92-46.73-1.73,7.42-1.84,12.44-3.98,16.35-11.08,20.29-2.11,37.45,8.21,54.13,9.66,15.6,20.21,30.65,30.48,45.87,.72,1.07,2.37,1.53,6.63,4.12-3.02-7.61-4.83-12.17-6.94-17.49,7.08,1.87,7.5,1.72,19.44,34.75,4.63,12.83,6.87,26.52,12.72,41.03,3.24-7.59,6.47-15.18,9.55-22.39,3.34,5.76,3.92,14.69-2.54,22.8-11.93,15-25.46,28.73-38.34,42.99-5.36,5.93-11.69,11.23-15.93,17.87-12.61,19.73-11.53,33.53,3.53,51.48,10.33,12.32,21.02,24.37,32.06,36.05,7.39,7.82,8.95,17.09,4.66,25.64-9.32,18.57-19.91,36.53-30.66,54.34-4.25,7.05-10.29,13.03-15.51,19.5-1.06-.44-2.12-.87-3.19-1.31,2.04-5,4.65-9.86,5.95-15.04,1.02-4.07,1.64-8.97,.31-12.75-3.97-11.2-9-22.03-13.61-33,1.28-.67,2.56-1.34,3.83-2.01,6.21,11.46,12.43,22.91,19.44,35.85,2.95-2.71,5.45-4.42,7.16-6.72,2.88-3.87,5.57-7.94,7.78-12.21,22.32-43.19,17.69-41.83-8.7-70-6.88-7.34-14.01-14.46-20.67-22-5.99-6.78-11.29-7.43-18.28-.95-25.74,23.9-38.6,53.42-42.05,88.18-2.75,27.73,2.01,54.51,6.3,81.52,1.87,11.75,3.37,23.55,7.99,36.71,7.6-9.8,14.88-19.87,22.9-29.32,8.27-9.76,17.25-18.92,27.13-29.65,12.23,22.75,35.29,20.92,54.43,27.96l2.19-2.73c-2.55-3.05-4.98-6.22-7.69-9.13-3.56-3.82-7.72-7.13-10.96-11.19-10.97-13.68-10.38-20.84,2.1-33.33,10.49-10.5,22.42-19.94,31.09-31.78,21.24-28.99,23.3-53.65-3.46-80.72-7.19-7.27-12.42-16.47-20.34-27.2,17.53-.85,23.36-8.57,14.39-24.06,14.51,0,26.36,1.03,37.97-.23,20.78-2.25,25.79-6.85,29.05-27.19,2.73-17.04,4.38-34.33,5.25-51.57,.89-17.67-5.75-25.34-26.28-32.09,6.12,27.35,13.13,54.32-4.68,79.19-4.75,6.63-9.64,13.15-14.46,19.73-1.38-.76-2.77-1.52-4.15-2.28,2-4.1,3.3-8.77,6.11-12.21,16.69-20.46,20.98-43.49,12.87-68.11-8.79-26.71-18.4-53.23-29.38-79.1-2.53-5.95-12.11-8.9-20.43-14.57,.69,5.89,1.02,8.76,1.44,12.41-2.35,0-4.4,.64-5.27-.09-18.34-15.59-37.71-30.27-39.33-57.59-2.17-36.74,12.73-68.28,28.98-99.52,.34-.66,1.08-1.24,1.77-1.55,.67-.3,1.51-.2,4.32-.49-1.68,4.64-3.04,8.46-4.44,12.26-7.77,21.08-16.44,41.89-22.91,63.36-2.66,8.84-1.01,19.11-.62,28.7,.52,12.71,5.38,21.59,19.22,25.65,10.54,3.09,19.74,10.52,29.96,15.03,6.45,2.84,9.8-.04,8.69-7.64-2.95-20.17-6.29-40.33-8.15-60.62-2.3-25.12-7.77-50.42,.54-75.49,2.99-9.03,6.38-17.94,9.57-26.83-19.19-7.61-30.98-3.06-43.91,9.63-10.34,10.16-24.33,16.62-36.76,24.63-2.57,1.65-5.4,2.88-9.3,4.92,12.79,9.01,21.69-1.11,34.78-5.42-4.09,9.09-5.86,16.21-9.95,21.56-16.33,21.4-33.27,42.34-50.2,63.27-9.86,12.2-17.07,34.93-14.97,50.18,2.89-.66,5.7-1.3,7.45-1.69v50.96c-1.13,.27-2.27,.53-3.4,.8-3.16-12.88-7.71-25.6-9.2-38.67-3.57-31.25,3.76-58.7,29.08-80.33,11.17-9.54,19.81-22.13,29.03-33.78,3.21-4.05,4.71-9.46,8.51-17.46-25.29,3.81-45.51-1.66-65.47-8.35l.19-3.37c1.67-.54,3.4-1.68,5.01-1.54,29.67,2.65,54.01-9.88,76.54-27.09,9.66-7.38,9.54-11.93-.49-18.38-54.69-35.17-81.5-87.59-91.21-149.76-2.17-13.87-.25-29.16,3.18-42.96,6.37-25.63,13.77-51.22,23.66-75.65,5.08-12.53,15.96-22.94,25.12-33.53,8.93-10.32,20.51-12.22,32.88-6.26,6.14,2.95,12.39,6.01,17.79,10.08,15.92,11.98,17.92,21.56,6.9,38.11-15.67,23.52-26.41,48.86-30.48,76.78-5.08,34.83,3,65.96,28.65,93.65,1.57-3.84,3.15-6.43,3.69-9.23,4.26-21.89,16.41-38.86,34.95-50.06,90.72-54.82,196.59-50.2,279.95,15.98,9.6,7.62,15.46,20.1,22.52,30.67,2.8,4.19,4.16,9.34,7.49,17.13,13.1-16.13,24.46-29.91,27.47-48.78,6.29-39.46-3.42-74.01-30.94-103.5-20.08-21.52-19.55-29.64,1.69-49.85,20.52-19.52,30.61-19.55,51.74-1.22,43.63,37.84,58.05,87.65,53.78,142.45-4.91,63.09-33.18,114.28-89.05,147.64-9.39,5.61-11.81,11.7-5.55,21.65,14.99,23.82,29.27,48.08,43.81,72.18,1.83,3.03,3.48,6.18,3.05,10.86-9.73-13.17-19.79-26.11-29.08-39.59-6.15-8.93-12.49-18.11-16.43-28.09-5.76-14.57-16.18-24.21-29.85-28.86-33.47-11.38-58.28-35.04-84.89-56.42-45.44-36.52-89.32-37.33-135.5-2.04-22.69,17.34-46.6,31.45-74.74,37.77-4.18,.94-7.91,3.88-11.85,5.9,.28,1.05,.56,2.11,.84,3.16,4.14,0,8.32,.36,12.42-.06,28.15-2.84,50.31-17.4,71.01-35.5,8.1-7.08,17.6-12.8,27.11-17.96,32.03-17.39,63.69-13.69,92.79,9.48,18.23,14.52,36.53,29.04,55.73,42.21,9.74,6.68,21.53,10.34,32.37,15.42,3.73,1.75,7.38,3.66,11.06,5.5l-1.07,2.96c-6.68-1.37-13.35-2.74-21.83-4.47,18.01,58.31,15,115.77,6.97,174.82,20.48-8.43,32.34-23.76,36.09-43.1,3.39-17.52,1.88-35.98,2.65-57.55,10.28,23.3,19.22,43.59,29.8,67.57,1.5-6.72,2.83-10.14,2.95-13.6,.67-19.27-2.61-37.56-12.96-54.35-5.92-9.61-10.89-19.8-16.28-29.73l2.88-1.58c9.12,13.14,17.64,26.77,27.6,39.23,6.15,7.7,14.36,13.81,21.94,20.29,7.63,6.53,16.33,11.94,23.34,19.04,24.77,25.09,22.7,53.51-3.37,80.85-6.94,7.28-11.77,18.05-13.97,28.02-3.18,14.4,3.04,27.15,15.28,35.67,12.87,8.96,26.23,17.25,39.66,25.36,26.78,16.17,37.26,41.19,38.51,70.94,.22,5.22-2.42,10.88-4.78,15.84-7.27,15.25-14.47,30.58-22.77,45.27-11.16,19.74-5.98,36.48,8.46,51.3,15.16,15.55,31.39,30.04,46.81,45.33,22.69,22.49,30.57,50.82,24.29,80.91-2.78,13.31-15.07,24.84-23.81,36.61-4.99,6.72-11.96,11.94-17.25,18.48-8.82,10.89-8.83,21.24,1.18,31.14,6.74,6.67,15.28,11.63,23.36,16.81,20.78,13.33,37.82,28.84,37.95,56.23,.08,16.13-4.32,29.79-16.51,41.12-13.49,12.53-26.84,25.38-38.88,39.27-9.13,10.53-7.47,19.98,3.55,29.19,8.62,7.21,18.13,13.38,27.33,19.88,30.32,21.43,41.65,54.24,28.07,96.52-1.66,5.16-.96,11.03-1.83,16.5-1.18,7.41-2.83,14.74-4.27,22.11-1.78-.31-3.56-.61-5.34-.92,.32-2.77,.4-5.59,1-8.3,1.18-5.32,4.21-10.8,3.5-15.78-.58-4.06-5.49-7.51-8.48-11.23-2.73,3.31-5.81,6.4-8.1,9.99-2.98,4.67-5.33,9.73-10.35,13.87,3.31-15.01,6.57-29.05-4.31-41.72-8.39-9.77-16.79-19.52-26.7-28.45-3.59,23.71-12.4,44.22-28.73,58.7-13.65,12.11-15.39,24.15-12.68,40.21,7.42,44.02,13.99,88.19,20.86,132.3,.22,1.43,.03,2.92-2.71,5.2-1.47-3.65-3.75-7.18-4.29-10.96-7.93-55.35-16.44-110.65-23.15-166.15-6.05-50.02-10.94-100.09-29.94-147.45-3.86-9.61-6.39-19.76-9.8-30.51-2.63,1.27-4.81,1.99-6.61,3.26-14.66,10.31-29.47,20.41-43.7,31.29-3.92,3-6.48,8.17-8.79,12.78-1.55,3.1-.56,7.68-2.45,10.37-7.78,11.07-2.33,17.69,6.73,23.78q18.65,12.52,10.14,33.9c-.57,1.44-.76,3.02-1.21,4.84,30.55,16.16,35.1,48.32,44.73,75.9,15.46,44.29,33.49,88.16,38.71,135.51,.33,3.01,1.62,7.02,3.85,8.53,20.87,14.12,9.1,34.07,9.09,51.57,0,10.06-4.02,20.05-4.81,30.18-.81,10.38,.06,20.89,.34,31.34,.05,1.87,.32,4.94,1.38,5.41,15.59,6.87,3.84,15.65,1.69,23.53-4.32,15.88-9,31.65-13.54,47.47,1.98,.73,3.95,1.46,5.93,2.18,16.3-22.32,26.45-47.88,34.36-74.62,1.05,.28,2.1,.57,3.15,.85-1.18,6.77-1.1,14.08-3.76,20.2-8.04,18.43-17.15,36.4-25.85,54.54-.17,.36-.31,.85-.61,1.03-22.12,12.76-16.43,34.93-19.34,54.7-7.14,48.58-15.01,97.08-23.77,145.39-10.19,56.25-22.3,112.16-32.23,168.46-4.66,26.44,4.69,51.68,11.93,76.83,11,38.24,26.65,75.98,31.24,115,4.83,41.08,.23,83.49-2.54,125.17-2.93,44.09-8.89,87.97-12.72,132.01-.66,7.61,2.75,15.57,4.22,23.38,3.84,20.52,7.42,41.09,11.54,61.55,3.09,15.34,7.72,30.41,10.09,45.84,2,13.02,4.28,26.87,1.95,39.52-5.5,29.79-4.83,59.21-.46,88.81,8.59,58.16-35.62,81.92-78.51,81.79-14.95-.04-30.4-3.56-44.68-8.31-14.69-4.89-24.48-16.1-25.3-33.53,9.89,21.16,26.88,30.49,49.18,33.2,21.25,2.58,42.01,2.12,61.57-6.6,20.56-9.17,34.35-32.89,31.95-50.82-8.13,8.77-15.28,19.81-25.3,26.67-27.41,18.77-57.48,25.94-88.68,9.62-10.75-5.62-19.82-14.73-28.88-23.09-2.36-2.17-2.08-7.49-2.52-11.41-2.68-24.38,5.87-46.78,12.22-69.63,4.08-14.68,6.82-29.74,10.42-44.56,1.6-6.58,4-12.97,5.77-19.51,1.02-3.78,2.33-7.75,2.11-11.55-1.21-21.28-2.89-42.54-4.28-63.81-.21-3.19-.4-6.62,.49-9.61,13.75-46-1.78-89.19-14.4-131.96-10.8-36.6-26.43-71.75-39.24-107.79-14.08-39.61-23.26-80.19-25.81-122.47-1.91-31.61-8.05-62.39-21.64-92.01-16.89-36.82-19.41-76.84-17.4-117.05,.22-4.39,.17-8.88-.49-13.21-6.85-44.94-13.5-89.93-20.92-134.78-7.09-42.81-6.21-85.7-3.53-128.74,.51-8.25-1.93-16.65-2.61-25.02-2.21-26.76-4.4-53.53-6.19-80.32-.41-6.15,1.27-12.45-8.27-12.47-8.93-.03-10.68,5.46-10.87,12.61-1.37,53.9-2.19,107.82-4.26,161.69-2.5,64.75-5.14,129.47-16.51,193.56-3.96,22.3-5.32,45.36-5.05,68.04,.43,35.93-5.82,70.45-15.77,104.66-2.22,7.63-4.32,15.91-3.67,23.66,6.29,75.73-2.82,150.15-15.52,224.67-11.59,68.06-13.59,136.93-6.7,205.81,.87,8.67,3.9,17.13,5.92,25.69,1.01,4.28,3.11,8.64,2.85,12.84-3.01,48.68,7.98,95,22.93,140.71,.74,2.25,.95,4.73,1.08,7.12,.06,1.09-.69,2.23-1.4,4.29-6.94-5.42-12.95-11.62-20.21-15.53-26.73-14.38-55.69-11.2-83.88-7.31-12.03,1.66-24.28,8.17-34.46,15.3-13.6,9.53-9.97,25.28-8.43,39.05,1.27,11.31,10.5,15.18,20.44,17.63,28.24,6.97,56.74,7.33,85.07,1.9,11.61-2.22,22.59-7.76,37.37-13.04-6.51,5.23-10.14,9.97-14.84,11.62-40.81,14.3-81.45,17.3-121.77-2.53-10.28-5.05-14.87-12.53-13.25-23.11,5.6-36.53,10.75-73.2,18.45-109.31,1.97-9.25,11.99-17.34,19.53-24.71,9.93-9.69,24.26-16.98,17.08-34.33-2.97-7.16-8.16-13.68-13.46-19.47-2.15-2.35-8.02-3.65-10.81-2.37-2.6,1.19-4.6,6.38-4.68,9.87-.21,8.81,.93,17.65,1.28,26.49,.23,5.8,.04,11.62,.04,17.43-1.05,.36-2.1,.72-3.15,1.08-1.54-3.12-3.88-6.1-4.48-9.4-1.89-10.29-3.44-20.67-4.46-31.07-.33-3.34,.24-8.17,2.39-10.11,8.1-7.29,8.32-15.88,6.29-25.37-.33-1.55-.45-3.25-.23-4.81,7.95-55.16-13.22-105.55-26.12-157.2-9.07-36.31-20.34-72.06-29.63-108.31-8.99-35.07-6.12-70.46,.99-105.45,4.32-21.26,9.28-42.51,15.77-63.19,6.21-19.81,9.01-39.04,8.01-60.2-2.05-43.39-9.47-85.59-20.6-127.25-12.47-46.67-26.41-92.95-38.82-139.64-5.05-19-7.03-38.79-11.78-57.89-2.12-8.52-6.71-16.83-11.77-24.14-13.51-19.5-28.39-38.06-41.61-57.74-4.52-6.73-7.18-15.54-8.1-23.7-2.2-19.59-2.93-39.34-4.06-59.04-.18-3.04,.65-6.14,3.35-9.31,3.07,25.66,1.72,52.96,10.43,76.54,8.85,23.94,27.63,44.22,43.19,67.82,7.04-19.26,.78-30.53-11.96-41.43-16.2-13.86-24.35-33.66-27.36-54.91-1-7.02-.16-14.31,2.72-22.01,4.45,25.4,8.15,50.45,30.48,68.47,0-3.65,.32-7.34-.05-10.96-3.68-36-7.24-72.01-11.43-107.95-.79-6.79-4.34-13.23-6.37-19.91-1.36-4.49-3.96-9.44-3.12-13.6,3.25-16.05,7.26-31.98,11.73-47.74,5.04-17.78,10.62-35.43,16.46-52.96,3.29-9.89,7.8-19.37,11.37-29.18,6.84-18.84,14.08-37.57,19.87-56.73,5.68-18.8,12.93-35.98,27.75-49.9,11.31-10.62,20.68-22.91,9.06-40.06-4.25-6.28-.16-11.94,6.67-15.5,25.91-13.51,27.23-16.98,17.32-44.36-1.02-2.81-3.09-6-5.58-7.38-19.26-10.66-38.74-20.91-60.24-32.41Zm592.76-175.37c12.65-11.96,25.15-23.08,36.81-35.02,10.89-11.16,15.19-24.96,14.91-40.76-.54-30.5-17-51.73-38.39-70.87-13.46-12.04-26.48-24.68-38.69-37.98-13.01-14.17-17.52-29.84-6.47-48.26,9.29-15.49,17.06-31.95,24.71-48.35,2.96-6.35,6.06-14.07,5.07-20.56-3.77-24.64-13.82-46.22-36.25-59.84-7.22-4.39-14.49-8.78-22.08-12.45-29.13-14.07-38.59-39.05-39.16-69.21-.17-8.96,2.81-14.58,11.99-18.34,24.16-9.89,32.42-38.74,17.13-59.69-11.76-16.11-26.51-29.19-44.37-38.13,0,17.33,3.16,33.98-.7,48.81-6.82,26.21-18.08,51.25-27.15,76.9-7.18,20.31-11.09,40.39,6.22,58.34,4.43,4.6,7.69,10.32,11.63,15.41,16.47,21.3,29.6,43.22,18.05,71.79-3.55,8.79,.63,14.55,9.49,18.93,25.87,12.79,40.02,34.87,46.69,62.4,9.14,37.69,4.05,75.23-.85,112.79-5.06,38.86-9.03,77.65,8.44,114.86,.68,1.44,1.1,3.05,1.34,4.63,6.4,42.03,2.36,82.57-19.13,119.98-4.75,8.27-7.55,15.67-4.74,24.9,1.99,6.53,3.03,13.38,5.34,19.78,14.46,39.93,24.72,80.74,27.39,123.31,.56,8.89,2.72,17.67,4.51,28.83,26.6-19.2,32.86-44.65,32.31-76.66,6.89,5.69,10.61,8.82,14.39,11.87,12.37,9.97,19.59,27.18,39,27.47,1.95,.03,3.8,3.71,5.78,5.61,2.67,2.56,5.42,5.04,8.14,7.56,2.1-3.25,5.02-6.24,6.11-9.8,1.49-4.91,2.53-10.31,2.14-15.37-1.91-24.26-12.67-43.75-32.86-57.69-10.93-7.54-22.55-14.22-32.74-22.64-8.77-7.24-17.91-15.45-15.4-28.02,5.27-.54,11.27,.69,13.75-1.71,16.41-15.88,32.79-31.9,47.74-49.13,14.61-16.84,14.87-43.58,.41-60.3-7.96-9.21-18.24-17.42-29.07-22.94-20.07-10.23-32.28-26.15-39.53-46.5-1.58-4.43-.23-9.91-.23-14.9,.91-.03,1.83-.05,2.74-.08,1.88,3.72,3.76,7.45,5.57,11.04Zm-297.87-636.36c1.02,.06,2.04,.12,3.06,.18-.93,6.51-1.43,13.12-2.87,19.52-6.9,30.61-14.05,61.16-21.58,93.72-13.16-10.42-27.18-21.53-41.18-32.67-.27-.22-.31-.73-.47-1.1-6.47-14.96-12.67-30.05-19.6-44.8-1.64-3.48-5.76-5.8-8.73-8.65-3,3.28-7.91,6.18-8.65,9.9-2.05,10.34-2.8,20.76,9.79,26.66,4.82,2.26,8.52,7.26,12.19,11.48,1.91,2.2,4.43,6.84,3.59,7.87-1.92,2.35-5.64,4.12-8.78,4.42-14.41,1.37-28.92,1.68-43.3,3.28-11.26,1.25-23.89,.78-29.04,17.45-3.9-7.39-6.68-12.65-9.46-17.92-1.8,1.6-3.6,3.19-5.4,4.79-.1,24.02,1.32,47.48,26.62,62.19-.86,.81-1.72,1.63-2.59,2.44-5.33-.95-10.66-1.9-16.99-3.03,4.58,24.41,13.14,44.91,32.47,59.86,26.68,20.63,57.58,31.8,89.61,40.33,5.14,1.37,11.3,.85,16.53-.54,11.65-3.09,23.04-7.15,34.46-11.03,30.39-10.34,57.41-25.48,74.54-54.03,3.8-6.34,8.94-12.83,3.1-21.1-.98-1.39,.5-4.96,1.5-7.24,5.19-11.92,13.2-23.27,15.45-35.69,8.36-46.2-9.86-86.21-34.35-123.35-4.82-7.31-17.7-9.61-27.23-13.27-1.76-.68-7.19,2.81-7.64,5.04-1.98,9.75-2.74,19.74-4.18,31.54-1.73,1.18-8.4,3.26-10.35,7.51-6.45,14.04-11.24,28.85-16.55,43.41-1.16,3.18-1.8,6.55-2.68,9.83-1.29-.11-2.58-.23-3.87-.34-.41-4.06-2.14-8.56-.99-12.11,4.08-12.56,8.92-24.89,13.9-37.13,5.4-13.3,11.5-26.31,16.85-39.63,3.68-9.17-1.23-12.61-9.81-12.9-4.74-.16-9.47-.42-14.2-.64,1.13-2.49,2.17-3.1,3.18-3.05q24.58,1.28,26.42-22.5c.19-2.41,.4-4.82,.82-7.2,1.86-10.74-3.65-16.95-13.01-20.12-4.89-1.65-10.41-3.2-15.32-2.49-4.08,.59-10.6,4.11-11.03,7.06-2.97,20.34-17.96,33.84-27.67,50.16-6.3,10.58-16.98,17.71-29.95,20.21,1.98-5.3,4.71-9.74,8.56-12.72,18.83-14.56,27.29-34.14,28.72-57.29,.16-2.58-.49-7.47-1.03-7.51-9.87-.68-19.9-1.72-29.6-.44-2.82,.37-5.08,7.56-6.95,11.9-1.89,4.38-2.96,9.11-4.4,13.69-4.74,15.06-13.76,29.22-8.78,46.24-11.09-1.36-15.11,3.54-14.61,17.34,3.75-.42,7.45-.83,11.09-1.24q8.2,44.47,18.66,47.07c1.47-7.31,2.93-14.62,4.4-21.93,8.55,15.76,13.92,30.73,19.96,45.42,1.48,3.61,5.15,6.32,7.81,9.44,2.05-3.89,4.85-7.56,6.03-11.7,8.04-28.15,15.75-56.39,23.56-84.61Zm-11.72,491.97c1.16,.71,2.32,1.42,3.49,2.13-5.79,10.87-12.93,21.25-17.02,32.72-4.89,13.71-7.71,28.25-10.4,42.62-1.76,9.36,4.47,11.62,12.66,10.99,35.77-2.77,65.33-18.23,86.5-46.68,16.03-21.54,22.19-46,9.1-72.38-8.64-17.42-11.75-35.72-5.78-55.07,1.43-4.63,1.01-10.43-.31-15.21-3.86-13.95-8.13-27.84-13.22-41.39-2.47-6.59-5.82-13.93-11.02-18.23-20.83-17.24-27.11-40.02-27.85-65.5-.13-4.53-.96-9.04-1.59-14.7-6.27,1.99-10.83,3.35-15.33,4.88-16.78,5.69-33.13,11.73-51.55,4.95-15.78-5.81-17.86-4.11-17.02,12.57,1.22,24.37-6.81,43.07-28.38,55.81-4.78,2.82-9.2,8.42-11.03,13.69-11.57,33.39-23.19,66.82-33.04,100.74-4.18,14.4-5.97,30.09-5.56,45.1,.61,22.14,6.77,43.2,25.28,57.89,20.43,16.21,42.35,29.16,69.51,30.7,12.65,.72,13.14,.18,13.09-12.85-.09-25.72-13.47-46.82-22.6-69.44-2.14-5.32-3.85-10.81-5.76-16.22,1.19-.48,2.38-.96,3.57-1.44,8.61,18.24,17.23,36.48,26.98,57.13,10.64-16.69,18.96-29.75,27.28-42.81Zm-162.59,892.81c34.6-3.03,70.03-4.34,103.22-19.15,10.17-4.54,14.81-11.53,15.82-22.03,1.49-15.62,4.6-31.24,4.36-46.82-.22-14.26-3.87-28.48-6.27-42.68-.29-1.73-1.87-3.82-3.43-4.65-10.9-5.78-21.4-13.82-33.07-16.4-44.74-9.86-89.75-18.6-134.9-26.45-30.08-5.23-60.42-9.52-91.1-2.44-9.68,2.23-13.92,6.41-12.88,16.39,3.92,37.56,7.56,75.15,11.42,112.71,1.69,16.51,10.94,26.65,26.28,32.82,38.6,15.51,79.3,16.25,120.55,18.69Zm275.58-13.28c50.43-2.01,93.13-1.66,133.73-18.42,9.45-3.9,15.45-8.55,16.27-18.26,3.46-40.82,6.56-81.68,9.74-122.53,.58-7.46-3.46-10.04-10.39-9.51-11.21,.86-22.45,1.44-33.65,2.42-37.26,3.25-74.86,4.48-111.65,10.56-35.12,5.81-69.46,16.47-104,25.56-12.23,3.22-17.07,12.97-19.59,25-5.21,24.87,1.48,48.78,4.17,73.05,1.06,9.59,5.94,15.71,14.62,18.76,6.8,2.39,13.79,4.9,20.87,5.67,29.17,3.16,58.4,5.66,79.88,7.69ZM833.49,521.92c5.56-2.82,8.94-4.52,12.3-6.24,6.78-3.47,13.19-8.5,20.38-10.15,27.8-6.38,50.84-20.93,73.3-37.83,24.4-18.36,51.8-29.08,83.45-23.43,22.56,4.02,41.36,15.38,58.34,29.93,26.01,22.29,51.77,44.81,85.68,54.58,3.3,.95,6.85,1.06,10.28,1.57,.48-3.33,1.57-6.7,1.33-9.98-1.54-21.63-4.22-43.22-4.88-64.87-.69-22.76-8.4-42.65-25.68-56.39-50.96-40.52-108.35-63.11-174.62-53.16-41.34,6.21-81.13,18.34-113.24,46.86-7.89,7.01-14.85,17.76-17.05,27.91-4.29,19.84-5.1,40.45-6.99,60.78-1.17,12.6-1.66,25.27-2.61,40.42Zm355.02,127.46c-2.02,4.11-2.66,4.81-2.67,5.53-.58,30.23-15.08,51.64-40.96,66.45-4.55,2.6-9.69,7.68-10.66,12.42-3.33,16.32-8.75,33.6-6.27,49.4,3.36,21.47,13.28,41.91,20.36,62.8,6.09,17.97,12.7,35.91,2.93,54.78-.64,1.24-.78,3.42-.11,4.55,5.89,9.98-1.41,15.77-7.11,21.6-4.47,4.57-10.14,7.95-14.93,12.23-33.66,30.08-32.37,73.88,2.81,102.07,7.22,5.78,14.4,11.67,21.08,18.05,11.82,11.28,11.57,21.5-.14,33.21-3.7,3.7-7.8,7.13-10.81,11.33-2.47,3.45-3.6,7.87-5.33,11.85,13.94-4.47,25.3-10.88,36.75-17.11,22.58-12.28,25.74-33.33,7.59-51.96-6.74-6.92-14.01-13.32-20.62-20.35-11.36-12.1-11.94-37.82-.97-48.65,14.6-14.41,29.08-29.01,44.55-42.46,11.97-10.41,16.48-23.24,17.45-38.24,1.23-18.98-4.41-35.76-15.8-50.75-8.77-11.54-17.45-23.16-26.53-34.46-14.69-18.29-8.06-38.17-4.05-58.37,1.79,2.71,3.59,5.43,7.07,10.7,7.74-15.87,14.45-29.61,21.73-44.52-3.93-.85-5.37-1.17-6.81-1.48-1.68-.36-3.36-.71-7.39-1.57,23.38-23.21,10.43-43.62-1.16-67.06Zm112.26,1086c.25,0,.51-.01,.76-.02-.37-5.61-.22-11.31-1.23-16.8-2.14-11.64-7.94-14.68-19.58-11.79-5.01,1.24-10.31,1.6-15.5,1.79-61.91,2.28-123.71,6.24-184.6,18.14-22.38,4.37-44.2,11.94-65.87,19.26-5.01,1.69-10.92,7.85-11.89,12.83-1.88,9.68-1.12,20.03-.38,30.02,.75,9.94,8.97,14.96,17.91,11.39,86.38-34.52,177.5-39.42,268.81-42.78,7.75-.29,11.35-2.46,11.54-9.98,.11-4.02,.02-8.04,.02-12.05Zm-99.63-685.11c7.71-16.11,13.84-28.92,19.97-41.73,1.71,.81,3.42,1.62,5.13,2.43-4.43,10.42-9.25,20.69-13.19,31.28-4.82,12.98-8.87,27.26-.89,39.52,17.75,27.25,37.14,53.44,55.92,80.01,.29,.41,1.46,.2,2.09,.27,3.31-33.49,7.22-66.9,9.69-100.41,1.35-18.36,2.06-37.1-.1-55.3-3.9-32.91-18.87-59.37-50.84-73.61-7.31-3.26-12.86-1.98-18.47,3.47-9.52,9.24-19.46,18.04-29.23,27.02-5.95,5.47-7.56,11.56-4.6,19.53,6.58,17.71,12.43,35.7,18.67,53.54,1.28,3.65,2.97,7.15,5.84,13.98Zm-447.07,655.41c-6.84,0-13.69,.1-20.53-.02-31.91-.52-36.1,3.38-38.1,35.67-.07,1.21-.12,2.41-.14,3.62-.3,13.25,1.38,14.44,14.5,13.51,18.42-1.3,36.99-3.66,55.32-2.59,58.86,3.42,116.25,16.3,173.57,29.38,34.24,7.82,35.11,6.79,34.7-29.19-.1-8.62-3.18-13.33-11.59-15.59-68.12-18.28-136.42-35.36-207.73-34.79Zm-21.18-772.95c1.28-.18,2.55-.36,3.83-.54,1.44,7.78,2.88,15.55,4.84,26.14,4.54-4.43,7.35-6.9,9.84-9.67,5.36-5.97,9.47-13.98,16.05-17.7,9.8-5.55,10.27-13.5,12.36-22.75,2.27-10.06,7.49-19.84,13.17-28.61,3.53-5.44,10.55-8.51,15.56-13.11,9.75-8.95,21.19-17.72,20.99-32.27-.16-11.9-3.26-23.83-5.71-35.61-.87-4.18-3.69-7.95-6.42-13.55-8.12,12.81-9.07,28.65-27.78,31.95,7.61-14.4,16.58-25.61,11.87-41.78-4.11-14.13-8.05-27.36-20.98-37.29-3.75,14.06-5.04,28.16-11.24,39.61-6.24,11.53-17.35,20.42-26.32,30.47,1.28,1.39,2.56,2.78,3.84,4.17,8.37-6.45,16.75-12.9,25.12-19.35,.9,.89,1.79,1.79,2.69,2.68-10.93,15.17-20.92,31.14-33.06,45.27-10.93,12.73-25.35,22.5-36.05,35.39-6.51,7.84-13.32,19.61-12.27,28.73,2.6,22.69,18.77,38.53,36.98,56.26,1.1-11.64,1.9-20.04,2.7-28.45Zm461.7,2023.93c-.23,.65-.47,1.3-.7,1.94-13.19,1.2-26.66,1.2-39.44,4.17-5.63,1.31-12.49,7.84-14.2,13.41-3.96,12.85,1.08,25.21,10.79,33.86,33.58,29.92,92.6,20.66,116.44-17.66,8.32-13.36,7.26-18.31-8.37-22.38-21.23-5.53-42.99-9-64.52-13.35Zm50.75-2580.02c-4.42,0-8.84-.13-13.25,.02-17.85,.63-19.64,2.29-22.02,19.86-.38,2.79-.54,5.66-1.34,8.33-2.23,7.44,.65,12.23,7,16.02,11.74,7.01,23.35,14.22,34.85,21.61,7.52,4.83,12.13,2.65,14.34-5.42,2.86-10.45,5.98-20.9,7.89-31.55,5.75-32.2,5.5-32.29-27.48-28.88Zm-127.98,393.13c-16.16,10.93-17.89,15.24-18.9,29.11-2.58,35.45,13.62,65.31,27.57,95.87,.79,1.73,3.6,3.07,5.71,3.59,11.17,2.74,14.7-.99,15.52-14.19,2.55-41.14-28.49-72.64-29.9-114.39Zm-29.52,25.95c-28.38,8.85-31.98,13.66-29.8,39.62,.6,7.16,2.23,14.3,3.98,21.3,6.94,27.73,29.07,38.31,59.94,39.53-23.04-29.63-30.24-64.02-34.13-100.44Zm158.84-428.59c0-.08,0-.15,0-.23,6.02,0,12.06-.36,18.05,.08,11.22,.83,14.18-4.87,12.53-14.75-1.91-11.47-3.86-22.93-5.64-34.43-1.55-10.02-7.33-12.58-16.38-9.61-11.43,3.75-23.18,6.82-34.09,11.74-4.01,1.81-8.34,7.93-8.58,12.31-1.79,31.79,1.42,34.84,32.9,34.89,.4,0,.8,0,1.2,0Zm-65.63,82.32c.82,4.27,.63,6.23,1.5,7.36,10.68,13.8,21.35,27.62,32.61,40.94,.95,1.12,7.34-.23,9.1-2.26,9.15-10.6,17.8-21.67,26.26-32.84,4-5.29,2.07-9.51-3.52-12.82-10.68-6.33-20.88-13.55-31.85-19.31-4.82-2.53-13.44-5.23-16.16-2.93-7.51,6.36-12.83,15.32-17.93,21.86Zm-418.79-92.58q32.64,.1,35.9-26.51c.24-1.99,.76-4.18,.18-5.97-.81-2.5-1.98-5.99-3.96-6.85-14.34-6.2-28.74-12.39-43.57-17.2-2.95-.95-10.33,3.27-11.37,6.5-3.68,11.42-5.71,23.4-7.97,35.24-2.1,10.98,2.72,15.8,13.91,14.86,5.59-.47,11.26-.08,16.89-.07Zm63.88,82.53c-7.78-10.54-14.82-20.08-22.06-29.89-16.43,7.74-32.51,14.95-48.13,23.03-2.51,1.3-5.21,7.74-4.1,9.65,7.62,13.11,15.92,25.87,24.84,38.13,1.3,1.78,8.65,1.93,10.49,.11,13.33-13.23,25.96-27.16,38.96-41.03Zm-96.15-67.2c4.39,17.04,7.95,31.47,11.86,45.79,1.79,6.55,6.47,7.65,12.29,5.08,7.73-3.4,15.34-7.05,23.15-10.26,26.67-10.96,26.94-10.99,17.74-37.95-1.26-3.68-6.22-8.33-9.77-8.6-15.2-1.17-30.53-1.28-45.78-.76-3.29,.11-6.44,4.44-9.49,6.7Zm498.06-122.54c-12.55,9.27-26.27,19.39-39.98,29.52,4.25,9.38,8.03,19.03,12.99,28.02,1.81,3.29,6.4,5.07,9.83,7.39,.39,.27,1.46-.48,2.22-.74,14.47-4.88,29.02-9.52,43.31-14.85,2.45-.91,5.96-5.97,5.33-7.1-7.15-12.91-14.83-25.53-22.86-37.92-1.2-1.85-4.92-2.07-10.84-4.32Zm-334.13,319.48c-7.08,3.14-10.74,4.77-14.4,6.39,13.27-19.94,38.97-30.97,38.8-61.44-14.4,6.26-27.53,11.86-40.52,17.76-1.57,.71-2.61,2.96-3.54,4.68-16.73,31.07-15.19,64.19-10.48,97.54,.35,2.46,3.52,4.52,5.38,6.76,1.9-2.28,4.79-4.28,5.54-6.89,2.87-10.03,4.67-20.36,7.6-30.37,3.1-10.6,7.02-20.95,11.62-34.45Zm336.15,2343.36c-5.37,1.42-10.55,2.79-15.73,4.16-.1-4.23,.52-5.74,1.41-5.93,9.61-1.99,16.09-9.89,14.74-17.33-1.01-5.57-10.95-9.62-17.09-14.09-2.44-1.78-5.36-2.89-8.06-4.3,.56-1.48,1.12-2.95,1.68-4.43,7.7,2.09,15.4,4.18,23.56,6.39-3.97-12.42-14.29-19.98-21.74-16.69-7.27,3.21-12.37,17.56-9.61,23.26-5.09,3.75-9.88,7.28-14.68,10.81,3.97,4.76,7.66,9.79,12.02,14.16,2.67,2.67,6.37,4.32,10.75,7.17-11.46,5.62-17.89-14.06-28.43-2.06,2.31,3.72,4.35,7,4.92,7.92-2,7.31-3.36,12.27-4.72,17.24,5.12,1,10.21,2.17,15.36,2.96,8.28,1.27,16.59,2.41,24.91,3.38,4.32,.5,8.7,.51,13.05,.74,.35-1.25,.71-2.51,1.06-3.77-5.31-2.91-10.62-5.81-17.51-9.58,10.77-3.99,19.44-7.95,14.1-20.01ZM770.82,244.87c-4.71,3.58-8.56,5.3-10.55,8.28-5.09,7.61-9.49,15.7-13.91,23.74-3.82,6.97-1.21,10.87,6.08,13.49,13.17,4.74,26.07,10.25,39.11,15.37,2.22,.87,6.16,2.57,6.62,1.94,5.81-7.99,11.6-16.09,16.33-24.74,1.76-3.21,2.39-10.49,.71-11.59-14.29-9.32-29.23-17.64-44.38-26.49Zm144.21,308.24c-1.12-.23-2.24-.46-3.36-.69-18.51,25.14-24.48,54.91-29.13,86.64,15.66-4.18,29.73-10.01,43.42-16.65,1.57-.76,1.76-6.18,1.21-9.2-3.19-17.53-6.78-35-10.27-52.48-.51-2.56-1.24-5.09-1.87-7.63Zm345.17,2223.8c-12.26,16.39-26.71,26.61-26.56,46.41,.07,9.74,2.17,15.92,12.23,18.98,11.62,3.54,17.47,11.89,17.53,24.48,.02,3.92,2.4,7.83,3.7,11.74,1.19-.36,2.39-.72,3.58-1.08,5.19-33.18-1.14-65.12-10.48-100.54ZM927.73,591.67c13.35-33.72,25.97-65.6,38.98-98.44-23.84-1.84-35.37,5.87-39.19,24.96-1.79,8.94-13.06,21.01,7.02,25.07-16.06,7.86-19.08,27.97-6.81,48.42Zm152.7-86.3c-.69,.61-1.37,1.23-2.06,1.84,20.29,34.32,40.58,68.64,60.88,102.96,1-11.38-.53-22.86-2.23-34.32-3.19-21.53-8.19-41.68-31.75-50.89-5.69-2.22-10.05-7.82-15.04-11.84-3.24-2.61-6.53-5.17-9.8-7.75Zm163.07,2384.4c-.95,16.91-1.9,32.14-2.64,47.38-.81,16.49,.89,18.34,16.44,23.25,9.3,2.93,14.04,1.05,13.23-9.48-.93-11.99-2.42-23.97-2.52-35.97-.12-14.58-9.62-19.6-24.5-25.18ZM831.08,450.73c-1.31-.48-2.61-.96-3.92-1.44-6.9,7.6-13.77,15.22-20.7,22.79-21.46,23.43-21.17,25.35,6.35,41.08,.35,.2,.68,.43,1.01,.65,6.26,4.17,10.11,1.85,10.93-4.91,2.35-19.36,4.25-38.77,6.33-58.16Zm61.63,2484.43c3.18-4.31,6.25-8.47,9.32-12.63-8.05-4.91-15.96-10.09-24.29-14.46-1.48-.78-6.85,1.88-6.82,2.85,.24,8.11-.56,17.03,2.59,24.08,4.69,10.46,5.16,11.9-6.3,15.47-2.07,.64-3.99,1.75-5.98,2.64,.08,1.42,.15,2.85,.23,4.27,10.81,0,21.65,.42,32.43-.23,3.63-.22,10.3-3.81,10.11-4.73-1.12-5.42-3.43-10.76-6.28-15.57-.95-1.61-4.66-1.58-5.01-1.68ZM796.42,219.32c-.65,.73-1.3,1.46-1.95,2.19-3.75,1.17-8.22,1.44-11.06,3.73-3.79,3.05-6.3,7.68-9.36,11.64,3.62,2.17,7.18,4.48,10.88,6.5,9.12,4.98,18.08,10.35,27.57,14.5,4.21,1.84,12.59,3.05,13.8,1.16,3.73-5.82,10.51-13.87,2.15-20.23-9.89-7.53-21.28-13.08-32.02-19.49Zm144.67,588.69c-4.35,25.6-8.46,49.74-12.61,74.16,22.45-8.12,29.45-23.86,27.54-59.06-.6-11.01-7.83-13.44-14.93-15.1Zm253.21,1998.8c1.47,8.56,1.41,14.95,3.87,20.15,1.62,3.43,6.78,7.01,10.5,7.17,4.33,.18,11.68-2.33,12.69-5.36,2.99-8.91,3.9-18.62,4.69-28.09,.19-2.29-3.06-6.83-5.02-7-7.3-.63-15.26-1.36-21.86,1.02-3.15,1.14-3.81,9.19-4.87,12.12Zm16.12-2575.45c-18.93,1.74-27.57,14.18-37.2,24.54-3.03,3.26-2.8,9.53-4.07,14.42,5.44-.63,11.78,.32,16.12-2.2,9.63-5.58,18.46-12.64,27.2-19.62,3.3-2.64,5.46-6.72,8.13-10.15-3.96-2.72-7.92-5.45-10.19-7.01Zm-314.71,2607.58c.3-12.86-6.58-14.45-14.35-14.22-8.38,.24-18.13,.04-19.84,10.93-1.71,10.97,8.61,26.74,16.04,26.95,7.03,.19,18.04-15.78,18.15-23.65Zm6.01,67.45c-11.55-5.47-16.27-14.1-18.58-26.02-.74-3.82-12.22-9.1-17.15-7.75-7.88,2.16-14.65,9.01-21.31,14.57-1.58,1.32-.87,5.4-1.21,8.21,3.11-.64,7.76-.19,9.09-2.08,7.65-10.86,12.22-6.41,19.3,1.3,7.21,7.84,16.08,15.51,29.85,11.78Zm266.72-116.59c-4.17,18.49-1.84,35.2,3.21,51.6,.36,1.17,7.86,2.1,9.83,.47,7.09-5.84,4.12-43-3.47-48.31-2.38-1.67-5.54-2.22-9.58-3.76ZM965.4,479.64h81.71c-28.01-19.35-65.89-18.32-81.71,0Zm205.73,2423.18c-.68-.84-1.36-1.69-2.04-2.53-3.13,2.62-7.78,4.63-9.1,7.96-4.55,11.53-8.32,23.42-11.5,35.41-.81,3.05,1.66,6.98,2.62,10.5,3.61-1.28,8.14-1.66,10.57-4.11,2.54-2.55,3.7-7.01,4.33-10.82,1.99-12.09,3.45-24.28,5.12-36.42Zm-358.64,68.76c1.1,1.11,2.21,2.22,3.31,3.32,8.67-6.47,18.17-12.13,25.58-19.81,2.71-2.8,2.66-12.38-.02-15.33-4.26-4.69-20.5,.92-22.31,6.72-2.57,8.25-4.42,16.73-6.57,25.11Zm108.5-128.27c.73-.24,1.47-.48,2.2-.73-1.79-3.16-3.59-6.33-5.38-9.49-3.75,2.32-8.58,3.85-10.96,7.15-2.91,4.03-4.31,9.44-5.31,14.47-.76,3.82-1.22,10.57,.52,11.46,4.58,2.35,10.54,3.13,15.7,2.5,1.51-.18,2.66-7.14,3.11-11.09,.53-4.7,.13-9.51,.13-14.27Zm20.22,126.68c-4.09-17.99-9.62-32.25-24.95-43.13v34.47c6.85,2.38,14.83,5.15,24.95,8.66Zm245.85-2449.19c7.92-4.71,12.88-7.19,17.24-10.47,1.82-1.38,3.92-5.74,3.24-6.56-6.47-7.89-13.5-15.31-20.38-22.86-1.4,.84-2.8,1.69-4.2,2.53,1.26,11.48,2.52,22.96,4.1,37.37Zm-294.05,2357.67c-.85,1.21-1.69,2.42-2.54,3.64,9.58,6.45,18.72,13.76,28.91,19.01,5.93,3.05,7.18-2.31,6.19-7.53-2.41-12.68-15.93-18.98-32.56-15.12Zm335.74-31.83c-.84,1.07-1.67,2.14-2.51,3.22,8.4,6.72,16.8,13.43,26.26,21,3.18-16.06-5.02-23.26-23.75-24.21Zm-129.83-2298.34c-7.76-9.21-13.86-16.43-20.8-24.66-8.37,17.38-5.82,23.81,20.8,24.66Zm97.45,2305.76c-11.56-2.93-26.44,3.59-28.85,10.7-.56,1.64-.25,5.11,.5,5.38,2.35,.83,5.88,1.66,7.56,.49,6.63-4.63,12.72-10.01,20.79-16.56Zm-351.42,53.14c-3.12,2.27-5.7,3.17-5.92,4.47-.73,4.42-.89,8.99-.61,13.46,.05,.82,3.17,1.45,4.87,2.17,1.21-4.26,2.68-8.47,3.51-12.8,.31-1.64-.84-3.55-1.85-7.3Z"/>
  <path d="M576.19,1296.26c4.5,6.51,9.04,13,13.49,19.55,4.65,6.85,9.22,13.77,13.99,20.93-10.9-.68-26.68-20.57-30.64-37.94,1.05-.84,2.11-1.69,3.16-2.53Z"/>
  <path d="M1328.91,1738.07v38.86c-.72,.08-1.44,.16-2.16,.23-.96-12.97-1.93-25.94-2.89-38.91,1.69-.06,3.37-.12,5.06-.19Z"/>
  <path d="M1269.63,918.77v24.68c-1,.06-1.99,.11-2.99,.17v-24.77c1-.03,1.99-.05,2.99-.08Z"/>
  <path d="M1070.83,623.02c8.04-2.77,13.93,1.38,21.24,8.14,6.82,6.31,18.09,7.75,27.34,11.5,2.94,1.19,6.25,2.38,8.29,4.59,1.55,1.67,2.63,6.3,1.65,7.23-1.84,1.75-5.46,2.76-8.09,2.38-19.26-2.78-38.41-6.42-57.72-8.83-7.91-.99-14.92-1.29-13.76-11.72,.95-8.49,2.87-16.4,14.65-13.33,1.5,.39,3.19,.05,6.4,.05Z"/>
  <path d="M1014.54,773.58c6.6-4.16,13.21-8.31,19.81-12.47,.92,1.44,1.84,2.89,2.77,4.33-6.62,4.13-13.24,8.25-19.86,12.38-.9-1.41-1.81-2.83-2.71-4.24Z"/>
  <path d="M1013.78,937.16c-6.93,.24-14.24,2.03-20.7,.4-15.06-3.8-29.78-9-44.47-14.13-5.98-2.09-11.51-5.46-17.25-8.25,.71-1.7,1.41-3.39,2.12-5.09,18,6.36,36.68,11.33,53.73,19.65,8.9,4.34,16.64,8.98,26.73,7.59l-.15-.17Z"/>
  <path d="M1013.94,937.33c18.94-18.41,42.42-18.42,66.36-16.49-9.33,9.37-21.88,4.7-32.73,7.52-11.26,2.93-22.52,5.87-33.79,8.8,0,0,.15,.16,.15,.16Z"/>
</svg>