<?xml version="1.0" encoding="UTF-8"?>
<svg id="Layer_1" data-name="Layer 1" xmlns="http://www.w3.org/2000/svg" viewBox="0 0 1980 1980">
  <path d="M774.28,1239.8c2.12-7.31-1.37-11.56-7.43-15.16-13.71-8.15-17.17-17.37-14.46-33.1,3.35-19.48,13.1-33.78,31.37-41.91,4.99-2.22,7.16-4.65,3.2-10.38-13.99-20.2-7.38-50.25,13.75-64.61,5.09-3.46,12.6-5.91,14.52-10.64,1.51-3.72-3.94-10.21-6.18-15.52-7.82-18.51,.07-34.64,8.51-50.26,1.81-3.34,7.78-4.27,11.54-6.76,7.04-4.67,6.94-8.25-.67-11.47-17.75-7.51-28.61-22.5-39.95-36.74-6.24-7.83-7.16-17.46-3.31-27.06,2.8-6.99,6.61-13.7,8.46-20.92,3.96-15.4,7.2-31.01,10.23-46.63,1.54-7.93-2.79-10.12-10.37-9.62-8.7,.57-17.63,.75-26.18-.64-4.29-.7-10.94-5.04-11.15-8.11-.27-3.89,4.61-8.43,7.89-12.14,1.28-1.45,4.24-1.4,6.42-2.08,13.28-4.13,16.87-10.4,15.66-24.12-1.28-14.52-1.53-29.13-2.23-43.7,1.12-.1,2.23-.2,3.35-.3,.19,2.59,.41,5.18,.57,7.77,.86,14.04,1.68,28.09,2.55,42.13,.79,12.78-1.56,16.28-13.44,20.24-3.72,1.24-7.58,2.39-10.9,4.37-2.22,1.33-5.11,4.21-4.92,6.12,.2,1.98,3.48,4.68,5.86,5.26,14.37,3.51,27.81-.6,40.93-6.08,3.01-1.26,5.73-3.19,8.74-4.45,12.8-5.33,17.31-12.07,14.49-25.73-.71-3.46-6.82-5.8-11-9.08,.85-.78,1.92-2.3,3.4-3.04,8.51-4.26,13.97-14.3,11.48-23.16-.69-2.44-3.92-5.44-6.42-5.91-33.58-6.44-52.23-30.38-62.06-59.47-5.27-15.6-2.75-35.18,.66-52.07,6.59-32.65,18.82-64.53,2.75-97.75-1.22-2.53-.25-7.34,1.54-9.67,1.2-1.57,5.82-1.36,8.63-.71,19.57,4.53,32.23,16.41,37.7,35.95,3.68,13.15,8.79,25.97,11.45,39.3,3.48,17.41,15.56,28.08,27.6,38.89,1.66,1.49,7.26,.71,9.57-1.01,16.46-12.2,32.27-25.26,48.86-37.27,5.96-4.31,13.65-6.16,20.25-9.69,8.45-4.52,16.55-9.7,24.92-14.38,3.11-1.74,6.51-3.97,9.85-4.1,23.09-.91,47.2-5.78,69.08-.89,34.47,7.71,68.37,20.15,94.65,46.48,5.81,5.82,13.01,10.24,20.49,14.41-.48-10.58-7.71-16.84-13.91-23.41-33.5-35.55-77.01-47.54-123.58-49.01-48.87-1.54-94.87,9.96-135.04,39.47-11.17,8.2-21.73,17.23-33.3,25.21,4.72-10.85,13.84-18,22.89-24.89,6.99-5.32,14.61-9.94,22.34-14.14,64.85-35.16,132.15-39.61,200.74-13.24,26.3,10.11,47.84,28.03,63.22,52.34,3.96,6.26,7.75,6.81,13.08,1.06,8.4-9.07,13.57-19.11,13.1-31.75-.27-7.2-.33-14.41-.2-21.61,.37-21,10.88-36.57,27.31-48.3,3.37-2.41,9.61-3.26,13.33-1.79,2.14,.85,3.2,8.02,2.48,11.93-3.8,20.54-1.63,40.26,5.06,59.96,10.22,30.09,14.65,60.5,1.66,91.15-8.65,20.4-21.13,37.31-41.09,48.21-2.83,1.54-5.56,6.89-5.18,10.1,2.08,17.43,4.61,34.86,8.27,52.01,.94,4.38,5.86,9.37,10.19,11.28,12.14,5.35,24.68,11.58,38.45,4.42l-.18-.15c-3.35,2.54-6.63,7.08-10.08,7.22-8,.31-16.32-.6-24.07-2.66-13.24-3.52-13.83-3.66-10.65,10.04,4.43,19.1,10.23,37.89,14.15,57.08,4.01,19.57,2.96,38.93-12.16,54.21-7.74,7.83-16.96,14.19-25.44,21.29-1.64,1.37-2.97,3.11-4.74,5,7.01,3.47,13.57,6.12,19.52,9.76,22.9,14.01,29.71,38.1,17.34,61.28-3.12,5.84-2.53,9.11,3.63,12.48,28.02,15.35,35.13,38.29,20.78,66.76-2.87,5.7-1.09,7.41,3.98,10.28,8.35,4.74,17.41,9.76,23.31,17,17.13,21.05,12.58,50.16-9.05,66.91-2.04,1.58-4.09,3.15-5.45,4.19,14.11,26.72,27.11,53.62,42.23,79.26,12.73,21.58,27.52,41.99,42.16,62.36,14.44,20.1,30.25,39.22,44.7,59.32,12.29,17.09,18.76,36.65,19.89,57.73,1.14,21.18,2.07,42.37,2.55,63.57,.15,6.86-3.78,11.48-11.55,12.3-1.69-32.38-12.33-61.4-28.92-88.39-.82-1.34-3.63-1.45-5.6-2.16,3.1,12.37,7.75,23.71,8.4,35.27,.85,15.15-.35,30.68-2.97,45.64-.97,5.54-7.82,10.86-13.17,14.57-4.82,3.34-10.58-.99-10.75-7.01-.04-1.61,.38-3.25,.74-4.84,10.22-45.25-5.85-84.33-28.54-121.86-3.79-6.27-7.73-6.41-11.9-.37-14.34,20.8-17.71,15.73,1.23,34.51,.93,.92,1.97,1.81,2.63,2.91,2.22,3.69,4.29,7.47,6.42,11.22-4.94,2.05-10.39,6.51-14.72,5.61-8.08-1.67-12.42-1.69-15.53,7.35-1.4,4.07-8.45,5.87-11.85,9.67-2.65,2.95-5.99,9.51-4.86,10.78,2.87,3.24,8.03,5.76,12.35,5.88,2.23,.06,5.51-5.3,6.68-8.76,1.16-3.41,.25-7.52,.25-11.48,1.04,.33,1.92,.33,2.18,.74,6.66,10.28,.26,36.91-10.4,41.9-6.69,3.13-8.57,8.07-8.65,14.94-.27,22.35-1.21,23.74-22.94,29.54-7.66,2.04-10.15,5.7-10.44,13.72-2.03,56.77-6.42,113.51-28.15,166.64-12.45,30.43-23.69,61.01-29.3,93.22-3.45,19.79-4.32,40.26-4.1,60.41,.4,37.71,2.3,75.58-7.85,112.29-5.26,19.04-13.7,37.28-21.63,55.48-9.44,21.68-9.59,44.2-8.57,67.12,1.31,29.35,4.61,58.91,2.5,88.05-2.4,33.09-37.79,52.06-68.99,39.66-12.77-5.07-18.73-16.61-20.6-29.19-1.46-9.82-1.1-20.39,.87-30.14,4.93-24.37,10.34-48.71,17.22-72.59,7.68-26.64,6.36-53.35,2.22-79.85-7.93-50.75-12.12-101.36-3.33-152.44,1.01-5.88-.13-12.46-1.64-18.37-5.44-21.38-7.42-42.91-7.87-65.05-.75-36.28-4.63-72.47-6.39-108.75-.63-13,1.38-26.11,1.6-39.17,.2-12.01-.21-24.04-.86-36.03-.1-1.93-2.95-5.29-4.36-5.21-2.35,.14-5.83,2.03-6.63,4.05-3.93,9.94-6.06,19.85-6.14,31.14-.22,31.34-3.37,62.66-4.99,94.01-1.21,23.52-3.64,47.17-2.28,70.58,1.71,29.44-5.38,57.14-11.13,85.31-1.35,6.63-2.18,13.53-2.04,20.27,.57,26.75,3.92,53.66,2.03,80.21-3.98,55.75,.77,110.37,12.55,164.84,3.9,18.06,5.34,36.95,5.33,55.47-.01,19.71-10.96,31.25-29.9,36.33-24.15,6.48-50.25-8.31-56.9-32.41-6.22-22.56-6.11-44.9-.39-67.86,7.54-30.26,9.43-60.95-3.34-90.63-5.79-13.46-12.76-26.41-18.8-39.77-19.66-43.46-30.7-88.43-22.78-136.5,1.06-6.45,1.34-13.42,4.12-19.1,6.42-13.13,4.73-25.57,.54-38.75-5.44-17.13-7.72-35.56-15.13-51.7-16.21-35.33-27.39-72-35.51-109.81-.39-1.81-1.55-3.45-2.79-6.12-8.9,5.58-17.4,10.75-25.73,16.16-23.89,15.51-50.36,24.35-77.46,32.63-27.72,8.48-55.12,18.92-81.22,31.49-21.27,10.24-33.92,30.3-43.21,51.8-4.72,10.93-8.79,22.13-22.07,25.52,0,0,.17,.18,.17,.18,2.58-5.98,4.92-12.08,7.77-17.93,13.62-27.96,29.55-54.85,58.49-68.84,25.5-12.32,52.54-21.6,79.3-31.12,24.01-8.55,49.27-13.75,71.02-27.98,8.74-5.72,17.56-11.34,26.07-17.38,7.52-5.34,9.08-11.95,6.38-21.41-4.73-16.62-7.85-33.74-10.86-50.79-1.2-6.82-3.19-11.25-10.37-13.55-16.36-5.24-25.8-16.08-25.08-34.21,.25-6.25-2.11-10.14-9-11.85-13.01-3.23-13.48-5.35-10-18.26,.71-2.63-1.45-7.27-3.77-9.27-10.63-9.18-11.78-15.76-3.75-27.62,5.31-7.84,3.83-10.84-5.64-11.82-5.84-.6-11.88-.76-17.41-2.46-9.79-3.02-10.86-8.4-3.89-15.76,1.35-1.42,2.81-2.76,4.35-3.97,6.12-4.83,5.3-9.36,.37-14.83-5.01-5.55-9.72-11.56-13.49-18.01-7.87-13.48-5.39-29.81,7.31-38.68,38.88-27.14,48.52-68.63,56.06-111.28,.54-3.08-1.13-6.55-2.22-12.11-2.89,3.49-4.87,4.86-5.39,6.66-8.24,28.59-26.42,51.64-42.44,75.8-15.23,22.97-29.38,46.54-37.68,72.84-11.36,35.96-13.79,72.81-3.48,109.44,3.74,13.29,11.25,25.48,16.47,38.4,1.47,3.63,.92,8.08,.56,12.07-16.09-22.51-23.63-47.45-26.42-73.85-3.86-36.49,.25-72.38,14.82-105.89,8.78-20.18,22.19-38.37,33.89-57.23,14.78-23.83,32.11-46.19,41.61-73.01,1.62-4.59,2.72-9.36,4.08-14.09,18.34,22.2,30.51,3.98,43.55-8.71,.68,1.06,1.36,2.11,2.04,3.17-2.39,2.84-5.11,5.46-7.07,8.57-1.79,2.84-4.11,6.44-3.62,9.26,.34,1.97,5.27,4.73,7.7,4.34,2.87-.46,6.03-3.47,7.67-6.22,2.7-4.51,4.29-9.7,6.35-14.6,.97,.35,1.94,.7,2.91,1.04-1.08,3.84-1.74,7.86-3.32,11.47-3.66,8.36-3.03,15.2,5.39,20.27,9.81,5.9,19.63,5.66,26.09-1.38,4.14-4.51,7.61-9.63,13.68-13.68-1.65,3.62-3.28,7.26-4.97,10.87-1.89,4.06-5.46,8.4,.91,11.6,6.1,3.06,9.45-.86,11.24-5.81,1.8-4.98,2.57-10.33,4.2-15.39,1.15,27.18,4.85,32.71,25.29,38.3,9.04,2.47,15.3-3.16,19.16-8.88,3.69-5.46,3.64-13.44,5.23-20.32,.9,.13,1.8,.25,2.69,.38-.2,2.49-.81,5.03-.5,7.45,.53,4.19,.27,10.34,2.78,12.01,4.4,2.94,11.06,4.9,15.96,3.77,2.88-.67,5.76-8.03,5.95-12.49,.89-21.15,.39-19.65-20.91-22.04-34.98-3.92-70.55-6.34-103.38-20.87-17-7.52-34.7-14.59-49.59-25.32-10.02-7.22-13.97-4.53-20.34,2.33-2.8,3.02-6.96,4.77-10.5,7.1l.18,.15Zm400.86-92.55c-6.89,1.86-13.68,4.37-20.69,5.45-20.22,3.12-40.51,5.89-60.82,8.33-10.6,1.27-21.4,1.03-31.95,2.56-3.16,.46-6.16,4.31-8.42,7.25-.59,.76,1.98,5.72,3,5.68,13.37-.44,27.33,4.62,39.91-4.38,2.83-2.03,8.3-4.06,10.42-2.72,7.51,4.76,12.76,.86,18.25-2.94,3.98-2.75,7.33-4.83,12.08-.86,1.35,1.13,5.21-.51,7.82-1.22,2.72-.74,5.45-2.97,7.97-2.68,11.73,1.32,18.55-4.18,22.34-14.63,1.64,3.32,3.27,6.63,5.19,10.51,8.58-4.72,16.86-9.27,27.98-15.39-5.12-1.93-9.13-5.04-11.99-4.21-7.31,2.14-14.1,6.04-21.1,9.24Zm-186.37-32.91c-1.46,3.44-3.95,6.81-4.19,10.34-.9,13.38-1.18,26.8-1.43,40.21-.07,3.96,.7,7.93,1.09,11.9,1.14,.08,2.28,.15,3.42,.23,.79-5.86,.23-12.4,2.77-17.37,2.53-4.96,8.15-8.35,12.67-12.66-.78-7.1-15.6-6.12-11.44-17.98,6.16,4.96,11.61,12.82,16.93,12.72,5.85-.11,11.56-7.53,17.35-11.74,5.31-3.87,6.82-9.07,3.54-14.57-4.13-6.94-17.38-11.73-21.65-8.1-5.12,4.35-9.68,9.36-15.49,15.08-1.47-3.23-2.6-5.72-3.73-8.21,2.19-.57,4.65-.68,6.51-1.8,12.98-7.76,13.83-14.18,2.97-20.67-6.69-4-9.62-2.58-9.82,5.13-.15,5.82,.32,11.66,.51,17.5Zm263.45,139.59l.16,.19c.94-9.2-3.27-16.1-9.04-22.89-4.57-5.38-8.89-6.02-14.44-2.61-21.75,13.36-45.05,23.21-69.49,30.3-31.75,9.22-63.69,17.63-97.03,18.73-14.02,.46-16.29,1.82-19.72,15.3-.8,3.14,1.7,7.58,3.82,10.64,.49,.71,5.69-1.58,8.56-2.87,1.6-.72,2.86-2.23,5.67-4.52,4.69,18.16,16.96,17.57,31.45,16.25,19.05-1.73,19.54-15.58,22.26-29.16,1.21,1.35,1.71,2.41,1.8,3.5,.48,5.86-1.16,13.43,1.91,17.05,2.54,2.99,10.59,1.3,16.19,1.71,1.49,.11,2.98,.34,4.54,.52-3.6-8.71-6.96-16.81-10.31-24.91,1.02-.46,2.03-.93,3.05-1.39,.9,1.25,2.04,2.4,2.65,3.78,9.18,20.62,12,22.24,34.1,19.39,13.59-1.75,18.58-9.79,14.02-22.74-2.33-6.61-4.86-13.15-7.3-19.73,.87-.43,1.74-.85,2.61-1.28,1.43,2.26,3.28,4.36,4.2,6.81,1.83,4.9,2.98,10.04,4.73,14.98,2.52,7.12,8.52,8.02,14.32,5.92,1.18-.43,.96-8.03-.48-11.57-2.04-5.05-5.79-9.4-8.82-14.06,.8-.6,1.61-1.21,2.41-1.81,2.74,3.29,6.06,6.25,8.13,9.92,7.77,13.74,12.19,15.99,26.69,9.5,4.37-1.96,6.91-8.02,9.67-11.44,6.24,16.43,13.82,33.69,19.35,51.58,6.95,22.48,14.89,43.77,34.31,59.01,6.25,4.9,10.88,11.87,16.25,17.89-.74,.75-1.48,1.5-2.22,2.26-3.53-2.66-7.45-4.93-10.52-8.04-19.47-19.64-37.42-40.25-42.59-68.84-.8-4.44-3.04-8.63-4.77-12.88-8.4-20.58-9.87-21.25-26.26-19.35-8.34,.96-9.41,4.06-7.29,11.58,5.17,18.31,9.5,36.85,14.16,55.3-4.25-5.52-8.89-11.47-11.22-18.21-3.95-11.41-6.37-23.34-9.58-35.01-1.17-4.25-1.58-10.14-8.4-7.96-6.01,1.93-15.23,1.47-13.04,12.07,3.96,19.13,7.95,38.27,12.68,57.22,2.42,9.69,8.42,17.19,16.77,23.38,15.9,11.8,31.08,24.58,48.19,38.25-6.82,5.52-13.63,10.76-20.1,16.39-2.76,2.4-4.82,5.6-7.2,8.43,2.83,1.98,5.46,4.41,8.54,5.86,7.97,3.76,16.3,6.8,24.19,10.73,4.63,2.31,8.44,6.28,13.09,8.51,2.8,1.34,6.52,.78,9.82,1.07-1.11-3-1.62-6.46-3.46-8.91-3.12-4.16-7.02-7.75-10.71-11.47-5.05-5.08-4.55-9.79-.67-15.68,7.33-11.12,13.77-22.83,20.75-34.19,.88-1.43,2.74-2.25,4.97-4,.69,2.87,1.88,4.89,1.41,6.38-2.65,8.24,1.86,14.15,5.33,20.94,8.19,15.98,16.87,31.97,22.64,48.88,7.89,23.17,9.78,47.34,4.34,71.73-.59,2.67,1.97,6.04,3.07,9.08,2.35-1.87,6.11-3.33,6.82-5.69,3.33-11.1,7.6-22.37,8.1-33.73,.48-10.66-2.08-21.94-5.53-32.19-6.32-18.82-14.29-37.08-21.5-55.6-.38-.98-.16-2.18-.22-3.28,.8-.41,1.6-.83,2.4-1.24,12.66,18.75,27.09,36.57,37.49,56.5,10.32,19.79,16.58,41.71,24.63,62.69,1.14-.13,2.27-.26,3.41-.39-1.49-13.19-1.59-26.74-4.86-39.47-3.35-12.99-9.82-25.18-15.99-40.34,5.14,5.47,8.44,8.98,13.84,14.72,0-5.77,.71-8.72-.12-11.13-4.06-11.71-6.88-24.28-13.23-34.66-10.86-17.73-23.73-34.27-36.29-50.9-21.25-28.15-43.03-55.91-64.32-84.03-6.05-7.99-10.99-16.23-11.88-27.24-.55-6.75-7.06-13.02-10.89-19.5Zm-173,438c-9.32-8.78-16.52-20.22-31.81-24.92-1.06,14.16-3.29,27.41-2.8,40.55,1.48,39.89,4.68,79.73,5.86,119.62,.69,23.4,3.28,46.2,9.12,68.9,2.4,9.35,1.75,19.77,.99,29.58-1.54,19.83-6.59,39.69-5.73,59.33,1.74,39.53,6.54,78.93,9.9,118.39,.54,6.35,3.18,9.62,9.73,9.63,12.77,.02,25.55,.5,38.31,.09,2.94-.09,7.44-2.32,8.43-4.72,7.97-19.28,15.75-38.67,22.69-58.34,14.06-39.85,17.8-80.92,14.21-122.96-2.84-33.24-.36-66.16,10.64-97.95,9.17-26.5,18.73-52.86,28.29-79.22,14.82-40.83,18.37-83.56,21.54-126.35,.63-8.48,1.29-17.01,.94-25.48-.32-7.77-3.43-8.56-9.88-4.61-5.14,3.15-11.1,4.94-16.55,7.62-3.39,1.67-7.53,3.14-9.59,5.97-12.11,16.7-28.25,20.68-46.89,14.69-12.54-4.03-22.75-4.64-31.28,7.71-3.92,5.67-10.28,5-14.86,1.85,6.79-6.58,16.2-11.58,17.89-18.47,1.85-7.54-3.43-16.84-5.6-25.37,4.31,3.76,7.82,8.31,9.58,13.45,2.52,7.39,7.13,11.43,14.53,12.91,5.45,1.08,10.81,2.65,16.29,3.49,28.05,4.3,42.75-11.51,37.05-39.53-.87-4.28-.89-8.72-1.31-13.09,.97-.07,1.94-.13,2.9-.2,1.49,6.94,2.51,14.02,4.66,20.75,1.12,3.51,4.02,8.8,6.47,9,3.81,.32,9.16-2.07,11.51-5.11,1.76-2.28,.52-7.63-.62-11.22-1.53-4.83-4.25-9.29-6.45-13.9,.84-.42,1.68-.83,2.53-1.25,3.22,4.34,5.83,9.41,9.85,12.82,3.97,3.38,9.42,7.29,14.12,7.16,20.69-.58,31.15-13.47,29.22-34.06-.34-3.66-.35-7.36-.43-8.98,6.35-2.47,11.17-3.67,15.11-6.24,1.29-.84,1.32-6.9,.11-7.65-3.38-2.11-8.36-4.61-11.54-3.52-11,3.78-24.39,4.61-28.68,19.03-.64,2.16-3.23,4.09-5.37,5.4-16.8,10.31-34.94,13.14-54.45,10.64-5.1-.65-11.32,1.38-15.88,4.1-6.95,4.13-13.32,5.89-21.35,3.62-3.78-1.07-8.57-.03-12.53,1.22-11.68,3.69-22.9,9.37-34.8,11.66-15.12,2.91-28.92-3.6-41.86-11.06-4.03-2.33-6.46-1.81-11.08,.28-7.11,3.23-15.93,3.08-24.06,3.41-1.86,.07-3.89-3.76-5.83-5.8,.76-.83,1.52-1.66,2.28-2.49,2.8,1.41,5.56,2.91,8.41,4.21,9.43,4.28,19.46-2.77,18.68-13.09-.75-9.96-1.52-19.92-2.28-29.88,1.52-.08,3.04-.16,4.55-.24,0,4.29-.18,8.58,.03,12.86,.67,13.36,5.94,23.43,18.78,29.56,22.4,10.7,43.61,10.34,63.74-4.83,5.9-4.44,11.36-4.73,18.27-2.33,3.93,1.36,11.13,1.23,13-1.19,3.08-4,4.93-10.84,3.83-15.69-1.53-6.74-6.4-12.69-9.6-19.1-1.67-3.35-2.82-6.97-4.2-10.46,1.37-.6,2.74-1.21,4.11-1.81,3.72,7.91,8.17,15.57,10.97,23.79,3.38,9.93,10.6,15.65,19.72,17.23,14.57,2.52,29.48,2.13,42.72-6.05,16.28-10.05,16.66-14.68,3.88-28.67-3.54-3.88-6.27-8.5-9.37-12.78,.81-.59,1.62-1.19,2.43-1.78,4.5,5.44,8.8,11.07,13.55,16.29,5.87,6.44,19.59,6.52,24.77-.53,6.12-8.33-3.49-10.17-7.37-13.88-3.75-3.59-8.06-6.94-12.73-9.11-5.09-2.37-11.04-5-16.32-4.48-18.1,1.79-36.07,4.92-54.1,7.49-1.51,.21-3.07,.03-5.15,.03,.37-2.56,.64-4.46,.92-6.36l-.16,.18c16.88-4.67,18.87-9.65,9.59-23.83-3.56-5.43-7.04-10.92-10.55-16.38,1.33-.91,2.66-1.81,3.99-2.72,4.65,6.63,11.77,12.68,13.48,20,4.43,18.98,17.39,17.73,31.37,16.11,3.25-.38,7.04,.12,9.61-1.41,3.03-1.81,7.35-5.65,7.05-8.14-1.37-11.63,.97-20.7,13.9-24.91-7.74-9.31-14.52-17.45-21.3-25.59,.87-.82,1.75-1.64,2.62-2.46,2.92,2.21,6.13,4.13,8.7,6.69,11.49,11.51,15.01,7.92,26.88,2.11,4.95-2.43,5.27-6.39,.62-10-13.15-10.21-26.52-20.15-39.37-30.73-4.9-4.03-8.89-9.29-12.81-14.37-11.33-14.67-12.43-32.61-15.29-49.91-3.07-18.62-2.9-18.65-21.3-14.23-.96,.23-2.29,.16-2.79,.77-2.03,2.46-5.69,5.38-5.39,7.68,2.8,21.38,6.23,42.69,9.68,63.98,.59,3.66,2.18,7.15,3.31,10.72-.94,.47-1.88,.94-2.81,1.42-2.03-3.61-4.88-6.99-5.91-10.87-2.35-8.83-4.16-17.84-5.54-26.87-2.04-13.26-3.3-26.63-5.34-39.88-.72-4.69-2.88-9.63-9.18-6.51-7.36,3.64-14.36,7.91-22.26-1.96-1.98,12.51-2.95,23.39-3.3,34.28-.33,10.36-5.82,20.92,2.06,31.66-7.77-5.99-13.42-3.92-18.96,1.43-1.82,1.75-4.81,2.27-6.71,3.97-2.9,2.59-5.32,5.71-7.94,8.6,2.7,1.92,5.15,4.45,8.14,5.63,7.2,2.83,11.96,7.4,10.9,15.41-1.01,7.59-3.31,14.84-12.7,16.38-2.68,.44-5.24,1.58-9.91,3.05,4.31,3.9,6.72,7.05,9.91,8.74,6.86,3.64,8.53,8.75,7.7,16.23-1.3,11.62-8.92,18.79-16.95,25.34-6.56,5.35-13.61,1.52-20.14-1.83-1.11-.57-2.54-.67-3.83-.73-20.52-1-41.04-2.19-61.57-2.66-2.94-.07-7.28,2.69-8.67,5.35-2.97,5.69-4.5,12.15-6.52,18.33-4.92,15.01-13.41,17.63-25.73,8.23-2.28-1.74-6.73-3.91-8.17-2.93-10.04,6.83-19.57,5.9-29.41,0-1.27-.76-3.12-.79-4.7-.74-10.6,.29-21.35,1.91-31.74,.61-6.4-.8-13.44-4.83-18.07-9.5-7.39-7.46-14.38-12.91-25.73-12.34-6.89,.35-14.58-1.06-20.72-4.09-5.46-2.69-8.04-1.48-11.87,1.85-5.12,4.46-10.26,9.6-16.36,12.08-10.16,4.12-17.55,18.31-11.92,27.94,2.38,4.07,7.75,8.81,11.87,8.92,6.95,.17,11.03-6.17,10.33-13.02-.67-6.61-3.38-13.01-5.45-20.42,5.22,1.81,10.24,3.55,15.65,5.43-1.99,5.07-4.29,8.87-4.81,12.9-.45,3.48-.08,8.34,2.05,10.65,5.71,6.21,24.92,6.89,32.07,2.1,0,0-.15-.13-.15-.13,1.54,3.11,2.65,6.54,4.69,9.27,8.85,11.86,21.99,11.68,34.79,11.39,11.63-.26,17.51-6.06,19.81-17.67,1.04-5.26,2.41-10.46,3.63-15.68,1.4,.36,2.8,.72,4.2,1.08-1.72,7.11-4.49,14.17-4.78,21.33-.18,4.36,2.45,10.03,5.74,12.92,2.06,1.81,7.69-.65,11.73-.79,3.39-.12,7.21-.54,10.08,.8,3.04,1.43,5.31,4.67,7.68,7.33,18.13,20.38,71.03,12.71,75.48-20.91,.9-6.79,2.49-13.49,3.86-20.22,.62-3.04,1.47-6.04,2.21-9.05,.86,.21,1.72,.42,2.58,.63-1.35,8.98-3.49,17.92-3.89,26.94-1.13,25.52-33.41,44.26-55.35,38.44-10.77-2.86-20.67-9.01-31-13.57-2.87-1.27-6.86-4-8.68-3.01-11.59,6.28-18.95-1.28-26.07-6.67-15.2,6-30.88,8.97-43.6-.66-13.53-10.24-28.59-13.48-44-17.27-7.08-1.74-19.84,3.86-22.31,10.62-.67,1.84,.92,5.72,2.68,6.96,2.51,1.78,6.15,2.8,9.26,2.72,9.55-.25,9.5,4.53,7.87,11.93-5.05,22.88,15.55,41.32,38.07,34.37,4.06-1.25,7.94-3.4,12.07-4.02,2.8-.42,7.34,.09,8.6,1.92,7.31,10.59,15.66,18.35,30.66,14.65-1.55,2.51-2.57,3.72-3.87,4.26-10.04,4.17-17.88,.69-24.06-7.46-6.3-8.29-14.1-6.99-22.02-3.49-8.26,3.66-5.69,10.76-4.6,17.08,1.61,9.36,3.34,18.7,5.35,27.98,1.97,9.1,2.37,19.49,15.35,20.72,1.57,.15,2.99,2.39,4.4,3.74,9.29,8.87,24.88,8.83,33.85-.1,10.49-10.45,13.41-10.63,25.57-1.47,3.13,2.35,6.76,4.35,9.13,7.33,5.22,6.58,11.76,12.86,8.92,23.39-5.19-4.59-9.53-9.81-12.59-15.7-10.09-19.43-22.53-20.72-35.13-3.29-.54,.75-1.52,1.19-2.29,1.77-.09-.55-.17-1.1-.26-1.65-4.46,.7-8.93,1.39-13.39,2.09-.05,1.37-.1,2.74-.15,4.12,3.97,1.94,8.38,3.31,11.76,5.98,2.95,2.33,4.74,6.14,7.04,9.29l-2.84,2.4c-3.03-2.17-6.4-3.99-9.01-6.58-7.43-7.35-14.33-15.22-21.89-22.42-2.63-2.5-6.57-3.63-9.91-5.39-.94,3.52-3.11,7.23-2.59,10.51,1.82,11.28,4,22.57,7.1,33.56,6.13,21.72,12.56,43.38,19.64,64.8,8.37,25.35,18.45,50.16,26.04,75.72,4.04,13.61,5.04,28.05,1.06,42.64-12.12,44.46-8.95,88.32,8.24,130.92,10.25,25.4,21.44,50.44,33.09,75.22,1.86,3.95,8.27,7.72,12.84,8.07,12.02,.91,24.18-.25,36.29-.33,7.7-.05,10.38-3.86,9.89-11.17-.5-7.49-.6-15.02-.66-22.53-.34-49.07-.77-98.15-.76-147.22,0-8.69,1.64-17.42,2.99-26.06,2.6-16.71,6.8-33.27,8.05-50.06,3.03-40.43,4.93-80.95,6.91-121.46,.92-18.95,1.07-37.95,1.32-56.92,.05-4.1,.09-10.02-6.85-6.56-8.24,4.12-16.04,9.12-25.15,14.37,2.24,3.12,5.56,7.76,9.68,13.52-7.68,2.3-10.6-.51-12.9-5.51-2.31-5.02-4.6-10.2-7.89-14.57-8.69-11.55-19.05-11.76-28.79-1.23-1.58,1.71-3.51,3.08-6.1,5.32-.79-2.72-1.76-4.16-1.38-5.02,4.56-10.51,24.72-15.44,33.86-8.39,11.9,9.18,17.55,9.81,29.36,2.79,4.49-2.67,8.81-5.67,12.96-8.84,5.7-4.37,10.18-20.38,6.05-23.84-9.37-7.84-18.14-17.63-32.34-15.91l.16,.18c.43-6.82,1.21-13.65,1.22-20.47,.03-14.11-.05-14.42,5.36-18.43,.18,28.86,.46,28.49,17.31,41.19,18.47,13.91,36.34,15.63,60.54,.15,8.24-5.27,11.17-11.91,10.25-21.35-.65-6.63-.12-13.37-.12-20.07,1.07-.19,2.14-.38,3.22-.57,.74,4.12,2.11,8.24,2.12,12.36,.06,23.61-7.6,41.72-33.23,44.47-3.56,.38-9.27,4.64-9.43,7.37-.26,4.55,1.94,10.63,5.28,13.72,6.34,5.88,13.81,10.89,21.56,14.79,6.45,3.25,6.93,7.71,6.13,13.49l.16-.15Zm20.45-1041.19c9.5,10.83,30.25,106.02,25.96,119.51-3.61-17.29-6.95-33.28-10.28-49.27-1.19,.13-2.37,.26-3.56,.39-1.09,17.4-2.43,34.8-2.86,52.22-.04,1.62,5.56,4.45,8.77,4.85,4.95,.61,10.09-.41,16.25-.81,.43-38.12-8.89-75.14-13.82-112.82,3.6,7.37,6.17,14.98,7.66,22.79,4.83,25.33,10.53,50.58,13.47,76.15,2.73,23.67,2.36,47.7,3.36,71.57,.23,5.48-.84,11.45,7.64,12.14,11.7,.96,16.72-1.76,19.58-9.81,1.85-5.21,5.61-9.71,8.2-14.7,1.46-2.82,2.91-5.9,3.29-8.99,4.53-36.92,1.36-73.39-9.73-108.72-8.37-26.68-16.84-53.61-42.71-70.53-19.32-12.64-38.47-24.74-61.42-29.68-7.94-1.71-14.08-.86-18.61,6.54-3.47,5.66-8.49,6.95-14.31,3.48-7.83-4.67-15.37-9.9-23.48-14.02-3.29-1.67-8.83-2.77-11.49-1.13-8.56,5.28-16.33,11.86-24.21,18.18-1.36,1.09-2.31,3.27-2.58,5.07-2.08,13.91-4.03,27.83-5.87,41.77-2.57,19.44-4.61,38.95-7.67,58.31-1.99,12.57-5.77,24.84-8.06,37.37-2.88,15.73-2.57,15.75,12.78,15.65,1.6-.01,3.2,.57,4.8,.82,9.24,1.43,11.13-.72,11.48-10.28,.83-22.4,2.15-44.79,3.08-63.45,1.35,18.44,3.22,40.53,4.48,62.65,.67,11.64,3.58,21.75,15.82,29.01-13.93,2.13-13.93-10.04-19.51-15.46-8.38,13.96-21.32,25.03-19.02,43.14,.45,3.52-1.49,7.93-3.63,11.02-2.42,3.5-6.31,5.99-9.57,8.92-.58-.64-1.17-1.28-1.75-1.92,3-8.46,6.01-16.91,9.6-27.03-5.8,2.27-39.02,2.99-42.59,1.74-5.26,11.69,6.68,16.98,10.55,26.74-12.22-.9-17.47-8.51-21.66-16.94-3.24-6.5-2.8-12.04,5.88-14.27,1.88-.48,4.73-3.46,4.46-4.74-.51-2.46-3.3-6.6-4.49-6.39-4.97,.88-10.06,2.51-14.38,5.08-3.09,1.84-5.34,5.42-7.39,8.6-2.24,3.49-5.48,7.46-5.37,11.13,.41,14.37,2.37,28.7,2.99,43.07,.89,20.59,11.38,36.24,26.49,48.24,22.92,18.2,49.1,29.75,78.79,32.16,3.68,.3,7.25,1.98,10.88,3.02l-.53,2.2c-3.11,1.28-6.23,2.57-9.56,3.94,10.75,12.57,28.33,14.73,40.63,5.31,1.33-1.02,2.7-3.42,2.37-4.78-.31-1.31-2.66-2.58-4.34-3.05-3.29-.91-6.74-1.25-10.13-1.83,2.1-3.24,4.06-4.73,6.04-4.76,20.99-.32,39.73-8.37,57.6-17.98,19.9-10.71,37.58-25.03,44.95-47.26,9.02-27.19,7.6-54.9-1.88-81.99-1.13-3.23-3.9-5.89-5.91-8.81l-2.95,.96c0,9.14,1.45,18.59-.39,27.35-2,9.54-8.36,17.08-19.29,20.04,.67-11.19,14.82-16.83,10.35-30.79-7.66,5.53-7.1,18.55-17.98,16.05-7.54-1.74-14.57-5.67-23.17-9.16,1.79,6.7,3.75,14.04,6.02,22.5-11.5-2.97-13.07-11.93-15.37-19.72-1.75-5.96-1.58-11.84,7.42-12.69,1.93-.18,4.34-4.18,4.91-6.77,.35-1.59-2.18-5.36-3.75-5.56-7.68-.99-15.48-1.67-23.21-1.39-10.3,.37-20.6,2.7-30.84,2.36-8.09-.27-8.52-2.94-3.98-9.9,3.45,1.05,7.65,3.72,9.63,2.56,2.26-1.32,3.42-6.01,3.52-9.27,.46-15.38,.35-30.78,.55-46.17,.04-3.12,.51-6.24,.78-9.35,1.98,3.91,2.36,7.49,2.29,11.07-.26,14.4-.39,28.81-1.1,43.19-.37,7.49,3.38,9.93,9.89,10.31,5.14,.3,9.31-.67,9.51-6.98,.7-22.87,2.65-45.8,1.7-68.6-1.04-24.81-4.81-49.5-7.3-74.25-.17-1.64,.42-3.36,.66-5.05,2.98,2.64,4.2,5.5,4.67,8.47,6.39,40.39,12.91,80.77,18.77,121.24,1.15,7.96,4.47,10.95,12,12.55,9.82,2.08,11.85-4.93,14.35-11.28,2.05,4.43,3.75,8.11,5.45,11.78,.95-.19,1.91-.38,2.86-.57,.55-2.35,1.48-4.69,1.58-7.06,.73-17.01,1.66-34.02,1.66-51.03,0-4.12-3.25-8.24-5.01-12.36-2.49,2.39-4.97,4.78-7.65,7.36-.6-17.23-17.51-8.89-26.15-16.39,3.27-.17,5.16-.42,7.05-.35,17.32,.64,20.11-2.92,15.51-20-.34-1.25-1.28-2.36-1.48-3.61-1.92-11.77-3.73-23.56-5.58-35.34,.88-.33,1.77-.65,2.65-.98,1.81,3.8,4.7,7.45,5.23,11.41,1.83,13.6,2.88,27.3,4.12,40.97,.44,4.82-.57,10.99,6.72,10.7,7.39-.29,4.99-6.51,4.57-10.58-1.23-11.92-2.98-23.78-4.7-37.02Zm-211.13-1.35c1.53,2.71,2.16,3.31,2.06,3.74-.5,2.21-1.22,4.38-1.82,6.57-11,39.89-18.98,80.25-15.6,121.88,.85,10.45,5.03,20.62,7.67,30.92,1.09-.16,2.17-.33,3.26-.49,4.67-7.69,8.95-15.65,14.18-22.94,2.26-3.15,6.17-6.22,9.83-7.01,5.27-1.13,7.84-2.65,6.39-8.28-1.99-7.75-5.44-15.5-5.5-23.27-.09-12.62,1.19-25.42,3.46-37.86,3.52-19.29,7.87-38.46,12.85-57.43,2.1-7.98,6.71-15.3,10.17-22.91-2.06,23.3-13.39,44.27-12.68,68.57,9.3-1.39,17.58-3.65,25.84-3.59,9.13,.06,11.72-4.04,12.86-12.15,2.56-18.15,5.68-36.23,9.07-54.24,2.67-14.17-7.71-24.49-21.85-21.5-26.03,5.51-47.25,20.04-68.47,35.04-12.78,9.03-20.05,21.28-24.81,35.42-3.13,9.29-5.79,18.8-7.83,28.39-20.76,97.58-8.82,192.75,21.74,286.42,1.46,4.47,5.74,8.02,8.7,12,1.38-.69,2.76-1.38,4.14-2.07-6.62-31.43-13.25-62.86-19.87-94.29l2.38-.72c.99,1.84,2.38,3.58,2.91,5.54,9.43,34.67,18.7,69.38,28.16,104.04,1.72,6.29,3.71,12.58,6.47,18.45,.9,1.92,4.62,2.51,7.06,3.71,.67-1.62,2.11-3.35,1.89-4.84-2.02-13.57-4.35-27.1-6.55-40.65-5.28-32.61-11.1-65.14-15.6-97.86-2.98-21.68-3.97-43.62-6.07-65.43-.27-2.77-1.78-5.43-2.82-8.1-3.16-8.07-8.25-15.89-9.27-24.21-5.3-43.23-3.97-86.14,9.84-127.98,2.35-7.14,4.84-14.23,7.79-22.88Zm-16.86,740.73c-1.17-.77-2.33-1.54-3.5-2.31,1.86-4.78,3.64-9.6,5.59-14.34,7.65-18.55,12.96-37.57,12.58-57.91-.14-7.32-4.03-10.67-10.52-11.97-7.14-1.44-10.13,2.92-11.82,8.83-1.07,3.77-2.14,7.56-2.94,11.4-5.16,24.65-9.93,49.39-15.48,73.95-2.49,11.01-8.85,19.85-20.09,23.68-7.42,2.52-15.16,4.08-22.69,6.27-2.76,.81-5.35,2.21-8.02,3.35l.18,3.82c11.67,1.96,23.36,3.83,35.01,5.96,2.35,.43,4.53,1.82,6.79,2.76-1.31,2.41-2.09,5.43-4.03,7.12-4.91,4.26-10.72,7.51-15.39,11.99-2.26,2.16-3.93,6.28-3.6,9.27,.17,1.52,5.39,3.63,8.24,3.51,11.57-.49,23.1-1.75,34.5-2.71-.3,13.42,1.74,21.18,11.68,23.82,14.27,3.8,29.71,8.83,43.41-2.8,3.76,3.07,7.1,7.36,11.4,8.83,3.76,1.28,9.32,.55,12.69-1.55,1.94-1.21,2.39-7.37,1.22-10.44-2.08-5.48-2.97-10.01-.2-13.23,6.12,8.88,11.62,17.79,18.2,25.84,1.92,2.35,6.89,2.22,10.46,3.22,2.03-7.92,5.44-15.79,5.69-23.77,.25-7.77-6.24-3.15-10.28-3.37-3.31-.18-7.1-1.71-9.62-3.87-4.17-3.59-7.74-7.98-11.1-12.39-4.06-5.33-7.52-10.87-2.12-17.67,5.6-7.04,13.33-9.73,23.29-6.44-3.36,1.79-5.68,3.37-8.24,4.34-14.9,5.66-15.68,8.95-4.73,21.08,1.53,1.7,2.95,3.8,4.89,4.77,3.98,2.01,10.82,5.78,11.97,4.56,3.61-3.83,6.23-9.44,7.2-14.73,1.21-6.61,.4-13.6,.44-20.42,.02-3.38,0-6.76,0-9.68-8.49,0-15.29,.48-21.99-.13-6.99-.63-17.53-11.59-15.44-17.59,1.93-5.55,8.18-9.67,12.77-14.16,1.02-1,3.19-.7,4.63-1.41,5.63-2.76,6.2-7.38,1.7-10.83-7.06-5.39-15.02-9.61-23.85-15.1-4.42,15.05-9,30.65-14.35,48.87-1.65-3.93-2.42-4.83-2.27-5.55,4.77-23.99,8.92-48.14,14.76-71.87,3.02-12.29,1.67-16.8-10.58-19.89-3.95-.99-7.95-2.83-11.21-5.25-8.54-6.3-10.95-5.57-13.57,5-4.8,19.37-9.41,38.79-14.65,58.04-1.1,4.04-4.59,7.43-6.98,11.13Zm66.57-214.9c9.08,1.19,17.27,2.79,25.51,3.06,3.01,.1,8.86-3.19,8.74-4.51-.55-6.01-.96-14.41-4.82-17.14-4.98-3.52-13.2-2.46-21.08-3.51,1.3,5.05,1.97,7.67,3.02,11.72-12.08-1.28-23.36-1.13-33.9-3.86-23.35-6.05-46.34-13.55-69.47-20.45-8.71-2.6-17.41-4.8-26.43,.76,25.62,15.15,55.42,17.5,80.88,31.09-2.02,1.49-3.68,1.85-5.11,1.44-20.06-5.78-40.04-11.84-60.18-17.35-2.85-.78-8.5,.03-9.33,1.78-8.23,17.36-15.82,35.04-23.37,52.71-2.68,6.27-1.44,11.18,5.43,14.43,9.73,4.6,18.91,10.41,28.76,14.7,16.4,7.14,32.63,15.83,49.87,19.61,27.03,5.94,54.82,8.47,82.33,12.14,7.05,.94,10.65-1.56,7.87-9.75-1.37-4.05-.97-8.79-.94-13.21,.07-11.33,.71-22.66,.48-33.98-.14-7.07-2.25-14.14-2-21.15,.27-7.53-3.07-10.24-9.7-10.26-3.24-.01-6.52,1.16-9.72,.95-6.54-.44-13.76-.16-16.84-9.22Zm269.01-22.88c-14.45,5-27.42,10.01-40.71,13.92-9.03,2.65-18.47,4.08-27.82,5.49-12.92,1.95-25.31,5.84-38.7,6.78-11.05,.78-22.36,4.26-33.92,3.9-12.81-.4-15.1,1.42-14.83,14.35,.47,22.87,1.51,45.73,2.18,68.6,.22,7.34,4.61,8.55,10.6,7.91,57.04-6.08,111.89-19.6,162.6-47.47,5.62-3.09,6.08-6.62,3.93-12.06-5.51-13.95-10.64-28.05-15.94-42.08-2.37-6.28-4.79-12.54-7.39-19.33Zm-386.23,296.49c-9.05-2.94-15.72-4.53-21.87-7.3-4.45-2-8.19-5.57-12.24-8.44,4.78-4.01,9.4-8.25,14.44-11.89,1.66-1.2,4.45-.74,6.68-1.25,16.19-3.75,29.09-10.56,32.2-29.34,3.73-22.51,7.57-45.11,13.48-67.11,4.48-16.71-5.55-25.05-16.38-38-9.11,23.24-17.33,44.21-25.54,65.19-1.24-.51-2.49-1.01-3.73-1.52,.99-3.32,2.38-6.57,2.9-9.96,2.43-15.73,4.84-31.48,6.75-47.28,.61-5-.59-11.18-7.23-10.13-3.64,.58-8.37,4.85-9.57,8.46-4.32,13-6.61,26.68-11.04,39.64-7.12,20.87-12.47,42.9-31.78,57.18-6.03,4.46-11.57,9.62-17.03,14.79-9.29,8.8-11.02,19.08-4.63,30.16,3.41,5.91,7.79,11.29,12.06,16.65,8.94,11.23,8.98,11.12-.03,22.24-2.89,3.57-6.92,8.77-.28,11.09,13.77,4.83,29.43,6.77,41.59-1.1,11.63-7.53,19.97-20.14,31.24-32.09Zm228.76-51.55c-.13,0-.25,0-.38,0,0-21.93,.4-43.88-.25-65.8-.19-6.51-1.54-14.56-5.56-19.03-7.46-8.29-9.05-15.71-4.59-25.73,2.99-6.7,4.03-14.15-3.26-19.56-5.76-4.27-11.37-8.85-17.59-12.34-2.82-1.58-7.84-2.36-10.28-.89-6.94,4.2-13.26,9.52-19.41,14.89-1.98,1.72-3.65,4.92-3.74,7.5-.71,20.43-1.5,40.89-1.32,61.33,.35,41.54,1.41,83.07,1.89,124.61,.08,7.33,3.14,9.65,10.06,9.76,14.7,.22,29.42,.69,44.08,1.75,7.7,.55,10.6-1.79,10.47-9.7-.36-22.26-.13-44.53-.13-66.79Zm102.7-422.8c1.25,.13,2.51,.25,3.76,.38,.7-5.26,1.33-10.53,2.1-15.78,4.63-31.71,9.26-63.43,13.98-95.13,.88-5.91,1.94-11.54-6.98-11.42-5.23,.07-10.65-1.03-15.64,.04-2.89,.62-6.76,4.18-7.29,6.96-2.03,10.75-2.94,21.72-4.2,32.62-4.28,37.03-8.42,74.08-12.92,111.08-.62,5.11-2.96,10.01-4.79,15.93-11.65-11.76-11.83-10.82-23.27-1.04-7.31,6.25-17.12,9.77-26.15,13.71-4.38,1.91-9.58,1.9-14.38,2.92-13.17,2.82-15.64,6.2-14.17,19.77,1.37,12.69,3.25,25.33,4.31,38.04,.74,8.91,4.89,12.14,13.54,10.75,19.71-3.16,39.61-5.34,59.11-9.43,13.68-2.87,26.9-8.02,40.17-12.61,5.48-1.89,9.35-5.89,5.28-12.03-9.13-13.8-17.62-28.25-32.35-37.55-1.35,.7-2.43,1.68-3.61,1.8-3.09,.3-6.22,.23-9.34,.31,1.47-2.97,2.79-6.03,4.46-8.88,2.86-4.89,7.12-9.29,8.73-14.53,5.91-19.23,10.95-38.72,16.4-58.09,.19-.67,1.11-1.12,3.25-3.16v25.36Zm-186.81-16.53c-.39,1.19-.77,2.38-1.16,3.57-4-1.32-8.08-2.44-11.97-4.01-4.96-2-8.21-1.7-11.14,3.8-4.67,8.77-9.81,17.44-15.93,25.23-7.88,10.02-5.89,20.49,4.52,27.01,16.24,10.17,34.69,10.76,52.5,13.43,12.88,1.93,26.28,.18,39.38,1.08,6.51,.45,12.83,3.3,19.3,4.79,1.74,.4,3.78,.06,5.57-.37,5.37-1.29,10.62-3.45,16.05-4.11,15.44-1.88,27.58-9.74,38.19-20.33,1.79-1.79,3.09-7.32,2.13-8.1-9.52-7.84-8.86-20-13.31-29.9-3.32-7.38-8-12.5-16.29-11.27-12.33,1.84-26.6-3.03-36.09,9.72-.85,1.14-3.15,1.1-4.31,2.13-4.92,4.34-9.89,8.66-14.38,13.43-3.29,3.49-5.85,7.67-8.73,11.54-.76-.48-1.53-.96-2.29-1.44,.37-1.81,.27-3.92,1.19-5.38,6.1-9.55,1.82-13.69-7.02-18.62-12.03-6.7-27.87-3.79-37.29-18.84-4.97-7.93-18.79-10.32-28.57-15.19-9.11,14.38-17.94,28.31-26.76,42.24,.69,.79,1.37,1.58,2.06,2.36,3.2-1.53,7.09-2.36,9.48-4.72,6.22-6.12,12.51-12.4,17.4-19.56,4.74-6.92,9.83-7.9,16.64-4.48,3.69,1.85,7.23,3.98,10.84,5.99Zm-190.71-415.17c.81,3.13,1.58,6.17,2.39,9.19,5.11,19.19,7.57,38.31,2.83,58.19-3.86,16.21-6.44,32.77-8.73,49.3-5.86,42.2,16.88,79.8,54.17,89.76,2.95,.79,6.69-1.39,10.07-2.19-1.24-3.96-1.26-9.57-3.95-11.55-6.23-4.59-13.93-7.12-20.67-11.09-4.45-2.62-8.28-6.28-12.39-9.48,.4-.5,.8-.99,1.2-1.49,12.35,5.89,24.7,11.79,36.53,17.43,1.84-2.16,2.48-2.58,2.64-3.15,6.34-21.6,12.78-43.17,18.69-64.89,.55-2.03-1.65-5.85-3.68-7.39-11.44-8.66-21.09-18.68-25.87-32.47-3.52-10.16-6.41-20.53-9.63-30.8-3.13-9.98-5.52-20.29-9.67-29.83-5.54-12.74-21.28-21.49-33.93-19.55Zm435.53,160.08c.52,.43,1.03,.85,1.55,1.28-1.86,2.74-3.29,5.93-5.65,8.11-5.02,4.63-11.02,8.28-15.61,13.26-2.42,2.63-2.73,7.2-3.99,10.9,3.52-.5,8.14,.25,10.36-1.71,7.3-6.47,14.74-13.2,20.3-21.11,21.47-30.6,21.58-64.68,11.78-98.7-6.4-22.23-8.03-44.19-6.41-66.87,.25-3.47-1.53-7.09-2.37-10.64-3.72,1.47-8.39,1.97-11.01,4.55-16.47,16.26-24.49,36.04-21.53,59.3,1.56,12.24-1.39,23.01-9.07,32-5.98,7-13.55,12.63-20.99,19.4,8.08,20.92,16.72,43.26,26.01,67.3,9.6-6.16,18.11-11.62,26.63-17.08Zm-232.51,354.21c-.2-.02-.39-.04-.59-.06,0-2.62-.02-5.23,0-7.85,.15-14.91-3.4-20.14-18.22-20.22-14.22-.08-24.69-7.01-35.72-13.96-2.46-1.55-5.63-1.97-8.47-2.91-.63,3.04-1.96,6.14-1.75,9.12,.61,8.36,2.01,16.67,2.75,25.03,.17,1.95-.56,4.52-1.86,5.84-.71,.72-3.79-.1-5.24-1.07-2.12-1.41-3.95-3.41-5.54-5.44-10.11-12.91-10.35-12.92-21.31-.17-1.91,2.23-4.29,4.09-6.01,6.45-4.91,6.76-10.2,13.36-14.16,20.66-2.95,5.44-1.03,10.12,5.99,11.47,5.44,1.05,10.75,2.88,16.22,3.72,27.43,4.25,54.86,8.49,82.38,12.04,2.46,.32,7.57-3.98,8-6.68,1.86-11.88,2.46-23.96,3.52-35.97Zm-135.41-73.21c1.03-1.11,2.05-2.22,3.08-3.33-3.51-7.63-5.81-16.17-10.76-22.71-14.49-19.14-15.98-40.82-14.6-63.33,.15-2.49,1.68-4.9,2.57-7.35,.94,.17,1.89,.33,2.83,.5,0,9.68-.5,19.38,.11,29.02,1.17,18.39,2.8,21.99,11.37,27.3-.48-8.95-.81-16.96-1.38-24.96-.39-5.46-2.38-11.09,4.68-14.41,1.28-.6,1.72-4.56,1.39-6.8-3.2-21.98-6.62-43.93-10.09-65.88-.33-2.07-1.43-4.02-2.62-7.26-6.76,3.67-13.07,6.39-18.44,10.38-2.16,1.61-4.09,7.48-2.95,8.93,9.51,12.15,2.5,23.08-1.88,34.04-4.85,12.14-10.43,23.99-15.56,36.02-4.98,11.67-3.44,22.55,5.06,31.97,7,7.76,13.92,15.82,22.01,22.33,7.62,6.14,16.73,10.43,25.18,15.53Zm353.69-38.04c1.77-.37,2.55-.3,2.95-.66,.95-.86,1.88-1.83,2.54-2.92,11.34-18.9,11.38-38.95,6.17-59.61-4.36-17.31-8.3-34.73-12.78-52.01-.59-2.28-3.28-4.02-4.99-6.01-1.69,1.6-4.04,2.88-4.95,4.84-7.76,16.6-8.59,34.56-10.3,52.42-2.68,27.88-.84,56.37-10.74,83.34-.46,1.26,.24,2.96,.67,6.89,11.7-9.79,20.24-19.21,24.42-32.44,3.89-12.31,8.46-24.4,12.73-36.59,.4-.04,.8-.09,1.2-.13-2.27,14.09-4.53,28.18-6.9,42.88Zm-87.82,196.21c2.1,11.8,7.31,12.09,14.58,8.6,3.43-1.65,7.61-1.7,11.43-2.58,15.72-3.6,31.47-7.09,47.11-10.99,2.72-.68,5-3.13,7.47-4.74-6.72-3.11-12.3-5.7-18.35-8.5-.15,1.23,.17,3.09-.61,4.19-1.66,2.36-3.88,4.33-5.87,6.45-1.1-2.57-3.38-5.31-3.05-7.68,.66-4.68,2.44-9.31,4.37-13.69,2.19-4.97,3.98-9.47-1.17-12.79-3.8,2.8-6.92,5.1-10.05,7.41-.73-.75-1.46-1.51-2.18-2.26,2.38-4.66,4.76-9.32,7.68-15.03-2.54,.19-3.76,.13-4.91,.38-15.22,3.29-30.53,6.26-45.58,10.24-2.85,.76-6.18,5.3-6.66,8.5-2.03,13.55-3.06,27.24-4.58,42.03,5.35,2.92,5.41,2.9,10.36-9.53Zm-188.44-401.66c.06,0,.12,0,.18,0,0,9.16-.19,18.33,.06,27.49,.2,7.3,5.1,9.04,11.44,8.89,6.16-.15,13,1.31,14.53-7.61,3.44-20,6.94-40,10.32-60.01,.97-5.77-1.23-9.12-7.51-7.9-6.73,1.3-13.34,3.23-20.08,4.48-6.36,1.18-8.79,5.23-8.9,11.09-.15,7.86-.04,15.72-.04,23.58Zm150.96,678.1c4.23,.12,10.95,1.02,17.42,.11,2.33-.33,5.34-4.87,5.64-7.75,.24-2.24-2.78-5.55-5.18-7.16-3.16-2.14-7.07-3.23-10.75-4.51-4.13-1.44-18.79,5.98-18.78,9.76,.05,18.98-.01,37.99,1.08,56.92,.22,3.72,4.89,9.3,8.39,10.08,3.22,.72,7.97-3.44,11.39-6.24,2.12-1.74,2.8-5.13,4.53-7.48,6.27-8.55,4.57-14.5-4.84-19.53-3.1-1.66-5.5-6.03-6.61-9.66-1.63-5.32-1.81-11.09-2.3-14.54Zm-40.83-349.26c-.71,.67-1.41,1.35-2.12,2.02-2.44-1.99-5.02-3.84-7.3-6-11.97-11.35-19.46-4.11-25.79,5.82-5.12,8.01-2.62,11.48,11.04,22.22,6.86,5.4,9.6-.11,13.85-3.36,3.21-2.46,7.11-4.02,10.71-5.98-2.38,3.13-4.92,6.16-7.08,9.44-1.65,2.52-4.07,5.52-3.75,8,.22,1.74,4.62,4.27,6.91,4.04,2.31-.23,5.39-3.02,6.3-5.4,7.35-19.27,1.19-37.36-5.59-57.85-4.6,4.78-7.99,8.3-11.38,11.82,2.82,2.71,5.74,5.32,8.42,8.15,2.09,2.21,3.87,4.71,5.79,7.07Zm-133.51,41.91c5.34-8.95,11.38-2.38,17.81,.3,2.62,1.09,6.63,1.54,8.75,.23,1.59-.98,2.47-6.14,1.31-7.8-1.52-2.19-5.23-3.39-8.2-3.97-14.67-2.84-29.38-5.43-44.12-7.92-4.98-.84-10.06-1.14-15.09-1.68,.69,8.76,8.58,6.39,13.37,8.08,8.62,3.04,9.49,5.17,4.93,13.25-3.15,5.58-5.84,11.68-7.33,17.88-2.91,12.13,1.93,16.39,14.65,13.84q-6.68-11.12-2.09-17.53c3.07,12.54,13.08,13.05,22.43,12.26,2.48-.21,5.64-7.08,6.17-11.18,.47-3.69-2.24-7.8-3.55-11.72-1.01,.24-2.02,.49-3.03,.73-2.21,4.36-4.43,8.73-7.84,15.44-3.42-6.92-6.37-11.27-7.69-16.07-1.21-4.39-.67-9.26-.9-13.92,3.09,2.9,6.18,5.79,10.43,9.77Zm190.57,5.64c-7.65,7.27-15.49,13.71-21.92,21.33-2.45,2.91-3.58,9.54-1.93,12.72,2.97,5.72,24.96,1.31,26.58-5.32,2.69-11.01,4.45-22.27,5.99-33.51,.29-2.11-2.44-6.7-3.51-6.62-9.72,.72-19.58,1.51-28.9,4.09-1.97,.55-1.86,8.51-2.82,13.03-.09,.44-.97,.71-2.34,1.63-1.54-4.04-2.99-7.83-4.43-11.63-.92,.16-1.84,.32-2.77,.49,.48,10.05,.96,20.09,1.44,30.14,17.79-27.38,24.68-32.67,34.63-26.35Zm164.43,382.55c3.84-3.27,10.51-7.8,15.64-13.67,4.94-5.66,3.82-11.91-3.77-14.87-9.67-3.76-19.52-7.19-29.55-9.79-2.23-.58-6.95,2.2-8.05,4.58-6.29,13.67,7.19,33.84,25.72,33.75Zm-260.71-324.91c.05,7.32,13.55,22.65,18.43,19.63,8.61-5.35,15.16-14.01,22.58-21.29-8.18-6.75-15.66-14.77-24.8-19.76-5.03-2.75-16.26,12.82-16.2,21.43Zm134.27-206.78c2.04-21.6,3.89-41.26,5.75-60.92-1-.36-1.99-.72-2.99-1.07-7.26,6.79-14.55,13.54-21.72,20.42-.85,.82-1.25,2.28-1.51,3.52-2.05,10.01,7.72,30.35,20.47,38.05Zm-112.35,277.38c6.67-8.33,17-15.73,16.28-21.81-.78-6.51-12.14-16.5-18.56-16.26-6.33,.23-17.15,11.46-17.02,17.67,.13,6.33,11.21,12.42,19.3,20.4Zm-40.01,152.04c-.54-4.96-1.27-9.7-1.5-14.46-.25-5.21,.02-10.45-.02-15.67-.07-8.62-19.59-19.58-26.88-14.93-1.76,1.12-3.27,3.28-3.98,5.29-3.37,9.47,1.58,17.13,11.63,18.16,4.67,.48,9.38,.53,14.63,.8-9.16,16.92-8.42,19.54,6.13,20.81Zm103.93-19.39c4.66-1.51,10.76-2.91,16.35-5.45,7-3.19,7.92-9.64,1.32-13.49-7.22-4.21-15.04-13.24-24.31-2.46-.92,1.07-3.42,.75-4.42,1.8-2.34,2.45-5.61,5.14-6.01,8.08-1.17,8.57,3.15,11.41,17.07,11.52Zm-34.48-158.57c7.42-13.23,6.75-91.45-.34-99.2-3.51,4.61-3.59,89.99,.34,99.2Zm-69.24,943.09c-5.4,3.84-11.08,7.31-16.06,11.59-4.02,3.46-3.53,6.91,1.44,10.02,11.59,7.27,24.95,6.31,34.27-3.62,1.52-1.61,1.89-7.19,.89-7.81-6-3.65-12.57-6.38-20.54-10.19Zm116.32,.7c-6.76,2.4-11.89,3.66-16.37,6.1-1.58,.86-2.84,5.11-2.1,6.96,5.45,13.73,27.93,17.58,37.19,6.51,.97-1.16,1.46-4.43,.78-4.98-6.44-5.17-13.19-9.96-19.49-14.6Zm-153.9-1061.02c-.86,1.11-1.72,2.21-2.58,3.32,3.83,5.33,6.61,13.21,11.76,15.34,6.7,2.77,15.31,1.36,23.04,.86,1.95-.12,4.92-3.44,5.2-5.58,.35-2.71-1.11-7.92-2.6-8.23-11.5-2.43-23.19-3.93-34.82-5.72Zm15.53,209.89c-1.05,3.3-4.02,7.59-3.14,10.85,2.1,7.8,5.45,15.44,9.48,22.46,1.55,2.69,6.34,3.52,9.66,5.2,1.39-2.85,3.7-5.6,4.02-8.57,1.54-14.2,.57-27.3-20.02-29.95Zm-.89-165.52c3.25-.18,6.28,.47,8.34-.66,2.51-1.37,5.38-3.96,5.97-6.51,.71-3.1,.04-9.17-1.48-9.68-8.41-2.85-17.25-4.44-25.97-6.31-.7-.15-1.81,.69-2.44,1.35-5.68,5.88-2.3,18.48,5.56,20.39,3.46,.84,7.08,1.03,10.02,1.43Zm155.56,187.36c.42-.14,.84-.27,1.25-.41-1.36-3.72-2.71-7.45-4.07-11.17-3.51,2.02-7.35,3.64-10.46,6.16-3.25,2.63-6.05,5.92-8.6,9.27-3.05,4.01-3.01,7.25,2.26,10.17,18.04,9.97,18.23,9.98,19.61-11.09,.06-.97,0-1.95,0-2.93Zm4.75-349.24c-8.68,5.73-5.21,12.36-.92,18.18,1.42,1.92,5.93,2.84,8.49,2.18,1.56-.4,2.96-4.73,2.91-7.27-.08-3.85-1.72-7.63-2.26-11.5-1.48-10.53-8.53-18.19-20-21.34-2.45,10.24,.34,15.13,11.78,19.76Zm-151.79,437.21c11.09,.29,15.38-3.35,11.88-11.51-1.37-3.2-7.28-5.85-11.33-6.18-6.7-.54-16.17-4.52-18.04,7.04-1.14,7.04,4.76,10.31,17.49,10.64Zm-53.17-458.57c1.18,.02,2.36,.04,3.54,.06,0-3.56,.01-7.12,0-10.68-.03-7.47-1.37-15.25,.29-22.33,1.32-5.65,3.86-9.76-2.04-14.31-3.96-3.05-6.81-7.53-10.16-11.36-.62,.52-1.24,1.04-1.86,1.56,3.41,19.02,6.83,38.04,10.24,57.06Zm132.28,235.47c-1.61-5.07-3.09-9.73-4.57-14.39-4,2.88-8.01,5.74-11.98,8.65-.78,.57-1.38,1.38-2.08,2.06-3.82,3.74-3.92,7.53,.5,10.64,4.36,3.07,9.08,5.63,13.64,8.41,1.46-5.01,2.91-10.01,4.48-15.37Zm-52.24,61.54c1.04,.68,2.07,1.36,3.11,2.04,5.52-4.2,11.2-8.22,16.41-12.77,.98-.86,.94-4.7-.08-5.75-4.66-4.76-9.83-9.02-14.82-13.45-.93,.27-1.86,.55-2.79,.82-.61,9.71-1.22,19.41-1.83,29.12Zm80.54,960.28c11.22,9.06,21.34,6.11,31.16,3.73,2.4-.58,4.29-3.25,6.42-4.96-2.13-2.11-3.91-5.38-6.44-6.14-10.77-3.23-19.98,1.23-31.14,7.37Zm-27.56-956.88c0-7.26,.37-10.83-.08-14.28-.72-5.51-1.98-10.95-3.02-16.43-5.06,3.23-10.14,6.45-15.18,9.72-.53,.34-1.26,.89-1.31,1.39-.15,1.76-.79,4.45,.08,5.16,5.6,4.54,11.56,8.66,19.51,14.45Zm.51-115.47c-4.08-4.75-8.96-11.8-9.91-11.3-5.36,2.79-9.77,7.39-14.5,11.37,5.21,4.03,10.42,8.07,15.63,12.1,2.47-3.42,4.94-6.84,8.79-12.18Zm22.65,164.21c-2.39,19.57-1.17,22.08,11.24,22.91,2.86,.19,7.41-1.79,8.46-4.04,1.08-2.3-.15-7.51-2.19-9.09-4.89-3.79-10.85-6.21-17.51-9.79Zm-7.43-526.01c8.98-2.53,11.07-34.48,0-47.65v47.65Zm-29.81,253.13c-.08-1.03-.15-2.06-.23-3.09-3.95-1.4-7.94-4.04-11.84-3.89-5.04,.19-10.01,2.59-15.01,4.04,2.08,3.51,3.5,7.82,6.47,10.24,2,1.63,6.62,1.62,9.27,.49,4.13-1.76,7.59-5.1,11.34-7.78Zm46.48-93.44c.2,1.4,.4,2.81,.59,4.21h28.71c-1.03-4.26-2.42-10.03-3.92-16.23-9.25,4.38-17.32,8.2-25.39,12.02Zm-225.07-13.18c-1.42,.25-2.84,.5-4.25,.75,2.31,13.58,4.36,27.22,7.17,40.7,.52,2.49,4.12,4.34,6.3,6.49,.67-.7,1.33-1.39,2-2.09-3.74-15.29-7.48-30.57-11.21-45.86Zm136.5,1294.88c.56,.54,1.12,1.09,1.67,1.63,3.13-3.02,6.27-6.04,9.4-9.06-3.22-2.02-6.33-4.24-9.7-5.98-1.33-.69-3.31-.76-4.8-.36-4.35,1.15-8.59,2.67-12.88,4.04,3.82,3.05,7.53,6.27,11.52,9.07,1.17,.82,3.16,.47,4.77,.66Zm188.81-1146.23c-1.99,3.4-3,4.34-2.83,4.95,3.07,10.97,5.91,22.03,9.78,32.73,.74,2.04,5.6,2.59,8.56,3.83,.79-.99,1.59-1.98,2.38-2.96-5.69-12.27-11.39-24.54-17.88-38.54Zm-118.28,1102.24c-.28,8.74-7.89,16.27,1.61,20.8,3.33,1.59,13.13-1.97,13.71-4.57,2.18-9.83-7.82-10.63-15.32-16.23Zm-65.92-970.39c1.16,.66,2.33,1.31,3.49,1.97,4.55-3.94,9.25-7.71,13.52-11.93,.92-.91,1.01-4.44,.23-4.99-3.64-2.58-7.63-4.75-11.74-6.5-.69-.29-3.51,2.07-3.73,3.46-.92,5.95-1.24,11.99-1.77,18Zm-187.81-47.95c-1.15-1.2-2.3-2.4-3.45-3.6-4.63,1.85-9.92,2.89-13.63,5.89-1.98,1.59-1.23,6.57-1.72,10.02,3.12,.19,7.46,1.75,9.13,.28,3.9-3.42,6.53-8.3,9.67-12.59Zm136.37,182.81c4.73-1.68,8.76-1.91,10.33-3.98,1.99-2.62,3.46-7.31,2.43-10.08-1.08-2.89-5.41-4.56-8.32-6.76-1.48,2.92-3.57,5.69-4.27,8.78-.74,3.29-.17,6.88-.17,12.04Zm53.66-279.84c5.86-6.22,10.24-10.86,14.61-15.5-4.37-3.21-8.75-6.41-14.61-10.7v26.2Zm66.7,322.63c4.59,3.95,6.77,7.43,9.19,7.61,7.55,.54,9.29-5.43,8.69-11.19-.21-1.99-5.23-5.4-7.12-4.86-3.33,.95-5.93,4.43-10.76,8.45Zm-158.41-244.48c-.15,.59-.3,1.19-.44,1.78,10.57,2.89,21.11,5.92,31.76,8.46,1.17,.28,3.01-2.26,4.54-3.49-1.52-1.78-2.91-4.95-4.58-5.1-10.39-.93-20.84-1.18-31.28-1.65Zm188.68,1000.52c3.31-3.65,5.13-5.66,6.94-7.66-5.67-2.85-11.24-5.93-17.09-8.33-1.05-.43-3.25,1.92-4.92,2.98,4.61,3.98,9.22,7.96,15.07,13.02Zm38.46,5.85c-3.41-3.7-6.56-7.63-6.91-7.4-3.92,2.63-7.41,5.9-11.02,9,2.56,2.39,5.59,7.05,7.59,6.65,3.35-.68,6.06-4.58,10.34-8.24Zm-166.07-17.76c-.34,1.83-.69,3.66-1.03,5.5,5.13,1.39,10.2,3.22,15.42,3.91,1.68,.22,3.76-2.55,5.65-3.95-1.7-2.05-3.19-5.61-5.13-5.87-4.86-.66-9.93,.18-14.91,.41Zm256.96-1050.56c-5.45-3.6-8.71-6.31-12.44-7.89-1.12-.48-3.57,2.17-5.4,3.38,2.95,3.31,5.64,6.97,9.08,9.66,.72,.57,4.22-2.4,8.77-5.16Zm-209.07,1065.65c-3.4-3-5.66-5-7.92-7-1.85,2.29-5.48,4.9-5.14,6.81,.55,3.11,3.69,5.77,5.74,8.61,2.04-2.34,4.07-4.68,7.33-8.42Zm-168.01-1144.57c4.27,1.17,6.52,2.58,8.23,2.09,3.17-.91,6.2-2.69,8.85-4.69,.62-.47-.68-4.81-.87-4.8-3.29,.29-6.68,.61-9.76,1.72-1.82,.65-3.15,2.68-6.46,5.68Zm-32,85.75c.4,1.37,.8,2.74,1.2,4.11,4.97-1.45,9.95-2.89,14.92-4.34-.66-1.87-.9-5.03-2.04-5.39-6.13-1.95-11.24-.48-14.09,5.62Zm361.26-94.46l-1.37,6.32c3.94,1.22,7.88,2.43,11.82,3.65,.49-2.91,.99-5.81,1.48-8.72-3.98-.42-7.96-.84-11.94-1.25Zm-109.4,354.42c1.29,1.03,2.57,2.06,3.86,3.09,3.53-2.89,7.06-5.79,10.59-8.68-3.05-1.74-6.1-3.48-9.15-5.22-1.76,3.6-3.53,7.2-5.29,10.8Zm177.59-182.89c2.67-4.01,5.34-6.61,4.85-7.55-1.67-3.17-4.46-5.75-6.83-8.56-1.52,1.65-4.6,3.75-4.27,4.86,.96,3.27,3.26,6.15,6.25,11.25Zm-286.94,980.08c-2.33,3.64-4.61,5.76-4.83,8.08-.14,1.51,2.71,3.31,4.22,4.98,2.12-2.06,4.78-3.85,6.06-6.34,.42-.82-2.73-3.47-5.44-6.71Zm-40.57-1149.28c1.76,.25,3.52,.51,5.28,.76,.69-3.56,1.38-7.11,2.07-10.67-2.01-.28-4.02-.57-6.02-.85-.44,3.59-.89,7.17-1.33,10.76Z"/>
  <path d="M591.67,1851.25c-3.41,3.36-6.24,8.15-10.34,9.81-9.81,3.97-16.2,14.16-15.14,27,.86,10.43,9.09,18.8,19.16,20.7,4.52,.85,9.32,2.68,12.95,5.44,12.52,9.53,38.71,1.72,42.88-13.46,.61-2.21-.75-5.52-2.24-7.57-1.57-2.17-4.39-3.44-5.47-4.22,2.58-4.89,6.32-8.78,6.26-12.6-.11-6.51-6.76-6.91-11.54-9.63-6.61-3.75-11.21-11.05-17.35-17.55,8.47,2.23,15.87,4.02,23.17,6.2,1.62,.48,3.43,2.01,4.15,3.53,4.43,9.34,9.02,18.66,12.57,28.35,1.33,3.65,.61,8.4-.26,12.41-.95,4.36-3,8.52-4.84,12.65-3.39,7.6-6.17,15.69-10.88,22.4-1.97,2.81-8.15,3.32-12.51,3.65-8.81,.67-15.82,2.17-12.47,13.67,.2,.69-.67,1.7-1.86,4.43-2.77-2.95-5.42-4.92-6.95-7.55-6.66-11.4-10.67-12.11-21.15-3.29-.69,.58-1.69,.78-2.17,.98-2.76-6.13-4.11-13.48-8.5-17.6-3.81-3.57-11.05-3.49-16.74-5.01q6.95-18.67-14.44-34.92c5.96-5,18.49,1.47,19.49-10.1,.27-3.15-5.87-6.85-9.22-10.46,11.36-3.92,33.81,2.12,27.13-23.46,5.25,2.04,10.87,4.21,16.48,6.39,0,0-.17-.18-.17-.18Z"/>
  <path d="M774.11,1239.65c2.16,2.84,4.3,5.69,6.48,8.51,1.53,1.98,3.12,3.92,4.68,5.87-2.48-.03-4.97,.1-7.42-.14-1.2-.12-2.33-.9-4.45-1.77-8.82,13.5-16.56,27.6-26.43,40.01-20.51,25.8-42.09,50.75-63.33,75.97-26.27,31.19-47.72,65.05-53.34,106.29-2.63,19.3-2.66,39.04-2.51,58.58,.05,6.86,4.15,13.7,8.44,20.32,3.04-31.47,3.45-62.83,13.48-92.59,1.1,.11,2.2,.21,3.3,.32-.14,2.93-.16,5.86-.43,8.77-1.29,14.01-.84,27.09,10.48,38.11,4.02,3.91,4.5,11.35,6.97,17.01,7.42,17.02,14.25,34.36,22.94,50.72,3.61,6.79,11.33,11.4,17.62,17.42-3.56,2.88-8.51,1.66-12.16-3.25-7.01-9.42-14.38-18.78-19.84-29.1-9.41-17.81-17.46-36.34-26.14-54.55-.66-1.38-1.76-2.54-2.65-3.81-.99-.02-1.97-.05-2.96-.07-1.32,12.65-3.28,25.28-3.71,37.96-.26,7.64,2.01,15.35,2.84,23.06,.22,2.01-.69,4.14-1.08,6.21-2.21-.88-5.51-1.14-6.45-2.76-4.88-8.44-11.5-16.78-13.24-25.97-10.21-53.75,3.98-103.21,33.49-147.38,18.17-27.19,43.16-49.72,63.16-75.82,17.21-22.46,31.7-47.01,47.41-70.62,1.62-2.43,3.37-4.78,5.05-7.17,0,0-.19-.15-.19-.15Z"/>
  <path d="M1244.31,823.39c-4.13-6-7.37-12.96-12.59-17.78-9.31-8.59-16.51-16.6-13.66-31.05,2.18-11.07,.93-22.82,1.27-34.27,.09-3.06,.44-6.11,.67-9.17,.89,0,1.78,.01,2.67,.02,.34,3.96,1.07,7.92,.95,11.86-.37,11.44-.91,22.89-1.72,34.31-.68,9.57,2.42,17.23,9.88,23.32,5.05,4.12,9.8,8.61,14.64,12.99,5.02,4.54,5.85,8.16-2.28,9.61,0,0,.18,.15,.18,.15Z"/>
  <path d="M672.99,1423.65c-2.45,26.44-4.96,53.41-7.35,79.22-7.3-9.94-2.62-65.04,7.35-79.22Z"/>
  <path d="M1550.02,1668.72c-.67-.32-1.33-.65-2-.97"/>
  <path d="M593.41,1879.21c2.93,2.57,5.86,5.14,8.79,7.71-.14,.98-.29,1.96-.43,2.93-3.28,.31-7.77,2.04-9.51,.55-2.05-1.76-1.72-6.3-2.43-9.64,1.19-.52,2.38-1.03,3.58-1.55Z"/>
  <path d="M1153.98,1491.47c-2.08,.76-5.84,1.28-5.98,2.3-1.13,8.18-8.2,9.67-13.56,10.21-9.82,1-20.24,1.28-29.7-1.06-6.59-1.62-11.65-5.29-17.24,1.38-1.55,1.85-4.41,3.11-6.87,3.57-5.04,.94-11.77,3.43-15.02,1.21-6.92-4.73-9.32-12.73-4.16-21.78,.9,3.47,1.62,7,2.72,10.4,2.64,8.17,7.15,9.51,13.71,4.35,2.81-2.21,6.38-3.68,8.65-6.32,6.52-7.57,12.17-4.35,18.64,.16,10.23,7.13,25.41,5.34,33.98-3.3,9.11-9.18,2.95-18.85,.9-28.34-.81-3.76-2.2-7.4-3.33-11.09,1.36-.65,2.72-1.29,4.08-1.94,1.88,3.32,4.5,6.44,5.51,10.01,2.85,10.03,5.05,20.25,7.5,30.4,0,0,.17-.19,.17-.19Z"/>
  <path d="M988.71,1625.24c-5.34,8.47-12.38,4.88-17.54,1.02-7.54-5.64-13.76-5.27-21.98-1.42-22.46,10.52-38.57,2.15-55.37-16.09-6.23-6.76-3.44-26.55,5.52-34.96-1.07,5.16-1.74,10.43-3.29,15.44-3.17,10.24,.29,17.29,8.58,23.69,13.57,10.49,27.47,14.19,43.7,6.62,9.14-4.27,15.57-10.54,18.74-20.1,1.52-4.59,2.99-9.19,4.49-13.79l3.04,.64c-1.35,5.72-2.17,11.63-4.15,17.12-5.4,14.96-2.03,20.3,14.5,21.83,1.3,.12,2.61,.12,3.92,.18,0,0-.16-.18-.16-.18Z"/>
  <path d="M1093.67,1692.12c4.65-19.68,28.24-29.03,42.21-19.44,5.08,3.48,10.51,6.45,15.91,9.72,.42,15.21,1.18,16.34,12.5,18.28-2.64,1.55-5.42,4.51-7.87,4.25-2.4-.25-6.09-3.56-6.39-5.89-1.23-9.73-6.77-15.57-14.43-20.92-11.12-7.76-17.53-8.05-27.84,1-4.13,3.62-8.09,7.45-14.08,13Z"/>
  <path d="M1206.67,1676.83c-1.72,1.54-3.79,3.39-5.81,5.2-14.71-11.95-18.14-11.77-31.27,2.29-4.58,4.9-7.23,4.58-8.79-.78,13.84-14.61,29.14-15.92,45.88-6.71Z"/>
  <path d="M833.53,1527.18c4.08-9.23,8.16-18.46,12.24-27.69,1.51,.79,3.01,1.58,4.52,2.37-5.64,8.4-11.27,16.79-16.91,25.19,0,0,.15,.13,.15,.13Z"/>
  <path d="M1123.1,1542.12c-1.31-8.12-2.62-16.23-3.93-24.35,1.15-.18,2.31-.36,3.46-.54,1.27,8.12,2.53,16.25,3.8,24.37-1.11,.17-2.22,.35-3.33,.52Z"/>
  <path d="M1079.07,1692.07c3.28,1.29,7.01,1.99,9.67,4.06,1.74,1.35,1.92,4.69,2.8,7.15-2.52-.07-6.35,.86-7.3-.4-2.37-3.12-3.43-7.23-5.01-10.95,0,0-.16,.14-.16,.14Z"/>
  <path d="M885.1,1568.56c-4.36,5.93-8.72,11.86-13.08,17.79-1.19-.89-2.39-1.78-3.58-2.67,4.51-5.8,9.03-11.6,13.54-17.4,1.04,.76,2.08,1.52,3.13,2.28Z"/>
  <path d="M1215.96,1448.98c-6.59-4.64-13.45-9.59-11.71-18.38,.98-.45,1.96-.91,2.94-1.36,2.92,6.58,5.84,13.16,8.76,19.74Z"/>
  <path d="M1236.92,1366.5c17.66,2.73,29.34,17.87,24.92,32.16-5.05-13.32-11.49-25.52-24.92-32.16Z"/>
  <path d="M1252.23,1253.93c-6.09,10.44-9.06,10.53-15.36,.38-2.62-4.23-5.09-8.55-7.79-13.11,8.41,4.66,15.86,8.79,23.31,12.92,0,0-.16-.19-.16-.19Z"/>
  <path d="M923.25,1462.31c-2.54,6.79-5.08,13.59-7.62,20.38-1.36-.44-2.72-.88-4.08-1.32,2.08-6.97,4.16-13.94,6.24-20.91,1.82,.62,3.64,1.23,5.45,1.85Z"/>
  <path d="M908.49,1172.07c8.43,2.26,16.86,4.52,25.73,6.89-8.79,7.66-18.14,5.87-25.73-6.89Z"/>
  <path d="M803.19,1367.58c-4.78,5.42-9.11,11.32-14.42,16.16-13.59,12.41-14.79,16.53-8.1,34.12,.31,.8,.18,1.77,.27,2.87-9.79-5.58-14.25-16.09-7.79-26.51,6.93-11.18,17.35-20.2,26.25-30.16,1.26,1.17,2.52,2.34,3.77,3.51Z"/>
  <path d="M1016.55,1428.59l10.19,12.04c-3.92,2.72-7.67,7.12-11.81,7.51-2.38,.23-6.76-5.72-7.62-9.48-.62-2.7,3.08-6.4,4.86-9.66l4.39-.42Z"/>
  <path d="M1011.05,1363.41c4.45,5.86,9.43,9.57,9.34,13.16-.08,3.08-7.35,9.15-8.98,8.42-4.25-1.91-8.02-6.41-10.07-10.78-.63-1.35,4.89-5.59,9.71-10.79Z"/>
  <path d="M1006.5,1296.93c4.29-6.13,8.99-4.36,12.84,.03,4.07,4.64,2.73,16.92-2.36,18.27-4,1.07-10.6-.15-13.21-2.98-4.7-5.07-6.08-11.86,2.93-15.48-.72,2.11-2.34,4.43-1.93,6.29,.6,2.67,2.21,5.64,4.33,7.21,1,.74,6.06-1.51,6.04-2.35-.05-2.78-1.05-5.91-2.69-8.18-1.12-1.56-3.91-1.92-5.95-2.81Z"/>
  <path d="M1154.88,1140.44c-4.12,1.5-8.13,3.68-12.37,4.34-6.05,.95-12.28,1.07-18.41,.9-1.49-.04-3.48-2.35-4.1-4.04-.28-.77,2.19-3.66,3.47-3.7,10.09-.32,20.2-.18,30.3-.18,.37,.89,.74,1.78,1.11,2.67Z"/>
  <path d="M1145.72,1107.57c-5.85,8.26-10.78,15.21-15.71,22.17l-3.02-.71c.36-4.42-.85-11.32,1.41-12.76,4.98-3.18,7.72-12.1,17.31-8.69Z"/>
  <path d="M1118.67,1106.88c-.25,5.55-.49,11.09-.74,16.64-1.17-.03-2.34-.05-3.5-.08v-16.76c1.41,.07,2.83,.14,4.24,.21Z"/>
</svg>