<?xml version="1.0" encoding="UTF-8"?>
<svg id="Layer_1" data-name="Layer 1" xmlns="http://www.w3.org/2000/svg" viewBox="0 0 1980 1980">
  <path d="M1789.03,2488.6c-.7,1.56-1.3,3.17-2.16,4.64-.39,.67-1.28,1.05-4.71,3.68-3.31-4.35-7.06-8.94-10.44-13.78-5.11-7.33-10.09-5.4-14.26,.45-7.67,10.77-15.11,21.74-21.97,33.04-1.15,1.89,.33,6.46,2.01,8.77,3.96,5.45,8.78,10.27,15.65,18.07,2.64-6.15,7.72-12.36,6.28-16.03-1.86-4.77-8.89-7.53-13.69-11.15,.61-1.35,1.22-2.7,1.83-4.04,3.81,2.01,7.67,3.93,11.4,6.07,4.73,2.7,9.37,5.58,16.46,9.84-6.98,7.01-13.58,14.38-21.13,20.59-1.55,1.27-7.95-.71-9.93-3.05-18.38-21.72-19.33-23-40.56-3.19-18.53,17.3-43.58,20.51-63.41,34.17-5.19,3.57-14.53,10.05-13.8,11.8,3.72,8.96,8.35,20.51,15.99,24.12,10.07,4.76,23.22,2.97,33.47,3.86-11.9,3.12-26.43,6.92-40.04,10.48-4.19-9.26-7.82-17.76-11.85-26.07-4.58-9.45-9.61-10.44-13.03-2.49-5.46-2.3-10.59-6.64-14.77-5.87-19.74,3.67-40.21,7.11-54.59,22.96-9.99,11.01-18.39,23.47-27.48,35.3-1.3,1.7-2.62,3.4-3.73,5.23-4.27,7-19.84,9.83-12.98,20.02,8.5,12.63,13.09,33.04,38.73,27.44-25.83,43.14-50.83,83.36-74.2,124.52-12.42,21.86-20.72,46.08-33.19,67.91-23.81,41.69-53.71,78.55-93.77,106.01-8.79,6.03-18.65,10.47-27.78,16.02-13.14,7.99-26.11,16.25-39.06,24.55-18.69,11.98-37.6,23.66-55.71,36.46-4.22,2.98-8.2,10.13-7.87,15.06,1.35,20.07,4.43,40.02,6.84,60.02,.67,5.53,1.47,11.06,1.81,16.62,2.22,36.18-6.34,50.11-39.15,65.23-24.82,11.44-50.57,12.56-76.66,6.71-26.35-5.91-42.58-27.29-41.2-54.36,.78-15.28,3.63-30.45,5.5-45.68,.44-3.61,.72-7.23,1.45-14.7-26.91,19.72-54.97,24.84-84.17,25.88,11.22-3.68,22.52-7.13,33.64-11.1,16.33-5.83,32.67-11.68,48.68-18.31,3.84-1.59,7.27-5.79,9.41-9.62,13.47-24.14,16.51-51.2,20.34-77.88,.43-3.01-4.62-9.53-7.7-9.92-63.58-8.05-117.23-35.92-163.42-79.68-5.8-5.49-13.89-8.55-20.92-12.74-1.15,8.23-3.76,16.56-3.19,24.67,3.12,44.32,15.01,86.81,29.36,128.57,2.21,6.42,8.76,12.88,14.97,16.08,15.16,7.83,31.32,13.72,47.04,20.48,6.1,2.62,12.1,5.47,18.15,8.21-.58,1.46-1.16,2.91-1.74,4.37-23.07-8.47-46.13-16.94-71.97-26.43,4.53,13.26,8.64,25.47,12.88,37.63,.92,2.65,3.97,6.12,3.15,7.58-7.3,12.94-4.66,25.65-2.81,39.47,1.08,8.07-4.6,19.81-11.06,25.63-21.36,19.25-46.42,28.15-75.88,20.59-19.2-4.93-37.81-9.62-53.08-23.91-15.21-14.23-16.93-32.69-17.07-50.77-.11-13.92-5.37-20.58-16.8-26.78-64.41-34.94-104.97-89.08-125.26-159.01-.67-2.3-.58-4.82,.76-8.25,22.02,76.82,69.7,131.61,141.64,169.47,2.76-14.87,6.01-28.01,7.52-41.34,3.46-30.61,6.07-61.31,9.01-91.98,.16-1.7-.35-3.78,.44-5.07,13.8-22.49-3.62-42.32-5.69-63.41-.21-2.14-6.83-5.88-9.49-5.17-11.84,3.15-24.01,6.31-34.8,11.9-41.96,21.75-84.13,24-126.82,3.24-5.71-2.78-9.87-8.75-13.62-14.83,46.63,27.61,92.47,26.45,140.7,2.5-11.98-17.33-34.52-22.6-38.38-47.52,9.8,9.13,16.25,17.46,24.68,22.43,11.08,6.53,23.37,11.75,35.81,15.02,9.4,2.47,15.6-2.8,13.48-14.07-5.7-30.31-11.19-60.66-16.97-90.96-.57-2.98-2.6-5.68-4.35-9.35-21.01,21.17-44.73,37.85-51.82,68.09-1.14-.44-2.27-.88-3.41-1.32-.49-2.54-2.09-5.51-1.29-7.54,5.9-15.07,10.99-30.49,25.06-40.89,10.63-7.86,20.08-17.32,30.22-25.86,14.25-12.01,18.74-12.34,33.59-1.8,10.94,7.76,21.81,15.67,32.11,24.24,10.12,8.41,20,6.26,29.64,.38,6.45-3.93,11.36-5.95,18.28-.23,3.28,2.71,10.78,3.95,14.31,2.04,10.41-5.63,15.26,.31,21.36,6.84,13.36,14.3,26.83,18.02,39.89,9.91,6.04-3.74,9.97-10.88,16.9-16.41-1.84,4.76-2.39,10.89-5.73,14.04-16.82,15.82-30.27,36.07-56.71,39.01-14.63,1.63-20.43,29-8.95,40.41,46.22,45.89,99.62,79.46,164.04,93.41,22.29,4.83,38.2-5.66,40.09-30.64,3.26-43.11,4.04-86.42,5.24-129.66,.4-14.41-11.6-17.25-22.86-19.87,5.91-7.13,9.5-7.3,17.69-1.34,18.52,13.46,34.41,13.04,53.01-.67,2.79-2.06,7.29-1.78,11.01-2.58,.4,1.73,.81,3.46,1.21,5.2-13.03,4.87-25.77,10.96-39.2,14.25-11.05,2.71-14.54,8.39-14.75,18.79-.62,31.66-1.58,63.32-2.63,94.98-.31,9.42-1.29,18.82-2.11,28.21-.66,7.5,2.17,11.78,9.43,7.43,20.87-12.52,36.35-4.49,50.81,11.38,8.55,9.38,16,7.2,18.74-5.32,10.06-45.97,20.18-91.94,29.52-138.07,4.64-22.92,3.63-23.53-18.22-31.18-13.34-4.67-20.33-18.18-18.56-39.85,2.18,6.19,3.68,9.39,4.42,12.75,4.01,18.19,18.9,23.07,33.88,27.24,2.87,.8,7.05-1.91,10.23-3.71,7.76-4.39,15.29-9.2,22.91-13.85,0,0-.24-.24-.24-.24-3.3,4.19-6.45,8.51-9.93,12.54-4.38,5.05-10.83,9.12-13.24,14.92-7.86,18.91-3.27,25.73,16.77,23.99,40.89-3.57,81.67-8.31,122.5-12.48,3.27-.33,6.61-.04,9.92-.04,.24,1.13,.47,2.25,.71,3.38-16.4,3.72-32.62,9.03-49.23,10.81-31.89,3.41-64.03,4.45-95.97,7.39-5.17,.48-13.33,4.89-14.3,8.89-8.26,34.11-17.32,68.27-21.77,102.97-3.22,25.06,.23,50.98,.74,78.91,21.66-7.77,38.74-16.59,51.27-34.4-7.98,1.08-15.96,2.17-23.94,3.25-.48-1.46-.95-2.92-1.43-4.38,3.13-1.87,6.1-4.97,9.42-5.42,87-11.91,140.95-68.39,185.27-137.63,8.97-14.02,16.43-29.03,24.29-43.74,1.68-3.15,2.06-7.01,3.9-13.6-18.79,7.99-34.93,14.86-51.08,21.72-.65-1.18-1.29-2.36-1.94-3.55,3.57-2.1,7.14-4.23,10.73-6.31,14.72-8.54,29.81-16.5,44.09-25.72,22.97-14.83,32.77-39.89,45.93-62.17,4.09-6.93,6.78-14.8,9.2-22.53,.86-2.75-.98-6.34-1.59-9.55-2.39,1.94-6.54,3.62-6.88,5.87-2.71,17.95-15.4,23.13-30.64,28.26-15.99,5.38-30.59,14.82-45.99,22.07-9.95,4.68-20.08,9.11-30.45,12.73-9.56,3.34-19.51,5.6-29.36,8.04-2.47,.61-5.21,.09-8.64-2.53,4.06-2.23,8.12-4.46,13.45-7.39-1.96-3.2-3.03-6.69-5.39-8.47-9.9-7.49-19.41-14.75-22.25-28.21-.48-2.26-8.64-4.76-12.75-4.09-35.88,5.8-71.68,12.12-107.44,18.65-14.72,2.69-29.41,5.78-43.8,9.8-3.16,.88-6.1,6.19-7.19,10.02-1.54,5.41-1.27,11.33-1.77,17.04-1.27,.1-2.54,.2-3.82,.3-.71-4.53-2.22-9.11-1.97-13.59,.63-11.47-5.16-12.88-14.49-10.79-15.42,3.45-30.89,6.69-46.4,9.66-7.36,1.41-17.48-.56-21.6,3.65-4.21,4.3-2.32,14.36-3.63,21.8-1.59,9.03-3.73,17.95-5.89,28.16,8.08,1.05,16.93,2.21,25.77,3.36-.23,1.98-.45,3.95-.68,5.93-8.34-1.06-17.78-.05-24.75-3.72-8.74-4.61-15.68-4.15-24.23-1.03-19.06,6.96-40.1-2.22-48.5-23.53,4.01,2.78,8.43,5.12,11.96,8.42,13.19,12.31,25.33,15.88,35.61,9.92,19.06-11.04,31.72-31.54,27.63-46.44-.78-2.83-6.15-6.12-9.5-6.23-23.91-.79-47.86-.22-71.76-1.24-19.2-.82-38.45-2.46-57.47-5.19-36.26-5.19-72.67-10-108.43-17.71-24.86-5.36-49.16-14.21-72.95-23.47-31.27-12.17-63.35-23.59-92.19-40.33-27.42-15.91-51.4-37.89-76.29-57.94-9.95-8.02-18.63-17.73-27.31-27.2-17.5-19.08-39.11-32.58-62.89-40.89-16.52-5.77-35.09-5.67-52.75-8.19-3.28-3.42-5.95-8.09-9.94-10.04-15.7-7.65-32.31-13.52-47.64-21.8-17.06-9.2-33.1-20.3-49.46-30.5-11.92,14.46-12.74,22.94-5.17,35.32,10.47,17.12,22.95,5.46,34.14,2.53,3.79,3.16,7.48,8.51,10.05,8.02,14.65-2.79,14.78,6.73,16.13,16.53,2.14,15.47,12.45,20.55,26.71,13.42,8.63-4.32,16.99-9.18,25.47-13.79-5.06,18.47-3.76,20.04,15.66,17.82,7.65,9.02,4.3,29.19,24.89,26.53,11.63-1.5,15.97-4.55,21.59-17.32,2.21,.48,6.08,.29,6.7,1.63,5.17,11.01,12.82,22.04,13.78,33.56,1.55,18.68,11.02,30.77,29.93,30.07,7.43-.27,12.8,.43,16.12,8.88,1.9,4.84,7.56,9.38,12.6,11.51,7.56,3.2,11.53,7.2,12.69,15.68,2.72,19.95,9.77,24.07,28.71,18.29,6.07-1.85,12.12-3.77,15.52-4.82,5.84,8.33,11.26,15.48,15.99,23.06,2.37,3.8,3.97,8.26,5.07,12.64,3.04,12.06,10.98,17.12,22.88,13.88,7.31-1.99,14.56-4.21,23.18-6.72-.31,14.04,5.86,20.56,18.14,21.49,2.35,.18,5.2,1.56,6.76,3.33,7.2,8.16,14.03,16.65,19.83,27.84-4.06-2.32-7.92-5.16-12.23-6.82-6.79-2.62-14.72-7.61-20.69-6.01-18.38,4.9-36.05,12.44-55.8,19.61,15.04,18.72,32.09,28.14,55.81,23.05,.17,1.13,.34,2.25,.51,3.38-2.73,1.71-5.27,4.37-8.23,4.98-45.58,9.42-81.94,30.66-98.21,74.29-7.42-3.92-14.36-8.46-21.91-11.43-26.34-10.36-45.15-28.86-60.3-51.56,.76-.84,1.51-1.68,2.27-2.53,7.85,7.53,15.36,15.47,23.64,22.5,13.34,11.32,26.29,24.25,45.75,23,5.01-.32,12.18-2.31,14.36-5.94,14.41-23.99,38.1-35.02,61.64-46.5,1.49-.73,2.91-1.58,4.79-2.62-10.82-9.54-20.81-19.16-31.75-27.53-3.5-2.68-9.63-3.22-14.36-2.75-27.82,2.79-55.47,5.21-82.38-5.78-2.37-.97-7.51,.38-8.92,2.38-5.07,7.2-11.67,14.75-12.91,22.89-1.84,12.12-8.8,17.1-18.13,22.27-13.8,7.65-27.64,15.58-40.15,25.12-13.07,9.95-12.72,19.49-.84,31.11,17.83,17.43,39.69,27.26,64.12,29.55,22.28,2.09,45.45,5.96,66.02-11.19,2.18,11.78-5.44,15.84-12.13,17.22-14.13,2.9-28.88,6.08-43.03,4.92-29.55-2.42-56.85-12.96-78.69-33.68-5.84-5.54-7.66-15.31-11.77-24.06-2.62,.96-5.62,2.63-8.8,3.11-8.6,1.3-18.2,4.99-25.74,2.56-23.09-7.46-46.38-15.38-64.12-33.67-3.06-3.15-7.89-5.36-12.27-6.3-29.3-6.32-53.76-20.89-75.85-40.92-13.06-11.85-28.19-21.42-45.63-34.42,8.13,25.92,22.82,43.2,37.58,62.66,3.04-6.21,4.93-10.07,6.88-14.06,1.7,1.07,3.02,1.52,3.01,1.95-.45,34.17,23.87,55.44,43.9,76.9,25.86,27.72,56.39,51.08,85.01,76.2,2.13,1.87,5.02,2.89,8.85,3.51-17.6-32.67-39.38-63.48-39.43-102.95,12.28,45.54,34.24,85.89,67.11,119,32.95,33.19,73.35,55.29,119.77,68.7-31.55-34.05-54.44-71.88-55.43-119.75,1.6,5.2,4.39,10.35,4.62,15.62,1.34,31.39,21.72,52.98,38.59,76.35,4.5,6.23,10.63,11.28,14.99,17.58,2.66,3.85,3.38,9.05,4.98,13.64-4.64,.7-9.65,2.88-13.87,1.86-40.43-9.85-74.84-30.94-106.22-57.74-9.06-7.74-18.63-15.37-29.12-20.84-46.58-24.32-82.26-61.18-116.16-100.01-18.3-20.95-37.88-41.45-52.31-64.97-22.78-37.11-41.67-76.62-62.29-115.07-27.99-52.19-37.86-109.98-50.64-166.75-3.7-16.42-2.56-33.94-3.63-50.96,1.27-.16,2.53-.32,3.8-.48,1.54,9.49,3.14,18.98,4.59,28.48,1.03,6.77,2.07,13.54,2.75,20.35,2.76,27.27,14.78,47.2,41.89,56.97,8.15,2.94,14.92,9.7,23.02,14.47-17.53-22.73-16.55-50.38-19.81-76.52-1.19-9.54,2.79-21.65,8.52-29.62,6.08-8.44,5.42-14.15-.43-20.09-8.97-9.12-18.88-17.32-28.37-25.93-4.21-3.82-8.36-7.69-12.54-11.54,1.15-1.51,2.3-3.01,3.46-4.52,12.81,9.23,25.61,18.46,40.74,29.36,0-15.25,.65-28.67-.14-42.01-1.53-25.64-3.86-51.22-5.89-76.83-.37-4.7-.27-9.56-1.53-14.02-1.49-5.28-3.68-14.05-6.52-14.45-5.37-.75-12.55,2.05-16.99,5.76-18.56,15.5-25.99,36.82-27.79,60.16-1.52,19.64-1.86,39.36-2.83,59.04-.17,3.53-.85,7.04-4.15,10.39,0-18.99-1.51-38.13,.3-56.95,4.13-42.98,8.56-86.01,15.47-128.61,4.43-27.34,13.96-53.81,20.35-80.87,16.04-67.97,32.07-135.96,47.23-204.14,16.87-75.88,17.96-152.23,2.94-228.54-3.04-15.44-9.48-30.21-14.19-45.34-4.2-13.47-9.21-26.8-11.97-40.57-3.13-15.61-2.5-31.54,12.66-41.6,15.27-10.13,32.36-8.65,46.05,1.33,18.9,13.77,37.84,28.69,52.75,46.49,33.05,39.46,53.91,86.04,72.32,133.96,25.02,65.14,31.92,133.45,34.58,201.89,1.62,41.65-5.27,83.65-8.69,125.47-4.51,55.07-12.04,110.04-4.68,165.44,.49,3.68,1.14,7.33,2.22,14.23,5.29-5.34,9.17-8.33,11.87-12.14,16.85-23.76,32.29-48.62,50.46-71.31,15.45-19.3,33.17-36.98,51.28-53.88,21.29-19.88,34.59-43.14,43.57-71.1,37.22-115.87,76.12-231.2,114.85-346.58,5.26-15.66,13.05-30.48,18.23-46.53-24.13,23.05-31.94,56.58-54.07,81.58,1.98-5.02,3.36-10.37,6.02-15,26.66-46.44,55-91.98,79.88-139.34,21.06-40.09,38.49-82.11,56.8-123.59,3.54-8.03,3.99-17.49,5.45-26.35,1.05-6.39,4.92-14.98-5.43-16.53-4.7-.7-10.13,3.43-16.17,5.74-3.22-7.76-7.66-18.45-12.1-29.14,.83-.51,1.66-1.02,2.49-1.53,1.82,2.71,3.05,6.39,5.58,7.95,7.23,4.45,14.64,10.08,22.63,11.44,9.46,1.61,8.63-8.46,10.53-14.66,11.16-36.48,22.33-72.96,33.4-109.46,1.31-4.3,2.04-8.78,3.32-14.37-4.51,0-7.5-.59-10.17,.09-20,5.08-34.53-9.81-51.93-14.15-8.86-2.21-17.3-6.11-23.47-8.36,6.83-14.83,14.19-30.8,21.54-46.77,.75,.12,1.5,.25,2.26,.37,0,2.51,.53,5.17-.14,7.48-.82,2.82-2.59,5.39-4.04,8.01-12.25,22.07-10.57,26.64,14.2,36.52,2.16-2.98,4.45-6.14,8-11.04,2.73,17,12.5,21.93,27.09,21.64,10.4-.21,16.17-3.91,16.92-16.81,7.1,2.34,13.04,4.29,19.52,6.42-20.34,29.28-26.35,61.99-37.17,92.75-10.71,30.44-18.35,61.66-22.9,93.51,1.22,.59,2.43,1.18,3.65,1.77,2.95-3.21,6.25-6.18,8.8-9.68,17.92-24.56,35.34-49.49,53.64-73.76,11.5-15.25,11.84-19.78,2.76-36.69-3.11-5.79-3.46-13.65-3.22-20.49,.22-6.27,3.51-12.37,4.45-18.7,2.58-17.39,.3-31.53-16.62-43.28-16.93-11.76-31.26-27.78-44.92-43.5-6.33-7.28-10.26-17.98-11.88-27.7-2.1-12.61-8.33-21.67-15.67-31.49-10.75-14.38-19.14-30.52-28.53-45.9,1.66-.99,3.31-1.98,4.97-2.97,8.64,14.73,17.28,29.46,27.21,46.4,3.12-16.62,4.42-30.56,8.5-43.62,6.73-21.57,13.17-43.7,23.78-63.41,6.99-12.99,21.22-22.03,31.95-33.07,4.74-4.87,9.44-9.96,13.14-15.62,9.57-14.64,8.87-16.67-7.11-25.01-6.45-3.36-12.87-7.29-19.79-9.04-4.03-1.02-10.56,.27-13.26,3.11-7.09,7.44-14.7,12.64-24.38,7.61-6.1-3.17-4.01-20.56,2.34-28.35,1.62-1.99,3.46-3.8,5.2-5.7-1.84,6.99-4.12,13.9-5.26,21-.37,2.28,1.66,6.21,3.67,7.23,1.75,.88,5.66-.58,7.54-2.23,14.58-12.86,18.91-13.44,36.37-3.93,6.08,3.31,12.14,6.65,17.83,9.77,13.13-27.14,8.14-47.64-16.11-62.65-2.51-1.55-4.32-4.29-6.87-5.71-6.46-3.6-13.16-6.77-19.77-10.11-1.11,6.83-3.18,13.66-3.13,20.48,.07,11.94-1.31,22.37-14.66,26.59,3.44-9.07,8.17-17.91,9.91-27.29,1.48-7.97-3.18-10.42-11.15-6.31-14.99,7.75-24.87,19.68-29.75,35.45-14.06,45.38-28.23,90.74-41.26,136.43-5.76,20.21-15.07,37.15-32.28,49.42-3.14,2.24-6.22,4.57-9.21,7-19.12,15.56-20.61,32.1-2.96,48.79,10.48,9.91,22.65,18.05,34.23,26.77,4.7,3.54,10.85,6.24,4.57,12.06-8.76-6.98-16.79-13.5-24.96-19.85-7.55-5.87-11.47-2.95-15.39,5.09-17.64,36.2-32.9,74.05-54.63,107.67-36.48,56.45-76.96,110.33-116.27,164.92-18.11,25.15-36.34,50.16-44.18,80.7-3.38,13.16-5.91,26.81-6.6,40.35-1.41,27.78-3.19,55.77-1.2,83.41,1.33,18.37,7.79,36.69,14.07,54.29,5.47,15.33,13.89,29.6,22.24,46.89-17.26-.85-35.17,.91-51.36-3.56-8.94-2.47-16.51-14.47-22.09-23.75-16.09-26.75-27.07-55.82-28.03-87.28-1.07-35.07-2.29-70.42,.96-105.23,2.15-22.98,10.15-46,18.9-67.64,19.29-47.73,52.16-87.4,80.62-129.67,62.84-93.34,119.12-190.37,164.45-293.54,1.47-3.35,3.33-6.53,7.79-8.49-8.54,18.44-17.04,36.9-25.64,55.31-51.9,111.14-118.25,213.63-187.96,314.09-52.6,75.8-70.46,159.38-52.7,249.56,4.79,24.34,15.44,48.12,26.82,70.41,11.35,22.23,27.15,25.8,53.88,16.81-3.8-9.36-8.37-18.43-11.19-28.02-6.87-23.33-13.96-46.68-18.87-70.46-2.25-10.93,.17-22.89,.91-34.35,1.7-26.07,3-52.19,5.68-78.16,4.1-39.7,18.8-76.39,33.96-112.85,.41-.98,1.78-1.55,2.71-2.31,1.14,.41,2.28,.82,3.41,1.24-7.03,19.78-14.05,39.55-21.08,59.33,.75,.45,1.51,.9,2.26,1.34,2.14-1.66,4.83-2.94,6.34-5.05,48.68-67.89,98.74-134.87,145.12-204.3,20.01-29.95,32.82-64.83,47.79-97.96,2.14-4.73-.29-13.36-3.48-18.34-12.74-19.91-12.74-27.6,2.85-45.35,7.07-8.04,13.99-16.25,21.5-23.87,17.28-17.53,19.83-41.33,27.28-63,13.37-38.89,26.34-77.91,39.5-116.88,.41-1.21,.82-2.5,1.54-3.53,30.63-43.86,31.09-96.25,39.37-145.94,7.68-46.07,5.26-92.85-.65-139.47-2.55-20.14,.84-41.01,1.33-61.56,.12-4.97-.6-9.96-2.83-16.75-26.46,18.18-47.79,44.25-80.15,49.7,32.46-25.91,65.41-52.21,97.73-78.01-12.18,36.46-4.49,75.45-4.07,114.13,.17,15.15,4.82,30.21,5.58,45.4,2.18,43.77-.29,87.28-11.27,129.95-4.69,18.21-10.09,36.24-14.97,54.41-.73,2.72-.42,5.72,2.28,10.57,3.86-4.15,7.73-8.31,12.09-12.99,13.7,9.73,27.71,19.84,41.95,29.62,2.17,1.49,6.14,2.74,7.93,1.73,1.74-.99,2.72-5.17,2.36-7.71-1.8-12.72-2.84-25.79-6.82-37.86-2.18-6.61-8.67-14.21-14.97-16.5-9.53-3.46-16.75,3.67-21.32,12.38-1.75,3.33-3.64,6.59-5.94,10.73-1.35-12.01,6.47-24.45,16.57-28.42,25.06-9.87,30.18,7.46,33.38,27.54,1.14-.56,2.28-1.11,3.42-1.67,1.85-9.38,4.95-18.7,5.34-28.14,1.63-39.82,4.86-79.82,2.61-119.47-1.19-20.93-13.21-41.08-18.95-61.97-7.01-25.49-15.66-51.1-18.02-77.17-3.72-40.95-2.22-82.28,11.64-121.95,1.61-4.62,4.29-8.87,8.22-12.78-17.45,31.65-13.28,66.79-16.41,100.39-3.04,32.62,4.49,64.75,15.31,95.71,2.68,7.67,5.24,7.53,18.34-.05,2.19,8.08,5.12,15.5,6.12,23.18,3.88,29.94,11.72,58.06,34.08,79.99,17.66,17.32,37.55,31.24,61.58,38.27,15.21,4.45,30.42,9.08,45.9,12.37,7.7,1.64,16.51,2.25,23.95,.2,38.15-10.54,78.24-18.37,105.68-50.47,26.1-30.54,44.21-65.05,41.92-107.07-.23-4.17-1.55-8.38-2.93-12.37-5.01-14.48-10.91-28.69-15.18-43.38-2.69-9.24-6.55-14.1-16.87-13.05-8.16,.83-16.48,.17-25.41,3.18,2.46,2.03,4.83,4.2,7.41,6.08,19.11,13.93,21.87,32.49,12.42,54.29-5.62,12.97-11.68,20.81-26.2,20.61-18.25-.25-38.86-25.29-36.36-44.55,.44-3.4,2.29-6.94,1.68-10.06-.83-4.19-3.42-8.02-5.25-12.01-3.36,3.07-8.58,5.57-9.73,9.32-3.87,12.67-6.19,25.82-9.31,38.73-1.26,5.2-3.09,10.27-4.66,15.4-1.45,.25-2.9,.5-4.34,.75-22.14-52.07-44.28-104.14-66.68-156.83-.77,1.11-2.57,2.54-2.81,4.19-4.26,29.48-13.71,58.61-4.89,89.02,1.15,3.97-3.52,9.62-7.31,13.77,3.45,18.91-7.91,32.24-16.83,46.54v-26.85c-8.99,.6-17.98,1.21-30.4,2.04,5.28,11.89,9.33,21.03,13.21,29.76-7.94-2.28-14.88-4.21-20.88-16.5-9.1-18.65-12.73-37.86-17.27-57.27-2.07-8.87-7.65-9.43-12.83-4.03-4.75,4.96-7.47,11.86-11.29,18.23-10.44-10.22-14.93-22.11-9.55-37.59,5.61-16.14,10.54-32.59,14.53-49.21,5.52-22.99,9.46-46.35,14.9-69.35,2.89-12.22,7.51-24.02,11.35-36.01,1.3,.35,2.61,.69,3.91,1.04-5.63,22.49-11.25,44.99-16.88,67.48,1.41,.77,2.83,1.55,4.24,2.32,14.48-12.71,37.19-13.25,44.71-36.95,7.97-25.13,19.48-49.14,29.39-73.66,.96-2.37,2.34-4.97,2.13-7.34-.42-4.72-1.82-9.36-2.81-14.04-5.15,1.3-11.83,1-15.16,4.2-9.21,8.84-17.97,18.48-25.17,29-13.38,19.53-16.37,21.07-38.06,11.48-8.6-3.8-12.4-.84-14.79,7.71-2.87,10.28-6.53,20.39-10.66,30.23-1.81,4.31-5.64,7.76-10.69,10.17,4.53-11.37,9.02-22.75,13.62-34.09,3.14-7.75,3.22-13.76-11.96-13.43,12.74-12.79,22.49-23.36,33.06-33.05,33.9-31.1,74.46-45.26,120.04-46.24,26.08-.56,52.15-1.25,78.23-1.88,1.26-.03,2.82-.61,3.74-.07,22.98,13.27,45.79,26.84,68.93,39.84,3.47,1.95,8.37,1.34,10.38,1.61,6.04,6.75,11.5,12.41,16.44,18.48,10.41,12.77,20.76,25.6,30.71,38.72,5.1,6.73,9.93,13.82,13.74,21.33,6.48,12.77,12.58,25.8,17.81,39.13,2.51,6.4,5.17,10.04,11.99,6.83,13.93-6.56,20.92-26.63,14.56-41.08-6.31-14.35-12.67-28.69-19-43.03,1.22-.94,2.44-1.88,3.67-2.82,2.56,2.39,6.34,4.31,7.47,7.25,6.19,16.16,11.72,32.57,18.77,52.58,9.32-8.27,16.55-13.84,22.49-20.55,1.51-1.71,.18-8.24-1.99-10.53-10.19-10.75-21.12-20.8-32.05-31.35,27.76-41.88,34.5-90.46,37.31-139.95,1.04-18.34,.43-36.78,.82-55.16,.22-10.59,4.92-14.75,16.48-16.35,18.27-2.52,35.85,3.64,54.06,.9,14.04-2.11,13.93,9.02,13,16.22-7.71-1.07-15.24-2.49-22.83-2.99-3.25-.21-6.58,1.78-9.95,2.27-17.9,2.6-26.27,15.63-21.23,33.36,.35,1.22,.73,3.24,1.47,3.42,12.62,3.14,25.28,8,37.95,8.05,5.23,.02,10.51-10.4,14.25-14.44-.68,6.86-1.74,17.53-2.8,28.21-15.63-1.14-28.78-2.72-41.93-2.68-3.81,.01-9.62,3.9-10.99,7.39-2.76,7.04-3.9,15.01-4.03,22.63-.05,2.92,3.91,7.09,7.06,8.63,5.7,2.79,12.46,3.41,18.2,6.16,3.3,1.58,5.46,5.54,8.14,8.43-3.88,1.84-7.67,3.93-11.69,5.39-1.37,.5-3.3-.79-4.98-.86-6.84-.28-17.94-3.03-19.74-.1-5.62,9.13-8.26,20.31-10.71,31-.46,2,4.89,6.37,8.33,8,7.17,3.37,14.86,5.64,22.44,8.4-6.97,14.54-12.24,15.09-23.6,7.78-6.91-4.45-19.48-9.5-23.88-6.37-7.85,5.58-11.8,16.98-16.44,26.41-.81,1.64,2.62,5.88,4.74,8.36,5.29,6.17,11.2,11.83,16.42,18.05,8.11,9.66,12.99,10.65,19.64-.1,13.64-22.06,25.79-45.04,38.27-67.81,2.61-4.76,3.96-10.22,7.12-14.86-5.3,26.15-14.03,51.35-30.88,72.1-14.44,17.79-32.31,32.76-47.94,49.65-3.75,4.05-7.6,11.58-6.37,16.14,16.17,59.73,14.53,121.63,23.17,182.23,7.98,55.97,14.7,112.35,27.18,167.37,11.89,52.44,27.87,104.37,47.02,154.62,14.54,38.15,35.35,74.21,56.04,109.64,49.5,84.72,103.56,166.89,150.21,253.11,49.45,91.39,69.66,191.12,64.17,295.52-2.56,48.66-22.13,90.19-52.16,127.41-4.29,5.32-10.47,9.12-17.88,11.49,1.82-2.55,3.36-5.37,5.5-7.63,49.49-52.07,65.85-115.15,59.57-184.89-3.22-35.77-6.59-71.94-14.82-106.77-16.26-68.82-44.66-133.18-81.24-193.73-31.25-51.73-62.23-103.66-95.01-154.42-38.37-59.41-74.77-119.89-104.91-183.85-11.43-24.25-19.05-50.3-28.41-75.52,1.06-.43,2.11-.86,3.17-1.29,13.67,32.87,27.33,65.74,41,98.61,1.43-.51,2.86-1.03,4.3-1.54-.44-2.59-.45-5.34-1.38-7.74-43.22-111.36-64.4-227.2-72.42-346.04-2.68-39.66-9.75-79.04-15.12-118.5-.72-5.3-3.27-10.34-5.34-16.6-11.07,5.51-15.55,13.21-15.39,24,.15,10.59-.52,20.42-12.11,26.14-2.44,1.2-3.54,8.15-2.92,12.09,6.27,39.78,13.16,79.46,19.54,119.22,1.88,11.75,2.69,23.67,1.11,36.22-1.7-5.77-3.98-11.43-5.02-17.32-7.3-41.35-13.63-82.9-21.75-124.09-4.7-23.87-11.99-47.24-18.53-70.73-.97-3.47-3.82-6.68-6.43-9.39-17.45-18.13-27.52-38.99-30.72-64.57-1.37-10.92-12-20.68-18.85-31.67-12.71,8.67-9.16,15.34-1.62,21.68-11.13,6.27-26.49,4.37-31.64-5.43-11.92-22.72-31.75-36.35-52.45-49.4-13.36-8.42-21.07-5.32-23.57,9.65-.21,1.27-.31,2.59-.76,3.77-2.33,6.09-10.42,12.94,2.47,16.81,11.7,3.51,19.49,.07,23.21-10.26,.54-1.51,1.41-2.91,2.32-4.74,4.46,8.93,1.31,16.9-8.93,17.85-10.79,1-22.01-1.05-32.83-2.95-2.32-.41-3.58-6-5.6-9.03-4.82-7.22-4.94-19.22-17.63-18.16-.9-3.75-1.22-10.27-2.78-10.59-5.05-1.01-10.74-.46-15.84,.83-5.5,1.4-11.56,3.25-15.66,6.85-4.89,4.3-9.19,10.24-11.37,16.31-1.36,3.78,1.38,13.03,2.8,13.14,6.92,.54,15.16,.68,20.63-2.74,3.67-2.3,3.48-10.77,5-16.39,9.53,7.51,9.07,17.59-1.25,22.19-1.52,.68-3.36,1.15-4.99,1.01-23.71-2.13-30.25,12.65-35.83,32.32-5.83,20.52-17.09,39.43-24.43,59.6-8.42,23.15-15.35,46.85-22.52,70.44-2.7,8.87-4.27,18.08-8.12,26.75-.84-29.35,11.26-56.23,17.46-84.66-23.77,2.53-39.09,18.43-39.39,42.12-.19,15.33,2.41,30.7,4.02,46.03,.75,7.18,4.08,10.02,12.21,8.7,17.02-2.75,34.36-3.54,51.32-6.52,4.01-.71,9.36-6.48,10.15-10.67,4.35-23.15,7.56-46.52,11-69.83,1.73-11.74,2.64-23.62,4.77-35.28,2.14-11.73,5.35-23.26,8.51-36.68,0,22.89-1.55,44.01,.44,64.79,1.96,20.46,7.51,40.57,14.27,60.71,18.04-35.51,31.89-71.22,32.28-111.29,2.05,1.85,3.72,3.37,5.93,5.38,2.52-5.53,4.7-10.3,6.87-15.07,.84,.15,1.68,.29,2.52,.44,.32,2.64,1.43,5.47,.84,7.89-9.9,40.38-20.36,80.58-38.38,118.36-2.2,4.62-3.66,11.4-1.94,15.79,10.63,27.09,22.24,53.79,33.66,80.56,.56,1.32,2.43,2.08,5.73,4.77,20.8-57.74,14.67-116.71,19.87-175.45,3.53,7.69,7.77,15.14,10.44,23.12,5.98,17.87,11.92,35.83,16.47,54.1,3.83,15.39,16.65,19.95,28.32,24.06,9.63,3.39,21.02,1.77,34.57,2.54-11.69-34.07-26.01-64.95-49.29-92.09v56.89c-1.08,.15-2.15,.3-3.23,.44-.78-4.91-2.14-9.81-2.24-14.73-.23-12,.02-24.01,.27-36.01,.36-17.15-2.03-20.13-18.55-22.72-1.88-.29-3.68-1.07-8.99-2.66,5.37-1.2,7.21-1.88,9.07-1.98,18.57-1,18.76-1.03,12.83-19.2-3.65-11.19-7.99-22.15-12.03-33.22l4.05-1.93c4.73,9.47,11.52,18.48,13.78,28.51,5.05,22.41,21.38,34.06,38.44,45.67,7.31,4.98,14.57,10.04,21.85,15.06-.6,1.02-1.2,2.03-1.79,3.05-13.18-7.47-26.36-14.94-39.54-22.41-1.03,.71-2.06,1.42-3.08,2.13,31.74,45.52,49.28,96.78,60.21,150.7,2.25-.57,4.5-1.15,6.76-1.72-5.59-63.5-9.36-127.24-29.84-190.2,11.38,11.88,16.58,29.75,22.38,75.48,3.24,25.52,6.11,51.09,9.15,76.64l3.99,.02c1.08-10.63,2.16-21.27,3.24-31.9,1.07-.12,2.15-.23,3.22-.35,.57,5.37,2,10.81,1.58,16.11-2.25,28.19-.28,57.79-8.41,84.24-22.04,71.7-17.95,144.81-18.59,217.86-.03,3.45,1.08,6.9,1.65,10.35,1.72,.14,3.44,.27,5.17,.41,10.54-54.44,21.08-108.89,31.62-163.33,1.13,.12,2.26,.23,3.4,.35-.87,11.99-.44,24.25-2.88,35.91-6.22,29.75-13.84,59.21-20.55,88.87-.96,4.26,.02,8.97,.1,13.47,4.48-.59,9.02-.9,13.42-1.86,2.89-.63,5.48-2.79,8.36-3.21,8.97-1.3,18.41-4.09,26.88-2.4,6.05,1.21,9.5,30.92,4.78,42.23-1.49-10.82-2.11-18.95-3.8-26.86-2.91-13.64-6.91-15.75-19.65-10.07-10.68,4.76-24.53,7.88-30.53,16.32-7.66,10.78-8.85,26.17-13.08,40.41,18.04-1.62,33.05-2.97,48.06-4.32,.2,1.3,.4,2.59,.6,3.89-10.05,1.85-20.11,3.64-30.14,5.58-3.34,.65-8.12,.63-9.58,2.75-2.84,4.1-5.07,9.56-4.91,14.36,.07,2.01,6.84,5.24,10.65,5.38,8.63,.31,17.31-.96,25.98-1.59,.15,1.21,.31,2.43,.46,3.64-6.34,1.14-12.93,1.55-18.95,3.63-5.41,1.87-14.53,5.81-14.39,8.41,.38,6.93,3.5,14.88,8.15,20.07,4.09,4.57,11.73,5.96,17.44,11.46-3.67-.58-7.35-1.68-11.01-1.59-3.48,.09-8.4,.33-9.99,2.49-1.77,2.41-2.06,8.31-.29,10.52,9.62,12.02,19.86,23.58,30.53,34.68,1.35,1.4,7.17,.08,9.72-1.7,2.97-2.07,4.66-6.01,6.86-9.17,12.78-18.4,11.48-25.48-6.9-37.52,10.71-5.59,24.26,1.49,21.89,12.71-2.65,12.57-6.96,26.02-14.61,35.95-7.16,9.29-8.77,13.96-2.29,24.64,16.74,27.57,30.75,56.66,27.16,90.63-.84,7.96-1.85,15.9-3.07,26.25,17.17-6.81,23.09-22.06,32.5-33.61,1.05,.85,2.1,1.71,3.15,2.56-10.53,13.58-21.49,26.85-31.45,40.84-6.06,8.51-9.81,18.68-15.98,27.1-9.26,12.64-19.45,24.65-29.82,36.41-4.19,4.75-10.05,7.98-14.9,12.19-9.73,8.45-14.82,18.55-10.68,31.79,1.79,5.72,2.42,11.93,4.93,17.28,7.84,16.7,8.84,32.23-2.01,48.62-2.84,4.29-1.15,14.55,2.23,19.49,14.5,21.16,29.18,42.44,46.06,61.67,33.03,37.63,48.76,84.85,71.53,127.9,26.35,49.81,56,97.1,87.32,143.69,16.7,24.85,31.74,50.87,46.45,76.98,8.56,15.19,20.34,24.87,36.75,29.91,17.4,5.34,34.5,11.67,52.01,16.59,4.14,1.16,9.37-1.6,13.95-2.53,.07,8.62-3.64,11.85-12.6,7.05-11.42-6.13-17.3-.8-23.57,7.27-13.35,17.19-19.8,35.04-3.11,57.37-22.14-13.37-23.18-56.43-2.22-68.87-7.09-4.19-12.5-9.07-18.77-10.79-22.88-6.28-38.54-19.87-50.46-40.52-19.47-33.76-41-66.32-61.75-99.34-1.69-2.69-4.07-4.94-9.02-6.18,1.53,4.85,2.65,9.87,4.64,14.52,28.94,67.78,58.61,135.26,86.75,203.37,13.41,32.44,23.86,66.1,35.87,99.13,8.05,22.12,20.24,40.36,40.07,54.96,38.29,28.2,65.71,67.31,96.19,103.23,36.48,43,67.07,90.04,94.41,139.22,5.8,10.43,7.86,23.18,14.59,32.79,12.36,17.65,11.55,38.39,17.27,57.53,1.8,6.02,7.59,11.59,12.87,15.66,7.87,6.06,17.74,10.38,14.32,22.82-.96,3.5-4.62,6.26-7.04,9.36,4.12-9.75,5.28-19.27-5.14-25.67-3.71-2.28-8.87-2.18-13.37-3.17,.05,5.48-2.05,12.68,.64,16.04,4.41,5.5,11.94,8.51,18.15,12.57ZM1042,918.77c-.7-1.01-1.39-2.02-2.09-3.03,3.72-3.06,7.56-5.98,11.13-9.2,9.15-8.25,20.01-15.49,19.34-30.05-.32-6.83-1.96-10.23-10.88-9.76-19.73,1.03-39.58-.37-59.38-.36-4.95,0-13.66,.63-14.15,2.58-1.55,6.28-1.97,14.25,.77,19.79,2.79,5.64,9.43,9.81,15.1,13.52,15.72,10.3,33.05,18.53,47.45,30.37,17.21,14.15,32.04,31.18,47.91,46.97-1.3,1.32-2.61,2.63-3.91,3.95-3.57-3.26-7.3-6.36-10.66-9.82-4.47-4.59-8.17-10.11-13.21-13.9-1.97-1.49-9.16-.31-9.72,1.22-9.6,26.13-21.75,51.92-11.22,81.07,2.84,7.87,6.05,12.96,15.15,12.05,17.44-1.73,34.95-2.97,52.32-5.26,3.33-.44,8.93-4.92,8.78-7.22-1.73-25.9-4.06-51.77-7.07-77.55-.52-4.48-7.02-8.46-7.13-12.76-.49-18.97-8.01-34.63-18.98-49.5-3.1-4.2-3.28-10.57-4.8-15.94,1.7-.54,3.39-1.08,5.09-1.63,3.42,7.09,6.16,14.63,10.44,21.15,4.08,6.21,8.77,13.16,14.95,16.61,13.02,7.27,27.07,12.79,40.95,18.43,11.78,4.79,14.2,2.68,14.56-9.73,1.23-42.34,2.74-84.66,3.98-127,.11-3.72-.94-7.48-1.94-14.75-5.15,5.63-8.16,8-10,11.07-12.22,20.45-29.32,34.95-50.23,46.44-10.06,5.53-20.02,14.99-25.05,25.14-9.02,18.19-23.68,29.96-38.32,42.29-2.58,2.17-6.1,3.22-9.18,4.78Zm-78.52-23.8c1.19,.99,2.37,1.98,3.56,2.97-8.03,13.68-15.96,27.41-24.13,41.01-3.98,6.62-11.31,12.65-12.09,19.52-2.75,24.16-3.5,48.56-4.61,72.88-.38,8.44,4.34,14.06,12.73,15.09,16.09,1.97,32.23,3.84,48.4,4.42,3.39,.12,8.91-4.86,10.13-8.59,3.85-11.75,6.66-23.92,8.86-36.11,2.92-16.17-4-29.3-14.82-44.45-9.26,11.3-17.03,20.78-24.81,30.26-1.55-1.65-3.1-3.29-4.64-4.94,24.56-15.63,26.99-55.4,68.65-55.72-5.62-4.54-8.91-7.45-12.45-10.01-14.21-10.25-28.83-19.97-42.52-30.88-3.38-2.69-5.94-9.51-5.13-13.71,1.6-8.3-1.89-10.54-8.55-12.66-3.33-1.06-6.13-4.33-8.72-7.03-4.1-4.28-6.96-10.68-11.87-13.11-22.63-11.21-40.2-27.15-51.78-49.74-2.26-4.41-5.95-8.1-8.98-12.12-1.24,.51-2.47,1.03-3.71,1.54,0,3.53-.05,7.07,0,10.6,.51,29.48,1.39,58.97,1.37,88.45,0,11.5-2.84,23-2.89,34.51-.09,18.33,13.04,30.4,25.83,23.32,22.47-12.44,52.24-14.82,62.15-45.5Zm-69.73,2111.2c0-5.7,.03-9.41,0-13.12-.2-22.99-.84-45.98-.5-68.96,.36-24.39,2.54-48.77,2.25-73.14-.21-17.12-17.96-24.88-32.09-15.42-10.19,6.82-20.51,5.03-29.91-1.33-12.58-8.5-24.55-17.9-36.99-26.62-3.49-2.45-7.69-3.87-11.57-5.77-1.17,5.16-3.9,10.52-3.24,15.43,2.43,18.22,5.66,36.35,9.16,54.41,7.65,39.48,15.6,78.9,23.52,118.33,2.85,14.18,13.79,19.46,26.34,12.33,14.74-8.38,29.02-9.25,43.47,.46,1.98,1.33,4.62,1.69,9.57,3.4Zm-457.18-228.39l-1.66,4.93c-5.89,1.8-11.73,4.91-17.68,5.14-15.36,.58-30.78-.42-46.16-.21-13.52,.19-22.13,9.43-21.78,22.83,.94,35.93,13.43,64.29,50.45,76.44,8.12,2.66,16.16,5.55,24.18,8.49,14.51,5.31,25.89,.52,37.71-8.68,16.39-12.76,34.4-23.44,51.63-35.14,2.96-2.01,6.61-4.11,8.01-7.08,4.67-9.92,8.98-20.08,12.26-30.52,.92-2.93-1.58-9.92-3.49-10.32-22.39-4.66-44.96-8.41-69.78-12.81,12.82,23.85,39.19,29.51,53.84,48.04-33.56-10.36-56.58-34.38-77.53-61.12ZM978.39,1236.44c.47,12.33,5.08,20.22,17.72,22.15,5.9,.9,11.8,1.79,17.73,2.43,20.14,2.18,21.93,.12,21.81-20.27-.4-68.02-.4-136.04-.9-204.06-.04-5.73-1.77-11.91-4.41-16.99-1.88-3.62-6.38-7.4-10.16-7.95-2.26-.33-6.66,4.99-7.93,8.55-4.31,12.07-9.37,24.24-11.08,36.8-8.15,59.7-15.28,119.55-22.78,179.34ZM261.06,2789.01c-1.22,.69-2.43,1.39-3.65,2.08-2.79-3.7-5.95-7.2-8.3-11.16-3.81-6.44-6.2-13.92-10.8-19.67-8.82-11-19.15-20.77-28.03-31.73-2.73-3.37-3.51-8.86-3.94-13.5-2.3-25-4.16-50.03-6.36-75.04-.17-1.96-1.36-4.48-2.9-5.56-13.01-9.11-26.22-17.95-41.38-28.25,.55,5.52,.66,8.01,1.06,10.46,8.11,49.69,27.17,95.42,51.22,139.16,7.48,13.61,14.76,27.26,30.52,35.04,14.26,7.04,26.35,18.42,39.62,27.57,15.08,10.4,30.08,20.97,45.76,30.39,6.47,3.89,14.63,4.96,24.32,8.04-3.64-21.42-6.01-39.65-10.22-57.44-1.25-5.27-7.08-12.42-11.86-13.36-20.07-3.94-40.53-5.88-60.86-8.42-1.06-.13-2.26,.92-3.69,1.55-.17,3.3-.34,6.57-.52,9.84Zm59.07-15.03c-.97-4.28-1.23-6.32-1.89-8.22-7.23-20.94-13.07-42.52-22.18-62.61-9.93-21.91-19.65-45.44-45.75-53.88-13.45-4.35-27.28-7.5-40.2-10.99,1.11,10.95,1.39,22,3.51,32.69,3.73,18.82,6.25,38.39,13.51,55.88,10.75,25.9,27.82,46.12,60.5,44.15,10.26-.62,20.71,1.81,32.49,2.98Zm1106.11-55.4c-11.4,4.61-21.29,8.46-31.06,12.6-10.23,4.35-20.46,8.74-30.45,13.61-3.58,1.74-8.28,4.34-9.33,7.57-4.1,12.6,18.32,41.32,31.56,39.54,35.32-4.76,42.67-14.3,34.44-45.6-.44-1.66-1.39-3.25-1.48-4.91-.22-4.06-.07-8.13-.07-12.2,1.16-.02,2.32-.04,3.47-.06,1.56,10.44,2.76,20.95,4.91,31.26,.65,3.12,4.17,8.2,5.98,8.04,5.26-.48,10.85-2.39,15.21-5.36,1.66-1.13,1.71-7.52,.14-10.04-7.42-11.9-15.65-23.28-23.32-34.46ZM189.74,2296.62c3.04-16.15,5.31-29.01,7.89-41.82,4.72-23.4,8.47-47.08,14.83-70.04,4.77-17.23,.84-29.72-17.47-38.82-1.46,2.91-3.57,5.69-4.29,8.79-8.11,34.94-16.13,69.9-23.78,104.95-.74,3.37,.15,8.05,2.1,10.87,5.48,7.9,11.91,15.15,20.72,26.07Zm69.55-387.44c-12.2,6.66-20.24,20.05-23.12,35.08-6.17,32.28-12.61,64.52-19.6,96.62-5.4,24.81-11.82,49.39-17.79,74.08,1,.39,2,.78,2.99,1.18,1.42-1.9,3.02-3.7,4.23-5.73,9.74-16.48,18.82-33.39,29.25-49.42,10.25-15.76,12.33-31.38,4.38-48.59-2.54-5.51-3.38-11.8-4.99-17.74l3.38-.94c3.41,4.49,6.82,8.98,11.13,14.67,3.5-34.23,6.77-66.24,10.13-99.22Zm1222.8,771.72c-18.34,11.16-35.54,21.63-52.25,31.8,7.95,11.68,13.58,20.77,20.05,29.21,5.18,6.75,8.95,17.09,20.61,13.46,11.68-3.64,22.19-8.41,23.06-23.74,.27-4.8,4.79-11.11,9.14-13.58,10.51-5.95,8.52-11.83,2.46-19.81-3.66,2.16-6.79,4.01-11.3,6.68-3.83-7.82-7.29-14.88-11.77-24.03Zm-1170.77,37.93c-1.03,.62-2.06,1.25-3.08,1.87,2.87,8.09,5.13,16.45,8.71,24.21,19.67,42.63,14.95,33.43,52.66,34.32,12.94,.3,25.89,.05,38.83,.05l1.64-6.11c-31.07-21.32-67.12-33.99-98.76-54.33Zm-74.37-82.32c8.95,.58,9.87-1.93,6.46-11.97-9.15-26.99-17.56-54.24-26.87-81.18-1.68-4.86-6.2-8.73-9.4-13.06-3.1,4.86-9.4,10.17-8.78,14.49,3.62,25.15,8.75,50.08,13.62,75.04,2.65,13.6,12.67,16.96,24.96,16.67ZM966.15,1468.37c.67-1.38,1.33-2.77,2-4.15-9.87-7.09-18.93-16.04-29.81-20.83-16.31-7.17-33.81-11.74-51-16.7-4.62-1.33-9.97-.1-14.98-.05,2.13,5.28,3.7,10.9,6.61,15.7,1.6,2.63,5.24,4.64,8.37,5.64,22.64,7.2,45.34,14.21,68.14,20.88,3.24,.95,7.11-.27,10.68-.49Zm83.24-354.81c-1.16,.04-2.32,.08-3.49,.12,0,4.11-.09,8.21,.01,12.32,.87,35.03,1.64,70.06,2.83,105.08,.14,4.19,2.68,8.31,4.11,12.46,4.33-1.53,9.84-1.94,12.66-4.91,2.95-3.11,4.72-8.76,4.49-13.17-.38-7.15-3.05-14.15-4.35-21.29-5.5-30.19-10.86-60.4-16.27-90.61Zm-68.4-718.57c-18.69-5.08-30.77-.23-41.41,10.37-2.95,2.94-6.91,7.94-9.66,7.48-16.99-2.85-27.09,8.22-38.23,17.33-11.19,9.14-10.53,11.94,3.41,17.19,2.79,1.05,5.83,1.96,8.1,3.76,10.46,8.31,16.57,2.61,20.84-6.71,2.26-4.95,2.53-10.77,4.35-15.97,1.15-3.29,2.77-7.48,5.45-8.97,7.73-4.32,16.26-7.17,24.19-11.17,6.92-3.49,13.45-7.75,22.96-13.31Zm96.18,252.63c27.7-13.82,28.88-21.34,20.73-47.1-4.25-13.45-8.07-27.03-12.36-40.47-1.3-4.08-3.53-7.87-5.33-11.79-1.01,.29-2.03,.57-3.04,.86v98.5ZM238.54,1902.77c18.37-7.47,24.44-19.39,20.96-35-3.26-14.6-4.84-29.59-8.42-44.1-1.81-7.36-6.4-14.02-9.74-21-.93,.59-1.86,1.18-2.8,1.77v98.33Zm-87.14,449.59c29.75-23.08,35.78-29.29,31.54-38.6-5.54-12.16-6.92-27.58-21.95-36.65-8.91,25.02-11.27,48.48-9.58,75.25ZM1312.64,389.96c1.78,.58,3.56,1.17,5.34,1.75,2.34-5.05,5.73-9.88,6.86-15.19,5.09-24.08,9.88-48.25,13.85-72.54,.6-3.69-3.71-8.18-5.75-12.3-3.53,3.33-8.65,6.06-10.2,10.15-2.03,5.35-1.07,11.8-1.7,17.74-1.78,16.91-3.64,33.8-5.6,50.69-.76,6.59-1.85,13.14-2.8,19.7Zm-67.3,153.03c-4.08-34.21-21.09-57.59-42.77-81.59,.32,16.69,24.51,62.25,42.77,81.59Zm-137.37,143.41c-6.44,11.47-4.6,22.21,4.99,30.33,3.03,2.57,9.82,3.47,13.51,1.9,7.93-3.37,11.76-18.96,8.04-30.48-8.9,13.61-18,14.17-26.55-1.75Zm237.27-433.45c-3.15-2.9-6-7.74-9.6-8.38-8.01-1.43-14.81,7.95-14.14,18.94,.46,7.51,.88,18.69,10.32,17.59,15.05-1.75,7.74-17.2,13.42-28.15Zm-473.96,383.18c1.65,1.32,3.3,2.63,4.95,3.95,5.69-3.42,16.3-6.99,16.2-10.24-.4-13.43-4.03-26.77-6.48-40.14-1.21-.1-2.42-.21-3.62-.31-3.68,15.58-7.36,31.16-11.04,46.74ZM231.24,2093.47c-19.22,15.01-23.99,47.82-10.68,58.13,3.63-19.76,7.16-38.95,10.68-58.13ZM922.01,632.46c-5.4,6.67-10.86,10.39-10.63,13.74,.53,7.86,.7,19.79,12.18,18.12,5.74-.83,12.14-9.76,14.31-16.32,.88-2.67-8.71-8.8-15.85-15.53ZM223.35,1744.21c-2.32,17.68,7.01,43.57,17.65,48.16-2.33-17.32-4.13-33.09-17.65-48.16ZM1131.72,414.26c7.55,9.74,14.85,19.55,22.71,28.89,1.3,1.55,5.06,1.02,7.69,1.46,.51-3.16,2.03-6.56,1.35-9.43-1.89-8.04-21.95-20.9-31.75-20.91Zm-277.86,2771.71c-5.03-11.33-12.91-16.05-23.53-16.23-2.15-.04-4.89,1.31-6.27,2.95-.81,.95-.13,4.81,1.01,5.52,8.29,5.13,15.86,13.35,28.79,7.77Zm322.23-63.62c-1.13-.11-2.26-.21-3.39-.32,.86,5.16-.09,12.46,2.95,15.01,6.02,5.05,13.07,11.78,21.85,8.31-7.38-7.93-14.4-15.47-21.42-23.01ZM875.67,948.46c-4.63,2.36-9.66,3.24-11.38,6.11-5.73,9.53-3.71,27,3.54,34.01,2.49-12.75,4.88-24.96,7.84-40.12Zm282.94,2113.91c-7.02-5.17-10.13-16.22-20.72-9.46-1.96,1.25-1.99,9.51,.08,12.36,7.33,10.11,13.27,2.1,20.64-2.91Zm-124.94-2089.86l-6.78,3.49c-3.63,3.26-7.27,6.53-10.9,9.79,3.25,3.17,7.92,9.59,9.5,8.9,4.64-2.02,9.26-6.27,11.5-10.82,1.29-2.61-2.05-7.51-3.31-11.38Zm92.32,2127.02c.6,1.87,1.19,3.73,1.79,5.6,4.86,.27,9.86,1.34,14.53,.53,3.41-.59,6.39-3.66,9.57-5.63-3.51-2.38-7.17-6.9-10.49-6.66-5.25,.38-10.28,3.94-15.4,6.16Zm-12.02-2441.96c-4.85-4.16-7.78-8.6-10.36-8.4-3.26,.25-6.23,4.28-9.32,6.68,2.92,3.18,5.36,7.44,8.97,9.06,1.66,.74,5.64-3.7,10.71-7.33Zm153.31-98.92c-3.47-4.31-5.61-6.98-7.75-9.64-3.23,3.48-6.46,6.96-9.68,10.44,2.46,2.28,5.12,6.58,7.32,6.35,3.14-.33,5.93-3.97,10.12-7.15Zm-146,2628.39c-6.97-3.86-10.51-6.7-14.48-7.56-1.51-.33-4,3.92-6.05,6.08,3.14,2.39,5.99,5.67,9.53,6.83,1.94,.64,5.05-2.29,11-5.34ZM946.16,626.94c-.34,2.13-.68,4.25-1.02,6.38l18.46,3.26c.33-2.36,.66-4.72,.99-7.09-6.14-.85-12.29-1.7-18.43-2.55Zm182.31,2391.49c.04,1.06,.09,2.12,.13,3.18h17.76c-.04-1.06-.09-2.12-.13-3.18h-17.76Z"/>
  <path d="M785.72,518.41c8.1-16.86,5.33-36.14,21.21-47.61,1.48-1.07,.69-5.29,.95-8.05-3.06,.17-7.17-.88-9.02,.7-8.74,7.5-18.53,14.66-24.52,24.11-3.12,4.94,.84,14.37,1.6,21.73-1.09-.81-4.68-2.96-7.64-5.77-48.82-46.5-78.87-103.12-88.83-169.75-4.22-28.28-5.44-57.01-8.08-85.53-.78-8.38,1.66-12.4,11.3-12.09,13.66,.44,27.4-1.62,41.06-1.18,8.7,.28,17.64,2.28,25.79,5.32,2.99,1.11,5.43,7.34,5.75,11.43,3.55,44.8,4.96,89.84,10.49,134.37,3.2,25.72,17.69,47.95,37.21,65.74,5.15,4.7,10.63,5.01,14.06-3.2,5.86-14.02,12.94-27.57,18.24-41.79,6-16.08,16.14-23.55,35.04-23.41-.16,.71-.28,2.02-.49,2.03-22.46,1.36-29.58,16.56-33.38,35.71-1.28,6.42-4.79,12.81-8.64,18.24-12.5,17.63-12.69,17.99,2.76,29.09-.48,.59-1.11,1.76-1.41,1.68-13.46-3.74-20.07,.23-26.65,17.14-3.59,9.23-5.1,18.75,1.9,29.85,11.21-12.36,21.64-23.86,32.03-35.32,4.66,5.67,9.48,11.55,12.74,15.52-6.19,10.21-13.33,19.85-18.26,30.51-11.68,25.26-22.21,51.06-33.46,76.52-1.99,4.51-5.26,8.45-10.67,11.3,4.58-11.28,9.3-22.5,13.69-33.85,4.36-11.27,8.84-20.82,.6-34.49-5.07-8.41,4.41-25.03-15.38-28.95Zm-93.26-143.68c3.98,11.68,7.06,22.41,11.24,32.69,9.47,23.27,10.67,23.56,33.12,12.67q24.98-12.11,13.44-37.37c-13.56-29.69-17.22-31.07-48.01-18.18-1.18,.5-2.73,.71-3.47,1.59-2.28,2.73-4.25,5.72-6.33,8.6Zm66.49,110.38c2.8-1.59,4.89-2.3,6.34-3.69,7.73-7.34,16.05-14.27,22.53-22.61,2.32-2.99,1.67-10.35-.39-14.26-4.33-8.24-10.87-15.27-15.75-23.26-3.88-6.35-7.29-8.38-14.16-3.54-7.98,5.62-16.53,10.7-25.42,14.69-8.34,3.74-8.65,8.87-4.51,15.2,6.77,10.36,13.85,20.56,21.37,30.38,2.38,3.1,6.62,4.78,9.99,7.09Zm-57.35-192c31.45-1,27.03,2.41,27.48-25.18,.46-28.09,1.08-28.21-25.94-24.42-33.71,4.73-34.4,4.91-27.12,38.97,1.73,8.11,5.65,12.06,14.05,11.24,3.83-.37,7.69-.42,11.53-.61Zm4.09,12.65c-4.8,.27-11.37-.17-17.48,1.3-3.2,.77-8.26,5.25-7.95,7.39,1.93,13.32,5.14,26.46,7.92,39.66,9.81-.91,19.61-1.83,29.41-2.75,.42-.04,.82-.22,1.24-.31,18.57-3.84,19.9-.87,16.07-24.03-3.89-23.5-3.49-23.57-29.23-21.25Zm39.48,19.07c1.24,0,2.47,0,3.71,0,.71-5.09,2.05-10.19,2.02-15.28-.1-14.36-.31-28.76-1.37-43.07-.58-7.72-2.92-15.33-4.83-22.89-.1-.38-5.34,.03-5.35,.2-.36,8.2-.53,16.41-.43,24.61,.07,6.02,1.4,12.13,.69,18.02-1.64,13.6-.91,26.48,5.56,38.4Zm84.77,180.33c-15.92,8.86-15.19,23.82-18.65,38.34,11.34-7.73,21.26-27.83,18.65-38.34Zm-76.08-132.27c2.05-.74,4.09-1.49,6.14-2.23-2.32-9.19-4.4-18.46-7.2-27.5-.48-1.56-4.94-3.58-5.93-2.92-2.02,1.34-4.59,4.96-4.01,6.59,3.18,8.87,7.24,17.42,11,26.07Z"/>
  <path d="M1570.01,1579.94c-6.17-26.56-11.11-53.47-18.75-79.6-16.3-55.79-40.9-108.11-69.68-158.52-60.81-106.5-120.44-213.69-164.26-328.59-26.55-69.62-49.62-140.38-67.87-212.92-10.53-41.87-3.21-82.48-3.98-123.66-.04-1.95,1.17-3.92,2.81-9.04,5.9,22.97,10.25,43.22,16.4,62.91,6.25,20.02,26.64,33.8,26.48,58.84-21.46-17.49-26.45-43.93-43.3-63.51,.68,6.56,1.47,13.11,2.04,19.68,6.45,75.16,32.2,145.31,55.46,216.16,32.63,99.42,79.51,192.31,128.62,284.23,33.3,62.34,68.32,123.89,98.52,187.71,16.51,34.88,25.19,73.58,36.1,110.94,3.25,11.11,2.07,23.52,2.92,35.33-.51,0-1.02,.02-1.52,.02Z"/>
  <path d="M1569.21,1649.71c11.99,4.06,12.35,10.71,8.94,21.09-10.16,30.95-22.46,60.42-48.31,81.79-8.46,6.99-18.14,12.5-28.88,19.78-4.45-5.12-9.34-10.25-13.68-15.81-35.2-45.07-54.32-97.74-71.73-151.32-14.03-43.18-28.44-86.24-43.48-129.07-14.29-40.67-29.68-80.96-44.48-121.45-3.18-8.7-5.7-14.59-18.1-10.41-11.84,3.99-25.4,2.62-38.07,4.49-8.76,1.29-17.21,4.62-25.95,6.08-13.66,2.27-14.46,9.64-11.24,21.36,7.36,26.78,13.46,53.9,20.24,80.85,2.87,11.4,6.16,22.7,6.92,35.31-2.1-4.01-5.01-7.8-6.13-12.07-3.25-12.42-6.72-24.91-8.42-37.6-4.36-32.45-12.55-63.49-29.91-89.84,9.43-2,19.2-2,26.53-6.24,6.81-3.93,11.03-12.38,16-18.37,.35,1.15,.8,5.79,3.1,9.16,1.74,2.55,5.84,3.5,8.89,5.16,1.14-3.17,4.19-7.51,3.08-9.32-4.7-7.72-10.63-14.69-18.13-24.59,2.15-2.86,6.42-6.37,13,1.25,2.18,2.53,3.73,5.81,4.89,8.99,5.6,15.32,15.57,21.32,32.45,19.81,12.08-1.08,13.97-5.56,10.88-15.31-1.93-6.09-4.46-11.99-6.5-18.06-1.29-3.86-2.17-7.85-3.24-11.78,1.12-.45,2.25-.89,3.37-1.34,1.52,3.76,3.41,7.43,4.5,11.31,3.66,13.1,5.52,27.68,26.97,26.04-23.25,6.67-11.53,19.55-7.91,30,34.63,99.87,69.08,199.81,104.63,299.36,12.13,33.98,29.48,65.6,51.72,94.36,7.28,9.42,13.54,11.98,24.54,4.65,32.97-21.97,44.76-54.78,49.54-91.68,.55-4.24,.99-8.5,1.71-12.72,.2-1.16,1.24-2.17,2.27-3.86Z"/>
  <path d="M1587.31,1554.11c8.98,22.75,19.09,45.13,26.66,68.34,11.51,35.27,17.84,71.3,10.36,108.72-6.57,32.89-21.07,61.27-44.46,85.17-9.29,9.49-7.18,9.93,4.33,17.31,22.32,14.31,47.14,16.07,71.91,19.6,2.22,.32,4.24,2.12,9.91,5.12-5.41,4.7-9.35,8.11-10.82,9.4-10.09-3.67-16.8-6.79-23.85-8.57-31.8-8.05-59.04-24.18-83.76-45.41-11.86-10.19-24.79-19.13-37.24-28.64l1.99-2.76c11.92,8.43,23.83,16.87,35.77,25.27,4.2,2.95,8.57,5.67,12.71,8.7,6.05,4.42,9.85,2.81,15.04-2.65,38.81-40.88,50.31-89.31,40.24-143.61-3.89-20.98-8.75-41.86-14.55-62.39-2.18-7.73-7.82-14.69-12.71-21.4-7.07-9.68-7.21-20.04-6.45-30.73,1.64-.49,3.29-.97,4.93-1.46Z"/>
  <path d="M1234.3,1028.28c2.44-5.85,3.35-13.38,7.6-17.21,11.64-10.51,15.54-22.96,12.71-38.39,1.19-.78,2.39-1.56,3.58-2.34,7.3,6.21,16.08,11.32,21.63,18.83,21.61,29.23,31.08,63.49,38.31,98.52,3.2,15.51,6.97,30.9,10.16,46.42,6.85,33.37,21.19,63.04,42.24,89.79,15.57,19.78,14.2,31.42-5.32,47.46-11.24,9.23-23.51,17.22-35.32,25.77-.9-.95-1.8-1.9-2.7-2.85,2.73-2.65,5.3-5.5,8.22-7.91,12.47-10.29,25.26-20.2,37.51-30.74,6.49-5.59,7.21-12.98,1.27-19.34-36.48-39.11-50.17-87.64-58.26-138.69-5.62-35.43-16.41-69.1-36.25-99.39-2.1-3.21-4.3-6.49-7.03-9.13-4.59-4.44-8.09-4.9-11.54,2.25-2.97,6.18-8.78,10.92-12.41,16.87-4.1,6.71-7.16,14.05-10.67,21.12l-3.74-1.03Z"/>
  <path d="M586.31,1766.87c1.41-3.87,2.28-8.06,4.3-11.58,25.56-44.39,38.54-93.14,49.77-142.54,13.53-59.51,33.59-116.5,60.95-171.31,10.89-21.81,14.47-47.3,21.2-71.16,1.74-6.17,2.04-12.82,4.34-18.73,2.9-7.44,3.51-13.7-2.26-20.12-1.72-1.91-1.41-5.64-.69-8.83,7.75,7.41,11.91,14.42,7.56,26.41-5.63,15.54-6.76,32.66-11.37,48.66-5.45,18.88-12.61,37.26-18.9,55.91-1.76,5.22-3.06,10.6-4.69,16.33,3.56,2.17,6.56,4.01,13.52,8.25-23.19-2.41-28.14,12.44-32.19,25.5-13.29,42.87-25.96,85.96-37.48,129.34-11.24,42.32-23.63,84.07-44.53,122.81-2.19,4.05-4.46,8.06-6.69,12.08-.95-.35-1.9-.7-2.85-1.05Z"/>
  <path d="M664.25,1120.96c14.83-44.96,28.7-90.27,44.87-134.75,8.62-23.7,21.2-45.95,30.47-65.61-18.05,66.44-43.02,134.59-75.34,200.35Z"/>
  <path d="M1041.3,832.72c9.96-7.85,20.38-14.73,15.5-27.14-4.73-12.03-16.91-11.19-27.79-10.82-1.28,.04-2.72-.39-3.83,.06-7.04,2.83-18.19,4.36-19.89,9.18-1.94,5.51,4.26,14.12,7.53,21.11,1.29,2.76,4.19,4.76,6.92,7.71-14.16,.85-23.85-8-25.32-21.83-1.72-16.18,2.11-22.49,17.76-23.05,15.25-.55,30.62,1.45,45.9,2.86,7.88,.73,10.21,5.44,9.2,13.55-2.85,22.9-7.79,29.21-25.99,28.37Z"/>
  <path d="M487.75,1933.53c-2.24-9.13-2.82-19.17-7.19-27.14-4.23-7.72-12.35-13.31-19.52-20.6,2.15-.39,5.45-1.29,8.8-1.53,9.11-.65,17.12-.78,25.73-7.6,6-4.75,18.78-.92,28.54-.92,.22,1.68,.45,3.35,.67,5.03-3.83,1.04-7.71,3.13-11.48,2.94-20.21-1.04-20.31-1.1-12.15,16.48-2.02,.54-3.9,1.53-5.74,1.46-8.9-.35-10.18,3.39-7.28,11.18,2.32,6.24,3.15,13.04,4.65,19.59-1.68,.37-3.35,.74-5.03,1.11Z"/>
  <path d="M1613.15,1882.39c-3.39,3.58-6.49,9.75-10.23,10.17-6.46,.73-12.43-2.55-11.01-11.71,.25-1.62-3.47-5.43-5.53-5.56-10.51-.69-21.48,1.22-31.53-1.09-12.22-2.81-23.68-8.91-35.46-13.59,.59-1.68,1.19-3.36,1.78-5.04,3.7,1.31,7.65,2.17,11.07,4.02,10.42,5.64,19.84,12.3,33.36,7.88,6.75-2.21,15.29,.1,22.82,1.44,16.65,2.97,33.18,6.63,51.93,10.45h-27.5c.1,1.01,.2,2.01,.3,3.02Z"/>
  <path d="M506.61,1917.51c5.67,34.13-13.57,74.61-52.76,82.77,31.3-18.65,43.34-49.41,52.76-82.77Z"/>
  <path d="M464.03,1736.18c11.51,32.77,25.66,59.96,58.95,72.15-24.01,10.04-67.71-37.59-58.95-72.15Z"/>
  <path d="M736.41,852.03c7.99-59.36,15.98-118.72,23.96-178.07,1.39,.19,2.77,.39,4.16,.58-8.37,59.31-16.73,118.61-25.1,177.92-1.01-.14-2.02-.29-3.03-.43Z"/>
  <path d="M530.28,1909.71c14.08-7.32,27.61-16.1,42.36-21.62,25.16-9.41,47.73-21.09,58.73-48.12,1.35,1.13,2.69,2.25,4.04,3.38-6.47,9.34-12.09,19.47-19.7,27.77-5.29,5.77-13.03,9.59-20.18,13.29-17.42,9-35.09,17.51-52.78,25.99-3.45,1.65-7.41,2.23-11.13,3.31-.45-1.33-.89-2.66-1.34-3.99Z"/>
  <path d="M1241.18,890.43c-12.84-15.54-16.8-65.25-4.42-79.7,1.55,28,2.95,53.11,4.42,79.7Z"/>
  <path d="M579.9,1783.87c-23.22,21.04-46.43,42.09-69.65,63.13-1.35-1.53-2.69-3.05-4.04-4.58,23.36-20.83,46.71-41.65,70.07-62.48l3.62,3.92Z"/>
  <path d="M963.35,502.21v100.51c-1.18,0-2.35,0-3.53-.01v-100.5c1.18,0,2.35,0,3.53,.01Z"/>
  <path d="M826.2,804.37c8.27,30.64,16.54,61.27,24.81,91.91-1.58,.43-3.15,.85-4.73,1.28-8.02-30.66-16.03-61.32-24.05-91.97l3.96-1.22Z"/>
  <path d="M991.87,333.66c-18-1.37-36.05-4.14-53.97-3.45-7.71,.3-15.51,7.25-22.57,12.18-3.94,2.75-6.45,7.54-11.08,13.23,3.78-20.05,18.33-31.49,35.68-28.26,14.42,2.69,28.31,6.14,42.75,.27,2.58-1.05,6.35,.81,9.57,1.32-.12,1.57-.24,3.13-.36,4.7Z"/>
  <path d="M423.66,1854.17c9.66,3.83,19.03,9.21,29.05,11.07,10.38,1.92,21.39,.43,32.08,1.83-17.66,9.67-53.11,3.2-61.14-12.9Z"/>
  <path d="M733.72,221.87c-17.29-13.59-34.02-23.21-53.51-5.91,4.23-11.94,12.59-15.86,23.54-15.52,13.57,.42,24.87,7.98,29.97,21.44Z"/>
  <path d="M1180.08,373.7c-19.48-33.85-29.73-40.21-56.51-35.99,5.46-6.99,15.78-8.1,26.43-2.85,17.25,8.5,32.92,27.63,30.08,38.84Z"/>
  <path d="M562.15,1872.17c-8.88,4.97-17.68,10.12-26.76,14.69-1.17,.59-3.85-1.83-5.83-2.86,1.79-3.42,2.85-8.99,5.49-9.88,8.15-2.74,16.9-3.7,25.42-5.36,.56,1.13,1.12,2.27,1.69,3.4Z"/>
  <path d="M1257.41,439.28c-6.83-21.05-15.8-39.77-41.16-43.31,23.12-1.54,43,19.26,41.16,43.31Z"/>
  <path d="M1362.25,202.46c12.21-10.55,28-8.09,34.87,4.9-11.12-1.56-23.57-3.32-34.87-4.9Z"/>
  <path d="M1070.4,322.28h-52.95c11.04-8.23,31.01-9.3,52.95,0Z"/>
  <path d="M1276.57,1497.09c-1.32-3.57-4.29-7.56-3.5-10.58,.76-2.91,5.39-4.81,8.32-7.16l3.29,1.97c-1.07,5.11-2.14,10.22-3.2,15.32-1.63,.15-3.27,.29-4.9,.44Z"/>
  <path d="M1323.39,1467.4c-3.44,6.24-6.88,12.48-11.58,20.99-1.75-4.49-5.1-9.6-4-10.88,4.01-4.67,9.51-8.06,14.45-11.94,.38,.61,.75,1.22,1.13,1.83Z"/>
  <path d="M1335.67,1466.96c6.93-4.97,12.22-8.76,17.92-12.84,1.01,12.87-3.79,16.72-17.92,12.84Z"/>
  <path d="M1253.71,450.15c-6.67,4.58-13.34,9.17-20.01,13.75-.93-1.33-1.86-2.67-2.79-4,6.69-4.55,13.38-9.1,20.07-13.65,.91,1.3,1.82,2.6,2.74,3.9Z"/>
</svg>